solid OpenSCAD_Model
  facet normal -0.425783 0.904825 0
    outer loop
      vertex 1.28598 -2.02639 -4
      vertex 0.74164 -2.28254 4
      vertex 1.28598 -2.02639 4
    endloop
  endfacet
  facet normal -0.425783 0.904825 0
    outer loop
      vertex 0.74164 -2.28254 4
      vertex 1.28598 -2.02639 -4
      vertex 0.74164 -2.28254 -4
    endloop
  endfacet
  facet normal -0.929779 -0.368118 0
    outer loop
      vertex 2.3246 0.596855 -4
      vertex 2.10314 1.15621 4
      vertex 2.10314 1.15621 -4
    endloop
  endfacet
  facet normal -0.929779 -0.368118 0
    outer loop
      vertex 2.10314 1.15621 4
      vertex 2.3246 0.596855 -4
      vertex 2.3246 0.596855 4
    endloop
  endfacet
  facet normal -0.992115 -0.125333 0
    outer loop
      vertex 2.4 0 -4
      vertex 2.3246 0.596855 4
      vertex 2.3246 0.596855 -4
    endloop
  endfacet
  facet normal -0.992115 -0.125333 0
    outer loop
      vertex 2.3246 0.596855 4
      vertex 2.4 0 -4
      vertex 2.4 0 4
    endloop
  endfacet
  facet normal -0.809008 -0.587798 0
    outer loop
      vertex 2.10314 1.15621 -4
      vertex 1.74952 1.64291 4
      vertex 1.74952 1.64291 -4
    endloop
  endfacet
  facet normal -0.809008 -0.587798 0
    outer loop
      vertex 1.74952 1.64291 4
      vertex 2.10314 1.15621 -4
      vertex 2.10314 1.15621 4
    endloop
  endfacet
  facet normal -0.809008 0.587798 0
    outer loop
      vertex 1.74952 -1.64291 -4
      vertex 2.10314 -1.15621 4
      vertex 2.10314 -1.15621 -4
    endloop
  endfacet
  facet normal -0.809008 0.587798 0
    outer loop
      vertex 2.10314 -1.15621 4
      vertex 1.74952 -1.64291 -4
      vertex 1.74952 -1.64291 4
    endloop
  endfacet
  facet normal 0.0627827 -0.998027 0
    outer loop
      vertex -0.449715 2.35749 -4
      vertex 0.150697 2.39526 4
      vertex -0.449715 2.35749 4
    endloop
  endfacet
  facet normal 0.0627827 -0.998027 0
    outer loop
      vertex 0.150697 2.39526 4
      vertex -0.449715 2.35749 -4
      vertex 0.150697 2.39526 -4
    endloop
  endfacet
  facet normal 0.535821 -0.844332 0
    outer loop
      vertex -1.52982 1.84923 -4
      vertex -1.02187 2.17158 4
      vertex -1.52982 1.84923 4
    endloop
  endfacet
  facet normal 0.535821 -0.844332 0
    outer loop
      vertex -1.02187 2.17158 4
      vertex -1.52982 1.84923 -4
      vertex -1.02187 2.17158 -4
    endloop
  endfacet
  facet normal -0.63743 -0.770508 0
    outer loop
      vertex 1.28598 2.02639 -4
      vertex 1.74952 1.64291 4
      vertex 1.28598 2.02639 4
    endloop
  endfacet
  facet normal -0.63743 -0.770508 -0
    outer loop
      vertex 1.74952 1.64291 4
      vertex 1.28598 2.02639 -4
      vertex 1.74952 1.64291 -4
    endloop
  endfacet
  facet normal 0.728973 -0.684542 0
    outer loop
      vertex -1.94164 1.41068 4
      vertex -1.52982 1.84923 -4
      vertex -1.52982 1.84923 4
    endloop
  endfacet
  facet normal 0.728973 -0.684542 0
    outer loop
      vertex -1.52982 1.84923 -4
      vertex -1.94164 1.41068 4
      vertex -1.94164 1.41068 -4
    endloop
  endfacet
  facet normal -0.63743 0.770508 0
    outer loop
      vertex 1.74952 -1.64291 -4
      vertex 1.28598 -2.02639 4
      vertex 1.74952 -1.64291 4
    endloop
  endfacet
  facet normal -0.63743 0.770508 0
    outer loop
      vertex 1.28598 -2.02639 4
      vertex 1.74952 -1.64291 -4
      vertex 1.28598 -2.02639 -4
    endloop
  endfacet
  facet normal -0.187368 0.98229 0
    outer loop
      vertex 0.74164 -2.28254 -4
      vertex 0.150697 -2.39526 4
      vertex 0.74164 -2.28254 4
    endloop
  endfacet
  facet normal -0.187368 0.98229 0
    outer loop
      vertex 0.150697 -2.39526 4
      vertex 0.74164 -2.28254 -4
      vertex 0.150697 -2.39526 -4
    endloop
  endfacet
  facet normal 0.309025 -0.951054 0
    outer loop
      vertex -1.02187 2.17158 -4
      vertex -0.449715 2.35749 4
      vertex -1.02187 2.17158 4
    endloop
  endfacet
  facet normal 0.309025 -0.951054 0
    outer loop
      vertex -0.449715 2.35749 4
      vertex -1.02187 2.17158 -4
      vertex -0.449715 2.35749 -4
    endloop
  endfacet
  facet normal -0.425783 -0.904825 0
    outer loop
      vertex 0.74164 2.28254 -4
      vertex 1.28598 2.02639 4
      vertex 0.74164 2.28254 4
    endloop
  endfacet
  facet normal -0.425783 -0.904825 -0
    outer loop
      vertex 1.28598 2.02639 4
      vertex 0.74164 2.28254 -4
      vertex 1.28598 2.02639 -4
    endloop
  endfacet
  facet normal 0.309025 0.951054 -0
    outer loop
      vertex -0.449715 -2.35749 -4
      vertex -1.02187 -2.17158 4
      vertex -0.449715 -2.35749 4
    endloop
  endfacet
  facet normal 0.309025 0.951054 0
    outer loop
      vertex -1.02187 -2.17158 4
      vertex -0.449715 -2.35749 -4
      vertex -1.02187 -2.17158 -4
    endloop
  endfacet
  facet normal 0.876307 -0.481753 0
    outer loop
      vertex -2.23146 0.883498 4
      vertex -1.94164 1.41068 -4
      vertex -1.94164 1.41068 4
    endloop
  endfacet
  facet normal 0.876307 -0.481753 0
    outer loop
      vertex -1.94164 1.41068 -4
      vertex -2.23146 0.883498 4
      vertex -2.23146 0.883498 -4
    endloop
  endfacet
  facet normal 0.968584 0.248687 0
    outer loop
      vertex -2.23146 -0.883498 4
      vertex -2.38107 -0.300799 -4
      vertex -2.38107 -0.300799 4
    endloop
  endfacet
  facet normal 0.968584 0.248687 0
    outer loop
      vertex -2.38107 -0.300799 -4
      vertex -2.23146 -0.883498 4
      vertex -2.23146 -0.883498 -4
    endloop
  endfacet
  facet normal -0.187368 -0.98229 0
    outer loop
      vertex 0.150697 2.39526 -4
      vertex 0.74164 2.28254 4
      vertex 0.150697 2.39526 4
    endloop
  endfacet
  facet normal -0.187368 -0.98229 -0
    outer loop
      vertex 0.74164 2.28254 4
      vertex 0.150697 2.39526 -4
      vertex 0.74164 2.28254 -4
    endloop
  endfacet
  facet normal -0.929779 0.368118 0
    outer loop
      vertex 2.10314 -1.15621 -4
      vertex 2.3246 -0.596855 4
      vertex 2.3246 -0.596855 -4
    endloop
  endfacet
  facet normal -0.929779 0.368118 0
    outer loop
      vertex 2.3246 -0.596855 4
      vertex 2.10314 -1.15621 -4
      vertex 2.10314 -1.15621 4
    endloop
  endfacet
  facet normal 0.728973 0.684542 0
    outer loop
      vertex -1.52982 -1.84923 4
      vertex -1.94164 -1.41068 -4
      vertex -1.94164 -1.41068 4
    endloop
  endfacet
  facet normal 0.728973 0.684542 0
    outer loop
      vertex -1.94164 -1.41068 -4
      vertex -1.52982 -1.84923 4
      vertex -1.52982 -1.84923 -4
    endloop
  endfacet
  facet normal -0.992115 0.125333 0
    outer loop
      vertex 2.3246 -0.596855 -4
      vertex 2.4 0 4
      vertex 2.4 0 -4
    endloop
  endfacet
  facet normal -0.992115 0.125333 0
    outer loop
      vertex 2.4 0 4
      vertex 2.3246 -0.596855 -4
      vertex 2.3246 -0.596855 4
    endloop
  endfacet
  facet normal 0.535821 0.844332 -0
    outer loop
      vertex -1.02187 -2.17158 -4
      vertex -1.52982 -1.84923 4
      vertex -1.02187 -2.17158 4
    endloop
  endfacet
  facet normal 0.535821 0.844332 0
    outer loop
      vertex -1.52982 -1.84923 4
      vertex -1.02187 -2.17158 -4
      vertex -1.52982 -1.84923 -4
    endloop
  endfacet
  facet normal 0.876307 0.481753 0
    outer loop
      vertex -1.94164 -1.41068 4
      vertex -2.23146 -0.883498 -4
      vertex -2.23146 -0.883498 4
    endloop
  endfacet
  facet normal 0.876307 0.481753 0
    outer loop
      vertex -2.23146 -0.883498 -4
      vertex -1.94164 -1.41068 4
      vertex -1.94164 -1.41068 -4
    endloop
  endfacet
  facet normal 0.0627827 0.998027 -0
    outer loop
      vertex 0.150697 -2.39526 -4
      vertex -0.449715 -2.35749 4
      vertex 0.150697 -2.39526 4
    endloop
  endfacet
  facet normal 0.0627827 0.998027 0
    outer loop
      vertex -0.449715 -2.35749 4
      vertex 0.150697 -2.39526 -4
      vertex -0.449715 -2.35749 -4
    endloop
  endfacet
  facet normal 1 -0 0
    outer loop
      vertex -2.38107 -0.300799 4
      vertex -2.38107 0.300799 -4
      vertex -2.38107 0.300799 4
    endloop
  endfacet
  facet normal 1 0 0
    outer loop
      vertex -2.38107 0.300799 -4
      vertex -2.38107 -0.300799 4
      vertex -2.38107 -0.300799 -4
    endloop
  endfacet
  facet normal 0.968584 -0.248687 0
    outer loop
      vertex -2.38107 0.300799 4
      vertex -2.23146 0.883498 -4
      vertex -2.23146 0.883498 4
    endloop
  endfacet
  facet normal 0.968584 -0.248687 0
    outer loop
      vertex -2.23146 0.883498 -4
      vertex -2.38107 0.300799 4
      vertex -2.38107 0.300799 -4
    endloop
  endfacet
  facet normal -0.425783 0.904825 0
    outer loop
      vertex 9.28598 -2.02639 -4
      vertex 8.74164 -2.28254 4
      vertex 9.28598 -2.02639 4
    endloop
  endfacet
  facet normal -0.425783 0.904825 0
    outer loop
      vertex 8.74164 -2.28254 4
      vertex 9.28598 -2.02639 -4
      vertex 8.74164 -2.28254 -4
    endloop
  endfacet
  facet normal -0.929756 -0.368176 0
    outer loop
      vertex 10.3246 0.596855 -4
      vertex 10.1031 1.15621 4
      vertex 10.1031 1.15621 -4
    endloop
  endfacet
  facet normal -0.929756 -0.368176 0
    outer loop
      vertex 10.1031 1.15621 4
      vertex 10.3246 0.596855 -4
      vertex 10.3246 0.596855 4
    endloop
  endfacet
  facet normal -0.992115 -0.125333 0
    outer loop
      vertex 10.4 0 -4
      vertex 10.3246 0.596855 4
      vertex 10.3246 0.596855 -4
    endloop
  endfacet
  facet normal -0.992115 -0.125333 0
    outer loop
      vertex 10.3246 0.596855 4
      vertex 10.4 0 -4
      vertex 10.4 0 4
    endloop
  endfacet
  facet normal -0.809039 -0.587755 0
    outer loop
      vertex 10.1031 1.15621 -4
      vertex 9.74952 1.64291 4
      vertex 9.74952 1.64291 -4
    endloop
  endfacet
  facet normal -0.809039 -0.587755 0
    outer loop
      vertex 9.74952 1.64291 4
      vertex 10.1031 1.15621 -4
      vertex 10.1031 1.15621 4
    endloop
  endfacet
  facet normal -0.809039 0.587755 0
    outer loop
      vertex 9.74952 -1.64291 -4
      vertex 10.1031 -1.15621 4
      vertex 10.1031 -1.15621 -4
    endloop
  endfacet
  facet normal -0.809039 0.587755 0
    outer loop
      vertex 10.1031 -1.15621 4
      vertex 9.74952 -1.64291 -4
      vertex 9.74952 -1.64291 4
    endloop
  endfacet
  facet normal 0.0627819 -0.998027 0
    outer loop
      vertex 7.55028 2.35749 -4
      vertex 8.1507 2.39526 4
      vertex 7.55028 2.35749 4
    endloop
  endfacet
  facet normal 0.0627819 -0.998027 0
    outer loop
      vertex 8.1507 2.39526 4
      vertex 7.55028 2.35749 -4
      vertex 8.1507 2.39526 -4
    endloop
  endfacet
  facet normal 0.535821 -0.844332 0
    outer loop
      vertex 6.47018 1.84923 -4
      vertex 6.97813 2.17158 4
      vertex 6.47018 1.84923 4
    endloop
  endfacet
  facet normal 0.535821 -0.844332 0
    outer loop
      vertex 6.97813 2.17158 4
      vertex 6.47018 1.84923 -4
      vertex 6.97813 2.17158 -4
    endloop
  endfacet
  facet normal -0.63743 -0.770508 0
    outer loop
      vertex 9.28598 2.02639 -4
      vertex 9.74952 1.64291 4
      vertex 9.28598 2.02639 4
    endloop
  endfacet
  facet normal -0.63743 -0.770508 -0
    outer loop
      vertex 9.74952 1.64291 4
      vertex 9.28598 2.02639 -4
      vertex 9.74952 1.64291 -4
    endloop
  endfacet
  facet normal 0.728973 -0.684542 0
    outer loop
      vertex 6.05836 1.41068 4
      vertex 6.47018 1.84923 -4
      vertex 6.47018 1.84923 4
    endloop
  endfacet
  facet normal 0.728973 -0.684542 0
    outer loop
      vertex 6.47018 1.84923 -4
      vertex 6.05836 1.41068 4
      vertex 6.05836 1.41068 -4
    endloop
  endfacet
  facet normal -0.63743 0.770508 0
    outer loop
      vertex 9.74952 -1.64291 -4
      vertex 9.28598 -2.02639 4
      vertex 9.74952 -1.64291 4
    endloop
  endfacet
  facet normal -0.63743 0.770508 0
    outer loop
      vertex 9.28598 -2.02639 4
      vertex 9.74952 -1.64291 -4
      vertex 9.28598 -2.02639 -4
    endloop
  endfacet
  facet normal -0.187369 0.98229 0
    outer loop
      vertex 8.74164 -2.28254 -4
      vertex 8.1507 -2.39526 4
      vertex 8.74164 -2.28254 4
    endloop
  endfacet
  facet normal -0.187369 0.98229 0
    outer loop
      vertex 8.1507 -2.39526 4
      vertex 8.74164 -2.28254 -4
      vertex 8.1507 -2.39526 -4
    endloop
  endfacet
  facet normal 0.309028 -0.951053 0
    outer loop
      vertex 6.97813 2.17158 -4
      vertex 7.55028 2.35749 4
      vertex 6.97813 2.17158 4
    endloop
  endfacet
  facet normal 0.309028 -0.951053 0
    outer loop
      vertex 7.55028 2.35749 4
      vertex 6.97813 2.17158 -4
      vertex 7.55028 2.35749 -4
    endloop
  endfacet
  facet normal -0.425783 -0.904825 0
    outer loop
      vertex 8.74164 2.28254 -4
      vertex 9.28598 2.02639 4
      vertex 8.74164 2.28254 4
    endloop
  endfacet
  facet normal -0.425783 -0.904825 -0
    outer loop
      vertex 9.28598 2.02639 4
      vertex 8.74164 2.28254 -4
      vertex 9.28598 2.02639 -4
    endloop
  endfacet
  facet normal 0.309028 0.951053 -0
    outer loop
      vertex 7.55028 -2.35749 -4
      vertex 6.97813 -2.17158 4
      vertex 7.55028 -2.35749 4
    endloop
  endfacet
  facet normal 0.309028 0.951053 0
    outer loop
      vertex 6.97813 -2.17158 4
      vertex 7.55028 -2.35749 -4
      vertex 6.97813 -2.17158 -4
    endloop
  endfacet
  facet normal 0.876307 -0.481753 0
    outer loop
      vertex 5.76854 0.883498 4
      vertex 6.05836 1.41068 -4
      vertex 6.05836 1.41068 4
    endloop
  endfacet
  facet normal 0.876307 -0.481753 0
    outer loop
      vertex 6.05836 1.41068 -4
      vertex 5.76854 0.883498 4
      vertex 5.76854 0.883498 -4
    endloop
  endfacet
  facet normal 0.96858 0.248703 0
    outer loop
      vertex 5.76854 -0.883498 4
      vertex 5.61892 -0.300799 -4
      vertex 5.61892 -0.300799 4
    endloop
  endfacet
  facet normal 0.96858 0.248703 0
    outer loop
      vertex 5.61892 -0.300799 -4
      vertex 5.76854 -0.883498 4
      vertex 5.76854 -0.883498 -4
    endloop
  endfacet
  facet normal -0.187369 -0.98229 0
    outer loop
      vertex 8.1507 2.39526 -4
      vertex 8.74164 2.28254 4
      vertex 8.1507 2.39526 4
    endloop
  endfacet
  facet normal -0.187369 -0.98229 -0
    outer loop
      vertex 8.74164 2.28254 4
      vertex 8.1507 2.39526 -4
      vertex 8.74164 2.28254 -4
    endloop
  endfacet
  facet normal -0.929756 0.368176 0
    outer loop
      vertex 10.1031 -1.15621 -4
      vertex 10.3246 -0.596855 4
      vertex 10.3246 -0.596855 -4
    endloop
  endfacet
  facet normal -0.929756 0.368176 0
    outer loop
      vertex 10.3246 -0.596855 4
      vertex 10.1031 -1.15621 -4
      vertex 10.1031 -1.15621 4
    endloop
  endfacet
  facet normal 0.728973 0.684542 0
    outer loop
      vertex 6.47018 -1.84923 4
      vertex 6.05836 -1.41068 -4
      vertex 6.05836 -1.41068 4
    endloop
  endfacet
  facet normal 0.728973 0.684542 0
    outer loop
      vertex 6.05836 -1.41068 -4
      vertex 6.47018 -1.84923 4
      vertex 6.47018 -1.84923 -4
    endloop
  endfacet
  facet normal -0.992115 0.125333 0
    outer loop
      vertex 10.3246 -0.596855 -4
      vertex 10.4 0 4
      vertex 10.4 0 -4
    endloop
  endfacet
  facet normal -0.992115 0.125333 0
    outer loop
      vertex 10.4 0 4
      vertex 10.3246 -0.596855 -4
      vertex 10.3246 -0.596855 4
    endloop
  endfacet
  facet normal 0.535821 0.844332 -0
    outer loop
      vertex 6.97813 -2.17158 -4
      vertex 6.47018 -1.84923 4
      vertex 6.97813 -2.17158 4
    endloop
  endfacet
  facet normal 0.535821 0.844332 0
    outer loop
      vertex 6.47018 -1.84923 4
      vertex 6.97813 -2.17158 -4
      vertex 6.47018 -1.84923 -4
    endloop
  endfacet
  facet normal 0.876307 0.481753 0
    outer loop
      vertex 6.05836 -1.41068 4
      vertex 5.76854 -0.883498 -4
      vertex 5.76854 -0.883498 4
    endloop
  endfacet
  facet normal 0.876307 0.481753 0
    outer loop
      vertex 5.76854 -0.883498 -4
      vertex 6.05836 -1.41068 4
      vertex 6.05836 -1.41068 -4
    endloop
  endfacet
  facet normal 0.0627819 0.998027 -0
    outer loop
      vertex 8.1507 -2.39526 -4
      vertex 7.55028 -2.35749 4
      vertex 8.1507 -2.39526 4
    endloop
  endfacet
  facet normal 0.0627819 0.998027 0
    outer loop
      vertex 7.55028 -2.35749 4
      vertex 8.1507 -2.39526 -4
      vertex 7.55028 -2.35749 -4
    endloop
  endfacet
  facet normal 1 -0 0
    outer loop
      vertex 5.61892 -0.300799 4
      vertex 5.61892 0.300799 -4
      vertex 5.61892 0.300799 4
    endloop
  endfacet
  facet normal 1 0 0
    outer loop
      vertex 5.61892 0.300799 -4
      vertex 5.61892 -0.300799 4
      vertex 5.61892 -0.300799 -4
    endloop
  endfacet
  facet normal 0.96858 -0.248703 0
    outer loop
      vertex 5.61892 0.300799 4
      vertex 5.76854 0.883498 -4
      vertex 5.76854 0.883498 4
    endloop
  endfacet
  facet normal 0.96858 -0.248703 0
    outer loop
      vertex 5.76854 0.883498 -4
      vertex 5.61892 0.300799 4
      vertex 5.61892 0.300799 -4
    endloop
  endfacet
  facet normal -0.425715 0.904857 0
    outer loop
      vertex 1.28598 37.9736 -4
      vertex 0.74164 37.7175 4
      vertex 1.28598 37.9736 4
    endloop
  endfacet
  facet normal -0.425715 0.904857 0
    outer loop
      vertex 0.74164 37.7175 4
      vertex 1.28598 37.9736 -4
      vertex 0.74164 37.7175 -4
    endloop
  endfacet
  facet normal -0.929767 -0.36815 0
    outer loop
      vertex 2.3246 40.5969 -4
      vertex 2.10314 41.1562 4
      vertex 2.10314 41.1562 -4
    endloop
  endfacet
  facet normal -0.929767 -0.36815 0
    outer loop
      vertex 2.10314 41.1562 4
      vertex 2.3246 40.5969 -4
      vertex 2.3246 40.5969 4
    endloop
  endfacet
  facet normal -0.992116 -0.125323 0
    outer loop
      vertex 2.4 40 -4
      vertex 2.3246 40.5969 4
      vertex 2.3246 40.5969 -4
    endloop
  endfacet
  facet normal -0.992116 -0.125323 0
    outer loop
      vertex 2.3246 40.5969 4
      vertex 2.4 40 -4
      vertex 2.4 40 4
    endloop
  endfacet
  facet normal -0.809008 -0.587798 0
    outer loop
      vertex 2.10314 41.1562 -4
      vertex 1.74952 41.6429 4
      vertex 1.74952 41.6429 -4
    endloop
  endfacet
  facet normal -0.809008 -0.587798 0
    outer loop
      vertex 1.74952 41.6429 4
      vertex 2.10314 41.1562 -4
      vertex 2.10314 41.1562 4
    endloop
  endfacet
  facet normal -0.809008 0.587798 0
    outer loop
      vertex 1.74952 38.3571 -4
      vertex 2.10314 38.8438 4
      vertex 2.10314 38.8438 -4
    endloop
  endfacet
  facet normal -0.809008 0.587798 0
    outer loop
      vertex 2.10314 38.8438 4
      vertex 1.74952 38.3571 -4
      vertex 1.74952 38.3571 4
    endloop
  endfacet
  facet normal 0.0628324 -0.998024 0
    outer loop
      vertex -0.449715 42.3575 -4
      vertex 0.150697 42.3953 4
      vertex -0.449715 42.3575 4
    endloop
  endfacet
  facet normal 0.0628324 -0.998024 0
    outer loop
      vertex 0.150697 42.3953 4
      vertex -0.449715 42.3575 -4
      vertex 0.150697 42.3953 -4
    endloop
  endfacet
  facet normal 0.53588 -0.844294 0
    outer loop
      vertex -1.52982 41.8492 -4
      vertex -1.02187 42.1716 4
      vertex -1.52982 41.8492 4
    endloop
  endfacet
  facet normal 0.53588 -0.844294 0
    outer loop
      vertex -1.02187 42.1716 4
      vertex -1.52982 41.8492 -4
      vertex -1.02187 42.1716 -4
    endloop
  endfacet
  facet normal -0.63745 -0.770492 0
    outer loop
      vertex 1.28598 42.0264 -4
      vertex 1.74952 41.6429 4
      vertex 1.28598 42.0264 4
    endloop
  endfacet
  facet normal -0.63745 -0.770492 -0
    outer loop
      vertex 1.74952 41.6429 4
      vertex 1.28598 42.0264 -4
      vertex 1.74952 41.6429 -4
    endloop
  endfacet
  facet normal 0.728935 -0.684583 0
    outer loop
      vertex -1.94164 41.4107 4
      vertex -1.52982 41.8492 -4
      vertex -1.52982 41.8492 4
    endloop
  endfacet
  facet normal 0.728935 -0.684583 0
    outer loop
      vertex -1.52982 41.8492 -4
      vertex -1.94164 41.4107 4
      vertex -1.94164 41.4107 -4
    endloop
  endfacet
  facet normal -0.63745 0.770492 0
    outer loop
      vertex 1.74952 38.3571 -4
      vertex 1.28598 37.9736 4
      vertex 1.74952 38.3571 4
    endloop
  endfacet
  facet normal -0.63745 0.770492 0
    outer loop
      vertex 1.28598 37.9736 4
      vertex 1.74952 38.3571 -4
      vertex 1.28598 37.9736 -4
    endloop
  endfacet
  facet normal -0.187496 0.982265 0
    outer loop
      vertex 0.74164 37.7175 -4
      vertex 0.150697 37.6047 4
      vertex 0.74164 37.7175 4
    endloop
  endfacet
  facet normal -0.187496 0.982265 0
    outer loop
      vertex 0.150697 37.6047 4
      vertex 0.74164 37.7175 -4
      vertex 0.150697 37.6047 -4
    endloop
  endfacet
  facet normal 0.30901 -0.951059 0
    outer loop
      vertex -1.02187 42.1716 -4
      vertex -0.449715 42.3575 4
      vertex -1.02187 42.1716 4
    endloop
  endfacet
  facet normal 0.30901 -0.951059 0
    outer loop
      vertex -0.449715 42.3575 4
      vertex -1.02187 42.1716 -4
      vertex -0.449715 42.3575 -4
    endloop
  endfacet
  facet normal -0.425715 -0.904857 0
    outer loop
      vertex 0.74164 42.2825 -4
      vertex 1.28598 42.0264 4
      vertex 0.74164 42.2825 4
    endloop
  endfacet
  facet normal -0.425715 -0.904857 -0
    outer loop
      vertex 1.28598 42.0264 4
      vertex 0.74164 42.2825 -4
      vertex 1.28598 42.0264 -4
    endloop
  endfacet
  facet normal 0.30901 0.951059 -0
    outer loop
      vertex -0.449715 37.6425 -4
      vertex -1.02187 37.8284 4
      vertex -0.449715 37.6425 4
    endloop
  endfacet
  facet normal 0.30901 0.951059 0
    outer loop
      vertex -1.02187 37.8284 4
      vertex -0.449715 37.6425 -4
      vertex -1.02187 37.8284 -4
    endloop
  endfacet
  facet normal 0.876314 -0.48174 0
    outer loop
      vertex -2.23146 40.8835 4
      vertex -1.94164 41.4107 -4
      vertex -1.94164 41.4107 4
    endloop
  endfacet
  facet normal 0.876314 -0.48174 0
    outer loop
      vertex -1.94164 41.4107 -4
      vertex -2.23146 40.8835 4
      vertex -2.23146 40.8835 -4
    endloop
  endfacet
  facet normal 0.968584 0.248687 0
    outer loop
      vertex -2.23146 39.1165 4
      vertex -2.38107 39.6992 -4
      vertex -2.38107 39.6992 4
    endloop
  endfacet
  facet normal 0.968584 0.248687 0
    outer loop
      vertex -2.38107 39.6992 -4
      vertex -2.23146 39.1165 4
      vertex -2.23146 39.1165 -4
    endloop
  endfacet
  facet normal -0.187496 -0.982265 0
    outer loop
      vertex 0.150697 42.3953 -4
      vertex 0.74164 42.2825 4
      vertex 0.150697 42.3953 4
    endloop
  endfacet
  facet normal -0.187496 -0.982265 -0
    outer loop
      vertex 0.74164 42.2825 4
      vertex 0.150697 42.3953 -4
      vertex 0.74164 42.2825 -4
    endloop
  endfacet
  facet normal -0.929767 0.36815 0
    outer loop
      vertex 2.10314 38.8438 -4
      vertex 2.3246 39.4031 4
      vertex 2.3246 39.4031 -4
    endloop
  endfacet
  facet normal -0.929767 0.36815 0
    outer loop
      vertex 2.3246 39.4031 4
      vertex 2.10314 38.8438 -4
      vertex 2.10314 38.8438 4
    endloop
  endfacet
  facet normal 0.728935 0.684583 0
    outer loop
      vertex -1.52982 38.1508 4
      vertex -1.94164 38.5893 -4
      vertex -1.94164 38.5893 4
    endloop
  endfacet
  facet normal 0.728935 0.684583 0
    outer loop
      vertex -1.94164 38.5893 -4
      vertex -1.52982 38.1508 4
      vertex -1.52982 38.1508 -4
    endloop
  endfacet
  facet normal -0.992116 0.125323 0
    outer loop
      vertex 2.3246 39.4031 -4
      vertex 2.4 40 4
      vertex 2.4 40 -4
    endloop
  endfacet
  facet normal -0.992116 0.125323 0
    outer loop
      vertex 2.4 40 4
      vertex 2.3246 39.4031 -4
      vertex 2.3246 39.4031 4
    endloop
  endfacet
  facet normal 0.53588 0.844294 -0
    outer loop
      vertex -1.02187 37.8284 -4
      vertex -1.52982 38.1508 4
      vertex -1.02187 37.8284 4
    endloop
  endfacet
  facet normal 0.53588 0.844294 0
    outer loop
      vertex -1.52982 38.1508 4
      vertex -1.02187 37.8284 -4
      vertex -1.52982 38.1508 -4
    endloop
  endfacet
  facet normal 0.876314 0.48174 0
    outer loop
      vertex -1.94164 38.5893 4
      vertex -2.23146 39.1165 -4
      vertex -2.23146 39.1165 4
    endloop
  endfacet
  facet normal 0.876314 0.48174 0
    outer loop
      vertex -2.23146 39.1165 -4
      vertex -1.94164 38.5893 4
      vertex -1.94164 38.5893 -4
    endloop
  endfacet
  facet normal 0.0628324 0.998024 -0
    outer loop
      vertex 0.150697 37.6047 -4
      vertex -0.449715 37.6425 4
      vertex 0.150697 37.6047 4
    endloop
  endfacet
  facet normal 0.0628324 0.998024 0
    outer loop
      vertex -0.449715 37.6425 4
      vertex 0.150697 37.6047 -4
      vertex -0.449715 37.6425 -4
    endloop
  endfacet
  facet normal 1 -0 0
    outer loop
      vertex -2.38107 39.6992 4
      vertex -2.38107 40.3008 -4
      vertex -2.38107 40.3008 4
    endloop
  endfacet
  facet normal 1 0 0
    outer loop
      vertex -2.38107 40.3008 -4
      vertex -2.38107 39.6992 4
      vertex -2.38107 39.6992 -4
    endloop
  endfacet
  facet normal 0.968584 -0.248687 0
    outer loop
      vertex -2.38107 40.3008 4
      vertex -2.23146 40.8835 -4
      vertex -2.23146 40.8835 4
    endloop
  endfacet
  facet normal 0.968584 -0.248687 0
    outer loop
      vertex -2.23146 40.8835 -4
      vertex -2.38107 40.3008 4
      vertex -2.38107 40.3008 -4
    endloop
  endfacet
  facet normal -0.425715 0.904857 0
    outer loop
      vertex 9.28598 37.9736 -4
      vertex 8.74164 37.7175 4
      vertex 9.28598 37.9736 4
    endloop
  endfacet
  facet normal -0.425715 0.904857 0
    outer loop
      vertex 8.74164 37.7175 4
      vertex 9.28598 37.9736 -4
      vertex 8.74164 37.7175 -4
    endloop
  endfacet
  facet normal -0.929744 -0.368207 0
    outer loop
      vertex 10.3246 40.5969 -4
      vertex 10.1031 41.1562 4
      vertex 10.1031 41.1562 -4
    endloop
  endfacet
  facet normal -0.929744 -0.368207 0
    outer loop
      vertex 10.1031 41.1562 4
      vertex 10.3246 40.5969 -4
      vertex 10.3246 40.5969 4
    endloop
  endfacet
  facet normal -0.992116 -0.125323 0
    outer loop
      vertex 10.4 40 -4
      vertex 10.3246 40.5969 4
      vertex 10.3246 40.5969 -4
    endloop
  endfacet
  facet normal -0.992116 -0.125323 0
    outer loop
      vertex 10.3246 40.5969 4
      vertex 10.4 40 -4
      vertex 10.4 40 4
    endloop
  endfacet
  facet normal -0.809039 -0.587755 0
    outer loop
      vertex 10.1031 41.1562 -4
      vertex 9.74952 41.6429 4
      vertex 9.74952 41.6429 -4
    endloop
  endfacet
  facet normal -0.809039 -0.587755 0
    outer loop
      vertex 9.74952 41.6429 4
      vertex 10.1031 41.1562 -4
      vertex 10.1031 41.1562 4
    endloop
  endfacet
  facet normal -0.809039 0.587755 0
    outer loop
      vertex 9.74952 38.3571 -4
      vertex 10.1031 38.8438 4
      vertex 10.1031 38.8438 -4
    endloop
  endfacet
  facet normal -0.809039 0.587755 0
    outer loop
      vertex 10.1031 38.8438 4
      vertex 9.74952 38.3571 -4
      vertex 9.74952 38.3571 4
    endloop
  endfacet
  facet normal 0.0628315 -0.998024 0
    outer loop
      vertex 7.55028 42.3575 -4
      vertex 8.1507 42.3953 4
      vertex 7.55028 42.3575 4
    endloop
  endfacet
  facet normal 0.0628315 -0.998024 0
    outer loop
      vertex 8.1507 42.3953 4
      vertex 7.55028 42.3575 -4
      vertex 8.1507 42.3953 -4
    endloop
  endfacet
  facet normal 0.53588 -0.844294 0
    outer loop
      vertex 6.47018 41.8492 -4
      vertex 6.97813 42.1716 4
      vertex 6.47018 41.8492 4
    endloop
  endfacet
  facet normal 0.53588 -0.844294 0
    outer loop
      vertex 6.97813 42.1716 4
      vertex 6.47018 41.8492 -4
      vertex 6.97813 42.1716 -4
    endloop
  endfacet
  facet normal -0.63745 -0.770492 0
    outer loop
      vertex 9.28598 42.0264 -4
      vertex 9.74952 41.6429 4
      vertex 9.28598 42.0264 4
    endloop
  endfacet
  facet normal -0.63745 -0.770492 -0
    outer loop
      vertex 9.74952 41.6429 4
      vertex 9.28598 42.0264 -4
      vertex 9.74952 41.6429 -4
    endloop
  endfacet
  facet normal 0.728935 -0.684583 0
    outer loop
      vertex 6.05836 41.4107 4
      vertex 6.47018 41.8492 -4
      vertex 6.47018 41.8492 4
    endloop
  endfacet
  facet normal 0.728935 -0.684583 0
    outer loop
      vertex 6.47018 41.8492 -4
      vertex 6.05836 41.4107 4
      vertex 6.05836 41.4107 -4
    endloop
  endfacet
  facet normal -0.63745 0.770492 0
    outer loop
      vertex 9.74952 38.3571 -4
      vertex 9.28598 37.9736 4
      vertex 9.74952 38.3571 4
    endloop
  endfacet
  facet normal -0.63745 0.770492 0
    outer loop
      vertex 9.28598 37.9736 4
      vertex 9.74952 38.3571 -4
      vertex 9.28598 37.9736 -4
    endloop
  endfacet
  facet normal -0.187497 0.982265 0
    outer loop
      vertex 8.74164 37.7175 -4
      vertex 8.1507 37.6047 4
      vertex 8.74164 37.7175 4
    endloop
  endfacet
  facet normal -0.187497 0.982265 0
    outer loop
      vertex 8.1507 37.6047 4
      vertex 8.74164 37.7175 -4
      vertex 8.1507 37.6047 -4
    endloop
  endfacet
  facet normal 0.309013 -0.951058 0
    outer loop
      vertex 6.97813 42.1716 -4
      vertex 7.55028 42.3575 4
      vertex 6.97813 42.1716 4
    endloop
  endfacet
  facet normal 0.309013 -0.951058 0
    outer loop
      vertex 7.55028 42.3575 4
      vertex 6.97813 42.1716 -4
      vertex 7.55028 42.3575 -4
    endloop
  endfacet
  facet normal -0.425715 -0.904857 0
    outer loop
      vertex 8.74164 42.2825 -4
      vertex 9.28598 42.0264 4
      vertex 8.74164 42.2825 4
    endloop
  endfacet
  facet normal -0.425715 -0.904857 -0
    outer loop
      vertex 9.28598 42.0264 4
      vertex 8.74164 42.2825 -4
      vertex 9.28598 42.0264 -4
    endloop
  endfacet
  facet normal 0.309013 0.951058 -0
    outer loop
      vertex 7.55028 37.6425 -4
      vertex 6.97813 37.8284 4
      vertex 7.55028 37.6425 4
    endloop
  endfacet
  facet normal 0.309013 0.951058 0
    outer loop
      vertex 6.97813 37.8284 4
      vertex 7.55028 37.6425 -4
      vertex 6.97813 37.8284 -4
    endloop
  endfacet
  facet normal 0.876314 -0.48174 0
    outer loop
      vertex 5.76854 40.8835 4
      vertex 6.05836 41.4107 -4
      vertex 6.05836 41.4107 4
    endloop
  endfacet
  facet normal 0.876314 -0.48174 0
    outer loop
      vertex 6.05836 41.4107 -4
      vertex 5.76854 40.8835 4
      vertex 5.76854 40.8835 -4
    endloop
  endfacet
  facet normal 0.96858 0.248702 0
    outer loop
      vertex 5.76854 39.1165 4
      vertex 5.61892 39.6992 -4
      vertex 5.61892 39.6992 4
    endloop
  endfacet
  facet normal 0.96858 0.248702 0
    outer loop
      vertex 5.61892 39.6992 -4
      vertex 5.76854 39.1165 4
      vertex 5.76854 39.1165 -4
    endloop
  endfacet
  facet normal -0.187497 -0.982265 0
    outer loop
      vertex 8.1507 42.3953 -4
      vertex 8.74164 42.2825 4
      vertex 8.1507 42.3953 4
    endloop
  endfacet
  facet normal -0.187497 -0.982265 -0
    outer loop
      vertex 8.74164 42.2825 4
      vertex 8.1507 42.3953 -4
      vertex 8.74164 42.2825 -4
    endloop
  endfacet
  facet normal -0.929744 0.368207 0
    outer loop
      vertex 10.1031 38.8438 -4
      vertex 10.3246 39.4031 4
      vertex 10.3246 39.4031 -4
    endloop
  endfacet
  facet normal -0.929744 0.368207 0
    outer loop
      vertex 10.3246 39.4031 4
      vertex 10.1031 38.8438 -4
      vertex 10.1031 38.8438 4
    endloop
  endfacet
  facet normal 0.728935 0.684583 0
    outer loop
      vertex 6.47018 38.1508 4
      vertex 6.05836 38.5893 -4
      vertex 6.05836 38.5893 4
    endloop
  endfacet
  facet normal 0.728935 0.684583 0
    outer loop
      vertex 6.05836 38.5893 -4
      vertex 6.47018 38.1508 4
      vertex 6.47018 38.1508 -4
    endloop
  endfacet
  facet normal -0.992116 0.125323 0
    outer loop
      vertex 10.3246 39.4031 -4
      vertex 10.4 40 4
      vertex 10.4 40 -4
    endloop
  endfacet
  facet normal -0.992116 0.125323 0
    outer loop
      vertex 10.4 40 4
      vertex 10.3246 39.4031 -4
      vertex 10.3246 39.4031 4
    endloop
  endfacet
  facet normal 0.53588 0.844294 -0
    outer loop
      vertex 6.97813 37.8284 -4
      vertex 6.47018 38.1508 4
      vertex 6.97813 37.8284 4
    endloop
  endfacet
  facet normal 0.53588 0.844294 0
    outer loop
      vertex 6.47018 38.1508 4
      vertex 6.97813 37.8284 -4
      vertex 6.47018 38.1508 -4
    endloop
  endfacet
  facet normal 0.876314 0.48174 0
    outer loop
      vertex 6.05836 38.5893 4
      vertex 5.76854 39.1165 -4
      vertex 5.76854 39.1165 4
    endloop
  endfacet
  facet normal 0.876314 0.48174 0
    outer loop
      vertex 5.76854 39.1165 -4
      vertex 6.05836 38.5893 4
      vertex 6.05836 38.5893 -4
    endloop
  endfacet
  facet normal 0.0628315 0.998024 -0
    outer loop
      vertex 8.1507 37.6047 -4
      vertex 7.55028 37.6425 4
      vertex 8.1507 37.6047 4
    endloop
  endfacet
  facet normal 0.0628315 0.998024 0
    outer loop
      vertex 7.55028 37.6425 4
      vertex 8.1507 37.6047 -4
      vertex 7.55028 37.6425 -4
    endloop
  endfacet
  facet normal 1 -0 0
    outer loop
      vertex 5.61892 39.6992 4
      vertex 5.61892 40.3008 -4
      vertex 5.61892 40.3008 4
    endloop
  endfacet
  facet normal 1 0 0
    outer loop
      vertex 5.61892 40.3008 -4
      vertex 5.61892 39.6992 4
      vertex 5.61892 39.6992 -4
    endloop
  endfacet
  facet normal 0.96858 -0.248702 0
    outer loop
      vertex 5.61892 40.3008 4
      vertex 5.76854 40.8835 -4
      vertex 5.76854 40.8835 4
    endloop
  endfacet
  facet normal 0.96858 -0.248702 0
    outer loop
      vertex 5.76854 40.8835 -4
      vertex 5.61892 40.3008 4
      vertex 5.61892 40.3008 -4
    endloop
  endfacet
  facet normal 0 0 -1
    outer loop
      vertex 12 44 -4
      vertex 10.3246 39.4031 -4
      vertex 10.4 40 -4
    endloop
  endfacet
  facet normal 0 0 -1
    outer loop
      vertex 10.5 30 -4
      vertex 10.1031 38.8438 -4
      vertex 10.3246 39.4031 -4
    endloop
  endfacet
  facet normal 0 0 -1
    outer loop
      vertex 10.5 30 -4
      vertex 9.74952 38.3571 -4
      vertex 10.1031 38.8438 -4
    endloop
  endfacet
  facet normal 0 0 -1
    outer loop
      vertex 10.5 30 -4
      vertex 9.28598 37.9736 -4
      vertex 9.74952 38.3571 -4
    endloop
  endfacet
  facet normal 0 0 -1
    outer loop
      vertex 10.5 30 -4
      vertex 8.74164 37.7175 -4
      vertex 9.28598 37.9736 -4
    endloop
  endfacet
  facet normal 0 0 -1
    outer loop
      vertex 10.5 30 -4
      vertex 8.1507 37.6047 -4
      vertex 8.74164 37.7175 -4
    endloop
  endfacet
  facet normal 0 0 -1
    outer loop
      vertex 10.5 30 -4
      vertex 7.55028 37.6425 -4
      vertex 8.1507 37.6047 -4
    endloop
  endfacet
  facet normal 0 0 -1
    outer loop
      vertex 10.5 30 -4
      vertex 6.97813 37.8284 -4
      vertex 7.55028 37.6425 -4
    endloop
  endfacet
  facet normal 0 0 -1
    outer loop
      vertex 1.28598 37.9736 -4
      vertex 6.97813 37.8284 -4
      vertex 10.5 30 -4
    endloop
  endfacet
  facet normal 0 0 -1
    outer loop
      vertex 6.97813 37.8284 -4
      vertex 1.28598 37.9736 -4
      vertex 6.47018 38.1508 -4
    endloop
  endfacet
  facet normal 0 -0 -1
    outer loop
      vertex 1.74952 38.3571 -4
      vertex 6.47018 38.1508 -4
      vertex 1.28598 37.9736 -4
    endloop
  endfacet
  facet normal 0 0 -1
    outer loop
      vertex 5.61892 39.6992 -4
      vertex 2.4 40 -4
      vertex 5.61892 40.3008 -4
    endloop
  endfacet
  facet normal 0 0 -1
    outer loop
      vertex 2.3246 39.4031 -4
      vertex 5.61892 39.6992 -4
      vertex 5.76854 39.1165 -4
    endloop
  endfacet
  facet normal 0 0 -1
    outer loop
      vertex 6.47018 38.1508 -4
      vertex 1.74952 38.3571 -4
      vertex 6.05836 38.5893 -4
    endloop
  endfacet
  facet normal -0 0 -1
    outer loop
      vertex 5.61892 39.6992 -4
      vertex 2.3246 39.4031 -4
      vertex 2.4 40 -4
    endloop
  endfacet
  facet normal -0 0 -1
    outer loop
      vertex 5.76854 39.1165 -4
      vertex 2.10314 38.8438 -4
      vertex 2.3246 39.4031 -4
    endloop
  endfacet
  facet normal 0 0 -1
    outer loop
      vertex 6.05836 38.5893 -4
      vertex 2.10314 38.8438 -4
      vertex 5.76854 39.1165 -4
    endloop
  endfacet
  facet normal 0 -0 -1
    outer loop
      vertex 2.10314 38.8438 -4
      vertex 6.05836 38.5893 -4
      vertex 1.74952 38.3571 -4
    endloop
  endfacet
  facet normal 0 0 -1
    outer loop
      vertex -2.5 30 -4
      vertex 1.28598 37.9736 -4
      vertex 10.5 30 -4
    endloop
  endfacet
  facet normal 0 0 -1
    outer loop
      vertex 1.28598 37.9736 -4
      vertex -2.5 30 -4
      vertex 0.74164 37.7175 -4
    endloop
  endfacet
  facet normal 0 0 -1
    outer loop
      vertex 0.74164 37.7175 -4
      vertex -2.5 30 -4
      vertex 0.150697 37.6047 -4
    endloop
  endfacet
  facet normal -0 0 -1
    outer loop
      vertex 0.150697 37.6047 -4
      vertex -2.5 30 -4
      vertex -0.449715 37.6425 -4
    endloop
  endfacet
  facet normal -0 0 -1
    outer loop
      vertex -0.449715 37.6425 -4
      vertex -2.5 30 -4
      vertex -1.02187 37.8284 -4
    endloop
  endfacet
  facet normal 0 0 -1
    outer loop
      vertex -4 44 -4
      vertex -2.38107 39.6992 -4
      vertex -2.5 30 -4
    endloop
  endfacet
  facet normal -0 0 -1
    outer loop
      vertex -2.23146 39.1165 -4
      vertex -2.5 30 -4
      vertex -2.38107 39.6992 -4
    endloop
  endfacet
  facet normal -0 0 -1
    outer loop
      vertex -1.94164 38.5893 -4
      vertex -2.5 30 -4
      vertex -2.23146 39.1165 -4
    endloop
  endfacet
  facet normal -0 0 -1
    outer loop
      vertex -1.52982 38.1508 -4
      vertex -2.5 30 -4
      vertex -1.94164 38.5893 -4
    endloop
  endfacet
  facet normal -0 0 -1
    outer loop
      vertex -1.02187 37.8284 -4
      vertex -2.5 30 -4
      vertex -1.52982 38.1508 -4
    endloop
  endfacet
  facet normal 0 0 -1
    outer loop
      vertex 12 -4 -4
      vertex 10.5 10 -4
      vertex 12 44 -4
    endloop
  endfacet
  facet normal 0 0 -1
    outer loop
      vertex 10.3246 0.596855 -4
      vertex 12 -4 -4
      vertex 10.4 0 -4
    endloop
  endfacet
  facet normal 0 0 -1
    outer loop
      vertex 12 -4 -4
      vertex 10.3246 -0.596855 -4
      vertex 10.4 0 -4
    endloop
  endfacet
  facet normal 0 0 -1
    outer loop
      vertex 12 -4 -4
      vertex 10.1031 -1.15621 -4
      vertex 10.3246 -0.596855 -4
    endloop
  endfacet
  facet normal 0 0 -1
    outer loop
      vertex 12 -4 -4
      vertex 9.74952 -1.64291 -4
      vertex 10.1031 -1.15621 -4
    endloop
  endfacet
  facet normal 0 0 -1
    outer loop
      vertex 12 -4 -4
      vertex 9.28598 -2.02639 -4
      vertex 9.74952 -1.64291 -4
    endloop
  endfacet
  facet normal 0 0 -1
    outer loop
      vertex 12 -4 -4
      vertex 8.74164 -2.28254 -4
      vertex 9.28598 -2.02639 -4
    endloop
  endfacet
  facet normal 0 0 -1
    outer loop
      vertex 12 -4 -4
      vertex 8.1507 -2.39526 -4
      vertex 8.74164 -2.28254 -4
    endloop
  endfacet
  facet normal 0 0 -1
    outer loop
      vertex 12 -4 -4
      vertex 7.55028 -2.35749 -4
      vertex 8.1507 -2.39526 -4
    endloop
  endfacet
  facet normal 0 0 -1
    outer loop
      vertex 0.74164 -2.28254 -4
      vertex 7.55028 -2.35749 -4
      vertex 12 -4 -4
    endloop
  endfacet
  facet normal 0 0 -1
    outer loop
      vertex 5.61892 -0.300799 -4
      vertex 2.4 0 -4
      vertex 5.61892 0.300799 -4
    endloop
  endfacet
  facet normal 0 0 -1
    outer loop
      vertex 2.3246 -0.596855 -4
      vertex 5.61892 -0.300799 -4
      vertex 5.76854 -0.883498 -4
    endloop
  endfacet
  facet normal 0 0 -1
    outer loop
      vertex 2.10314 -1.15621 -4
      vertex 5.76854 -0.883498 -4
      vertex 6.05836 -1.41068 -4
    endloop
  endfacet
  facet normal 0 0 -1
    outer loop
      vertex 1.74952 -1.64291 -4
      vertex 6.05836 -1.41068 -4
      vertex 6.47018 -1.84923 -4
    endloop
  endfacet
  facet normal 0 0 -1
    outer loop
      vertex 1.28598 -2.02639 -4
      vertex 6.47018 -1.84923 -4
      vertex 6.97813 -2.17158 -4
    endloop
  endfacet
  facet normal -0 0 -1
    outer loop
      vertex 5.61892 -0.300799 -4
      vertex 2.3246 -0.596855 -4
      vertex 2.4 0 -4
    endloop
  endfacet
  facet normal 0 0 -1
    outer loop
      vertex 7.55028 -2.35749 -4
      vertex 0.74164 -2.28254 -4
      vertex 6.97813 -2.17158 -4
    endloop
  endfacet
  facet normal -0 0 -1
    outer loop
      vertex 5.76854 -0.883498 -4
      vertex 2.10314 -1.15621 -4
      vertex 2.3246 -0.596855 -4
    endloop
  endfacet
  facet normal -0 0 -1
    outer loop
      vertex 6.05836 -1.41068 -4
      vertex 1.74952 -1.64291 -4
      vertex 2.10314 -1.15621 -4
    endloop
  endfacet
  facet normal -0 0 -1
    outer loop
      vertex 6.47018 -1.84923 -4
      vertex 1.28598 -2.02639 -4
      vertex 1.74952 -1.64291 -4
    endloop
  endfacet
  facet normal -0 0 -1
    outer loop
      vertex 6.97813 -2.17158 -4
      vertex 0.74164 -2.28254 -4
      vertex 1.28598 -2.02639 -4
    endloop
  endfacet
  facet normal 0 0 -1
    outer loop
      vertex -4 -4 -4
      vertex 0.74164 -2.28254 -4
      vertex 12 -4 -4
    endloop
  endfacet
  facet normal 0 0 -1
    outer loop
      vertex 0.74164 -2.28254 -4
      vertex -4 -4 -4
      vertex 0.150697 -2.39526 -4
    endloop
  endfacet
  facet normal 0 0 -1
    outer loop
      vertex -4 -4 -4
      vertex -2.38107 0.300799 -4
      vertex -2.38107 -0.300799 -4
    endloop
  endfacet
  facet normal -0 0 -1
    outer loop
      vertex -2.5 10 -4
      vertex -4 -4 -4
      vertex -2.5 30 -4
    endloop
  endfacet
  facet normal -0 0 -1
    outer loop
      vertex -2.38107 0.300799 -4
      vertex -4 -4 -4
      vertex -2.5 10 -4
    endloop
  endfacet
  facet normal -0 0 -1
    outer loop
      vertex -2.23146 -0.883498 -4
      vertex -4 -4 -4
      vertex -2.38107 -0.300799 -4
    endloop
  endfacet
  facet normal -0 0 -1
    outer loop
      vertex -1.94164 -1.41068 -4
      vertex -4 -4 -4
      vertex -2.23146 -0.883498 -4
    endloop
  endfacet
  facet normal -0 0 -1
    outer loop
      vertex -1.52982 -1.84923 -4
      vertex -4 -4 -4
      vertex -1.94164 -1.41068 -4
    endloop
  endfacet
  facet normal -0 0 -1
    outer loop
      vertex -1.02187 -2.17158 -4
      vertex -4 -4 -4
      vertex -1.52982 -1.84923 -4
    endloop
  endfacet
  facet normal -0 0 -1
    outer loop
      vertex -0.449715 -2.35749 -4
      vertex -4 -4 -4
      vertex -1.02187 -2.17158 -4
    endloop
  endfacet
  facet normal -0 0 -1
    outer loop
      vertex 0.150697 -2.39526 -4
      vertex -4 -4 -4
      vertex -0.449715 -2.35749 -4
    endloop
  endfacet
  facet normal 0 0 -1
    outer loop
      vertex 10.5 30 -4
      vertex 12 44 -4
      vertex 10.5 10 -4
    endloop
  endfacet
  facet normal 0 0 -1
    outer loop
      vertex 10.3246 39.4031 -4
      vertex 12 44 -4
      vertex 10.5 30 -4
    endloop
  endfacet
  facet normal 0 0 -1
    outer loop
      vertex 10.3246 40.5969 -4
      vertex 12 44 -4
      vertex 10.4 40 -4
    endloop
  endfacet
  facet normal 0 0 -1
    outer loop
      vertex 10.1031 41.1562 -4
      vertex 12 44 -4
      vertex 10.3246 40.5969 -4
    endloop
  endfacet
  facet normal 0 0 -1
    outer loop
      vertex 9.74952 41.6429 -4
      vertex 12 44 -4
      vertex 10.1031 41.1562 -4
    endloop
  endfacet
  facet normal 0 0 -1
    outer loop
      vertex 9.28598 42.0264 -4
      vertex 12 44 -4
      vertex 9.74952 41.6429 -4
    endloop
  endfacet
  facet normal 0 0 -1
    outer loop
      vertex 8.74164 42.2825 -4
      vertex 12 44 -4
      vertex 9.28598 42.0264 -4
    endloop
  endfacet
  facet normal 0 0 -1
    outer loop
      vertex 8.1507 42.3953 -4
      vertex 12 44 -4
      vertex 8.74164 42.2825 -4
    endloop
  endfacet
  facet normal 0 0 -1
    outer loop
      vertex 7.55028 42.3575 -4
      vertex 12 44 -4
      vertex 8.1507 42.3953 -4
    endloop
  endfacet
  facet normal 0 0 -1
    outer loop
      vertex 0.74164 42.2825 -4
      vertex 7.55028 42.3575 -4
      vertex 6.97813 42.1716 -4
    endloop
  endfacet
  facet normal 0 0 -1
    outer loop
      vertex 2.3246 40.5969 -4
      vertex 5.61892 40.3008 -4
      vertex 2.4 40 -4
    endloop
  endfacet
  facet normal 0 0 -1
    outer loop
      vertex 5.61892 40.3008 -4
      vertex 2.3246 40.5969 -4
      vertex 5.76854 40.8835 -4
    endloop
  endfacet
  facet normal 0 0 -1
    outer loop
      vertex 2.10314 41.1562 -4
      vertex 5.76854 40.8835 -4
      vertex 2.3246 40.5969 -4
    endloop
  endfacet
  facet normal 0 0 -1
    outer loop
      vertex 5.76854 40.8835 -4
      vertex 2.10314 41.1562 -4
      vertex 6.05836 41.4107 -4
    endloop
  endfacet
  facet normal 0 0 -1
    outer loop
      vertex 1.74952 41.6429 -4
      vertex 6.05836 41.4107 -4
      vertex 2.10314 41.1562 -4
    endloop
  endfacet
  facet normal 0 0 -1
    outer loop
      vertex 6.05836 41.4107 -4
      vertex 1.74952 41.6429 -4
      vertex 6.47018 41.8492 -4
    endloop
  endfacet
  facet normal 0 0 -1
    outer loop
      vertex 1.28598 42.0264 -4
      vertex 6.47018 41.8492 -4
      vertex 1.74952 41.6429 -4
    endloop
  endfacet
  facet normal 0 0 -1
    outer loop
      vertex 6.47018 41.8492 -4
      vertex 1.28598 42.0264 -4
      vertex 6.97813 42.1716 -4
    endloop
  endfacet
  facet normal 0 0 -1
    outer loop
      vertex 0.74164 42.2825 -4
      vertex 6.97813 42.1716 -4
      vertex 1.28598 42.0264 -4
    endloop
  endfacet
  facet normal -0 0 -1
    outer loop
      vertex 7.55028 42.3575 -4
      vertex 0.74164 42.2825 -4
      vertex 12 44 -4
    endloop
  endfacet
  facet normal 0 0 -1
    outer loop
      vertex -4 44 -4
      vertex 0.74164 42.2825 -4
      vertex 0.150697 42.3953 -4
    endloop
  endfacet
  facet normal 0 0 -1
    outer loop
      vertex -4 44 -4
      vertex 0.150697 42.3953 -4
      vertex -0.449715 42.3575 -4
    endloop
  endfacet
  facet normal 0 0 -1
    outer loop
      vertex -4 44 -4
      vertex -2.5 30 -4
      vertex -4 -4 -4
    endloop
  endfacet
  facet normal 0 0 -1
    outer loop
      vertex 0.74164 42.2825 -4
      vertex -4 44 -4
      vertex 12 44 -4
    endloop
  endfacet
  facet normal 0 0 -1
    outer loop
      vertex -1.02187 42.1716 -4
      vertex -4 44 -4
      vertex -0.449715 42.3575 -4
    endloop
  endfacet
  facet normal 0 0 -1
    outer loop
      vertex -1.52982 41.8492 -4
      vertex -4 44 -4
      vertex -1.02187 42.1716 -4
    endloop
  endfacet
  facet normal 0 0 -1
    outer loop
      vertex -1.94164 41.4107 -4
      vertex -4 44 -4
      vertex -1.52982 41.8492 -4
    endloop
  endfacet
  facet normal 0 0 -1
    outer loop
      vertex -2.23146 40.8835 -4
      vertex -4 44 -4
      vertex -1.94164 41.4107 -4
    endloop
  endfacet
  facet normal 0 0 -1
    outer loop
      vertex -2.38107 40.3008 -4
      vertex -4 44 -4
      vertex -2.23146 40.8835 -4
    endloop
  endfacet
  facet normal 0 0 -1
    outer loop
      vertex -2.38107 39.6992 -4
      vertex -4 44 -4
      vertex -2.38107 40.3008 -4
    endloop
  endfacet
  facet normal 0 0 -1
    outer loop
      vertex 12 -4 -4
      vertex 10.3246 0.596855 -4
      vertex 10.5 10 -4
    endloop
  endfacet
  facet normal 0 0 -1
    outer loop
      vertex 10.1031 1.15621 -4
      vertex 10.5 10 -4
      vertex 10.3246 0.596855 -4
    endloop
  endfacet
  facet normal 0 0 -1
    outer loop
      vertex 9.74952 1.64291 -4
      vertex 10.5 10 -4
      vertex 10.1031 1.15621 -4
    endloop
  endfacet
  facet normal 0 0 -1
    outer loop
      vertex 9.28598 2.02639 -4
      vertex 10.5 10 -4
      vertex 9.74952 1.64291 -4
    endloop
  endfacet
  facet normal 0 0 -1
    outer loop
      vertex 8.74164 2.28254 -4
      vertex 10.5 10 -4
      vertex 9.28598 2.02639 -4
    endloop
  endfacet
  facet normal 0 0 -1
    outer loop
      vertex 8.1507 2.39526 -4
      vertex 10.5 10 -4
      vertex 8.74164 2.28254 -4
    endloop
  endfacet
  facet normal 0 0 -1
    outer loop
      vertex 7.55028 2.35749 -4
      vertex 10.5 10 -4
      vertex 8.1507 2.39526 -4
    endloop
  endfacet
  facet normal 0 0 -1
    outer loop
      vertex 6.97813 2.17158 -4
      vertex 10.5 10 -4
      vertex 7.55028 2.35749 -4
    endloop
  endfacet
  facet normal 0 0 -1
    outer loop
      vertex 1.28598 2.02639 -4
      vertex 6.97813 2.17158 -4
      vertex 6.47018 1.84923 -4
    endloop
  endfacet
  facet normal 0 0 -1
    outer loop
      vertex 1.74952 1.64291 -4
      vertex 6.47018 1.84923 -4
      vertex 6.05836 1.41068 -4
    endloop
  endfacet
  facet normal 0 0 -1
    outer loop
      vertex 2.10314 1.15621 -4
      vertex 6.05836 1.41068 -4
      vertex 5.76854 0.883498 -4
    endloop
  endfacet
  facet normal 0 0 -1
    outer loop
      vertex 2.3246 0.596855 -4
      vertex 5.61892 0.300799 -4
      vertex 2.4 0 -4
    endloop
  endfacet
  facet normal 0 0 -1
    outer loop
      vertex 5.61892 0.300799 -4
      vertex 2.3246 0.596855 -4
      vertex 5.76854 0.883498 -4
    endloop
  endfacet
  facet normal 0 0 -1
    outer loop
      vertex 2.10314 1.15621 -4
      vertex 5.76854 0.883498 -4
      vertex 2.3246 0.596855 -4
    endloop
  endfacet
  facet normal -0 0 -1
    outer loop
      vertex 6.05836 1.41068 -4
      vertex 2.10314 1.15621 -4
      vertex 1.74952 1.64291 -4
    endloop
  endfacet
  facet normal -0 0 -1
    outer loop
      vertex 6.47018 1.84923 -4
      vertex 1.74952 1.64291 -4
      vertex 1.28598 2.02639 -4
    endloop
  endfacet
  facet normal -0 0 -1
    outer loop
      vertex 6.97813 2.17158 -4
      vertex 1.28598 2.02639 -4
      vertex 10.5 10 -4
    endloop
  endfacet
  facet normal 0 0 -1
    outer loop
      vertex -2.5 10 -4
      vertex 1.28598 2.02639 -4
      vertex 0.74164 2.28254 -4
    endloop
  endfacet
  facet normal 0 0 -1
    outer loop
      vertex -2.5 10 -4
      vertex 0.74164 2.28254 -4
      vertex 0.150697 2.39526 -4
    endloop
  endfacet
  facet normal 0 0 -1
    outer loop
      vertex -2.5 10 -4
      vertex 0.150697 2.39526 -4
      vertex -0.449715 2.35749 -4
    endloop
  endfacet
  facet normal 0 0 -1
    outer loop
      vertex -2.5 10 -4
      vertex -0.449715 2.35749 -4
      vertex -1.02187 2.17158 -4
    endloop
  endfacet
  facet normal 0 0 -1
    outer loop
      vertex -2.5 10 -4
      vertex -1.02187 2.17158 -4
      vertex -1.52982 1.84923 -4
    endloop
  endfacet
  facet normal 0 0 -1
    outer loop
      vertex 1.28598 2.02639 -4
      vertex -2.5 10 -4
      vertex 10.5 10 -4
    endloop
  endfacet
  facet normal 0 0 -1
    outer loop
      vertex -1.94164 1.41068 -4
      vertex -2.5 10 -4
      vertex -1.52982 1.84923 -4
    endloop
  endfacet
  facet normal 0 0 -1
    outer loop
      vertex -2.23146 0.883498 -4
      vertex -2.5 10 -4
      vertex -1.94164 1.41068 -4
    endloop
  endfacet
  facet normal 0 0 -1
    outer loop
      vertex -2.5 10 -4
      vertex -2.23146 0.883498 -4
      vertex -2.38107 0.300799 -4
    endloop
  endfacet
  facet normal -1 0 0
    outer loop
      vertex -4 -4 -4
      vertex -4 44 4
      vertex -4 44 -4
    endloop
  endfacet
  facet normal -1 -0 0
    outer loop
      vertex -4 44 4
      vertex -4 -4 -4
      vertex -4 -4 4
    endloop
  endfacet
  facet normal 1 -0 0
    outer loop
      vertex 12 -4 4
      vertex 12 44 -4
      vertex 12 44 4
    endloop
  endfacet
  facet normal 1 0 0
    outer loop
      vertex 12 44 -4
      vertex 12 -4 4
      vertex 12 -4 -4
    endloop
  endfacet
  facet normal 0 0 1
    outer loop
      vertex 12 -4 4
      vertex 10.3246 0.596855 4
      vertex 10.4 0 4
    endloop
  endfacet
  facet normal 0 0 1
    outer loop
      vertex 11.5 9 4
      vertex 10.1031 1.15621 4
      vertex 10.3246 0.596855 4
    endloop
  endfacet
  facet normal 0 0 1
    outer loop
      vertex 11.5 9 4
      vertex 9.74952 1.64291 4
      vertex 10.1031 1.15621 4
    endloop
  endfacet
  facet normal 0 0 1
    outer loop
      vertex 11.5 9 4
      vertex 9.28598 2.02639 4
      vertex 9.74952 1.64291 4
    endloop
  endfacet
  facet normal 0 0 1
    outer loop
      vertex 11.5 9 4
      vertex 8.74164 2.28254 4
      vertex 9.28598 2.02639 4
    endloop
  endfacet
  facet normal 0 0 1
    outer loop
      vertex 11.5 9 4
      vertex 8.1507 2.39526 4
      vertex 8.74164 2.28254 4
    endloop
  endfacet
  facet normal 0 0 1
    outer loop
      vertex 11.5 9 4
      vertex 7.55028 2.35749 4
      vertex 8.1507 2.39526 4
    endloop
  endfacet
  facet normal 0 0 1
    outer loop
      vertex 11.5 9 4
      vertex 6.97813 2.17158 4
      vertex 7.55028 2.35749 4
    endloop
  endfacet
  facet normal -0 0 1
    outer loop
      vertex 0.74164 2.28254 4
      vertex 6.97813 2.17158 4
      vertex 11.5 9 4
    endloop
  endfacet
  facet normal 0 0 1
    outer loop
      vertex 6.97813 2.17158 4
      vertex 1.28598 2.02639 4
      vertex 6.47018 1.84923 4
    endloop
  endfacet
  facet normal 0 0 1
    outer loop
      vertex 5.61892 0.300799 4
      vertex 2.4 0 4
      vertex 5.61892 -0.300799 4
    endloop
  endfacet
  facet normal -0 0 1
    outer loop
      vertex 2.3246 0.596855 4
      vertex 5.61892 0.300799 4
      vertex 5.76854 0.883498 4
    endloop
  endfacet
  facet normal -0 0 1
    outer loop
      vertex 2.10314 1.15621 4
      vertex 5.76854 0.883498 4
      vertex 6.05836 1.41068 4
    endloop
  endfacet
  facet normal 0 -0 1
    outer loop
      vertex 1.74952 1.64291 4
      vertex 6.47018 1.84923 4
      vertex 1.28598 2.02639 4
    endloop
  endfacet
  facet normal 0 0 1
    outer loop
      vertex 5.61892 0.300799 4
      vertex 2.3246 0.596855 4
      vertex 2.4 0 4
    endloop
  endfacet
  facet normal 0 0 1
    outer loop
      vertex 5.76854 0.883498 4
      vertex 2.10314 1.15621 4
      vertex 2.3246 0.596855 4
    endloop
  endfacet
  facet normal 0 0 1
    outer loop
      vertex 6.05836 1.41068 4
      vertex 1.74952 1.64291 4
      vertex 2.10314 1.15621 4
    endloop
  endfacet
  facet normal 0 0 1
    outer loop
      vertex 6.47018 1.84923 4
      vertex 1.74952 1.64291 4
      vertex 6.05836 1.41068 4
    endloop
  endfacet
  facet normal 0 0 1
    outer loop
      vertex 6.97813 2.17158 4
      vertex 0.74164 2.28254 4
      vertex 1.28598 2.02639 4
    endloop
  endfacet
  facet normal -0 0 1
    outer loop
      vertex -3.5 9 4
      vertex 0.74164 2.28254 4
      vertex 11.5 9 4
    endloop
  endfacet
  facet normal 0 0 1
    outer loop
      vertex 0.74164 2.28254 4
      vertex -3.5 9 4
      vertex 0.150697 2.39526 4
    endloop
  endfacet
  facet normal 0 0 1
    outer loop
      vertex 0.150697 2.39526 4
      vertex -3.5 9 4
      vertex -0.449715 2.35749 4
    endloop
  endfacet
  facet normal 0 0 1
    outer loop
      vertex -4 -4 4
      vertex -2.38107 0.300799 4
      vertex -3.5 9 4
    endloop
  endfacet
  facet normal 0 0 1
    outer loop
      vertex -2.23146 0.883498 4
      vertex -3.5 9 4
      vertex -2.38107 0.300799 4
    endloop
  endfacet
  facet normal 0 0 1
    outer loop
      vertex -1.94164 1.41068 4
      vertex -3.5 9 4
      vertex -2.23146 0.883498 4
    endloop
  endfacet
  facet normal 0 0 1
    outer loop
      vertex -1.52982 1.84923 4
      vertex -3.5 9 4
      vertex -1.94164 1.41068 4
    endloop
  endfacet
  facet normal 0 0 1
    outer loop
      vertex -1.02187 2.17158 4
      vertex -3.5 9 4
      vertex -1.52982 1.84923 4
    endloop
  endfacet
  facet normal 0 0 1
    outer loop
      vertex -0.449715 2.35749 4
      vertex -3.5 9 4
      vertex -1.02187 2.17158 4
    endloop
  endfacet
  facet normal 0 0 1
    outer loop
      vertex 12 44 4
      vertex 11.5 31 4
      vertex 12 -4 4
    endloop
  endfacet
  facet normal 0 0 1
    outer loop
      vertex 10.3246 39.4031 4
      vertex 12 44 4
      vertex 10.4 40 4
    endloop
  endfacet
  facet normal 0 0 1
    outer loop
      vertex 12 44 4
      vertex 10.3246 40.5969 4
      vertex 10.4 40 4
    endloop
  endfacet
  facet normal 0 0 1
    outer loop
      vertex 12 44 4
      vertex 10.1031 41.1562 4
      vertex 10.3246 40.5969 4
    endloop
  endfacet
  facet normal 0 0 1
    outer loop
      vertex 12 44 4
      vertex 9.74952 41.6429 4
      vertex 10.1031 41.1562 4
    endloop
  endfacet
  facet normal 0 0 1
    outer loop
      vertex 12 44 4
      vertex 9.28598 42.0264 4
      vertex 9.74952 41.6429 4
    endloop
  endfacet
  facet normal 0 0 1
    outer loop
      vertex 12 44 4
      vertex 8.74164 42.2825 4
      vertex 9.28598 42.0264 4
    endloop
  endfacet
  facet normal 0 0 1
    outer loop
      vertex 12 44 4
      vertex 8.1507 42.3953 4
      vertex 8.74164 42.2825 4
    endloop
  endfacet
  facet normal 0 0 1
    outer loop
      vertex 12 44 4
      vertex 7.55028 42.3575 4
      vertex 8.1507 42.3953 4
    endloop
  endfacet
  facet normal 0 0 1
    outer loop
      vertex 0.74164 42.2825 4
      vertex 7.55028 42.3575 4
      vertex 12 44 4
    endloop
  endfacet
  facet normal 0 0 1
    outer loop
      vertex 5.61892 40.3008 4
      vertex 2.4 40 4
      vertex 5.61892 39.6992 4
    endloop
  endfacet
  facet normal -0 0 1
    outer loop
      vertex 2.3246 40.5969 4
      vertex 5.61892 40.3008 4
      vertex 5.76854 40.8835 4
    endloop
  endfacet
  facet normal -0 0 1
    outer loop
      vertex 2.10314 41.1562 4
      vertex 5.76854 40.8835 4
      vertex 6.05836 41.4107 4
    endloop
  endfacet
  facet normal -0 0 1
    outer loop
      vertex 1.74952 41.6429 4
      vertex 6.05836 41.4107 4
      vertex 6.47018 41.8492 4
    endloop
  endfacet
  facet normal -0 0 1
    outer loop
      vertex 1.28598 42.0264 4
      vertex 6.47018 41.8492 4
      vertex 6.97813 42.1716 4
    endloop
  endfacet
  facet normal 0 0 1
    outer loop
      vertex 5.61892 40.3008 4
      vertex 2.3246 40.5969 4
      vertex 2.4 40 4
    endloop
  endfacet
  facet normal 0 0 1
    outer loop
      vertex 7.55028 42.3575 4
      vertex 0.74164 42.2825 4
      vertex 6.97813 42.1716 4
    endloop
  endfacet
  facet normal 0 0 1
    outer loop
      vertex 5.76854 40.8835 4
      vertex 2.10314 41.1562 4
      vertex 2.3246 40.5969 4
    endloop
  endfacet
  facet normal 0 0 1
    outer loop
      vertex 6.05836 41.4107 4
      vertex 1.74952 41.6429 4
      vertex 2.10314 41.1562 4
    endloop
  endfacet
  facet normal 0 0 1
    outer loop
      vertex 6.47018 41.8492 4
      vertex 1.28598 42.0264 4
      vertex 1.74952 41.6429 4
    endloop
  endfacet
  facet normal 0 0 1
    outer loop
      vertex 6.97813 42.1716 4
      vertex 0.74164 42.2825 4
      vertex 1.28598 42.0264 4
    endloop
  endfacet
  facet normal -0 0 1
    outer loop
      vertex -4 44 4
      vertex 0.74164 42.2825 4
      vertex 12 44 4
    endloop
  endfacet
  facet normal 0 0 1
    outer loop
      vertex 0.74164 42.2825 4
      vertex -4 44 4
      vertex 0.150697 42.3953 4
    endloop
  endfacet
  facet normal 0 0 1
    outer loop
      vertex -4 44 4
      vertex -2.38107 39.6992 4
      vertex -2.38107 40.3008 4
    endloop
  endfacet
  facet normal 0 0 1
    outer loop
      vertex -3.5 31 4
      vertex -4 44 4
      vertex -3.5 9 4
    endloop
  endfacet
  facet normal 0 0 1
    outer loop
      vertex -2.38107 39.6992 4
      vertex -4 44 4
      vertex -3.5 31 4
    endloop
  endfacet
  facet normal 0 0 1
    outer loop
      vertex -2.23146 40.8835 4
      vertex -4 44 4
      vertex -2.38107 40.3008 4
    endloop
  endfacet
  facet normal 0 0 1
    outer loop
      vertex -1.94164 41.4107 4
      vertex -4 44 4
      vertex -2.23146 40.8835 4
    endloop
  endfacet
  facet normal 0 0 1
    outer loop
      vertex -1.52982 41.8492 4
      vertex -4 44 4
      vertex -1.94164 41.4107 4
    endloop
  endfacet
  facet normal 0 0 1
    outer loop
      vertex -1.02187 42.1716 4
      vertex -4 44 4
      vertex -1.52982 41.8492 4
    endloop
  endfacet
  facet normal 0 0 1
    outer loop
      vertex -0.449715 42.3575 4
      vertex -4 44 4
      vertex -1.02187 42.1716 4
    endloop
  endfacet
  facet normal 0 0 1
    outer loop
      vertex 0.150697 42.3953 4
      vertex -4 44 4
      vertex -0.449715 42.3575 4
    endloop
  endfacet
  facet normal -0 0 1
    outer loop
      vertex 11.5 9 4
      vertex 12 -4 4
      vertex 11.5 31 4
    endloop
  endfacet
  facet normal -0 0 1
    outer loop
      vertex 10.3246 0.596855 4
      vertex 12 -4 4
      vertex 11.5 9 4
    endloop
  endfacet
  facet normal -0 0 1
    outer loop
      vertex 10.3246 -0.596855 4
      vertex 12 -4 4
      vertex 10.4 0 4
    endloop
  endfacet
  facet normal -0 0 1
    outer loop
      vertex 10.1031 -1.15621 4
      vertex 12 -4 4
      vertex 10.3246 -0.596855 4
    endloop
  endfacet
  facet normal -0 0 1
    outer loop
      vertex 9.74952 -1.64291 4
      vertex 12 -4 4
      vertex 10.1031 -1.15621 4
    endloop
  endfacet
  facet normal -0 0 1
    outer loop
      vertex 9.28598 -2.02639 4
      vertex 12 -4 4
      vertex 9.74952 -1.64291 4
    endloop
  endfacet
  facet normal -0 0 1
    outer loop
      vertex 8.74164 -2.28254 4
      vertex 12 -4 4
      vertex 9.28598 -2.02639 4
    endloop
  endfacet
  facet normal -0 0 1
    outer loop
      vertex 8.1507 -2.39526 4
      vertex 12 -4 4
      vertex 8.74164 -2.28254 4
    endloop
  endfacet
  facet normal 0 0 1
    outer loop
      vertex 7.55028 -2.35749 4
      vertex 12 -4 4
      vertex 8.1507 -2.39526 4
    endloop
  endfacet
  facet normal -0 0 1
    outer loop
      vertex 0.74164 -2.28254 4
      vertex 7.55028 -2.35749 4
      vertex 6.97813 -2.17158 4
    endloop
  endfacet
  facet normal 0 0 1
    outer loop
      vertex 2.3246 -0.596855 4
      vertex 5.61892 -0.300799 4
      vertex 2.4 0 4
    endloop
  endfacet
  facet normal 0 0 1
    outer loop
      vertex 5.61892 -0.300799 4
      vertex 2.3246 -0.596855 4
      vertex 5.76854 -0.883498 4
    endloop
  endfacet
  facet normal 0 0 1
    outer loop
      vertex 2.10314 -1.15621 4
      vertex 5.76854 -0.883498 4
      vertex 2.3246 -0.596855 4
    endloop
  endfacet
  facet normal 0 0 1
    outer loop
      vertex 5.76854 -0.883498 4
      vertex 2.10314 -1.15621 4
      vertex 6.05836 -1.41068 4
    endloop
  endfacet
  facet normal 0 0 1
    outer loop
      vertex 1.74952 -1.64291 4
      vertex 6.05836 -1.41068 4
      vertex 2.10314 -1.15621 4
    endloop
  endfacet
  facet normal 0 0 1
    outer loop
      vertex 6.05836 -1.41068 4
      vertex 1.74952 -1.64291 4
      vertex 6.47018 -1.84923 4
    endloop
  endfacet
  facet normal 0 0 1
    outer loop
      vertex 1.28598 -2.02639 4
      vertex 6.47018 -1.84923 4
      vertex 1.74952 -1.64291 4
    endloop
  endfacet
  facet normal 0 0 1
    outer loop
      vertex 6.47018 -1.84923 4
      vertex 1.28598 -2.02639 4
      vertex 6.97813 -2.17158 4
    endloop
  endfacet
  facet normal 0 0 1
    outer loop
      vertex 0.74164 -2.28254 4
      vertex 6.97813 -2.17158 4
      vertex 1.28598 -2.02639 4
    endloop
  endfacet
  facet normal 0 0 1
    outer loop
      vertex 7.55028 -2.35749 4
      vertex 0.74164 -2.28254 4
      vertex 12 -4 4
    endloop
  endfacet
  facet normal 0 0 1
    outer loop
      vertex -4 -4 4
      vertex 0.74164 -2.28254 4
      vertex 0.150697 -2.39526 4
    endloop
  endfacet
  facet normal 0 0 1
    outer loop
      vertex -4 -4 4
      vertex 0.150697 -2.39526 4
      vertex -0.449715 -2.35749 4
    endloop
  endfacet
  facet normal 0 0 1
    outer loop
      vertex 0.74164 -2.28254 4
      vertex -4 -4 4
      vertex 12 -4 4
    endloop
  endfacet
  facet normal 0 0 1
    outer loop
      vertex -1.02187 -2.17158 4
      vertex -4 -4 4
      vertex -0.449715 -2.35749 4
    endloop
  endfacet
  facet normal 0 0 1
    outer loop
      vertex -1.52982 -1.84923 4
      vertex -4 -4 4
      vertex -1.02187 -2.17158 4
    endloop
  endfacet
  facet normal 0 0 1
    outer loop
      vertex -1.94164 -1.41068 4
      vertex -4 -4 4
      vertex -1.52982 -1.84923 4
    endloop
  endfacet
  facet normal 0 0 1
    outer loop
      vertex -2.23146 -0.883498 4
      vertex -4 -4 4
      vertex -1.94164 -1.41068 4
    endloop
  endfacet
  facet normal 0 0 1
    outer loop
      vertex -2.38107 -0.300799 4
      vertex -4 -4 4
      vertex -2.23146 -0.883498 4
    endloop
  endfacet
  facet normal 0 0 1
    outer loop
      vertex -2.38107 0.300799 4
      vertex -4 -4 4
      vertex -2.38107 -0.300799 4
    endloop
  endfacet
  facet normal 0 0 1
    outer loop
      vertex -4 -4 4
      vertex -3.5 9 4
      vertex -4 44 4
    endloop
  endfacet
  facet normal 0 0 1
    outer loop
      vertex 12 44 4
      vertex 10.3246 39.4031 4
      vertex 11.5 31 4
    endloop
  endfacet
  facet normal -0 0 1
    outer loop
      vertex 10.1031 38.8438 4
      vertex 11.5 31 4
      vertex 10.3246 39.4031 4
    endloop
  endfacet
  facet normal -0 0 1
    outer loop
      vertex 9.74952 38.3571 4
      vertex 11.5 31 4
      vertex 10.1031 38.8438 4
    endloop
  endfacet
  facet normal -0 0 1
    outer loop
      vertex 9.28598 37.9736 4
      vertex 11.5 31 4
      vertex 9.74952 38.3571 4
    endloop
  endfacet
  facet normal -0 0 1
    outer loop
      vertex 8.74164 37.7175 4
      vertex 11.5 31 4
      vertex 9.28598 37.9736 4
    endloop
  endfacet
  facet normal -0 0 1
    outer loop
      vertex 8.1507 37.6047 4
      vertex 11.5 31 4
      vertex 8.74164 37.7175 4
    endloop
  endfacet
  facet normal 0 0 1
    outer loop
      vertex 7.55028 37.6425 4
      vertex 11.5 31 4
      vertex 8.1507 37.6047 4
    endloop
  endfacet
  facet normal 0 0 1
    outer loop
      vertex 6.97813 37.8284 4
      vertex 11.5 31 4
      vertex 7.55028 37.6425 4
    endloop
  endfacet
  facet normal -0 0 1
    outer loop
      vertex 1.28598 37.9736 4
      vertex 6.97813 37.8284 4
      vertex 6.47018 38.1508 4
    endloop
  endfacet
  facet normal -0 0 1
    outer loop
      vertex 1.74952 38.3571 4
      vertex 6.47018 38.1508 4
      vertex 6.05836 38.5893 4
    endloop
  endfacet
  facet normal 0 0 1
    outer loop
      vertex 2.3246 39.4031 4
      vertex 5.61892 39.6992 4
      vertex 2.4 40 4
    endloop
  endfacet
  facet normal 0 0 1
    outer loop
      vertex 5.61892 39.6992 4
      vertex 2.3246 39.4031 4
      vertex 5.76854 39.1165 4
    endloop
  endfacet
  facet normal 0 0 1
    outer loop
      vertex 2.10314 38.8438 4
      vertex 5.76854 39.1165 4
      vertex 2.3246 39.4031 4
    endloop
  endfacet
  facet normal 0 0 1
    outer loop
      vertex 5.76854 39.1165 4
      vertex 2.10314 38.8438 4
      vertex 6.05836 38.5893 4
    endloop
  endfacet
  facet normal 0 0 1
    outer loop
      vertex 1.74952 38.3571 4
      vertex 6.05836 38.5893 4
      vertex 2.10314 38.8438 4
    endloop
  endfacet
  facet normal 0 0 1
    outer loop
      vertex 6.47018 38.1508 4
      vertex 1.74952 38.3571 4
      vertex 1.28598 37.9736 4
    endloop
  endfacet
  facet normal 0 0 1
    outer loop
      vertex 0.74164 37.7175 4
      vertex 6.97813 37.8284 4
      vertex 1.28598 37.9736 4
    endloop
  endfacet
  facet normal 0 0 1
    outer loop
      vertex 6.97813 37.8284 4
      vertex 0.74164 37.7175 4
      vertex 11.5 31 4
    endloop
  endfacet
  facet normal 0 0 1
    outer loop
      vertex -3.5 31 4
      vertex 0.74164 37.7175 4
      vertex 0.150697 37.6047 4
    endloop
  endfacet
  facet normal 0 0 1
    outer loop
      vertex -3.5 31 4
      vertex 0.150697 37.6047 4
      vertex -0.449715 37.6425 4
    endloop
  endfacet
  facet normal 0 0 1
    outer loop
      vertex -3.5 31 4
      vertex -0.449715 37.6425 4
      vertex -1.02187 37.8284 4
    endloop
  endfacet
  facet normal 0 0 1
    outer loop
      vertex 0.74164 37.7175 4
      vertex -3.5 31 4
      vertex 11.5 31 4
    endloop
  endfacet
  facet normal 0 0 1
    outer loop
      vertex -1.52982 38.1508 4
      vertex -3.5 31 4
      vertex -1.02187 37.8284 4
    endloop
  endfacet
  facet normal 0 0 1
    outer loop
      vertex -1.94164 38.5893 4
      vertex -3.5 31 4
      vertex -1.52982 38.1508 4
    endloop
  endfacet
  facet normal 0 0 1
    outer loop
      vertex -2.23146 39.1165 4
      vertex -3.5 31 4
      vertex -1.94164 38.5893 4
    endloop
  endfacet
  facet normal 0 0 1
    outer loop
      vertex -3.5 31 4
      vertex -2.23146 39.1165 4
      vertex -2.38107 39.6992 4
    endloop
  endfacet
  facet normal 0 1 -0
    outer loop
      vertex 12 44 -4
      vertex -4 44 4
      vertex 12 44 4
    endloop
  endfacet
  facet normal 0 1 0
    outer loop
      vertex -4 44 4
      vertex 12 44 -4
      vertex -4 44 -4
    endloop
  endfacet
  facet normal 0 -1 0
    outer loop
      vertex -4 -4 -4
      vertex 12 -4 4
      vertex -4 -4 4
    endloop
  endfacet
  facet normal 0 -1 -0
    outer loop
      vertex 12 -4 4
      vertex -4 -4 -4
      vertex 12 -4 -4
    endloop
  endfacet
  facet normal -1 0 0
    outer loop
      vertex 10.5 10 -4
      vertex 10.5 30 1.995
      vertex 10.5 30 -4
    endloop
  endfacet
  facet normal -1 -0 0
    outer loop
      vertex 10.5 30 1.995
      vertex 10.5 10 -4
      vertex 10.5 10 1.995
    endloop
  endfacet
  facet normal 1 -0 0
    outer loop
      vertex -2.5 10 1.995
      vertex -2.5 30 -4
      vertex -2.5 30 1.995
    endloop
  endfacet
  facet normal 1 0 0
    outer loop
      vertex -2.5 30 -4
      vertex -2.5 10 1.995
      vertex -2.5 10 -4
    endloop
  endfacet
  facet normal 0 -1 0
    outer loop
      vertex -2.5 30 -4
      vertex 10.5 30 1.995
      vertex -2.5 30 1.995
    endloop
  endfacet
  facet normal 0 -1 -0
    outer loop
      vertex 10.5 30 1.995
      vertex -2.5 30 -4
      vertex 10.5 30 -4
    endloop
  endfacet
  facet normal 0 1 -0
    outer loop
      vertex 10.5 10 -4
      vertex -2.5 10 1.995
      vertex 10.5 10 1.995
    endloop
  endfacet
  facet normal 0 1 0
    outer loop
      vertex -2.5 10 1.995
      vertex 10.5 10 -4
      vertex -2.5 10 -4
    endloop
  endfacet
  facet normal -1 0 0
    outer loop
      vertex 11.5 9 1.995
      vertex 11.5 31 4
      vertex 11.5 31 1.995
    endloop
  endfacet
  facet normal -1 -0 0
    outer loop
      vertex 11.5 31 4
      vertex 11.5 9 1.995
      vertex 11.5 9 4
    endloop
  endfacet
  facet normal 0 0 1
    outer loop
      vertex 11.5 31 1.995
      vertex 10.5 30 1.995
      vertex 11.5 9 1.995
    endloop
  endfacet
  facet normal 0 0 1
    outer loop
      vertex 11.5 31 1.995
      vertex -2.5 30 1.995
      vertex 10.5 30 1.995
    endloop
  endfacet
  facet normal 0 0 1
    outer loop
      vertex -2.5 30 1.995
      vertex -3.5 31 1.995
      vertex -2.5 10 1.995
    endloop
  endfacet
  facet normal -0 0 1
    outer loop
      vertex -3.5 31 1.995
      vertex -2.5 30 1.995
      vertex 11.5 31 1.995
    endloop
  endfacet
  facet normal -0 0 1
    outer loop
      vertex 10.5 10 1.995
      vertex 11.5 9 1.995
      vertex 10.5 30 1.995
    endloop
  endfacet
  facet normal -0 0 1
    outer loop
      vertex -2.5 10 1.995
      vertex 11.5 9 1.995
      vertex 10.5 10 1.995
    endloop
  endfacet
  facet normal 0 0 1
    outer loop
      vertex -2.5 10 1.995
      vertex -3.5 9 1.995
      vertex 11.5 9 1.995
    endloop
  endfacet
  facet normal 0 0 1
    outer loop
      vertex -3.5 9 1.995
      vertex -2.5 10 1.995
      vertex -3.5 31 1.995
    endloop
  endfacet
  facet normal 1 -0 0
    outer loop
      vertex -3.5 9 4
      vertex -3.5 31 1.995
      vertex -3.5 31 4
    endloop
  endfacet
  facet normal 1 0 0
    outer loop
      vertex -3.5 31 1.995
      vertex -3.5 9 4
      vertex -3.5 9 1.995
    endloop
  endfacet
  facet normal 0 -1 0
    outer loop
      vertex -3.5 31 1.995
      vertex 11.5 31 4
      vertex -3.5 31 4
    endloop
  endfacet
  facet normal 0 -1 -0
    outer loop
      vertex 11.5 31 4
      vertex -3.5 31 1.995
      vertex 11.5 31 1.995
    endloop
  endfacet
  facet normal 0 1 -0
    outer loop
      vertex 11.5 9 1.995
      vertex -3.5 9 4
      vertex 11.5 9 4
    endloop
  endfacet
  facet normal 0 1 0
    outer loop
      vertex -3.5 9 4
      vertex 11.5 9 1.995
      vertex -3.5 9 1.995
    endloop
  endfacet
endsolid OpenSCAD_Model
