solid OpenSCAD_Model
  facet normal -0.992115 -3.76225e-10 -0.125333
    outer loop
      vertex 1.84659 -9.25 -8.32723
      vertex 1.84743 9.25 -8.33387
      vertex 1.89916 -9.25 -8.74336
    endloop
  endfacet
  facet normal -0.992115 0 -0.125332
    outer loop
      vertex 1.84743 9.25 -8.33387
      vertex 1.84659 -9.25 -8.32723
      vertex 1.84659 9.25 -8.32723
    endloop
  endfacet
  facet normal -0.992115 -6.46088e-09 -0.125332
    outer loop
      vertex 1.89916 -9.25 -8.74336
      vertex 1.9 9.25 -8.75
      vertex 1.9 -9.25 -8.75
    endloop
  endfacet
  facet normal -0.992115 -6.73404e-09 -0.125333
    outer loop
      vertex 1.9 9.25 -8.75
      vertex 1.89916 -9.25 -8.74336
      vertex 1.84743 9.25 -8.33387
    endloop
  endfacet
  facet normal -0.929777 0 -0.368124
    outer loop
      vertex 1.84659 -9.25 -8.32723
      vertex 1.68972 9.25 -7.93102
      vertex 1.84659 9.25 -8.32723
    endloop
  endfacet
  facet normal -0.929777 -0 -0.368124
    outer loop
      vertex 1.68972 9.25 -7.93102
      vertex 1.84659 -9.25 -8.32723
      vertex 1.68972 -9.25 -7.93102
    endloop
  endfacet
  facet normal -0.425779 0 0.904827
    outer loop
      vertex 0.725328 9.25 -10.3668
      vertex 1.1109 -9.25 -10.1854
      vertex 1.1109 9.25 -10.1854
    endloop
  endfacet
  facet normal -0.425779 0 0.904827
    outer loop
      vertex 1.1109 -9.25 -10.1854
      vertex 0.725328 9.25 -10.3668
      vertex 0.725328 -9.25 -10.3668
    endloop
  endfacet
  facet normal 0.876306 -0 0.481755
    outer loop
      vertex -1.38062 -9.25 -9.37581
      vertex -1.17533 9.25 -9.74923
      vertex -1.38062 9.25 -9.37581
    endloop
  endfacet
  facet normal 0.876306 0 0.481755
    outer loop
      vertex -1.17533 9.25 -9.74923
      vertex -1.38062 -9.25 -9.37581
      vertex -1.17533 -9.25 -9.74923
    endloop
  endfacet
  facet normal 0.309017 0 -0.951057
    outer loop
      vertex -0.523825 -9.25 -7.21179
      vertex -0.118547 9.25 -7.08011
      vertex -0.118547 -9.25 -7.08011
    endloop
  endfacet
  facet normal 0.309017 0 -0.951057
    outer loop
      vertex -0.118547 9.25 -7.08011
      vertex -0.523825 -9.25 -7.21179
      vertex -0.523825 9.25 -7.21179
    endloop
  endfacet
  facet normal -0.992115 6.73404e-09 0.125333
    outer loop
      vertex 1.9 -9.25 -8.75
      vertex 1.89916 9.25 -8.75664
      vertex 1.84743 -9.25 -9.16613
    endloop
  endfacet
  facet normal -0.992115 6.46088e-09 0.125332
    outer loop
      vertex 1.89916 9.25 -8.75664
      vertex 1.9 -9.25 -8.75
      vertex 1.9 9.25 -8.75
    endloop
  endfacet
  facet normal 0.535827 0 0.844328
    outer loop
      vertex -0.88362 9.25 -10.0599
      vertex -0.523825 -9.25 -10.2882
      vertex -0.523825 9.25 -10.2882
    endloop
  endfacet
  facet normal 0.535827 0 0.844328
    outer loop
      vertex -0.523825 -9.25 -10.2882
      vertex -0.88362 9.25 -10.0599
      vertex -0.88362 -9.25 -10.0599
    endloop
  endfacet
  facet normal -0.809016 0 -0.587786
    outer loop
      vertex 1.68972 -9.25 -7.93102
      vertex 1.43925 9.25 -7.58627
      vertex 1.68972 9.25 -7.93102
    endloop
  endfacet
  facet normal -0.809016 -0 -0.587786
    outer loop
      vertex 1.43925 9.25 -7.58627
      vertex 1.68972 -9.25 -7.93102
      vertex 1.43925 -9.25 -7.58627
    endloop
  endfacet
  facet normal -0.929777 0 0.368124
    outer loop
      vertex 1.68972 -9.25 -9.56898
      vertex 1.84659 9.25 -9.17277
      vertex 1.68972 9.25 -9.56898
    endloop
  endfacet
  facet normal -0.929777 0 0.368124
    outer loop
      vertex 1.84659 9.25 -9.17277
      vertex 1.68972 -9.25 -9.56898
      vertex 1.84659 -9.25 -9.17277
    endloop
  endfacet
  facet normal -0.187381 0 -0.982287
    outer loop
      vertex 0.306744 -9.25 -7.05335
      vertex 0.725328 9.25 -7.1332
      vertex 0.725328 -9.25 -7.1332
    endloop
  endfacet
  facet normal -0.187381 0 -0.982287
    outer loop
      vertex 0.725328 9.25 -7.1332
      vertex 0.306744 -9.25 -7.05335
      vertex 0.306744 9.25 -7.05335
    endloop
  endfacet
  facet normal -0.187381 0 0.982287
    outer loop
      vertex 0.306744 9.25 -10.4466
      vertex 0.725328 -9.25 -10.3668
      vertex 0.725328 9.25 -10.3668
    endloop
  endfacet
  facet normal -0.187381 0 0.982287
    outer loop
      vertex 0.725328 -9.25 -10.3668
      vertex 0.306744 9.25 -10.4466
      vertex 0.306744 -9.25 -10.4466
    endloop
  endfacet
  facet normal 0.876306 0 -0.481755
    outer loop
      vertex -1.17533 -9.25 -7.75076
      vertex -1.38062 9.25 -8.12419
      vertex -1.17533 9.25 -7.75076
    endloop
  endfacet
  facet normal 0.876306 0 -0.481755
    outer loop
      vertex -1.38062 9.25 -8.12419
      vertex -1.17533 -9.25 -7.75076
      vertex -1.38062 -9.25 -8.12419
    endloop
  endfacet
  facet normal 0.728969 0 -0.684547
    outer loop
      vertex -0.88362 -9.25 -7.44013
      vertex -1.17533 9.25 -7.75076
      vertex -0.88362 9.25 -7.44013
    endloop
  endfacet
  facet normal 0.728969 0 -0.684547
    outer loop
      vertex -1.17533 9.25 -7.75076
      vertex -0.88362 -9.25 -7.44013
      vertex -1.17533 -9.25 -7.75076
    endloop
  endfacet
  facet normal -0.992115 0 0.125332
    outer loop
      vertex 1.84743 -9.25 -9.16613
      vertex 1.84659 9.25 -9.17277
      vertex 1.84659 -9.25 -9.17277
    endloop
  endfacet
  facet normal -0.992115 3.76225e-10 0.125333
    outer loop
      vertex 1.84659 9.25 -9.17277
      vertex 1.84743 -9.25 -9.16613
      vertex 1.89916 9.25 -8.75664
    endloop
  endfacet
  facet normal 0.309017 0 0.951057
    outer loop
      vertex -0.523825 9.25 -10.2882
      vertex -0.118547 -9.25 -10.4199
      vertex -0.118547 9.25 -10.4199
    endloop
  endfacet
  facet normal 0.309017 0 0.951057
    outer loop
      vertex -0.118547 -9.25 -10.4199
      vertex -0.523825 9.25 -10.2882
      vertex -0.523825 -9.25 -10.2882
    endloop
  endfacet
  facet normal -0.425779 0 -0.904827
    outer loop
      vertex 0.725328 -9.25 -7.1332
      vertex 1.1109 9.25 -7.31464
      vertex 1.1109 -9.25 -7.31464
    endloop
  endfacet
  facet normal -0.425779 0 -0.904827
    outer loop
      vertex 1.1109 9.25 -7.31464
      vertex 0.725328 -9.25 -7.1332
      vertex 0.725328 9.25 -7.1332
    endloop
  endfacet
  facet normal 0.062791 0 0.998027
    outer loop
      vertex -0.118547 9.25 -10.4199
      vertex 0.306744 -9.25 -10.4466
      vertex 0.306744 9.25 -10.4466
    endloop
  endfacet
  facet normal 0.062791 0 0.998027
    outer loop
      vertex 0.306744 -9.25 -10.4466
      vertex -0.118547 9.25 -10.4199
      vertex -0.118547 -9.25 -10.4199
    endloop
  endfacet
  facet normal -0.809016 0 0.587786
    outer loop
      vertex 1.43925 -9.25 -9.91373
      vertex 1.68972 9.25 -9.56898
      vertex 1.43925 9.25 -9.91373
    endloop
  endfacet
  facet normal -0.809016 0 0.587786
    outer loop
      vertex 1.68972 9.25 -9.56898
      vertex 1.43925 -9.25 -9.91373
      vertex 1.68972 -9.25 -9.56898
    endloop
  endfacet
  facet normal 0.535827 0 -0.844328
    outer loop
      vertex -0.88362 -9.25 -7.44013
      vertex -0.523825 9.25 -7.21179
      vertex -0.523825 -9.25 -7.21179
    endloop
  endfacet
  facet normal 0.535827 0 -0.844328
    outer loop
      vertex -0.523825 9.25 -7.21179
      vertex -0.88362 -9.25 -7.44013
      vertex -0.88362 9.25 -7.44013
    endloop
  endfacet
  facet normal 0.968584 0 -0.248688
    outer loop
      vertex -1.38062 -9.25 -8.12419
      vertex -1.48659 9.25 -8.53693
      vertex -1.38062 9.25 -8.12419
    endloop
  endfacet
  facet normal 0.968584 0 -0.248688
    outer loop
      vertex -1.48659 9.25 -8.53693
      vertex -1.38062 -9.25 -8.12419
      vertex -1.48659 -9.25 -8.53693
    endloop
  endfacet
  facet normal -0.637424 0 -0.770514
    outer loop
      vertex 1.1109 -9.25 -7.31464
      vertex 1.43925 9.25 -7.58627
      vertex 1.43925 -9.25 -7.58627
    endloop
  endfacet
  facet normal -0.637424 0 -0.770514
    outer loop
      vertex 1.43925 9.25 -7.58627
      vertex 1.1109 -9.25 -7.31464
      vertex 1.1109 9.25 -7.31464
    endloop
  endfacet
  facet normal 0.968584 -0 0.248688
    outer loop
      vertex -1.48659 -9.25 -8.96307
      vertex -1.38062 9.25 -9.37581
      vertex -1.48659 9.25 -8.96307
    endloop
  endfacet
  facet normal 0.968584 0 0.248688
    outer loop
      vertex -1.38062 9.25 -9.37581
      vertex -1.48659 -9.25 -8.96307
      vertex -1.38062 -9.25 -9.37581
    endloop
  endfacet
  facet normal 0.062791 0 -0.998027
    outer loop
      vertex -0.118547 -9.25 -7.08011
      vertex 0.306744 9.25 -7.05335
      vertex 0.306744 -9.25 -7.05335
    endloop
  endfacet
  facet normal 0.062791 0 -0.998027
    outer loop
      vertex 0.306744 9.25 -7.05335
      vertex -0.118547 -9.25 -7.08011
      vertex -0.118547 9.25 -7.08011
    endloop
  endfacet
  facet normal 1 -0 0
    outer loop
      vertex -1.48659 -9.25 -8.53693
      vertex -1.48659 9.25 -8.96307
      vertex -1.48659 9.25 -8.53693
    endloop
  endfacet
  facet normal 1 0 0
    outer loop
      vertex -1.48659 9.25 -8.96307
      vertex -1.48659 -9.25 -8.53693
      vertex -1.48659 -9.25 -8.96307
    endloop
  endfacet
  facet normal -0.637424 0 0.770514
    outer loop
      vertex 1.1109 9.25 -10.1854
      vertex 1.43925 -9.25 -9.91373
      vertex 1.43925 9.25 -9.91373
    endloop
  endfacet
  facet normal -0.637424 0 0.770514
    outer loop
      vertex 1.43925 -9.25 -9.91373
      vertex 1.1109 9.25 -10.1854
      vertex 1.1109 -9.25 -10.1854
    endloop
  endfacet
  facet normal 0.728969 -0 0.684547
    outer loop
      vertex -1.17533 -9.25 -9.74923
      vertex -0.88362 9.25 -10.0599
      vertex -1.17533 9.25 -9.74923
    endloop
  endfacet
  facet normal 0.728969 0 0.684547
    outer loop
      vertex -0.88362 9.25 -10.0599
      vertex -1.17533 -9.25 -9.74923
      vertex -0.88362 -9.25 -10.0599
    endloop
  endfacet
  facet normal -0.992115 -3.76225e-10 -0.125333
    outer loop
      vertex 1.84659 -9.25 9.17277
      vertex 1.84743 9.25 9.16613
      vertex 1.89916 -9.25 8.75664
    endloop
  endfacet
  facet normal -0.992115 0 -0.125332
    outer loop
      vertex 1.84743 9.25 9.16613
      vertex 1.84659 -9.25 9.17277
      vertex 1.84659 9.25 9.17277
    endloop
  endfacet
  facet normal -0.425779 0 -0.904827
    outer loop
      vertex 0.725328 -9.25 10.3668
      vertex 1.1109 9.25 10.1854
      vertex 1.1109 -9.25 10.1854
    endloop
  endfacet
  facet normal -0.425779 0 -0.904827
    outer loop
      vertex 1.1109 9.25 10.1854
      vertex 0.725328 -9.25 10.3668
      vertex 0.725328 9.25 10.3668
    endloop
  endfacet
  facet normal -0.929777 0 -0.368124
    outer loop
      vertex 1.84659 -9.25 9.17277
      vertex 1.68972 9.25 9.56898
      vertex 1.84659 9.25 9.17277
    endloop
  endfacet
  facet normal -0.929777 -0 -0.368124
    outer loop
      vertex 1.68972 9.25 9.56898
      vertex 1.84659 -9.25 9.17277
      vertex 1.68972 -9.25 9.56898
    endloop
  endfacet
  facet normal -0.992115 -6.46088e-09 -0.125332
    outer loop
      vertex 1.89916 -9.25 8.75664
      vertex 1.9 9.25 8.75
      vertex 1.9 -9.25 8.75
    endloop
  endfacet
  facet normal -0.992115 -6.73404e-09 -0.125333
    outer loop
      vertex 1.9 9.25 8.75
      vertex 1.89916 -9.25 8.75664
      vertex 1.84743 9.25 9.16613
    endloop
  endfacet
  facet normal -0.425779 0 0.904827
    outer loop
      vertex 0.725328 9.25 7.1332
      vertex 1.1109 -9.25 7.31464
      vertex 1.1109 9.25 7.31464
    endloop
  endfacet
  facet normal -0.425779 0 0.904827
    outer loop
      vertex 1.1109 -9.25 7.31464
      vertex 0.725328 9.25 7.1332
      vertex 0.725328 -9.25 7.1332
    endloop
  endfacet
  facet normal 1 -0 0
    outer loop
      vertex -1.48659 -9.25 8.96307
      vertex -1.48659 9.25 8.53693
      vertex -1.48659 9.25 8.96307
    endloop
  endfacet
  facet normal 1 0 0
    outer loop
      vertex -1.48659 9.25 8.53693
      vertex -1.48659 -9.25 8.96307
      vertex -1.48659 -9.25 8.53693
    endloop
  endfacet
  facet normal 0.535827 0 -0.844328
    outer loop
      vertex -0.88362 -9.25 10.0599
      vertex -0.523825 9.25 10.2882
      vertex -0.523825 -9.25 10.2882
    endloop
  endfacet
  facet normal 0.535827 0 -0.844328
    outer loop
      vertex -0.523825 9.25 10.2882
      vertex -0.88362 -9.25 10.0599
      vertex -0.88362 9.25 10.0599
    endloop
  endfacet
  facet normal 0.728969 0 -0.684547
    outer loop
      vertex -0.88362 -9.25 10.0599
      vertex -1.17533 9.25 9.74923
      vertex -0.88362 9.25 10.0599
    endloop
  endfacet
  facet normal 0.728969 0 -0.684547
    outer loop
      vertex -1.17533 9.25 9.74923
      vertex -0.88362 -9.25 10.0599
      vertex -1.17533 -9.25 9.74923
    endloop
  endfacet
  facet normal -0.187381 0 0.982287
    outer loop
      vertex 0.306744 9.25 7.05335
      vertex 0.725328 -9.25 7.1332
      vertex 0.725328 9.25 7.1332
    endloop
  endfacet
  facet normal -0.187381 0 0.982287
    outer loop
      vertex 0.725328 -9.25 7.1332
      vertex 0.306744 9.25 7.05335
      vertex 0.306744 -9.25 7.05335
    endloop
  endfacet
  facet normal -0.929777 0 0.368124
    outer loop
      vertex 1.68972 -9.25 7.93102
      vertex 1.84659 9.25 8.32723
      vertex 1.68972 9.25 7.93102
    endloop
  endfacet
  facet normal -0.929777 0 0.368124
    outer loop
      vertex 1.84659 9.25 8.32723
      vertex 1.68972 -9.25 7.93102
      vertex 1.84659 -9.25 8.32723
    endloop
  endfacet
  facet normal -0.809016 0 -0.587786
    outer loop
      vertex 1.68972 -9.25 9.56898
      vertex 1.43925 9.25 9.91373
      vertex 1.68972 9.25 9.56898
    endloop
  endfacet
  facet normal -0.809016 -0 -0.587786
    outer loop
      vertex 1.43925 9.25 9.91373
      vertex 1.68972 -9.25 9.56898
      vertex 1.43925 -9.25 9.91373
    endloop
  endfacet
  facet normal -0.809016 0 0.587786
    outer loop
      vertex 1.43925 -9.25 7.58627
      vertex 1.68972 9.25 7.93102
      vertex 1.43925 9.25 7.58627
    endloop
  endfacet
  facet normal -0.809016 0 0.587786
    outer loop
      vertex 1.68972 9.25 7.93102
      vertex 1.43925 -9.25 7.58627
      vertex 1.68972 -9.25 7.93102
    endloop
  endfacet
  facet normal -0.992115 0 0.125332
    outer loop
      vertex 1.84743 -9.25 8.33387
      vertex 1.84659 9.25 8.32723
      vertex 1.84659 -9.25 8.32723
    endloop
  endfacet
  facet normal -0.992115 3.76225e-10 0.125333
    outer loop
      vertex 1.84659 9.25 8.32723
      vertex 1.84743 -9.25 8.33387
      vertex 1.89916 9.25 8.74336
    endloop
  endfacet
  facet normal -0.637424 0 0.770514
    outer loop
      vertex 1.1109 9.25 7.31464
      vertex 1.43925 -9.25 7.58627
      vertex 1.43925 9.25 7.58627
    endloop
  endfacet
  facet normal -0.637424 0 0.770514
    outer loop
      vertex 1.43925 -9.25 7.58627
      vertex 1.1109 9.25 7.31464
      vertex 1.1109 -9.25 7.31464
    endloop
  endfacet
  facet normal 0.876306 0 -0.481755
    outer loop
      vertex -1.17533 -9.25 9.74923
      vertex -1.38062 9.25 9.37581
      vertex -1.17533 9.25 9.74923
    endloop
  endfacet
  facet normal 0.876306 0 -0.481755
    outer loop
      vertex -1.38062 9.25 9.37581
      vertex -1.17533 -9.25 9.74923
      vertex -1.38062 -9.25 9.37581
    endloop
  endfacet
  facet normal 0.728969 -0 0.684547
    outer loop
      vertex -1.17533 -9.25 7.75076
      vertex -0.88362 9.25 7.44013
      vertex -1.17533 9.25 7.75076
    endloop
  endfacet
  facet normal 0.728969 0 0.684547
    outer loop
      vertex -0.88362 9.25 7.44013
      vertex -1.17533 -9.25 7.75076
      vertex -0.88362 -9.25 7.44013
    endloop
  endfacet
  facet normal 0.309017 0 0.951057
    outer loop
      vertex -0.523825 9.25 7.21179
      vertex -0.118547 -9.25 7.08011
      vertex -0.118547 9.25 7.08011
    endloop
  endfacet
  facet normal 0.309017 0 0.951057
    outer loop
      vertex -0.118547 -9.25 7.08011
      vertex -0.523825 9.25 7.21179
      vertex -0.523825 -9.25 7.21179
    endloop
  endfacet
  facet normal 0.876306 -0 0.481755
    outer loop
      vertex -1.38062 -9.25 8.12419
      vertex -1.17533 9.25 7.75076
      vertex -1.38062 9.25 8.12419
    endloop
  endfacet
  facet normal 0.876306 0 0.481755
    outer loop
      vertex -1.17533 9.25 7.75076
      vertex -1.38062 -9.25 8.12419
      vertex -1.17533 -9.25 7.75076
    endloop
  endfacet
  facet normal 0.535827 0 0.844328
    outer loop
      vertex -0.88362 9.25 7.44013
      vertex -0.523825 -9.25 7.21179
      vertex -0.523825 9.25 7.21179
    endloop
  endfacet
  facet normal 0.535827 0 0.844328
    outer loop
      vertex -0.523825 -9.25 7.21179
      vertex -0.88362 9.25 7.44013
      vertex -0.88362 -9.25 7.44013
    endloop
  endfacet
  facet normal -0.992115 6.73404e-09 0.125333
    outer loop
      vertex 1.9 -9.25 8.75
      vertex 1.89916 9.25 8.74336
      vertex 1.84743 -9.25 8.33387
    endloop
  endfacet
  facet normal -0.992115 6.46088e-09 0.125332
    outer loop
      vertex 1.89916 9.25 8.74336
      vertex 1.9 -9.25 8.75
      vertex 1.9 9.25 8.75
    endloop
  endfacet
  facet normal 0.062791 0 0.998027
    outer loop
      vertex -0.118547 9.25 7.08011
      vertex 0.306744 -9.25 7.05335
      vertex 0.306744 9.25 7.05335
    endloop
  endfacet
  facet normal 0.062791 0 0.998027
    outer loop
      vertex 0.306744 -9.25 7.05335
      vertex -0.118547 9.25 7.08011
      vertex -0.118547 -9.25 7.08011
    endloop
  endfacet
  facet normal 0.309017 0 -0.951057
    outer loop
      vertex -0.523825 -9.25 10.2882
      vertex -0.118547 9.25 10.4199
      vertex -0.118547 -9.25 10.4199
    endloop
  endfacet
  facet normal 0.309017 0 -0.951057
    outer loop
      vertex -0.118547 9.25 10.4199
      vertex -0.523825 -9.25 10.2882
      vertex -0.523825 9.25 10.2882
    endloop
  endfacet
  facet normal 0.062791 0 -0.998027
    outer loop
      vertex -0.118547 -9.25 10.4199
      vertex 0.306744 9.25 10.4466
      vertex 0.306744 -9.25 10.4466
    endloop
  endfacet
  facet normal 0.062791 0 -0.998027
    outer loop
      vertex 0.306744 9.25 10.4466
      vertex -0.118547 -9.25 10.4199
      vertex -0.118547 9.25 10.4199
    endloop
  endfacet
  facet normal -0.187381 0 -0.982287
    outer loop
      vertex 0.306744 -9.25 10.4466
      vertex 0.725328 9.25 10.3668
      vertex 0.725328 -9.25 10.3668
    endloop
  endfacet
  facet normal -0.187381 0 -0.982287
    outer loop
      vertex 0.725328 9.25 10.3668
      vertex 0.306744 -9.25 10.4466
      vertex 0.306744 9.25 10.4466
    endloop
  endfacet
  facet normal -0.637424 0 -0.770514
    outer loop
      vertex 1.1109 -9.25 10.1854
      vertex 1.43925 9.25 9.91373
      vertex 1.43925 -9.25 9.91373
    endloop
  endfacet
  facet normal -0.637424 0 -0.770514
    outer loop
      vertex 1.43925 9.25 9.91373
      vertex 1.1109 -9.25 10.1854
      vertex 1.1109 9.25 10.1854
    endloop
  endfacet
  facet normal 0.968584 -0 0.248688
    outer loop
      vertex -1.48659 -9.25 8.53693
      vertex -1.38062 9.25 8.12419
      vertex -1.48659 9.25 8.53693
    endloop
  endfacet
  facet normal 0.968584 0 0.248688
    outer loop
      vertex -1.38062 9.25 8.12419
      vertex -1.48659 -9.25 8.53693
      vertex -1.38062 -9.25 8.12419
    endloop
  endfacet
  facet normal 0.968584 0 -0.248688
    outer loop
      vertex -1.38062 -9.25 9.37581
      vertex -1.48659 9.25 8.96307
      vertex -1.38062 9.25 9.37581
    endloop
  endfacet
  facet normal 0.968584 0 -0.248688
    outer loop
      vertex -1.48659 9.25 8.96307
      vertex -1.38062 -9.25 9.37581
      vertex -1.48659 -9.25 8.96307
    endloop
  endfacet
  facet normal 0 -0.707107 -0.707107
    outer loop
      vertex -32 -3.59315 -11.25
      vertex -9.1 -9.25 -5.59315
      vertex -32 -9.25 -5.59315
    endloop
  endfacet
  facet normal 0 -0.707107 -0.707107
    outer loop
      vertex -9.1 -9.25 -5.59315
      vertex -32 -3.59315 -11.25
      vertex -9.1 -3.59315 -11.25
    endloop
  endfacet
  facet normal -1 0 0
    outer loop
      vertex -9.1 -9.25 -5.59315
      vertex -9.1 -3.59315 -11.25
      vertex -9.1 -9.25 -11.25
    endloop
  endfacet
  facet normal -1 0 -0
    outer loop
      vertex -9.1 9.25 -5.59315
      vertex -9.1 9.25 -11.25
      vertex -9.1 3.59315 -11.25
    endloop
  endfacet
  facet normal 0 0.707107 -0.707107
    outer loop
      vertex -9.1 3.59315 -11.25
      vertex -32 9.25 -5.59315
      vertex -9.1 9.25 -5.59315
    endloop
  endfacet
  facet normal 0 0.707107 -0.707107
    outer loop
      vertex -32 9.25 -5.59315
      vertex -9.1 3.59315 -11.25
      vertex -32 3.59315 -11.25
    endloop
  endfacet
  facet normal -1 0 0
    outer loop
      vertex -9.1 -9.25 11.25
      vertex -9.1 -3.59315 11.25
      vertex -9.1 -9.25 5.59315
    endloop
  endfacet
  facet normal 0 -0.707107 0.707107
    outer loop
      vertex -32 -9.25 5.59315
      vertex -9.1 -3.59315 11.25
      vertex -32 -3.59315 11.25
    endloop
  endfacet
  facet normal 0 -0.707107 0.707107
    outer loop
      vertex -9.1 -3.59315 11.25
      vertex -32 -9.25 5.59315
      vertex -9.1 -9.25 5.59315
    endloop
  endfacet
  facet normal -1 -0 -0
    outer loop
      vertex -9.1 9.25 11.25
      vertex -9.1 9.25 5.59315
      vertex -9.1 3.59315 11.25
    endloop
  endfacet
  facet normal 0 0.707107 0.707107
    outer loop
      vertex -9.1 9.25 5.59315
      vertex -32 3.59315 11.25
      vertex -9.1 3.59315 11.25
    endloop
  endfacet
  facet normal 0 0.707107 0.707107
    outer loop
      vertex -32 3.59315 11.25
      vertex -9.1 9.25 5.59315
      vertex -32 9.25 5.59315
    endloop
  endfacet
  facet normal 1 0 0
    outer loop
      vertex 32 9.25 11.25
      vertex 32 1.4 2.5
      vertex 32 9.25 -11.25
    endloop
  endfacet
  facet normal 1 0 0
    outer loop
      vertex 32 9.25 11.25
      vertex 32 -1.4 2.5
      vertex 32 1.4 2.5
    endloop
  endfacet
  facet normal 1 0 0
    outer loop
      vertex 32 -1.4 2.5
      vertex 32 -9.25 11.25
      vertex 32 -1.4 -2.5
    endloop
  endfacet
  facet normal 1 -0 0
    outer loop
      vertex 32 -9.25 11.25
      vertex 32 -1.4 2.5
      vertex 32 9.25 11.25
    endloop
  endfacet
  facet normal 1 -0 0
    outer loop
      vertex 32 1.4 -2.5
      vertex 32 9.25 -11.25
      vertex 32 1.4 2.5
    endloop
  endfacet
  facet normal 1 -0 0
    outer loop
      vertex 32 -1.4 -2.5
      vertex 32 9.25 -11.25
      vertex 32 1.4 -2.5
    endloop
  endfacet
  facet normal 1 0 0
    outer loop
      vertex 32 -1.4 -2.5
      vertex 32 -9.25 -11.25
      vertex 32 9.25 -11.25
    endloop
  endfacet
  facet normal 1 0 0
    outer loop
      vertex 32 -9.25 -11.25
      vertex 32 -1.4 -2.5
      vertex 32 -9.25 11.25
    endloop
  endfacet
  facet normal -0 0 1
    outer loop
      vertex -32 3.59315 11.25
      vertex -9.1 -3.59315 11.25
      vertex -9.1 3.59315 11.25
    endloop
  endfacet
  facet normal 0 0 1
    outer loop
      vertex -9.1 -3.59315 11.25
      vertex -32 3.59315 11.25
      vertex -32 -3.59315 11.25
    endloop
  endfacet
  facet normal 0 0 1
    outer loop
      vertex -9.1 3.59315 11.25
      vertex 32 9.25 11.25
      vertex -9.1 9.25 11.25
    endloop
  endfacet
  facet normal 0 0 1
    outer loop
      vertex 32 9.25 11.25
      vertex -9.1 3.59315 11.25
      vertex 32 -9.25 11.25
    endloop
  endfacet
  facet normal -0 0 1
    outer loop
      vertex -9.1 -3.59315 11.25
      vertex 32 -9.25 11.25
      vertex -9.1 3.59315 11.25
    endloop
  endfacet
  facet normal 0 0 1
    outer loop
      vertex 32 -9.25 11.25
      vertex -9.1 -3.59315 11.25
      vertex -9.1 -9.25 11.25
    endloop
  endfacet
  facet normal 0 0 -1
    outer loop
      vertex -32 -3.59315 -11.25
      vertex -9.1 3.59315 -11.25
      vertex -9.1 -3.59315 -11.25
    endloop
  endfacet
  facet normal -0 0 -1
    outer loop
      vertex -9.1 3.59315 -11.25
      vertex -32 -3.59315 -11.25
      vertex -32 3.59315 -11.25
    endloop
  endfacet
  facet normal 0 0 -1
    outer loop
      vertex -9.1 -3.59315 -11.25
      vertex 32 -9.25 -11.25
      vertex -9.1 -9.25 -11.25
    endloop
  endfacet
  facet normal 0 0 -1
    outer loop
      vertex 32 -9.25 -11.25
      vertex -9.1 -3.59315 -11.25
      vertex 32 9.25 -11.25
    endloop
  endfacet
  facet normal 0 0 -1
    outer loop
      vertex -9.1 3.59315 -11.25
      vertex 32 9.25 -11.25
      vertex -9.1 -3.59315 -11.25
    endloop
  endfacet
  facet normal -0 0 -1
    outer loop
      vertex 32 9.25 -11.25
      vertex -9.1 3.59315 -11.25
      vertex -9.1 9.25 -11.25
    endloop
  endfacet
  facet normal -1 0 0
    outer loop
      vertex -32 -9.25 -5.59315
      vertex -32 9.25 -5.59315
      vertex -32 3.59315 -11.25
    endloop
  endfacet
  facet normal -1 0 0
    outer loop
      vertex -32 9.25 -5.59315
      vertex -32 -9.25 -5.59315
      vertex -32 9.25 5.59315
    endloop
  endfacet
  facet normal -1 0 0
    outer loop
      vertex -32 -9.25 -5.59315
      vertex -32 3.59315 -11.25
      vertex -32 -3.59315 -11.25
    endloop
  endfacet
  facet normal -1 0 0
    outer loop
      vertex -32 -9.25 5.59315
      vertex -32 9.25 5.59315
      vertex -32 -9.25 -5.59315
    endloop
  endfacet
  facet normal -1 0 0
    outer loop
      vertex -32 9.25 5.59315
      vertex -32 -9.25 5.59315
      vertex -32 3.59315 11.25
    endloop
  endfacet
  facet normal -1 -0 0
    outer loop
      vertex -32 3.59315 11.25
      vertex -32 -9.25 5.59315
      vertex -32 -3.59315 11.25
    endloop
  endfacet
  facet normal 0 1 0
    outer loop
      vertex 32 9.25 11.25
      vertex 0.306744 9.25 10.4466
      vertex -9.1 9.25 11.25
    endloop
  endfacet
  facet normal 0 1 0
    outer loop
      vertex 32 9.25 11.25
      vertex 0.725328 9.25 10.3668
      vertex 0.306744 9.25 10.4466
    endloop
  endfacet
  facet normal 0 1 0
    outer loop
      vertex 32 9.25 11.25
      vertex 1.1109 9.25 10.1854
      vertex 0.725328 9.25 10.3668
    endloop
  endfacet
  facet normal 0 1 0
    outer loop
      vertex 32 9.25 11.25
      vertex 1.43925 9.25 9.91373
      vertex 1.1109 9.25 10.1854
    endloop
  endfacet
  facet normal 0 1 0
    outer loop
      vertex 32 9.25 11.25
      vertex 1.68972 9.25 9.56898
      vertex 1.43925 9.25 9.91373
    endloop
  endfacet
  facet normal 0 1 -0
    outer loop
      vertex 19.9946 9.25 1.85
      vertex 1.68972 9.25 9.56898
      vertex 32 9.25 11.25
    endloop
  endfacet
  facet normal 0 1 0
    outer loop
      vertex 1.68972 9.25 9.56898
      vertex 19.9946 9.25 1.85
      vertex 1.84659 9.25 9.17277
    endloop
  endfacet
  facet normal 0 1 0
    outer loop
      vertex 1.84659 9.25 9.17277
      vertex 19.9946 9.25 1.85
      vertex 1.84743 9.25 9.16613
    endloop
  endfacet
  facet normal 0 1 0
    outer loop
      vertex 1.84743 9.25 9.16613
      vertex 19.9946 9.25 1.85
      vertex 1.9 9.25 8.75
    endloop
  endfacet
  facet normal 0 1 -0
    outer loop
      vertex 19.7752 9.25 1.61641
      vertex 1.9 9.25 8.75
      vertex 19.9946 9.25 1.85
    endloop
  endfacet
  facet normal 0 1 0
    outer loop
      vertex 1.9 9.25 8.75
      vertex 19.7752 9.25 1.61641
      vertex 1.89916 9.25 8.74336
    endloop
  endfacet
  facet normal 0 1 0
    outer loop
      vertex 1.89916 9.25 8.74336
      vertex 19.7752 9.25 1.61641
      vertex 1.84659 9.25 8.32723
    endloop
  endfacet
  facet normal 0 1 -0
    outer loop
      vertex 19.4431 9.25 1.01234
      vertex 1.84659 9.25 8.32723
      vertex 19.7752 9.25 1.61641
    endloop
  endfacet
  facet normal 0 1 0
    outer loop
      vertex 1.84659 9.25 8.32723
      vertex 19.4431 9.25 1.01234
      vertex 1.68972 9.25 7.93102
    endloop
  endfacet
  facet normal 0 1 -0
    outer loop
      vertex 19.2717 9.25 0.344666
      vertex 1.68972 9.25 7.93102
      vertex 19.4431 9.25 1.01234
    endloop
  endfacet
  facet normal 0 1 0
    outer loop
      vertex 1.68972 9.25 7.93102
      vertex 19.2717 9.25 0.344666
      vertex 1.43925 9.25 7.58627
    endloop
  endfacet
  facet normal 0 1 -0
    outer loop
      vertex 19.2717 9.25 -0.344666
      vertex 1.43925 9.25 7.58627
      vertex 19.2717 9.25 0.344666
    endloop
  endfacet
  facet normal 0 1 0
    outer loop
      vertex 19.9946 9.25 1.85
      vertex 32 9.25 11.25
      vertex 24.0283 9.25 1.85
    endloop
  endfacet
  facet normal 0 1 0
    outer loop
      vertex 32 9.25 11.25
      vertex 24.4098 9.25 1.32482
      vertex 24.0283 9.25 1.85
    endloop
  endfacet
  facet normal 0 1 0
    outer loop
      vertex 32 9.25 11.25
      vertex 24.6636 9.25 0.683897
      vertex 24.4098 9.25 1.32482
    endloop
  endfacet
  facet normal 0 1 0
    outer loop
      vertex 32 9.25 11.25
      vertex 24.75 9.25 -2.05391e-15
      vertex 24.6636 9.25 0.683897
    endloop
  endfacet
  facet normal 0 1 -0
    outer loop
      vertex 32 9.25 -11.25
      vertex 24.75 9.25 -2.05391e-15
      vertex 32 9.25 11.25
    endloop
  endfacet
  facet normal 0 1 0
    outer loop
      vertex 24.75 9.25 -2.05391e-15
      vertex 32 9.25 -11.25
      vertex 24.6636 9.25 -0.683897
    endloop
  endfacet
  facet normal 0 1 0
    outer loop
      vertex 32 9.25 -11.25
      vertex 19.9946 9.25 -1.85
      vertex 24.0283 9.25 -1.85
    endloop
  endfacet
  facet normal 0 1 0
    outer loop
      vertex 19.9946 9.25 -1.85
      vertex 0.306744 9.25 -7.05335
      vertex -9.1 9.25 -5.59315
    endloop
  endfacet
  facet normal 0 1 0
    outer loop
      vertex 19.9946 9.25 -1.85
      vertex 0.725328 9.25 -7.1332
      vertex 0.306744 9.25 -7.05335
    endloop
  endfacet
  facet normal 0 1 0
    outer loop
      vertex 19.9946 9.25 -1.85
      vertex 1.1109 9.25 -7.31464
      vertex 0.725328 9.25 -7.1332
    endloop
  endfacet
  facet normal 0 1 0
    outer loop
      vertex 19.9946 9.25 -1.85
      vertex 1.43925 9.25 -7.58627
      vertex 1.1109 9.25 -7.31464
    endloop
  endfacet
  facet normal 0 1 0
    outer loop
      vertex 19.9946 9.25 -1.85
      vertex 1.68972 9.25 -7.93102
      vertex 1.43925 9.25 -7.58627
    endloop
  endfacet
  facet normal 0 1 0
    outer loop
      vertex 19.9946 9.25 -1.85
      vertex 1.84659 9.25 -8.32723
      vertex 1.68972 9.25 -7.93102
    endloop
  endfacet
  facet normal 0 1 0
    outer loop
      vertex 19.9946 9.25 -1.85
      vertex 1.84743 9.25 -8.33387
      vertex 1.84659 9.25 -8.32723
    endloop
  endfacet
  facet normal 0 1 0
    outer loop
      vertex 19.9946 9.25 -1.85
      vertex 1.9 9.25 -8.75
      vertex 1.84743 9.25 -8.33387
    endloop
  endfacet
  facet normal 0 1 0
    outer loop
      vertex 19.9946 9.25 -1.85
      vertex 1.89916 9.25 -8.75664
      vertex 1.9 9.25 -8.75
    endloop
  endfacet
  facet normal 0 1 0
    outer loop
      vertex 19.9946 9.25 -1.85
      vertex 1.84659 9.25 -9.17277
      vertex 1.89916 9.25 -8.75664
    endloop
  endfacet
  facet normal 0 1 0
    outer loop
      vertex 19.9946 9.25 -1.85
      vertex 1.68972 9.25 -9.56898
      vertex 1.84659 9.25 -9.17277
    endloop
  endfacet
  facet normal 0 1 0
    outer loop
      vertex 19.9946 9.25 -1.85
      vertex 32 9.25 -11.25
      vertex 1.68972 9.25 -9.56898
    endloop
  endfacet
  facet normal 0 1 0
    outer loop
      vertex 1.68972 9.25 -9.56898
      vertex 32 9.25 -11.25
      vertex 1.43925 9.25 -9.91373
    endloop
  endfacet
  facet normal 0 1 0
    outer loop
      vertex 1.43925 9.25 -9.91373
      vertex 32 9.25 -11.25
      vertex 1.1109 9.25 -10.1854
    endloop
  endfacet
  facet normal 0 1 0
    outer loop
      vertex 0.725328 9.25 -10.3668
      vertex 32 9.25 -11.25
      vertex 0.306744 9.25 -10.4466
    endloop
  endfacet
  facet normal 0 1 0
    outer loop
      vertex 1.1109 9.25 -10.1854
      vertex 32 9.25 -11.25
      vertex 0.725328 9.25 -10.3668
    endloop
  endfacet
  facet normal 0 1 0
    outer loop
      vertex 24.4098 9.25 -1.32482
      vertex 32 9.25 -11.25
      vertex 24.0283 9.25 -1.85
    endloop
  endfacet
  facet normal 0 1 0
    outer loop
      vertex 24.6636 9.25 -0.683897
      vertex 32 9.25 -11.25
      vertex 24.4098 9.25 -1.32482
    endloop
  endfacet
  facet normal 0 1 -0
    outer loop
      vertex -0.118547 9.25 10.4199
      vertex -9.1 9.25 11.25
      vertex 0.306744 9.25 10.4466
    endloop
  endfacet
  facet normal 0 1 -0
    outer loop
      vertex -0.523825 9.25 10.2882
      vertex -9.1 9.25 11.25
      vertex -0.118547 9.25 10.4199
    endloop
  endfacet
  facet normal 0 1 -0
    outer loop
      vertex -0.88362 9.25 10.0599
      vertex -9.1 9.25 11.25
      vertex -0.523825 9.25 10.2882
    endloop
  endfacet
  facet normal 0 1 -0
    outer loop
      vertex -1.17533 9.25 9.74923
      vertex -9.1 9.25 11.25
      vertex -0.88362 9.25 10.0599
    endloop
  endfacet
  facet normal 0 1 -0
    outer loop
      vertex -1.38062 9.25 9.37581
      vertex -9.1 9.25 11.25
      vertex -1.17533 9.25 9.74923
    endloop
  endfacet
  facet normal 0 1 -0
    outer loop
      vertex -1.48659 9.25 8.96307
      vertex -9.1 9.25 11.25
      vertex -1.38062 9.25 9.37581
    endloop
  endfacet
  facet normal 0 1 -0
    outer loop
      vertex -1.48659 9.25 8.53693
      vertex -9.1 9.25 11.25
      vertex -1.48659 9.25 8.96307
    endloop
  endfacet
  facet normal 0 1 0
    outer loop
      vertex -9.1 9.25 5.59315
      vertex -1.48659 9.25 8.53693
      vertex -1.38062 9.25 8.12419
    endloop
  endfacet
  facet normal 0 1 0
    outer loop
      vertex -9.1 9.25 5.59315
      vertex -1.38062 9.25 8.12419
      vertex -1.17533 9.25 7.75076
    endloop
  endfacet
  facet normal 0 1 0
    outer loop
      vertex -9.1 9.25 5.59315
      vertex -1.17533 9.25 7.75076
      vertex -0.88362 9.25 7.44013
    endloop
  endfacet
  facet normal 0 1 0
    outer loop
      vertex -9.1 9.25 5.59315
      vertex -0.88362 9.25 7.44013
      vertex -0.523825 9.25 7.21179
    endloop
  endfacet
  facet normal 0 1 0
    outer loop
      vertex -1.48659 9.25 8.53693
      vertex -9.1 9.25 5.59315
      vertex -9.1 9.25 11.25
    endloop
  endfacet
  facet normal 0 1 0
    outer loop
      vertex -0.118547 9.25 7.08011
      vertex -9.1 9.25 5.59315
      vertex -0.523825 9.25 7.21179
    endloop
  endfacet
  facet normal 0 1 0
    outer loop
      vertex -9.1 9.25 5.59315
      vertex -0.118547 9.25 7.08011
      vertex 0.306744 9.25 7.05335
    endloop
  endfacet
  facet normal 0 1 0
    outer loop
      vertex 1.43925 9.25 7.58627
      vertex 19.2717 9.25 -0.344666
      vertex 1.1109 9.25 7.31464
    endloop
  endfacet
  facet normal 0 1 0
    outer loop
      vertex 19.4431 9.25 -1.01234
      vertex 1.1109 9.25 7.31464
      vertex 19.2717 9.25 -0.344666
    endloop
  endfacet
  facet normal 0 1 0
    outer loop
      vertex 1.1109 9.25 7.31464
      vertex 19.4431 9.25 -1.01234
      vertex 0.725328 9.25 7.1332
    endloop
  endfacet
  facet normal 0 1 0
    outer loop
      vertex 0.306744 9.25 7.05335
      vertex -9.1 9.25 -5.59315
      vertex -9.1 9.25 5.59315
    endloop
  endfacet
  facet normal 0 1 0
    outer loop
      vertex -9.1 9.25 -5.59315
      vertex 0.725328 9.25 7.1332
      vertex 19.4431 9.25 -1.01234
    endloop
  endfacet
  facet normal 0 1 0
    outer loop
      vertex 0.725328 9.25 7.1332
      vertex -9.1 9.25 -5.59315
      vertex 0.306744 9.25 7.05335
    endloop
  endfacet
  facet normal 0 1 0
    outer loop
      vertex -9.1 9.25 -5.59315
      vertex 19.4431 9.25 -1.01234
      vertex 19.7752 9.25 -1.61641
    endloop
  endfacet
  facet normal 0 1 0
    outer loop
      vertex -9.1 9.25 -5.59315
      vertex 19.7752 9.25 -1.61641
      vertex 19.9946 9.25 -1.85
    endloop
  endfacet
  facet normal 0 1 0
    outer loop
      vertex -9.1 9.25 5.59315
      vertex -9.1 9.25 -5.59315
      vertex -32 9.25 5.59315
    endloop
  endfacet
  facet normal 0 1 0
    outer loop
      vertex -32 9.25 5.59315
      vertex -9.1 9.25 -5.59315
      vertex -32 9.25 -5.59315
    endloop
  endfacet
  facet normal 0 1 -0
    outer loop
      vertex -0.118547 9.25 -7.08011
      vertex -9.1 9.25 -5.59315
      vertex 0.306744 9.25 -7.05335
    endloop
  endfacet
  facet normal 0 1 -0
    outer loop
      vertex -0.523825 9.25 -7.21179
      vertex -9.1 9.25 -5.59315
      vertex -0.118547 9.25 -7.08011
    endloop
  endfacet
  facet normal 0 1 -0
    outer loop
      vertex -0.88362 9.25 -7.44013
      vertex -9.1 9.25 -5.59315
      vertex -0.523825 9.25 -7.21179
    endloop
  endfacet
  facet normal 0 1 -0
    outer loop
      vertex -1.17533 9.25 -7.75076
      vertex -9.1 9.25 -5.59315
      vertex -0.88362 9.25 -7.44013
    endloop
  endfacet
  facet normal 0 1 -0
    outer loop
      vertex -1.38062 9.25 -8.12419
      vertex -9.1 9.25 -5.59315
      vertex -1.17533 9.25 -7.75076
    endloop
  endfacet
  facet normal 0 1 -0
    outer loop
      vertex -1.48659 9.25 -8.53693
      vertex -9.1 9.25 -5.59315
      vertex -1.38062 9.25 -8.12419
    endloop
  endfacet
  facet normal 0 1 0
    outer loop
      vertex -9.1 9.25 -11.25
      vertex -1.48659 9.25 -8.53693
      vertex -1.48659 9.25 -8.96307
    endloop
  endfacet
  facet normal 0 1 0
    outer loop
      vertex -9.1 9.25 -11.25
      vertex -1.48659 9.25 -8.96307
      vertex -1.38062 9.25 -9.37581
    endloop
  endfacet
  facet normal 0 1 0
    outer loop
      vertex -9.1 9.25 -11.25
      vertex -1.38062 9.25 -9.37581
      vertex -1.17533 9.25 -9.74923
    endloop
  endfacet
  facet normal 0 1 0
    outer loop
      vertex -9.1 9.25 -11.25
      vertex -1.17533 9.25 -9.74923
      vertex -0.88362 9.25 -10.0599
    endloop
  endfacet
  facet normal 0 1 0
    outer loop
      vertex -9.1 9.25 -11.25
      vertex -0.88362 9.25 -10.0599
      vertex -0.523825 9.25 -10.2882
    endloop
  endfacet
  facet normal 0 1 0
    outer loop
      vertex -1.48659 9.25 -8.53693
      vertex -9.1 9.25 -11.25
      vertex -9.1 9.25 -5.59315
    endloop
  endfacet
  facet normal 0 1 0
    outer loop
      vertex -0.118547 9.25 -10.4199
      vertex -9.1 9.25 -11.25
      vertex -0.523825 9.25 -10.2882
    endloop
  endfacet
  facet normal 0 1 0
    outer loop
      vertex 0.306744 9.25 -10.4466
      vertex -9.1 9.25 -11.25
      vertex -0.118547 9.25 -10.4199
    endloop
  endfacet
  facet normal 0 1 0
    outer loop
      vertex -9.1 9.25 -11.25
      vertex 0.306744 9.25 -10.4466
      vertex 32 9.25 -11.25
    endloop
  endfacet
  facet normal 0 -1 0
    outer loop
      vertex -0.118547 -9.25 7.08011
      vertex -0.118547 -9.25 -7.08011
      vertex 0.306744 -9.25 -7.05335
    endloop
  endfacet
  facet normal 0 -1 0
    outer loop
      vertex -0.523825 -9.25 7.21179
      vertex -0.523825 -9.25 -7.21179
      vertex -0.118547 -9.25 -7.08011
    endloop
  endfacet
  facet normal 0 -1 0
    outer loop
      vertex -9.1 -9.25 -5.59315
      vertex -0.88362 -9.25 -7.44013
      vertex -0.523825 -9.25 -7.21179
    endloop
  endfacet
  facet normal 0 -1 0
    outer loop
      vertex -9.1 -9.25 -5.59315
      vertex -1.17533 -9.25 -7.75076
      vertex -0.88362 -9.25 -7.44013
    endloop
  endfacet
  facet normal 0 -1 0
    outer loop
      vertex -9.1 -9.25 -5.59315
      vertex -1.38062 -9.25 -8.12419
      vertex -1.17533 -9.25 -7.75076
    endloop
  endfacet
  facet normal 0 -1 0
    outer loop
      vertex -9.1 -9.25 -5.59315
      vertex -1.48659 -9.25 -8.53693
      vertex -1.38062 -9.25 -8.12419
    endloop
  endfacet
  facet normal 0 -1 0
    outer loop
      vertex -9.1 -9.25 -11.25
      vertex -1.48659 -9.25 -8.53693
      vertex -9.1 -9.25 -5.59315
    endloop
  endfacet
  facet normal 0 -1 -0
    outer loop
      vertex -1.48659 -9.25 -8.53693
      vertex -9.1 -9.25 -11.25
      vertex -1.48659 -9.25 -8.96307
    endloop
  endfacet
  facet normal 0 -1 -0
    outer loop
      vertex -1.48659 -9.25 -8.96307
      vertex -9.1 -9.25 -11.25
      vertex -1.38062 -9.25 -9.37581
    endloop
  endfacet
  facet normal 0 -1 -0
    outer loop
      vertex -1.38062 -9.25 -9.37581
      vertex -9.1 -9.25 -11.25
      vertex -1.17533 -9.25 -9.74923
    endloop
  endfacet
  facet normal 0 -1 -0
    outer loop
      vertex -1.17533 -9.25 -9.74923
      vertex -9.1 -9.25 -11.25
      vertex -0.88362 -9.25 -10.0599
    endloop
  endfacet
  facet normal 0 -1 -0
    outer loop
      vertex -0.118547 -9.25 -10.4199
      vertex -9.1 -9.25 -11.25
      vertex 0.306744 -9.25 -10.4466
    endloop
  endfacet
  facet normal 0 -1 -0
    outer loop
      vertex -0.523825 -9.25 -10.2882
      vertex -9.1 -9.25 -11.25
      vertex -0.118547 -9.25 -10.4199
    endloop
  endfacet
  facet normal 0 -1 -0
    outer loop
      vertex -0.88362 -9.25 -10.0599
      vertex -9.1 -9.25 -11.25
      vertex -0.523825 -9.25 -10.2882
    endloop
  endfacet
  facet normal 0 -1 0
    outer loop
      vertex -9.1 -9.25 11.25
      vertex 0.306744 -9.25 10.4466
      vertex 32 -9.25 11.25
    endloop
  endfacet
  facet normal 0 -1 0
    outer loop
      vertex -9.1 -9.25 11.25
      vertex -0.118547 -9.25 10.4199
      vertex 0.306744 -9.25 10.4466
    endloop
  endfacet
  facet normal 0 -1 0
    outer loop
      vertex -9.1 -9.25 11.25
      vertex -0.523825 -9.25 10.2882
      vertex -0.118547 -9.25 10.4199
    endloop
  endfacet
  facet normal 0 -1 0
    outer loop
      vertex -9.1 -9.25 11.25
      vertex -0.88362 -9.25 10.0599
      vertex -0.523825 -9.25 10.2882
    endloop
  endfacet
  facet normal 0 -1 0
    outer loop
      vertex -9.1 -9.25 11.25
      vertex -1.17533 -9.25 9.74923
      vertex -0.88362 -9.25 10.0599
    endloop
  endfacet
  facet normal 0 -1 0
    outer loop
      vertex -9.1 -9.25 11.25
      vertex -1.38062 -9.25 9.37581
      vertex -1.17533 -9.25 9.74923
    endloop
  endfacet
  facet normal 0 -1 0
    outer loop
      vertex -9.1 -9.25 11.25
      vertex -1.48659 -9.25 8.96307
      vertex -1.38062 -9.25 9.37581
    endloop
  endfacet
  facet normal 0 -1 0
    outer loop
      vertex -9.1 -9.25 11.25
      vertex -1.48659 -9.25 8.53693
      vertex -1.48659 -9.25 8.96307
    endloop
  endfacet
  facet normal 0 -1 0
    outer loop
      vertex -9.1 -9.25 5.59315
      vertex -1.48659 -9.25 8.53693
      vertex -9.1 -9.25 11.25
    endloop
  endfacet
  facet normal 0 -1 -0
    outer loop
      vertex -1.48659 -9.25 8.53693
      vertex -9.1 -9.25 5.59315
      vertex -1.38062 -9.25 8.12419
    endloop
  endfacet
  facet normal 0 -1 -0
    outer loop
      vertex -1.38062 -9.25 8.12419
      vertex -9.1 -9.25 5.59315
      vertex -1.17533 -9.25 7.75076
    endloop
  endfacet
  facet normal 0 -1 -0
    outer loop
      vertex -1.17533 -9.25 7.75076
      vertex -9.1 -9.25 5.59315
      vertex -0.88362 -9.25 7.44013
    endloop
  endfacet
  facet normal 0 -1 0
    outer loop
      vertex -0.523825 -9.25 -7.21179
      vertex -0.523825 -9.25 7.21179
      vertex -9.1 -9.25 -5.59315
    endloop
  endfacet
  facet normal 0 -1 0
    outer loop
      vertex -9.1 -9.25 -5.59315
      vertex -0.523825 -9.25 7.21179
      vertex -9.1 -9.25 5.59315
    endloop
  endfacet
  facet normal 0 -1 -0
    outer loop
      vertex -0.88362 -9.25 7.44013
      vertex -9.1 -9.25 5.59315
      vertex -0.523825 -9.25 7.21179
    endloop
  endfacet
  facet normal 0 -1 0
    outer loop
      vertex 0.725328 -9.25 10.3668
      vertex 32 -9.25 11.25
      vertex 0.306744 -9.25 10.4466
    endloop
  endfacet
  facet normal 0 -1 0
    outer loop
      vertex 1.1109 -9.25 10.1854
      vertex 32 -9.25 11.25
      vertex 0.725328 -9.25 10.3668
    endloop
  endfacet
  facet normal 0 -1 0
    outer loop
      vertex 1.43925 -9.25 9.91373
      vertex 32 -9.25 11.25
      vertex 1.1109 -9.25 10.1854
    endloop
  endfacet
  facet normal 0 -1 0
    outer loop
      vertex 1.68972 -9.25 9.56898
      vertex 32 -9.25 11.25
      vertex 1.43925 -9.25 9.91373
    endloop
  endfacet
  facet normal 0 -1 0
    outer loop
      vertex 19.9946 -9.25 1.85
      vertex 1.68972 -9.25 9.56898
      vertex 1.84659 -9.25 9.17277
    endloop
  endfacet
  facet normal 0 -1 0
    outer loop
      vertex 19.9946 -9.25 1.85
      vertex 1.84659 -9.25 9.17277
      vertex 1.89916 -9.25 8.75664
    endloop
  endfacet
  facet normal 0 -1 0
    outer loop
      vertex 19.9946 -9.25 1.85
      vertex 1.89916 -9.25 8.75664
      vertex 1.9 -9.25 8.75
    endloop
  endfacet
  facet normal 0 -1 0
    outer loop
      vertex 19.7752 -9.25 1.61641
      vertex 1.9 -9.25 8.75
      vertex 1.84743 -9.25 8.33387
    endloop
  endfacet
  facet normal 0 -1 0
    outer loop
      vertex 19.7752 -9.25 1.61641
      vertex 1.84743 -9.25 8.33387
      vertex 1.84659 -9.25 8.32723
    endloop
  endfacet
  facet normal 0 -1 0
    outer loop
      vertex 19.4431 -9.25 1.01234
      vertex 1.84659 -9.25 8.32723
      vertex 1.68972 -9.25 7.93102
    endloop
  endfacet
  facet normal 0 -1 0
    outer loop
      vertex 19.2717 -9.25 0.344666
      vertex 1.68972 -9.25 7.93102
      vertex 1.43925 -9.25 7.58627
    endloop
  endfacet
  facet normal 0 -1 0
    outer loop
      vertex 1.43925 -9.25 -7.58627
      vertex 1.43925 -9.25 7.58627
      vertex 1.1109 -9.25 7.31464
    endloop
  endfacet
  facet normal 0 -1 0
    outer loop
      vertex 1.1109 -9.25 -7.31464
      vertex 1.1109 -9.25 7.31464
      vertex 0.725328 -9.25 7.1332
    endloop
  endfacet
  facet normal 0 -1 0
    outer loop
      vertex 0.725328 -9.25 -7.1332
      vertex 0.725328 -9.25 7.1332
      vertex 0.306744 -9.25 7.05335
    endloop
  endfacet
  facet normal 0 -1 0
    outer loop
      vertex -0.118547 -9.25 7.08011
      vertex 0.306744 -9.25 -7.05335
      vertex 0.306744 -9.25 7.05335
    endloop
  endfacet
  facet normal 0 -1 0
    outer loop
      vertex 1.68972 -9.25 9.56898
      vertex 19.9946 -9.25 1.85
      vertex 32 -9.25 11.25
    endloop
  endfacet
  facet normal 0 -1 0
    outer loop
      vertex 24.0283 -9.25 1.85
      vertex 32 -9.25 11.25
      vertex 19.9946 -9.25 1.85
    endloop
  endfacet
  facet normal 0 -1 0
    outer loop
      vertex 24.4098 -9.25 1.32482
      vertex 32 -9.25 11.25
      vertex 24.0283 -9.25 1.85
    endloop
  endfacet
  facet normal 0 -1 0
    outer loop
      vertex 24.6636 -9.25 0.683897
      vertex 32 -9.25 11.25
      vertex 24.4098 -9.25 1.32482
    endloop
  endfacet
  facet normal 0 -1 0
    outer loop
      vertex 24.75 -9.25 2.05391e-15
      vertex 32 -9.25 11.25
      vertex 24.6636 -9.25 0.683897
    endloop
  endfacet
  facet normal 0 -1 0
    outer loop
      vertex 32 -9.25 -11.25
      vertex 24.75 -9.25 2.05391e-15
      vertex 24.6636 -9.25 -0.683897
    endloop
  endfacet
  facet normal 0 -1 0
    outer loop
      vertex 32 -9.25 -11.25
      vertex 24.6636 -9.25 -0.683897
      vertex 24.4098 -9.25 -1.32482
    endloop
  endfacet
  facet normal 0 -1 -0
    outer loop
      vertex 19.2717 -9.25 0.344666
      vertex 1.43925 -9.25 -7.58627
      vertex 19.2717 -9.25 -0.344666
    endloop
  endfacet
  facet normal 0 -1 0
    outer loop
      vertex 1.68972 -9.25 -7.93102
      vertex 19.2717 -9.25 -0.344666
      vertex 1.43925 -9.25 -7.58627
    endloop
  endfacet
  facet normal 0 -1 -0
    outer loop
      vertex 19.2717 -9.25 -0.344666
      vertex 1.68972 -9.25 -7.93102
      vertex 19.4431 -9.25 -1.01234
    endloop
  endfacet
  facet normal 0 -1 0
    outer loop
      vertex 1.84659 -9.25 -8.32723
      vertex 19.4431 -9.25 -1.01234
      vertex 1.68972 -9.25 -7.93102
    endloop
  endfacet
  facet normal 0 -1 -0
    outer loop
      vertex 19.4431 -9.25 -1.01234
      vertex 1.84659 -9.25 -8.32723
      vertex 19.7752 -9.25 -1.61641
    endloop
  endfacet
  facet normal 0 -1 0
    outer loop
      vertex 1.89916 -9.25 -8.74336
      vertex 19.7752 -9.25 -1.61641
      vertex 1.84659 -9.25 -8.32723
    endloop
  endfacet
  facet normal 0 -1 0
    outer loop
      vertex 1.9 -9.25 -8.75
      vertex 19.7752 -9.25 -1.61641
      vertex 1.89916 -9.25 -8.74336
    endloop
  endfacet
  facet normal 0 -1 -0
    outer loop
      vertex 19.7752 -9.25 -1.61641
      vertex 1.9 -9.25 -8.75
      vertex 19.9946 -9.25 -1.85
    endloop
  endfacet
  facet normal 0 -1 0
    outer loop
      vertex 1.84743 -9.25 -9.16613
      vertex 19.9946 -9.25 -1.85
      vertex 1.9 -9.25 -8.75
    endloop
  endfacet
  facet normal 0 -1 0
    outer loop
      vertex 1.84659 -9.25 -9.17277
      vertex 19.9946 -9.25 -1.85
      vertex 1.84743 -9.25 -9.16613
    endloop
  endfacet
  facet normal 0 -1 0
    outer loop
      vertex 1.68972 -9.25 -9.56898
      vertex 19.9946 -9.25 -1.85
      vertex 1.84659 -9.25 -9.17277
    endloop
  endfacet
  facet normal 0 -1 0
    outer loop
      vertex 32 -9.25 -11.25
      vertex 19.9946 -9.25 -1.85
      vertex 1.68972 -9.25 -9.56898
    endloop
  endfacet
  facet normal 0 -1 0
    outer loop
      vertex 32 -9.25 -11.25
      vertex 1.68972 -9.25 -9.56898
      vertex 1.43925 -9.25 -9.91373
    endloop
  endfacet
  facet normal 0 -1 0
    outer loop
      vertex 32 -9.25 -11.25
      vertex 1.43925 -9.25 -9.91373
      vertex 1.1109 -9.25 -10.1854
    endloop
  endfacet
  facet normal 0 -1 0
    outer loop
      vertex 32 -9.25 -11.25
      vertex 1.1109 -9.25 -10.1854
      vertex 0.725328 -9.25 -10.3668
    endloop
  endfacet
  facet normal 0 -1 0
    outer loop
      vertex 24.75 -9.25 2.05391e-15
      vertex 32 -9.25 -11.25
      vertex 32 -9.25 11.25
    endloop
  endfacet
  facet normal 0 -1 0
    outer loop
      vertex 24.0283 -9.25 -1.85
      vertex 32 -9.25 -11.25
      vertex 24.4098 -9.25 -1.32482
    endloop
  endfacet
  facet normal 0 -1 0
    outer loop
      vertex 19.9946 -9.25 -1.85
      vertex 32 -9.25 -11.25
      vertex 24.0283 -9.25 -1.85
    endloop
  endfacet
  facet normal 0 -1 0
    outer loop
      vertex 0.306744 -9.25 -10.4466
      vertex 32 -9.25 -11.25
      vertex 0.725328 -9.25 -10.3668
    endloop
  endfacet
  facet normal 0 -1 0
    outer loop
      vertex 32 -9.25 -11.25
      vertex 0.306744 -9.25 -10.4466
      vertex -9.1 -9.25 -11.25
    endloop
  endfacet
  facet normal 0 -1 0
    outer loop
      vertex -32 -9.25 -5.59315
      vertex -9.1 -9.25 5.59315
      vertex -32 -9.25 5.59315
    endloop
  endfacet
  facet normal 0 -1 0
    outer loop
      vertex 1.9 -9.25 8.75
      vertex 19.7752 -9.25 1.61641
      vertex 19.9946 -9.25 1.85
    endloop
  endfacet
  facet normal 0 -1 0
    outer loop
      vertex 1.84659 -9.25 8.32723
      vertex 19.4431 -9.25 1.01234
      vertex 19.7752 -9.25 1.61641
    endloop
  endfacet
  facet normal 0 -1 0
    outer loop
      vertex 0.306744 -9.25 7.05335
      vertex 0.306744 -9.25 -7.05335
      vertex 0.725328 -9.25 -7.1332
    endloop
  endfacet
  facet normal 0 -1 0
    outer loop
      vertex 0.725328 -9.25 7.1332
      vertex 0.725328 -9.25 -7.1332
      vertex 1.1109 -9.25 -7.31464
    endloop
  endfacet
  facet normal 0 -1 0
    outer loop
      vertex -9.1 -9.25 -5.59315
      vertex -9.1 -9.25 5.59315
      vertex -32 -9.25 -5.59315
    endloop
  endfacet
  facet normal 0 -1 0
    outer loop
      vertex -0.118547 -9.25 -7.08011
      vertex -0.118547 -9.25 7.08011
      vertex -0.523825 -9.25 7.21179
    endloop
  endfacet
  facet normal 0 -1 0
    outer loop
      vertex 1.1109 -9.25 7.31464
      vertex 1.1109 -9.25 -7.31464
      vertex 1.43925 -9.25 -7.58627
    endloop
  endfacet
  facet normal 0 -1 0
    outer loop
      vertex 1.43925 -9.25 7.58627
      vertex 1.43925 -9.25 -7.58627
      vertex 19.2717 -9.25 0.344666
    endloop
  endfacet
  facet normal 0 -1 0
    outer loop
      vertex 1.68972 -9.25 7.93102
      vertex 19.2717 -9.25 0.344666
      vertex 19.4431 -9.25 1.01234
    endloop
  endfacet
  facet normal 0.929777 -0 0.368123
    outer loop
      vertex 24.4098 9.25 1.32482
      vertex 24.6636 19.25 0.683897
      vertex 24.4098 19.25 1.32482
    endloop
  endfacet
  facet normal 0.929777 0 0.368123
    outer loop
      vertex 24.6636 19.25 0.683897
      vertex 24.4098 9.25 1.32482
      vertex 24.6636 9.25 0.683897
    endloop
  endfacet
  facet normal 0.929777 -0 0.368123
    outer loop
      vertex 24.4098 -19.25 1.32482
      vertex 24.6636 -9.25 0.683897
      vertex 24.4098 -9.25 1.32482
    endloop
  endfacet
  facet normal 0.929777 0 0.368123
    outer loop
      vertex 24.6636 -9.25 0.683897
      vertex 24.4098 -19.25 1.32482
      vertex 24.6636 -19.25 0.683897
    endloop
  endfacet
  facet normal 0.992115 -0 0.125334
    outer loop
      vertex 24.6636 9.25 0.683897
      vertex 24.75 19.25 -4.27436e-15
      vertex 24.6636 19.25 0.683897
    endloop
  endfacet
  facet normal 0.992115 2.78298e-17 0.125334
    outer loop
      vertex 24.75 19.25 -4.27436e-15
      vertex 24.6636 9.25 0.683897
      vertex 24.75 9.25 -2.05391e-15
    endloop
  endfacet
  facet normal 0.992115 -0 0.125334
    outer loop
      vertex 24.6636 -19.25 0.683897
      vertex 24.75 -9.25 2.05391e-15
      vertex 24.6636 -9.25 0.683897
    endloop
  endfacet
  facet normal 0.992115 2.78298e-17 0.125334
    outer loop
      vertex 24.75 -9.25 2.05391e-15
      vertex 24.6636 -19.25 0.683897
      vertex 24.75 -19.25 4.27436e-15
    endloop
  endfacet
  facet normal 0.809017 -0 0.587785
    outer loop
      vertex 24.0283 9.25 1.85
      vertex 24.4098 19.25 1.32482
      vertex 24.0283 19.25 1.85
    endloop
  endfacet
  facet normal 0.809017 0 0.587785
    outer loop
      vertex 24.4098 19.25 1.32482
      vertex 24.0283 9.25 1.85
      vertex 24.4098 9.25 1.32482
    endloop
  endfacet
  facet normal 0.809017 -0 0.587785
    outer loop
      vertex 24.0283 -19.25 1.85
      vertex 24.4098 -9.25 1.32482
      vertex 24.0283 -9.25 1.85
    endloop
  endfacet
  facet normal 0.809017 0 0.587785
    outer loop
      vertex 24.4098 -9.25 1.32482
      vertex 24.0283 -19.25 1.85
      vertex 24.4098 -19.25 1.32482
    endloop
  endfacet
  facet normal 0.809017 0 -0.587785
    outer loop
      vertex 24.4098 9.25 -1.32482
      vertex 24.0283 19.25 -1.85
      vertex 24.4098 19.25 -1.32482
    endloop
  endfacet
  facet normal 0.809017 0 -0.587785
    outer loop
      vertex 24.0283 19.25 -1.85
      vertex 24.4098 9.25 -1.32482
      vertex 24.0283 9.25 -1.85
    endloop
  endfacet
  facet normal 0.809017 0 -0.587785
    outer loop
      vertex 24.4098 -19.25 -1.32482
      vertex 24.0283 -9.25 -1.85
      vertex 24.4098 -9.25 -1.32482
    endloop
  endfacet
  facet normal 0.809017 0 -0.587785
    outer loop
      vertex 24.0283 -9.25 -1.85
      vertex 24.4098 -19.25 -1.32482
      vertex 24.0283 -19.25 -1.85
    endloop
  endfacet
  facet normal -0.876307 0 -0.481754
    outer loop
      vertex 19.7752 -19.25 -1.61641
      vertex 19.4431 -9.25 -1.01234
      vertex 19.7752 -9.25 -1.61641
    endloop
  endfacet
  facet normal -0.876307 -0 -0.481754
    outer loop
      vertex 19.4431 -9.25 -1.01234
      vertex 19.7752 -19.25 -1.61641
      vertex 19.4431 -19.25 -1.01234
    endloop
  endfacet
  facet normal -0.876307 0 -0.481754
    outer loop
      vertex 19.7752 9.25 -1.61641
      vertex 19.4431 19.25 -1.01234
      vertex 19.7752 19.25 -1.61641
    endloop
  endfacet
  facet normal -0.876307 -0 -0.481754
    outer loop
      vertex 19.4431 19.25 -1.01234
      vertex 19.7752 9.25 -1.61641
      vertex 19.4431 9.25 -1.01234
    endloop
  endfacet
  facet normal -0.728967 0 0.684548
    outer loop
      vertex 19.7752 9.25 1.61641
      vertex 19.9946 19.25 1.85
      vertex 19.7752 19.25 1.61641
    endloop
  endfacet
  facet normal -0.728967 0 0.684548
    outer loop
      vertex 19.9946 19.25 1.85
      vertex 19.7752 9.25 1.61641
      vertex 19.9946 9.25 1.85
    endloop
  endfacet
  facet normal -0.728967 0 0.684548
    outer loop
      vertex 19.7752 -19.25 1.61641
      vertex 19.9946 -9.25 1.85
      vertex 19.7752 -9.25 1.61641
    endloop
  endfacet
  facet normal -0.728967 0 0.684548
    outer loop
      vertex 19.9946 -9.25 1.85
      vertex 19.7752 -19.25 1.61641
      vertex 19.9946 -19.25 1.85
    endloop
  endfacet
  facet normal -0.728967 0 -0.684548
    outer loop
      vertex 19.9946 9.25 -1.85
      vertex 19.7752 19.25 -1.61641
      vertex 19.9946 19.25 -1.85
    endloop
  endfacet
  facet normal -0.728967 -0 -0.684548
    outer loop
      vertex 19.7752 19.25 -1.61641
      vertex 19.9946 9.25 -1.85
      vertex 19.7752 9.25 -1.61641
    endloop
  endfacet
  facet normal -0.728967 0 -0.684548
    outer loop
      vertex 19.9946 -19.25 -1.85
      vertex 19.7752 -9.25 -1.61641
      vertex 19.9946 -9.25 -1.85
    endloop
  endfacet
  facet normal -0.728967 -0 -0.684548
    outer loop
      vertex 19.7752 -9.25 -1.61641
      vertex 19.9946 -19.25 -1.85
      vertex 19.7752 -19.25 -1.61641
    endloop
  endfacet
  facet normal 0.929777 0 -0.368123
    outer loop
      vertex 24.6636 9.25 -0.683897
      vertex 24.4098 19.25 -1.32482
      vertex 24.6636 19.25 -0.683897
    endloop
  endfacet
  facet normal 0.929777 0 -0.368123
    outer loop
      vertex 24.4098 19.25 -1.32482
      vertex 24.6636 9.25 -0.683897
      vertex 24.4098 9.25 -1.32482
    endloop
  endfacet
  facet normal 0.929777 0 -0.368123
    outer loop
      vertex 24.6636 -19.25 -0.683897
      vertex 24.4098 -9.25 -1.32482
      vertex 24.6636 -9.25 -0.683897
    endloop
  endfacet
  facet normal 0.929777 0 -0.368123
    outer loop
      vertex 24.4098 -9.25 -1.32482
      vertex 24.6636 -19.25 -0.683897
      vertex 24.4098 -19.25 -1.32482
    endloop
  endfacet
  facet normal -0.876307 0 0.481754
    outer loop
      vertex 19.4431 9.25 1.01234
      vertex 19.7752 19.25 1.61641
      vertex 19.4431 19.25 1.01234
    endloop
  endfacet
  facet normal -0.876307 0 0.481754
    outer loop
      vertex 19.7752 19.25 1.61641
      vertex 19.4431 9.25 1.01234
      vertex 19.7752 9.25 1.61641
    endloop
  endfacet
  facet normal -0.876307 0 0.481754
    outer loop
      vertex 19.4431 -19.25 1.01234
      vertex 19.7752 -9.25 1.61641
      vertex 19.4431 -9.25 1.01234
    endloop
  endfacet
  facet normal -0.876307 0 0.481754
    outer loop
      vertex 19.7752 -9.25 1.61641
      vertex 19.4431 -19.25 1.01234
      vertex 19.7752 -19.25 1.61641
    endloop
  endfacet
  facet normal -1 0 0
    outer loop
      vertex 19.2717 -19.25 -0.344666
      vertex 19.2717 -9.25 0.344666
      vertex 19.2717 -9.25 -0.344666
    endloop
  endfacet
  facet normal -1 -0 0
    outer loop
      vertex 19.2717 -9.25 0.344666
      vertex 19.2717 -19.25 -0.344666
      vertex 19.2717 -19.25 0.344666
    endloop
  endfacet
  facet normal -1 0 0
    outer loop
      vertex 19.2717 9.25 -0.344666
      vertex 19.2717 19.25 0.344666
      vertex 19.2717 19.25 -0.344666
    endloop
  endfacet
  facet normal -1 -0 0
    outer loop
      vertex 19.2717 19.25 0.344666
      vertex 19.2717 9.25 -0.344666
      vertex 19.2717 9.25 0.344666
    endloop
  endfacet
  facet normal -0.968583 0 0.24869
    outer loop
      vertex 19.2717 9.25 0.344666
      vertex 19.4431 19.25 1.01234
      vertex 19.2717 19.25 0.344666
    endloop
  endfacet
  facet normal -0.968583 0 0.24869
    outer loop
      vertex 19.4431 19.25 1.01234
      vertex 19.2717 9.25 0.344666
      vertex 19.4431 9.25 1.01234
    endloop
  endfacet
  facet normal -0.968583 0 0.24869
    outer loop
      vertex 19.2717 -19.25 0.344666
      vertex 19.4431 -9.25 1.01234
      vertex 19.2717 -9.25 0.344666
    endloop
  endfacet
  facet normal -0.968583 0 0.24869
    outer loop
      vertex 19.4431 -9.25 1.01234
      vertex 19.2717 -19.25 0.344666
      vertex 19.4431 -19.25 1.01234
    endloop
  endfacet
  facet normal 0.992115 -2.78298e-17 -0.125334
    outer loop
      vertex 24.75 -19.25 4.27436e-15
      vertex 24.6636 -9.25 -0.683897
      vertex 24.75 -9.25 2.05391e-15
    endloop
  endfacet
  facet normal 0.992115 0 -0.125334
    outer loop
      vertex 24.6636 -9.25 -0.683897
      vertex 24.75 -19.25 4.27436e-15
      vertex 24.6636 -19.25 -0.683897
    endloop
  endfacet
  facet normal 0.992115 -2.78298e-17 -0.125334
    outer loop
      vertex 24.75 9.25 -2.05391e-15
      vertex 24.6636 19.25 -0.683897
      vertex 24.75 19.25 -4.27436e-15
    endloop
  endfacet
  facet normal 0.992115 0 -0.125334
    outer loop
      vertex 24.6636 19.25 -0.683897
      vertex 24.75 9.25 -2.05391e-15
      vertex 24.6636 9.25 -0.683897
    endloop
  endfacet
  facet normal -0.968583 0 -0.24869
    outer loop
      vertex 19.4431 -19.25 -1.01234
      vertex 19.2717 -9.25 -0.344666
      vertex 19.4431 -9.25 -1.01234
    endloop
  endfacet
  facet normal -0.968583 -0 -0.24869
    outer loop
      vertex 19.2717 -9.25 -0.344666
      vertex 19.4431 -19.25 -1.01234
      vertex 19.2717 -19.25 -0.344666
    endloop
  endfacet
  facet normal -0.968583 0 -0.24869
    outer loop
      vertex 19.4431 9.25 -1.01234
      vertex 19.2717 19.25 -0.344666
      vertex 19.4431 19.25 -1.01234
    endloop
  endfacet
  facet normal -0.968583 -0 -0.24869
    outer loop
      vertex 19.2717 19.25 -0.344666
      vertex 19.4431 9.25 -1.01234
      vertex 19.2717 9.25 -0.344666
    endloop
  endfacet
  facet normal 0 -1 0
    outer loop
      vertex 19.4431 -19.25 1.01234
      vertex 19.9946 -19.25 1.85
      vertex 19.7752 -19.25 1.61641
    endloop
  endfacet
  facet normal 0 -1 0
    outer loop
      vertex 19.9946 -19.25 1.85
      vertex 24.4098 -19.25 1.32482
      vertex 24.0283 -19.25 1.85
    endloop
  endfacet
  facet normal 0 -1 0
    outer loop
      vertex 19.2717 -19.25 0.344666
      vertex 19.9946 -19.25 1.85
      vertex 19.4431 -19.25 1.01234
    endloop
  endfacet
  facet normal 0 -1 0
    outer loop
      vertex 19.9946 -19.25 1.85
      vertex 24.6636 -19.25 0.683897
      vertex 24.4098 -19.25 1.32482
    endloop
  endfacet
  facet normal 0 -1 0
    outer loop
      vertex 19.9946 -19.25 -1.85
      vertex 19.9946 -19.25 1.85
      vertex 19.2717 -19.25 0.344666
    endloop
  endfacet
  facet normal 0 -1 0
    outer loop
      vertex 19.9946 -19.25 1.85
      vertex 19.9946 -19.25 -1.85
      vertex 24.6636 -19.25 0.683897
    endloop
  endfacet
  facet normal 0 -1 0
    outer loop
      vertex 19.9946 -19.25 -1.85
      vertex 19.2717 -19.25 0.344666
      vertex 19.2717 -19.25 -0.344666
    endloop
  endfacet
  facet normal 0 -1 -0
    outer loop
      vertex 24.6636 -19.25 0.683897
      vertex 19.9946 -19.25 -1.85
      vertex 24.75 -19.25 4.27436e-15
    endloop
  endfacet
  facet normal 0 -1 0
    outer loop
      vertex 19.9946 -19.25 -1.85
      vertex 19.2717 -19.25 -0.344666
      vertex 19.4431 -19.25 -1.01234
    endloop
  endfacet
  facet normal 0 -1 0
    outer loop
      vertex 24.75 -19.25 4.27436e-15
      vertex 19.9946 -19.25 -1.85
      vertex 24.6636 -19.25 -0.683897
    endloop
  endfacet
  facet normal 0 -1 0
    outer loop
      vertex 19.9946 -19.25 -1.85
      vertex 19.4431 -19.25 -1.01234
      vertex 19.7752 -19.25 -1.61641
    endloop
  endfacet
  facet normal 0 -1 0
    outer loop
      vertex 24.6636 -19.25 -0.683897
      vertex 19.9946 -19.25 -1.85
      vertex 24.4098 -19.25 -1.32482
    endloop
  endfacet
  facet normal 0 -1 0
    outer loop
      vertex 24.4098 -19.25 -1.32482
      vertex 19.9946 -19.25 -1.85
      vertex 24.0283 -19.25 -1.85
    endloop
  endfacet
  facet normal 0 1 0
    outer loop
      vertex 24.4098 19.25 1.32482
      vertex 19.9946 19.25 1.85
      vertex 24.0283 19.25 1.85
    endloop
  endfacet
  facet normal 0 1 0
    outer loop
      vertex 24.6636 19.25 0.683897
      vertex 19.9946 19.25 1.85
      vertex 24.4098 19.25 1.32482
    endloop
  endfacet
  facet normal 0 1 0
    outer loop
      vertex 19.9946 19.25 1.85
      vertex 19.4431 19.25 1.01234
      vertex 19.7752 19.25 1.61641
    endloop
  endfacet
  facet normal 0 1 0
    outer loop
      vertex 19.9946 19.25 -1.85
      vertex 19.9946 19.25 1.85
      vertex 24.6636 19.25 0.683897
    endloop
  endfacet
  facet normal 0 1 0
    outer loop
      vertex 19.9946 19.25 1.85
      vertex 19.2717 19.25 0.344666
      vertex 19.4431 19.25 1.01234
    endloop
  endfacet
  facet normal 0 1 0
    outer loop
      vertex 19.9946 19.25 -1.85
      vertex 24.6636 19.25 0.683897
      vertex 24.75 19.25 -4.27436e-15
    endloop
  endfacet
  facet normal 0 1 0
    outer loop
      vertex 19.9946 19.25 1.85
      vertex 19.9946 19.25 -1.85
      vertex 19.2717 19.25 0.344666
    endloop
  endfacet
  facet normal 0 1 0
    outer loop
      vertex 19.9946 19.25 -1.85
      vertex 24.75 19.25 -4.27436e-15
      vertex 24.6636 19.25 -0.683897
    endloop
  endfacet
  facet normal 0 1 0
    outer loop
      vertex 19.2717 19.25 0.344666
      vertex 19.9946 19.25 -1.85
      vertex 19.2717 19.25 -0.344666
    endloop
  endfacet
  facet normal 0 1 0
    outer loop
      vertex 19.9946 19.25 -1.85
      vertex 24.6636 19.25 -0.683897
      vertex 24.4098 19.25 -1.32482
    endloop
  endfacet
  facet normal 0 1 0
    outer loop
      vertex 19.2717 19.25 -0.344666
      vertex 19.9946 19.25 -1.85
      vertex 19.4431 19.25 -1.01234
    endloop
  endfacet
  facet normal 0 1 0
    outer loop
      vertex 19.9946 19.25 -1.85
      vertex 24.4098 19.25 -1.32482
      vertex 24.0283 19.25 -1.85
    endloop
  endfacet
  facet normal 0 1 0
    outer loop
      vertex 19.4431 19.25 -1.01234
      vertex 19.9946 19.25 -1.85
      vertex 19.7752 19.25 -1.61641
    endloop
  endfacet
  facet normal -0 0 1
    outer loop
      vertex 19.9946 19.25 1.85
      vertex 24.0283 9.25 1.85
      vertex 24.0283 19.25 1.85
    endloop
  endfacet
  facet normal 0 0 1
    outer loop
      vertex 24.0283 9.25 1.85
      vertex 19.9946 19.25 1.85
      vertex 19.9946 9.25 1.85
    endloop
  endfacet
  facet normal -0 0 1
    outer loop
      vertex 19.9946 -9.25 1.85
      vertex 24.0283 -19.25 1.85
      vertex 24.0283 -9.25 1.85
    endloop
  endfacet
  facet normal 0 0 1
    outer loop
      vertex 24.0283 -19.25 1.85
      vertex 19.9946 -9.25 1.85
      vertex 19.9946 -19.25 1.85
    endloop
  endfacet
  facet normal 0 0 -1
    outer loop
      vertex 19.9946 9.25 -1.85
      vertex 24.0283 19.25 -1.85
      vertex 24.0283 9.25 -1.85
    endloop
  endfacet
  facet normal -0 0 -1
    outer loop
      vertex 24.0283 19.25 -1.85
      vertex 19.9946 9.25 -1.85
      vertex 19.9946 19.25 -1.85
    endloop
  endfacet
  facet normal 0 0 -1
    outer loop
      vertex 19.9946 -19.25 -1.85
      vertex 24.0283 -9.25 -1.85
      vertex 24.0283 -19.25 -1.85
    endloop
  endfacet
  facet normal -0 0 -1
    outer loop
      vertex 24.0283 -9.25 -1.85
      vertex 19.9946 -19.25 -1.85
      vertex 19.9946 -9.25 -1.85
    endloop
  endfacet
  facet normal 1 -0 0
    outer loop
      vertex 37 -1.4 2.5
      vertex 37 1.4 -2.5
      vertex 37 1.4 2.5
    endloop
  endfacet
  facet normal 1 0 0
    outer loop
      vertex 37 1.4 -2.5
      vertex 37 -1.4 2.5
      vertex 37 -1.4 -2.5
    endloop
  endfacet
  facet normal -0 0 1
    outer loop
      vertex 32 1.4 2.5
      vertex 37 -1.4 2.5
      vertex 37 1.4 2.5
    endloop
  endfacet
  facet normal 0 0 1
    outer loop
      vertex 37 -1.4 2.5
      vertex 32 1.4 2.5
      vertex 32 -1.4 2.5
    endloop
  endfacet
  facet normal 0 0 -1
    outer loop
      vertex 32 -1.4 -2.5
      vertex 37 1.4 -2.5
      vertex 37 -1.4 -2.5
    endloop
  endfacet
  facet normal -0 0 -1
    outer loop
      vertex 37 1.4 -2.5
      vertex 32 -1.4 -2.5
      vertex 32 1.4 -2.5
    endloop
  endfacet
  facet normal 0 1 -0
    outer loop
      vertex 37 1.4 -2.5
      vertex 32 1.4 2.5
      vertex 37 1.4 2.5
    endloop
  endfacet
  facet normal 0 1 0
    outer loop
      vertex 32 1.4 2.5
      vertex 37 1.4 -2.5
      vertex 32 1.4 -2.5
    endloop
  endfacet
  facet normal 0 -1 0
    outer loop
      vertex 32 -1.4 -2.5
      vertex 37 -1.4 2.5
      vertex 32 -1.4 2.5
    endloop
  endfacet
  facet normal 0 -1 -0
    outer loop
      vertex 37 -1.4 2.5
      vertex 32 -1.4 -2.5
      vertex 37 -1.4 -2.5
    endloop
  endfacet
endsolid OpenSCAD_Model
