solid OpenSCAD_Model
  facet normal 0.929776 -0.368125 0
    outer loop
      vertex 20.0105 -3.85403 12
      vertex 20.7487 -1.98952 0.75
      vertex 20.7487 -1.98952 12
    endloop
  endfacet
  facet normal 0.929776 -0.368125 0
    outer loop
      vertex 20.7487 -1.98952 0.75
      vertex 20.0105 -3.85403 12
      vertex 20.0105 -3.85403 0.75
    endloop
  endfacet
  facet normal 0.929776 0.368125 0
    outer loop
      vertex 20.7487 1.98952 12
      vertex 20.0105 3.85403 0.75
      vertex 20.0105 3.85403 12
    endloop
  endfacet
  facet normal 0.929776 0.368125 0
    outer loop
      vertex 20.0105 3.85403 0.75
      vertex 20.7487 1.98952 12
      vertex 20.7487 1.98952 0.75
    endloop
  endfacet
  facet normal 0.992115 0.125334 0
    outer loop
      vertex 21 0 12
      vertex 20.7487 1.98952 0.75
      vertex 20.7487 1.98952 12
    endloop
  endfacet
  facet normal 0.992115 0.125334 0
    outer loop
      vertex 20.7487 1.98952 0.75
      vertex 21 0 12
      vertex 21 0 0.75
    endloop
  endfacet
  facet normal 0.809017 0.587785 0
    outer loop
      vertex 20.0105 3.85403 12
      vertex 18.8317 5.47638 0.75
      vertex 18.8317 5.47638 12
    endloop
  endfacet
  facet normal 0.809017 0.587785 0
    outer loop
      vertex 18.8317 5.47638 0.75
      vertex 20.0105 3.85403 12
      vertex 20.0105 3.85403 0.75
    endloop
  endfacet
  facet normal 0.992115 -0.125334 0
    outer loop
      vertex 20.7487 -1.98952 12
      vertex 21 0 0.75
      vertex 21 0 12
    endloop
  endfacet
  facet normal 0.992115 -0.125334 0
    outer loop
      vertex 21 0 0.75
      vertex 20.7487 -1.98952 12
      vertex 20.7487 -1.98952 0.75
    endloop
  endfacet
  facet normal 0.809017 -0.587785 0
    outer loop
      vertex 18.8317 -5.47638 12
      vertex 20.0105 -3.85403 0.75
      vertex 20.0105 -3.85403 12
    endloop
  endfacet
  facet normal 0.809017 -0.587785 0
    outer loop
      vertex 20.0105 -3.85403 0.75
      vertex 18.8317 -5.47638 12
      vertex 18.8317 -5.47638 0.75
    endloop
  endfacet
  facet normal 0.637424 0.770514 -0
    outer loop
      vertex 18.8317 5.47638 0.75
      vertex 17.2866 6.75462 12
      vertex 18.8317 5.47638 12
    endloop
  endfacet
  facet normal 0.637424 0.770514 0
    outer loop
      vertex 17.2866 6.75462 12
      vertex 18.8317 5.47638 0.75
      vertex 17.2866 6.75462 0.75
    endloop
  endfacet
  facet normal -0.309017 -0.951057 0
    outer loop
      vertex 9.59377 -7.23862 0.75
      vertex 11.5009 -7.8583 12
      vertex 9.59377 -7.23862 12
    endloop
  endfacet
  facet normal -0.309017 -0.951057 -0
    outer loop
      vertex 11.5009 -7.8583 12
      vertex 9.59377 -7.23862 0.75
      vertex 11.5009 -7.8583 0.75
    endloop
  endfacet
  facet normal -0.0627904 0.998027 0
    outer loop
      vertex 13.5023 7.98421 0.75
      vertex 11.5009 7.8583 12
      vertex 13.5023 7.98421 12
    endloop
  endfacet
  facet normal -0.0627904 0.998027 0
    outer loop
      vertex 11.5009 7.8583 12
      vertex 13.5023 7.98421 0.75
      vertex 11.5009 7.8583 0.75
    endloop
  endfacet
  facet normal -0.535827 0.844328 0
    outer loop
      vertex 9.59377 7.23862 0.75
      vertex 7.90061 6.16411 12
      vertex 9.59377 7.23862 12
    endloop
  endfacet
  facet normal -0.535827 0.844328 0
    outer loop
      vertex 7.90061 6.16411 12
      vertex 9.59377 7.23862 0.75
      vertex 7.90061 6.16411 0.75
    endloop
  endfacet
  facet normal -0.728968 -0.684547 0
    outer loop
      vertex 7.90061 -6.16411 0.75
      vertex 6.52786 -4.70228 12
      vertex 6.52786 -4.70228 0.75
    endloop
  endfacet
  facet normal -0.728968 -0.684547 0
    outer loop
      vertex 6.52786 -4.70228 12
      vertex 7.90061 -6.16411 0.75
      vertex 7.90061 -6.16411 12
    endloop
  endfacet
  facet normal -0.535827 -0.844328 0
    outer loop
      vertex 7.90061 -6.16411 0.75
      vertex 9.59377 -7.23862 12
      vertex 7.90061 -6.16411 12
    endloop
  endfacet
  facet normal -0.535827 -0.844328 -0
    outer loop
      vertex 9.59377 -7.23862 12
      vertex 7.90061 -6.16411 0.75
      vertex 9.59377 -7.23862 0.75
    endloop
  endfacet
  facet normal -1 0 0
    outer loop
      vertex 5.06308 -1.00267 0.75
      vertex 5.06308 1.00267 12
      vertex 5.06308 1.00267 0.75
    endloop
  endfacet
  facet normal -1 -0 0
    outer loop
      vertex 5.06308 1.00267 12
      vertex 5.06308 -1.00267 0.75
      vertex 5.06308 -1.00267 12
    endloop
  endfacet
  facet normal 0.42578 0.904827 -0
    outer loop
      vertex 17.2866 6.75462 0.75
      vertex 15.4721 7.60845 12
      vertex 17.2866 6.75462 12
    endloop
  endfacet
  facet normal 0.42578 0.904827 0
    outer loop
      vertex 15.4721 7.60845 12
      vertex 17.2866 6.75462 0.75
      vertex 15.4721 7.60845 0.75
    endloop
  endfacet
  facet normal -0.0627904 -0.998027 0
    outer loop
      vertex 11.5009 -7.8583 0.75
      vertex 13.5023 -7.98421 12
      vertex 11.5009 -7.8583 12
    endloop
  endfacet
  facet normal -0.0627904 -0.998027 -0
    outer loop
      vertex 13.5023 -7.98421 12
      vertex 11.5009 -7.8583 0.75
      vertex 13.5023 -7.98421 0.75
    endloop
  endfacet
  facet normal 0 0 1
    outer loop
      vertex 20.7487 1.98952 12
      vertex 20.7487 -1.98952 12
      vertex 21 0 12
    endloop
  endfacet
  facet normal 0 0 1
    outer loop
      vertex 20.0105 3.85403 12
      vertex 20.7487 -1.98952 12
      vertex 20.7487 1.98952 12
    endloop
  endfacet
  facet normal 0 0 1
    outer loop
      vertex 20.0105 3.85403 12
      vertex 20.0105 -3.85403 12
      vertex 20.7487 -1.98952 12
    endloop
  endfacet
  facet normal 0 0 1
    outer loop
      vertex 18.8317 5.47638 12
      vertex 20.0105 -3.85403 12
      vertex 20.0105 3.85403 12
    endloop
  endfacet
  facet normal 0 0 1
    outer loop
      vertex 18.8317 5.47638 12
      vertex 18.8317 -5.47638 12
      vertex 20.0105 -3.85403 12
    endloop
  endfacet
  facet normal 0 0 1
    outer loop
      vertex 17.2866 6.75462 12
      vertex 18.8317 -5.47638 12
      vertex 18.8317 5.47638 12
    endloop
  endfacet
  facet normal 0 0 1
    outer loop
      vertex 17.2866 6.75462 12
      vertex 17.2866 -6.75462 12
      vertex 18.8317 -5.47638 12
    endloop
  endfacet
  facet normal 0 0 1
    outer loop
      vertex 15.4721 7.60845 12
      vertex 17.2866 -6.75462 12
      vertex 17.2866 6.75462 12
    endloop
  endfacet
  facet normal 0 0 1
    outer loop
      vertex 15.4721 7.60845 12
      vertex 15.4721 -7.60845 12
      vertex 17.2866 -6.75462 12
    endloop
  endfacet
  facet normal 0 0 1
    outer loop
      vertex 13.5023 7.98421 12
      vertex 15.4721 -7.60845 12
      vertex 15.4721 7.60845 12
    endloop
  endfacet
  facet normal 0 0 1
    outer loop
      vertex 13.5023 7.98421 12
      vertex 13.5023 -7.98421 12
      vertex 15.4721 -7.60845 12
    endloop
  endfacet
  facet normal -0 0 1
    outer loop
      vertex 11.5009 7.8583 12
      vertex 13.5023 -7.98421 12
      vertex 13.5023 7.98421 12
    endloop
  endfacet
  facet normal 0 0 1
    outer loop
      vertex 11.5009 7.8583 12
      vertex 11.5009 -7.8583 12
      vertex 13.5023 -7.98421 12
    endloop
  endfacet
  facet normal -0 0 1
    outer loop
      vertex 9.59377 7.23862 12
      vertex 11.5009 -7.8583 12
      vertex 11.5009 7.8583 12
    endloop
  endfacet
  facet normal 0 0 1
    outer loop
      vertex 9.59377 7.23862 12
      vertex 9.59377 -7.23862 12
      vertex 11.5009 -7.8583 12
    endloop
  endfacet
  facet normal -0 0 1
    outer loop
      vertex 7.90061 6.16411 12
      vertex 9.59377 -7.23862 12
      vertex 9.59377 7.23862 12
    endloop
  endfacet
  facet normal 0 0 1
    outer loop
      vertex 7.90061 6.16411 12
      vertex 7.90061 -6.16411 12
      vertex 9.59377 -7.23862 12
    endloop
  endfacet
  facet normal -0 0 1
    outer loop
      vertex 6.52786 4.70228 12
      vertex 7.90061 -6.16411 12
      vertex 7.90061 6.16411 12
    endloop
  endfacet
  facet normal 0 0 1
    outer loop
      vertex 6.52786 4.70228 12
      vertex 6.52786 -4.70228 12
      vertex 7.90061 -6.16411 12
    endloop
  endfacet
  facet normal -0 0 1
    outer loop
      vertex 5.56179 2.945 12
      vertex 6.52786 -4.70228 12
      vertex 6.52786 4.70228 12
    endloop
  endfacet
  facet normal 0 0 1
    outer loop
      vertex 5.56179 2.945 12
      vertex 5.56179 -2.945 12
      vertex 6.52786 -4.70228 12
    endloop
  endfacet
  facet normal -0 0 1
    outer loop
      vertex 5.06308 1.00267 12
      vertex 5.56179 -2.945 12
      vertex 5.56179 2.945 12
    endloop
  endfacet
  facet normal 0 0 1
    outer loop
      vertex 5.56179 -2.945 12
      vertex 5.06308 1.00267 12
      vertex 5.06308 -1.00267 12
    endloop
  endfacet
  facet normal -0.309017 0.951057 0
    outer loop
      vertex 11.5009 7.8583 0.75
      vertex 9.59377 7.23862 12
      vertex 11.5009 7.8583 12
    endloop
  endfacet
  facet normal -0.309017 0.951057 0
    outer loop
      vertex 9.59377 7.23862 12
      vertex 11.5009 7.8583 0.75
      vertex 9.59377 7.23862 0.75
    endloop
  endfacet
  facet normal 0.42578 -0.904827 0
    outer loop
      vertex 15.4721 -7.60845 0.75
      vertex 17.2866 -6.75462 12
      vertex 15.4721 -7.60845 12
    endloop
  endfacet
  facet normal 0.42578 -0.904827 0
    outer loop
      vertex 17.2866 -6.75462 12
      vertex 15.4721 -7.60845 0.75
      vertex 17.2866 -6.75462 0.75
    endloop
  endfacet
  facet normal 0.187381 0.982287 -0
    outer loop
      vertex 15.4721 7.60845 0.75
      vertex 13.5023 7.98421 12
      vertex 15.4721 7.60845 12
    endloop
  endfacet
  facet normal 0.187381 0.982287 0
    outer loop
      vertex 13.5023 7.98421 12
      vertex 15.4721 7.60845 0.75
      vertex 13.5023 7.98421 0.75
    endloop
  endfacet
  facet normal -0.728968 0.684547 0
    outer loop
      vertex 6.52786 4.70228 0.75
      vertex 7.90061 6.16411 12
      vertex 7.90061 6.16411 0.75
    endloop
  endfacet
  facet normal -0.728968 0.684547 0
    outer loop
      vertex 7.90061 6.16411 12
      vertex 6.52786 4.70228 0.75
      vertex 6.52786 4.70228 12
    endloop
  endfacet
  facet normal -0.968583 -0.24869 0
    outer loop
      vertex 5.56179 -2.945 0.75
      vertex 5.06308 -1.00267 12
      vertex 5.06308 -1.00267 0.75
    endloop
  endfacet
  facet normal -0.968583 -0.24869 0
    outer loop
      vertex 5.06308 -1.00267 12
      vertex 5.56179 -2.945 0.75
      vertex 5.56179 -2.945 12
    endloop
  endfacet
  facet normal 0.187381 -0.982287 0
    outer loop
      vertex 13.5023 -7.98421 0.75
      vertex 15.4721 -7.60845 12
      vertex 13.5023 -7.98421 12
    endloop
  endfacet
  facet normal 0.187381 -0.982287 0
    outer loop
      vertex 15.4721 -7.60845 12
      vertex 13.5023 -7.98421 0.75
      vertex 15.4721 -7.60845 0.75
    endloop
  endfacet
  facet normal 0.637424 -0.770514 0
    outer loop
      vertex 17.2866 -6.75462 0.75
      vertex 18.8317 -5.47638 12
      vertex 17.2866 -6.75462 12
    endloop
  endfacet
  facet normal 0.637424 -0.770514 0
    outer loop
      vertex 18.8317 -5.47638 12
      vertex 17.2866 -6.75462 0.75
      vertex 18.8317 -5.47638 0.75
    endloop
  endfacet
  facet normal -0.876307 -0.481754 0
    outer loop
      vertex 6.52786 -4.70228 0.75
      vertex 5.56179 -2.945 12
      vertex 5.56179 -2.945 0.75
    endloop
  endfacet
  facet normal -0.876307 -0.481754 0
    outer loop
      vertex 5.56179 -2.945 12
      vertex 6.52786 -4.70228 0.75
      vertex 6.52786 -4.70228 12
    endloop
  endfacet
  facet normal -0.876307 0.481754 0
    outer loop
      vertex 5.56179 2.945 0.75
      vertex 6.52786 4.70228 12
      vertex 6.52786 4.70228 0.75
    endloop
  endfacet
  facet normal -0.876307 0.481754 0
    outer loop
      vertex 6.52786 4.70228 12
      vertex 5.56179 2.945 0.75
      vertex 5.56179 2.945 12
    endloop
  endfacet
  facet normal -0.968583 0.24869 0
    outer loop
      vertex 5.06308 1.00267 0.75
      vertex 5.56179 2.945 12
      vertex 5.56179 2.945 0.75
    endloop
  endfacet
  facet normal -0.968583 0.24869 0
    outer loop
      vertex 5.56179 2.945 12
      vertex 5.06308 1.00267 0.75
      vertex 5.06308 1.00267 12
    endloop
  endfacet
  facet normal 0.42578 -0.904827 0
    outer loop
      vertex -10.5279 -7.60845 0.75
      vertex -8.71339 -6.75462 12
      vertex -10.5279 -7.60845 12
    endloop
  endfacet
  facet normal 0.42578 -0.904827 0
    outer loop
      vertex -8.71339 -6.75462 12
      vertex -10.5279 -7.60845 0.75
      vertex -8.71339 -6.75462 0.75
    endloop
  endfacet
  facet normal -0.876307 -0.481754 0
    outer loop
      vertex -19.4721 -4.70228 0.75
      vertex -20.4382 -2.945 12
      vertex -20.4382 -2.945 0.75
    endloop
  endfacet
  facet normal -0.876307 -0.481754 0
    outer loop
      vertex -20.4382 -2.945 12
      vertex -19.4721 -4.70228 0.75
      vertex -19.4721 -4.70228 12
    endloop
  endfacet
  facet normal 0.187381 -0.982287 0
    outer loop
      vertex -12.4977 -7.98421 0.75
      vertex -10.5279 -7.60845 12
      vertex -12.4977 -7.98421 12
    endloop
  endfacet
  facet normal 0.187381 -0.982287 0
    outer loop
      vertex -10.5279 -7.60845 12
      vertex -12.4977 -7.98421 0.75
      vertex -10.5279 -7.60845 0.75
    endloop
  endfacet
  facet normal 0.992115 -0.125333 0
    outer loop
      vertex -5.25133 -1.98952 12
      vertex -5 0 0.75
      vertex -5 0 12
    endloop
  endfacet
  facet normal 0.992115 -0.125333 0
    outer loop
      vertex -5 0 0.75
      vertex -5.25133 -1.98952 12
      vertex -5.25133 -1.98952 0.75
    endloop
  endfacet
  facet normal -0.535827 -0.844328 0
    outer loop
      vertex -18.0994 -6.16411 0.75
      vertex -16.4062 -7.23862 12
      vertex -18.0994 -6.16411 12
    endloop
  endfacet
  facet normal -0.535827 -0.844328 -0
    outer loop
      vertex -16.4062 -7.23862 12
      vertex -18.0994 -6.16411 0.75
      vertex -16.4062 -7.23862 0.75
    endloop
  endfacet
  facet normal 0.809017 0.587785 0
    outer loop
      vertex -5.98955 3.85403 12
      vertex -7.16825 5.47638 0.75
      vertex -7.16825 5.47638 12
    endloop
  endfacet
  facet normal 0.809017 0.587785 0
    outer loop
      vertex -7.16825 5.47638 0.75
      vertex -5.98955 3.85403 12
      vertex -5.98955 3.85403 0.75
    endloop
  endfacet
  facet normal 0.809017 -0.587785 0
    outer loop
      vertex -7.16825 -5.47638 12
      vertex -5.98955 -3.85403 0.75
      vertex -5.98955 -3.85403 12
    endloop
  endfacet
  facet normal 0.809017 -0.587785 0
    outer loop
      vertex -5.98955 -3.85403 0.75
      vertex -7.16825 -5.47638 12
      vertex -7.16825 -5.47638 0.75
    endloop
  endfacet
  facet normal -0.0627904 -0.998027 0
    outer loop
      vertex -14.4991 -7.8583 0.75
      vertex -12.4977 -7.98421 12
      vertex -14.4991 -7.8583 12
    endloop
  endfacet
  facet normal -0.0627904 -0.998027 -0
    outer loop
      vertex -12.4977 -7.98421 12
      vertex -14.4991 -7.8583 0.75
      vertex -12.4977 -7.98421 0.75
    endloop
  endfacet
  facet normal 0.637424 0.770514 -0
    outer loop
      vertex -7.16825 5.47638 0.75
      vertex -8.71339 6.75462 12
      vertex -7.16825 5.47638 12
    endloop
  endfacet
  facet normal 0.637424 0.770514 0
    outer loop
      vertex -8.71339 6.75462 12
      vertex -7.16825 5.47638 0.75
      vertex -8.71339 6.75462 0.75
    endloop
  endfacet
  facet normal 0.992115 0.125333 0
    outer loop
      vertex -5 0 12
      vertex -5.25133 1.98952 0.75
      vertex -5.25133 1.98952 12
    endloop
  endfacet
  facet normal 0.992115 0.125333 0
    outer loop
      vertex -5.25133 1.98952 0.75
      vertex -5 0 12
      vertex -5 0 0.75
    endloop
  endfacet
  facet normal -0.876307 0.481754 0
    outer loop
      vertex -20.4382 2.945 0.75
      vertex -19.4721 4.70228 12
      vertex -19.4721 4.70228 0.75
    endloop
  endfacet
  facet normal -0.876307 0.481754 0
    outer loop
      vertex -19.4721 4.70228 12
      vertex -20.4382 2.945 0.75
      vertex -20.4382 2.945 12
    endloop
  endfacet
  facet normal 0.929777 0.368124 0
    outer loop
      vertex -5.25133 1.98952 12
      vertex -5.98955 3.85403 0.75
      vertex -5.98955 3.85403 12
    endloop
  endfacet
  facet normal 0.929777 0.368124 0
    outer loop
      vertex -5.98955 3.85403 0.75
      vertex -5.25133 1.98952 12
      vertex -5.25133 1.98952 0.75
    endloop
  endfacet
  facet normal -0.535827 0.844328 0
    outer loop
      vertex -16.4062 7.23862 0.75
      vertex -18.0994 6.16411 12
      vertex -16.4062 7.23862 12
    endloop
  endfacet
  facet normal -0.535827 0.844328 0
    outer loop
      vertex -18.0994 6.16411 12
      vertex -16.4062 7.23862 0.75
      vertex -18.0994 6.16411 0.75
    endloop
  endfacet
  facet normal -0.968583 0.24869 0
    outer loop
      vertex -20.9369 1.00267 0.75
      vertex -20.4382 2.945 12
      vertex -20.4382 2.945 0.75
    endloop
  endfacet
  facet normal -0.968583 0.24869 0
    outer loop
      vertex -20.4382 2.945 12
      vertex -20.9369 1.00267 0.75
      vertex -20.9369 1.00267 12
    endloop
  endfacet
  facet normal 0.637424 -0.770514 0
    outer loop
      vertex -8.71339 -6.75462 0.75
      vertex -7.16825 -5.47638 12
      vertex -8.71339 -6.75462 12
    endloop
  endfacet
  facet normal 0.637424 -0.770514 0
    outer loop
      vertex -7.16825 -5.47638 12
      vertex -8.71339 -6.75462 0.75
      vertex -7.16825 -5.47638 0.75
    endloop
  endfacet
  facet normal 0.42578 0.904827 -0
    outer loop
      vertex -8.71339 6.75462 0.75
      vertex -10.5279 7.60845 12
      vertex -8.71339 6.75462 12
    endloop
  endfacet
  facet normal 0.42578 0.904827 0
    outer loop
      vertex -10.5279 7.60845 12
      vertex -8.71339 6.75462 0.75
      vertex -10.5279 7.60845 0.75
    endloop
  endfacet
  facet normal -0.309017 -0.951057 0
    outer loop
      vertex -16.4062 -7.23862 0.75
      vertex -14.4991 -7.8583 12
      vertex -16.4062 -7.23862 12
    endloop
  endfacet
  facet normal -0.309017 -0.951057 -0
    outer loop
      vertex -14.4991 -7.8583 12
      vertex -16.4062 -7.23862 0.75
      vertex -14.4991 -7.8583 0.75
    endloop
  endfacet
  facet normal -0.968583 -0.24869 0
    outer loop
      vertex -20.4382 -2.945 0.75
      vertex -20.9369 -1.00267 12
      vertex -20.9369 -1.00267 0.75
    endloop
  endfacet
  facet normal -0.968583 -0.24869 0
    outer loop
      vertex -20.9369 -1.00267 12
      vertex -20.4382 -2.945 0.75
      vertex -20.4382 -2.945 12
    endloop
  endfacet
  facet normal -0.309017 0.951057 0
    outer loop
      vertex -14.4991 7.8583 0.75
      vertex -16.4062 7.23862 12
      vertex -14.4991 7.8583 12
    endloop
  endfacet
  facet normal -0.309017 0.951057 0
    outer loop
      vertex -16.4062 7.23862 12
      vertex -14.4991 7.8583 0.75
      vertex -16.4062 7.23862 0.75
    endloop
  endfacet
  facet normal -1 0 0
    outer loop
      vertex -20.9369 -1.00267 0.75
      vertex -20.9369 1.00267 12
      vertex -20.9369 1.00267 0.75
    endloop
  endfacet
  facet normal -1 -0 0
    outer loop
      vertex -20.9369 1.00267 12
      vertex -20.9369 -1.00267 0.75
      vertex -20.9369 -1.00267 12
    endloop
  endfacet
  facet normal 0.929777 -0.368124 0
    outer loop
      vertex -5.98955 -3.85403 12
      vertex -5.25133 -1.98952 0.75
      vertex -5.25133 -1.98952 12
    endloop
  endfacet
  facet normal 0.929777 -0.368124 0
    outer loop
      vertex -5.25133 -1.98952 0.75
      vertex -5.98955 -3.85403 12
      vertex -5.98955 -3.85403 0.75
    endloop
  endfacet
  facet normal -0.728969 0.684547 0
    outer loop
      vertex -19.4721 4.70228 0.75
      vertex -18.0994 6.16411 12
      vertex -18.0994 6.16411 0.75
    endloop
  endfacet
  facet normal -0.728969 0.684547 0
    outer loop
      vertex -18.0994 6.16411 12
      vertex -19.4721 4.70228 0.75
      vertex -19.4721 4.70228 12
    endloop
  endfacet
  facet normal 0.187381 0.982287 -0
    outer loop
      vertex -10.5279 7.60845 0.75
      vertex -12.4977 7.98421 12
      vertex -10.5279 7.60845 12
    endloop
  endfacet
  facet normal 0.187381 0.982287 0
    outer loop
      vertex -12.4977 7.98421 12
      vertex -10.5279 7.60845 0.75
      vertex -12.4977 7.98421 0.75
    endloop
  endfacet
  facet normal -0.728969 -0.684547 0
    outer loop
      vertex -18.0994 -6.16411 0.75
      vertex -19.4721 -4.70228 12
      vertex -19.4721 -4.70228 0.75
    endloop
  endfacet
  facet normal -0.728969 -0.684547 0
    outer loop
      vertex -19.4721 -4.70228 12
      vertex -18.0994 -6.16411 0.75
      vertex -18.0994 -6.16411 12
    endloop
  endfacet
  facet normal 0 0 1
    outer loop
      vertex -5.25133 1.98952 12
      vertex -5.25133 -1.98952 12
      vertex -5 0 12
    endloop
  endfacet
  facet normal 0 0 1
    outer loop
      vertex -5.98955 3.85403 12
      vertex -5.25133 -1.98952 12
      vertex -5.25133 1.98952 12
    endloop
  endfacet
  facet normal 0 0 1
    outer loop
      vertex -5.98955 3.85403 12
      vertex -5.98955 -3.85403 12
      vertex -5.25133 -1.98952 12
    endloop
  endfacet
  facet normal 0 0 1
    outer loop
      vertex -7.16825 5.47638 12
      vertex -5.98955 -3.85403 12
      vertex -5.98955 3.85403 12
    endloop
  endfacet
  facet normal 0 0 1
    outer loop
      vertex -7.16825 5.47638 12
      vertex -7.16825 -5.47638 12
      vertex -5.98955 -3.85403 12
    endloop
  endfacet
  facet normal 0 0 1
    outer loop
      vertex -8.71339 6.75462 12
      vertex -7.16825 -5.47638 12
      vertex -7.16825 5.47638 12
    endloop
  endfacet
  facet normal 0 0 1
    outer loop
      vertex -8.71339 6.75462 12
      vertex -8.71339 -6.75462 12
      vertex -7.16825 -5.47638 12
    endloop
  endfacet
  facet normal 0 0 1
    outer loop
      vertex -10.5279 7.60845 12
      vertex -8.71339 -6.75462 12
      vertex -8.71339 6.75462 12
    endloop
  endfacet
  facet normal 0 0 1
    outer loop
      vertex -10.5279 7.60845 12
      vertex -10.5279 -7.60845 12
      vertex -8.71339 -6.75462 12
    endloop
  endfacet
  facet normal 0 0 1
    outer loop
      vertex -12.4977 7.98421 12
      vertex -10.5279 -7.60845 12
      vertex -10.5279 7.60845 12
    endloop
  endfacet
  facet normal 0 0 1
    outer loop
      vertex -12.4977 7.98421 12
      vertex -12.4977 -7.98421 12
      vertex -10.5279 -7.60845 12
    endloop
  endfacet
  facet normal -0 0 1
    outer loop
      vertex -14.4991 7.8583 12
      vertex -12.4977 -7.98421 12
      vertex -12.4977 7.98421 12
    endloop
  endfacet
  facet normal 0 0 1
    outer loop
      vertex -14.4991 7.8583 12
      vertex -14.4991 -7.8583 12
      vertex -12.4977 -7.98421 12
    endloop
  endfacet
  facet normal -0 0 1
    outer loop
      vertex -16.4062 7.23862 12
      vertex -14.4991 -7.8583 12
      vertex -14.4991 7.8583 12
    endloop
  endfacet
  facet normal 0 0 1
    outer loop
      vertex -16.4062 7.23862 12
      vertex -16.4062 -7.23862 12
      vertex -14.4991 -7.8583 12
    endloop
  endfacet
  facet normal -0 0 1
    outer loop
      vertex -18.0994 6.16411 12
      vertex -16.4062 -7.23862 12
      vertex -16.4062 7.23862 12
    endloop
  endfacet
  facet normal 0 0 1
    outer loop
      vertex -18.0994 6.16411 12
      vertex -18.0994 -6.16411 12
      vertex -16.4062 -7.23862 12
    endloop
  endfacet
  facet normal -0 0 1
    outer loop
      vertex -19.4721 4.70228 12
      vertex -18.0994 -6.16411 12
      vertex -18.0994 6.16411 12
    endloop
  endfacet
  facet normal 0 0 1
    outer loop
      vertex -19.4721 4.70228 12
      vertex -19.4721 -4.70228 12
      vertex -18.0994 -6.16411 12
    endloop
  endfacet
  facet normal -0 0 1
    outer loop
      vertex -20.4382 2.945 12
      vertex -19.4721 -4.70228 12
      vertex -19.4721 4.70228 12
    endloop
  endfacet
  facet normal 0 0 1
    outer loop
      vertex -20.4382 2.945 12
      vertex -20.4382 -2.945 12
      vertex -19.4721 -4.70228 12
    endloop
  endfacet
  facet normal -0 0 1
    outer loop
      vertex -20.9369 1.00267 12
      vertex -20.4382 -2.945 12
      vertex -20.4382 2.945 12
    endloop
  endfacet
  facet normal 0 0 1
    outer loop
      vertex -20.4382 -2.945 12
      vertex -20.9369 1.00267 12
      vertex -20.9369 -1.00267 12
    endloop
  endfacet
  facet normal -0.0627904 0.998027 0
    outer loop
      vertex -12.4977 7.98421 0.75
      vertex -14.4991 7.8583 12
      vertex -12.4977 7.98421 12
    endloop
  endfacet
  facet normal -0.0627904 0.998027 0
    outer loop
      vertex -14.4991 7.8583 12
      vertex -12.4977 7.98421 0.75
      vertex -14.4991 7.8583 0.75
    endloop
  endfacet
  facet normal 1 -0 0
    outer loop
      vertex 22.5 -10 0.75
      vertex 22.5 10 -0.75
      vertex 22.5 10 0.75
    endloop
  endfacet
  facet normal 1 0 0
    outer loop
      vertex 22.5 10 -0.75
      vertex 22.5 -10 0.75
      vertex 22.5 -10 -0.75
    endloop
  endfacet
  facet normal 0 0 1
    outer loop
      vertex 22.5 10 0.75
      vertex 21 0 0.75
      vertex 22.5 -10 0.75
    endloop
  endfacet
  facet normal 0 0 1
    outer loop
      vertex 22.5 10 0.75
      vertex 20.7487 1.98952 0.75
      vertex 21 0 0.75
    endloop
  endfacet
  facet normal 0 0 1
    outer loop
      vertex 22.5 10 0.75
      vertex 20.0105 3.85403 0.75
      vertex 20.7487 1.98952 0.75
    endloop
  endfacet
  facet normal 0 0 1
    outer loop
      vertex 22.5 10 0.75
      vertex 18.8317 5.47638 0.75
      vertex 20.0105 3.85403 0.75
    endloop
  endfacet
  facet normal 0 0 1
    outer loop
      vertex 22.5 10 0.75
      vertex 17.2866 6.75462 0.75
      vertex 18.8317 5.47638 0.75
    endloop
  endfacet
  facet normal 0 0 1
    outer loop
      vertex 22.5 10 0.75
      vertex 15.4721 7.60845 0.75
      vertex 17.2866 6.75462 0.75
    endloop
  endfacet
  facet normal 0 0 1
    outer loop
      vertex 22.5 10 0.75
      vertex 13.5023 7.98421 0.75
      vertex 15.4721 7.60845 0.75
    endloop
  endfacet
  facet normal -0 0 1
    outer loop
      vertex 3.46352 9.42658 0.75
      vertex 13.5023 7.98421 0.75
      vertex 22.5 10 0.75
    endloop
  endfacet
  facet normal -0 0 1
    outer loop
      vertex 4.09345 6.97318 0.75
      vertex 6.52786 4.70228 0.75
      vertex 4.31446 7.27737 0.75
    endloop
  endfacet
  facet normal 0 0 1
    outer loop
      vertex 7.90061 6.16411 0.75
      vertex 4.31446 7.27737 0.75
      vertex 6.52786 4.70228 0.75
    endloop
  endfacet
  facet normal -0 0 1
    outer loop
      vertex 4.31446 7.27737 0.75
      vertex 7.90061 6.16411 0.75
      vertex 4.45287 7.62697 0.75
    endloop
  endfacet
  facet normal -0 0 1
    outer loop
      vertex 4.45287 7.62697 0.75
      vertex 7.90061 6.16411 0.75
      vertex 4.5 8 0.75
    endloop
  endfacet
  facet normal 0 0 1
    outer loop
      vertex 4.45287 8.37303 0.75
      vertex 7.90061 6.16411 0.75
      vertex 9.59377 7.23862 0.75
    endloop
  endfacet
  facet normal 0 0 1
    outer loop
      vertex 4.09345 9.02682 0.75
      vertex 9.59377 7.23862 0.75
      vertex 11.5009 7.8583 0.75
    endloop
  endfacet
  facet normal 0 0 1
    outer loop
      vertex 13.5023 7.98421 0.75
      vertex 3.46352 9.42658 0.75
      vertex 11.5009 7.8583 0.75
    endloop
  endfacet
  facet normal 0 0 1
    outer loop
      vertex 7.90061 6.16411 0.75
      vertex 4.45287 8.37303 0.75
      vertex 4.5 8 0.75
    endloop
  endfacet
  facet normal 0 0 1
    outer loop
      vertex 9.59377 7.23862 0.75
      vertex 4.31446 8.72263 0.75
      vertex 4.45287 8.37303 0.75
    endloop
  endfacet
  facet normal 0 0 1
    outer loop
      vertex 9.59377 7.23862 0.75
      vertex 4.09345 9.02682 0.75
      vertex 4.31446 8.72263 0.75
    endloop
  endfacet
  facet normal 0 0 1
    outer loop
      vertex 11.5009 7.8583 0.75
      vertex 3.80374 9.26649 0.75
      vertex 4.09345 9.02682 0.75
    endloop
  endfacet
  facet normal 0 0 1
    outer loop
      vertex 11.5009 7.8583 0.75
      vertex 3.46352 9.42658 0.75
      vertex 3.80374 9.26649 0.75
    endloop
  endfacet
  facet normal 0 0 1
    outer loop
      vertex 22.5 10 0.75
      vertex 3.09418 9.49704 0.75
      vertex 3.46352 9.42658 0.75
    endloop
  endfacet
  facet normal 0 0 1
    outer loop
      vertex 22.5 10 0.75
      vertex -2.90581 9.49704 0.75
      vertex 3.09418 9.49704 0.75
    endloop
  endfacet
  facet normal 0 0 1
    outer loop
      vertex -8.71339 6.75462 0.75
      vertex -4.48817 7.812 0.75
      vertex -4.48817 8.188 0.75
    endloop
  endfacet
  facet normal 0 0 1
    outer loop
      vertex -4.48817 7.812 0.75
      vertex -5.25133 1.98952 0.75
      vertex -5 0 0.75
    endloop
  endfacet
  facet normal 0 0 1
    outer loop
      vertex -4.48817 7.812 0.75
      vertex -5.98955 3.85403 0.75
      vertex -5.25133 1.98952 0.75
    endloop
  endfacet
  facet normal 0 0 1
    outer loop
      vertex -8.71339 6.75462 0.75
      vertex -4.48817 8.188 0.75
      vertex -4.39466 8.55219 0.75
    endloop
  endfacet
  facet normal 0 0 1
    outer loop
      vertex -4.48817 7.812 0.75
      vertex -7.16825 5.47638 0.75
      vertex -5.98955 3.85403 0.75
    endloop
  endfacet
  facet normal 0 0 1
    outer loop
      vertex -8.71339 6.75462 0.75
      vertex -4.39466 8.55219 0.75
      vertex -4.21352 8.88168 0.75
    endloop
  endfacet
  facet normal 0 0 1
    outer loop
      vertex -4.48817 7.812 0.75
      vertex -8.71339 6.75462 0.75
      vertex -7.16825 5.47638 0.75
    endloop
  endfacet
  facet normal 0 0 1
    outer loop
      vertex -10.5279 7.60845 0.75
      vertex -4.21352 8.88168 0.75
      vertex -3.95614 9.15577 0.75
    endloop
  endfacet
  facet normal 0 0 1
    outer loop
      vertex -10.5279 7.60845 0.75
      vertex -3.95614 9.15577 0.75
      vertex -3.63867 9.35724 0.75
    endloop
  endfacet
  facet normal 0 0 1
    outer loop
      vertex -4.21352 8.88168 0.75
      vertex -10.5279 7.60845 0.75
      vertex -8.71339 6.75462 0.75
    endloop
  endfacet
  facet normal 0 0 1
    outer loop
      vertex -22.5 10 0.75
      vertex -3.63867 9.35724 0.75
      vertex -3.28107 9.47343 0.75
    endloop
  endfacet
  facet normal 0 0 1
    outer loop
      vertex -3.63867 9.35724 0.75
      vertex -12.4977 7.98421 0.75
      vertex -10.5279 7.60845 0.75
    endloop
  endfacet
  facet normal 0 0 1
    outer loop
      vertex -3.63867 9.35724 0.75
      vertex -22.5 10 0.75
      vertex -12.4977 7.98421 0.75
    endloop
  endfacet
  facet normal 0 0 1
    outer loop
      vertex -20.9369 1.00267 0.75
      vertex -22.5 10 0.75
      vertex -20.9369 -1.00267 0.75
    endloop
  endfacet
  facet normal 0 0 1
    outer loop
      vertex -20.4382 2.945 0.75
      vertex -22.5 10 0.75
      vertex -20.9369 1.00267 0.75
    endloop
  endfacet
  facet normal 0 0 1
    outer loop
      vertex -19.4721 4.70228 0.75
      vertex -22.5 10 0.75
      vertex -20.4382 2.945 0.75
    endloop
  endfacet
  facet normal 0 0 1
    outer loop
      vertex -18.0994 6.16411 0.75
      vertex -22.5 10 0.75
      vertex -19.4721 4.70228 0.75
    endloop
  endfacet
  facet normal 0 0 1
    outer loop
      vertex -16.4062 7.23862 0.75
      vertex -22.5 10 0.75
      vertex -18.0994 6.16411 0.75
    endloop
  endfacet
  facet normal 0 0 1
    outer loop
      vertex -14.4991 7.8583 0.75
      vertex -22.5 10 0.75
      vertex -16.4062 7.23862 0.75
    endloop
  endfacet
  facet normal 0 0 1
    outer loop
      vertex -12.4977 7.98421 0.75
      vertex -22.5 10 0.75
      vertex -14.4991 7.8583 0.75
    endloop
  endfacet
  facet normal 0 0 1
    outer loop
      vertex -2.90581 9.49704 0.75
      vertex -22.5 10 0.75
      vertex -3.28107 9.47343 0.75
    endloop
  endfacet
  facet normal -0 0 1
    outer loop
      vertex -22.5 10 0.75
      vertex -2.90581 9.49704 0.75
      vertex 22.5 10 0.75
    endloop
  endfacet
  facet normal -0 0 1
    outer loop
      vertex 20.7487 -1.98952 0.75
      vertex 22.5 -10 0.75
      vertex 21 0 0.75
    endloop
  endfacet
  facet normal -0 0 1
    outer loop
      vertex 20.0105 -3.85403 0.75
      vertex 22.5 -10 0.75
      vertex 20.7487 -1.98952 0.75
    endloop
  endfacet
  facet normal -0 0 1
    outer loop
      vertex 18.8317 -5.47638 0.75
      vertex 22.5 -10 0.75
      vertex 20.0105 -3.85403 0.75
    endloop
  endfacet
  facet normal -0 0 1
    outer loop
      vertex 17.2866 -6.75462 0.75
      vertex 22.5 -10 0.75
      vertex 18.8317 -5.47638 0.75
    endloop
  endfacet
  facet normal -0 0 1
    outer loop
      vertex 15.4721 -7.60845 0.75
      vertex 22.5 -10 0.75
      vertex 17.2866 -6.75462 0.75
    endloop
  endfacet
  facet normal -0 0 1
    outer loop
      vertex 13.5023 -7.98421 0.75
      vertex 22.5 -10 0.75
      vertex 15.4721 -7.60845 0.75
    endloop
  endfacet
  facet normal 0 0 1
    outer loop
      vertex 11.5009 -7.8583 0.75
      vertex 22.5 -10 0.75
      vertex 13.5023 -7.98421 0.75
    endloop
  endfacet
  facet normal -0 0 1
    outer loop
      vertex 3.80374 6.73351 0.75
      vertex 6.52786 4.70228 0.75
      vertex 4.09345 6.97318 0.75
    endloop
  endfacet
  facet normal -0 0 1
    outer loop
      vertex 3.46352 6.57342 0.75
      vertex 6.52786 4.70228 0.75
      vertex 3.80374 6.73351 0.75
    endloop
  endfacet
  facet normal 0 0 1
    outer loop
      vertex 6.52786 4.70228 0.75
      vertex 3.46352 6.57342 0.75
      vertex 5.56179 2.945 0.75
    endloop
  endfacet
  facet normal -0 0 1
    outer loop
      vertex 3.09418 6.50296 0.75
      vertex 5.56179 2.945 0.75
      vertex 3.46352 6.57342 0.75
    endloop
  endfacet
  facet normal 0 0 1
    outer loop
      vertex 5.56179 2.945 0.75
      vertex 3.09418 6.50296 0.75
      vertex 5.06308 1.00267 0.75
    endloop
  endfacet
  facet normal -0 0 1
    outer loop
      vertex -2.90581 6.50296 0.75
      vertex 5.06308 1.00267 0.75
      vertex 3.09418 6.50296 0.75
    endloop
  endfacet
  facet normal 0 0 1
    outer loop
      vertex 5.06308 1.00267 0.75
      vertex -5 0 0.75
      vertex 5.06308 -1.00267 0.75
    endloop
  endfacet
  facet normal 0 0 1
    outer loop
      vertex 5.06308 1.00267 0.75
      vertex -2.90581 6.50296 0.75
      vertex -5 0 0.75
    endloop
  endfacet
  facet normal 0 0 1
    outer loop
      vertex -5.25133 -1.98952 0.75
      vertex 5.06308 -1.00267 0.75
      vertex -5 0 0.75
    endloop
  endfacet
  facet normal 0 0 1
    outer loop
      vertex -5 0 0.75
      vertex -2.90581 6.50296 0.75
      vertex -3.28107 6.52657 0.75
    endloop
  endfacet
  facet normal 0 0 1
    outer loop
      vertex -5 0 0.75
      vertex -3.28107 6.52657 0.75
      vertex -3.63867 6.64276 0.75
    endloop
  endfacet
  facet normal 0 0 1
    outer loop
      vertex -5 0 0.75
      vertex -3.63867 6.64276 0.75
      vertex -3.95614 6.84423 0.75
    endloop
  endfacet
  facet normal 0 0 1
    outer loop
      vertex -5 0 0.75
      vertex -3.95614 6.84423 0.75
      vertex -4.21352 7.11832 0.75
    endloop
  endfacet
  facet normal 0 0 1
    outer loop
      vertex -5 0 0.75
      vertex -4.39466 7.44781 0.75
      vertex -4.48817 7.812 0.75
    endloop
  endfacet
  facet normal 0 0 1
    outer loop
      vertex -5 0 0.75
      vertex -4.21352 7.11832 0.75
      vertex -4.39466 7.44781 0.75
    endloop
  endfacet
  facet normal 0 0 1
    outer loop
      vertex 5.06308 -1.00267 0.75
      vertex -5.25133 -1.98952 0.75
      vertex 5.56179 -2.945 0.75
    endloop
  endfacet
  facet normal 0 0 1
    outer loop
      vertex -5.98955 -3.85403 0.75
      vertex 5.56179 -2.945 0.75
      vertex -5.25133 -1.98952 0.75
    endloop
  endfacet
  facet normal 0 0 1
    outer loop
      vertex 5.56179 -2.945 0.75
      vertex -5.98955 -3.85403 0.75
      vertex 6.52786 -4.70228 0.75
    endloop
  endfacet
  facet normal 0 0 1
    outer loop
      vertex -7.16825 -5.47638 0.75
      vertex 6.52786 -4.70228 0.75
      vertex -5.98955 -3.85403 0.75
    endloop
  endfacet
  facet normal 0 0 1
    outer loop
      vertex 6.52786 -4.70228 0.75
      vertex -7.16825 -5.47638 0.75
      vertex 7.90061 -6.16411 0.75
    endloop
  endfacet
  facet normal 0 0 1
    outer loop
      vertex -8.71339 -6.75462 0.75
      vertex 7.90061 -6.16411 0.75
      vertex -7.16825 -5.47638 0.75
    endloop
  endfacet
  facet normal 0 0 1
    outer loop
      vertex 7.90061 -6.16411 0.75
      vertex -8.71339 -6.75462 0.75
      vertex 9.59377 -7.23862 0.75
    endloop
  endfacet
  facet normal 0 0 1
    outer loop
      vertex -10.5279 -7.60845 0.75
      vertex 9.59377 -7.23862 0.75
      vertex -8.71339 -6.75462 0.75
    endloop
  endfacet
  facet normal 0 0 1
    outer loop
      vertex 9.59377 -7.23862 0.75
      vertex -10.5279 -7.60845 0.75
      vertex 11.5009 -7.8583 0.75
    endloop
  endfacet
  facet normal 0 0 1
    outer loop
      vertex -12.4977 -7.98421 0.75
      vertex 11.5009 -7.8583 0.75
      vertex -10.5279 -7.60845 0.75
    endloop
  endfacet
  facet normal 0 0 1
    outer loop
      vertex 11.5009 -7.8583 0.75
      vertex -12.4977 -7.98421 0.75
      vertex 22.5 -10 0.75
    endloop
  endfacet
  facet normal 0 0 1
    outer loop
      vertex -12.4977 -7.98421 0.75
      vertex -22.5 -10 0.75
      vertex 22.5 -10 0.75
    endloop
  endfacet
  facet normal 0 0 1
    outer loop
      vertex -14.4991 -7.8583 0.75
      vertex -22.5 -10 0.75
      vertex -12.4977 -7.98421 0.75
    endloop
  endfacet
  facet normal 0 0 1
    outer loop
      vertex -16.4062 -7.23862 0.75
      vertex -22.5 -10 0.75
      vertex -14.4991 -7.8583 0.75
    endloop
  endfacet
  facet normal 0 0 1
    outer loop
      vertex -18.0994 -6.16411 0.75
      vertex -22.5 -10 0.75
      vertex -16.4062 -7.23862 0.75
    endloop
  endfacet
  facet normal 0 0 1
    outer loop
      vertex -19.4721 -4.70228 0.75
      vertex -22.5 -10 0.75
      vertex -18.0994 -6.16411 0.75
    endloop
  endfacet
  facet normal 0 0 1
    outer loop
      vertex -20.4382 -2.945 0.75
      vertex -22.5 -10 0.75
      vertex -19.4721 -4.70228 0.75
    endloop
  endfacet
  facet normal 0 0 1
    outer loop
      vertex -20.9369 -1.00267 0.75
      vertex -22.5 -10 0.75
      vertex -20.4382 -2.945 0.75
    endloop
  endfacet
  facet normal 0 0 1
    outer loop
      vertex -22.5 -10 0.75
      vertex -20.9369 -1.00267 0.75
      vertex -22.5 10 0.75
    endloop
  endfacet
  facet normal 0 0 -1
    outer loop
      vertex -22.5 -10 -0.75
      vertex 22.5 10 -0.75
      vertex 22.5 -10 -0.75
    endloop
  endfacet
  facet normal -0 0 -1
    outer loop
      vertex 22.5 10 -0.75
      vertex -22.5 -10 -0.75
      vertex -22.5 10 -0.75
    endloop
  endfacet
  facet normal -1 0 0
    outer loop
      vertex -22.5 -10 -0.75
      vertex -22.5 10 0.75
      vertex -22.5 10 -0.75
    endloop
  endfacet
  facet normal -1 -0 0
    outer loop
      vertex -22.5 10 0.75
      vertex -22.5 -10 -0.75
      vertex -22.5 -10 0.75
    endloop
  endfacet
  facet normal 0 1 -0
    outer loop
      vertex 22.5 10 -0.75
      vertex -22.5 10 0.75
      vertex 22.5 10 0.75
    endloop
  endfacet
  facet normal 0 1 0
    outer loop
      vertex -22.5 10 0.75
      vertex 22.5 10 -0.75
      vertex -22.5 10 -0.75
    endloop
  endfacet
  facet normal 0 -1 0
    outer loop
      vertex -22.5 -10 -0.75
      vertex 22.5 -10 0.75
      vertex -22.5 -10 0.75
    endloop
  endfacet
  facet normal 0 -1 -0
    outer loop
      vertex 22.5 -10 0.75
      vertex -22.5 -10 -0.75
      vertex 22.5 -10 -0.75
    endloop
  endfacet
  facet normal 0.992115 -0.125335 0
    outer loop
      vertex 4.45287 7.62697 2.7
      vertex 4.5 8 0.75
      vertex 4.5 8 2.7
    endloop
  endfacet
  facet normal 0.992115 -0.125335 0
    outer loop
      vertex 4.5 8 0.75
      vertex 4.45287 7.62697 2.7
      vertex 4.45287 7.62697 0.75
    endloop
  endfacet
  facet normal 0 -1 0
    outer loop
      vertex -2.90581 6.50296 0.75
      vertex 3.09418 6.50296 2.7
      vertex -2.90581 6.50296 2.7
    endloop
  endfacet
  facet normal 0 -1 -0
    outer loop
      vertex 3.09418 6.50296 2.7
      vertex -2.90581 6.50296 0.75
      vertex 3.09418 6.50296 0.75
    endloop
  endfacet
  facet normal 0.992115 0.125335 0
    outer loop
      vertex 4.5 8 2.7
      vertex 4.45287 8.37303 0.75
      vertex 4.45287 8.37303 2.7
    endloop
  endfacet
  facet normal 0.992115 0.125335 0
    outer loop
      vertex 4.45287 8.37303 0.75
      vertex 4.5 8 2.7
      vertex 4.5 8 0.75
    endloop
  endfacet
  facet normal -0.968583 0.248691 0
    outer loop
      vertex -4.48817 8.188 0.75
      vertex -4.39466 8.55219 2.7
      vertex -4.39466 8.55219 0.75
    endloop
  endfacet
  facet normal -0.968583 0.248691 0
    outer loop
      vertex -4.39466 8.55219 2.7
      vertex -4.48817 8.188 0.75
      vertex -4.48817 8.188 2.7
    endloop
  endfacet
  facet normal 0.187382 0.982287 -0
    outer loop
      vertex 3.46352 9.42658 0.75
      vertex 3.09418 9.49704 2.7
      vertex 3.46352 9.42658 2.7
    endloop
  endfacet
  facet normal 0.187382 0.982287 0
    outer loop
      vertex 3.09418 9.49704 2.7
      vertex 3.46352 9.42658 0.75
      vertex 3.09418 9.49704 0.75
    endloop
  endfacet
  facet normal -0.0627904 -0.998027 0
    outer loop
      vertex -3.28107 6.52657 0.75
      vertex -2.90581 6.50296 2.7
      vertex -3.28107 6.52657 2.7
    endloop
  endfacet
  facet normal -0.0627904 -0.998027 -0
    outer loop
      vertex -2.90581 6.50296 2.7
      vertex -3.28107 6.52657 0.75
      vertex -2.90581 6.50296 0.75
    endloop
  endfacet
  facet normal -0.309019 0.951056 0
    outer loop
      vertex -3.28107 9.47343 0.75
      vertex -3.63867 9.35724 2.7
      vertex -3.28107 9.47343 2.7
    endloop
  endfacet
  facet normal -0.309019 0.951056 0
    outer loop
      vertex -3.63867 9.35724 2.7
      vertex -3.28107 9.47343 0.75
      vertex -3.63867 9.35724 0.75
    endloop
  endfacet
  facet normal 0.929777 -0.368123 0
    outer loop
      vertex 4.31446 7.27737 2.7
      vertex 4.45287 7.62697 0.75
      vertex 4.45287 7.62697 2.7
    endloop
  endfacet
  facet normal 0.929777 -0.368123 0
    outer loop
      vertex 4.45287 7.62697 0.75
      vertex 4.31446 7.27737 2.7
      vertex 4.31446 7.27737 0.75
    endloop
  endfacet
  facet normal 0.809016 -0.587786 0
    outer loop
      vertex 4.09345 6.97318 2.7
      vertex 4.31446 7.27737 0.75
      vertex 4.31446 7.27737 2.7
    endloop
  endfacet
  facet normal 0.809016 -0.587786 0
    outer loop
      vertex 4.31446 7.27737 0.75
      vertex 4.09345 6.97318 2.7
      vertex 4.09345 6.97318 0.75
    endloop
  endfacet
  facet normal -0.728969 0.684547 0
    outer loop
      vertex -4.21352 8.88168 0.75
      vertex -3.95614 9.15577 2.7
      vertex -3.95614 9.15577 0.75
    endloop
  endfacet
  facet normal -0.728969 0.684547 0
    outer loop
      vertex -3.95614 9.15577 2.7
      vertex -4.21352 8.88168 0.75
      vertex -4.21352 8.88168 2.7
    endloop
  endfacet
  facet normal 0 0 1
    outer loop
      vertex 4.45287 8.37303 2.7
      vertex 4.45287 7.62697 2.7
      vertex 4.5 8 2.7
    endloop
  endfacet
  facet normal 0 0 1
    outer loop
      vertex 4.31446 8.72263 2.7
      vertex 4.45287 7.62697 2.7
      vertex 4.45287 8.37303 2.7
    endloop
  endfacet
  facet normal 0 0 1
    outer loop
      vertex 4.31446 8.72263 2.7
      vertex 4.31446 7.27737 2.7
      vertex 4.45287 7.62697 2.7
    endloop
  endfacet
  facet normal 0 0 1
    outer loop
      vertex 4.09345 9.02682 2.7
      vertex 4.31446 7.27737 2.7
      vertex 4.31446 8.72263 2.7
    endloop
  endfacet
  facet normal 0 0 1
    outer loop
      vertex 4.09345 9.02682 2.7
      vertex 4.09345 6.97318 2.7
      vertex 4.31446 7.27737 2.7
    endloop
  endfacet
  facet normal 0 0 1
    outer loop
      vertex 3.80374 9.26649 2.7
      vertex 4.09345 6.97318 2.7
      vertex 4.09345 9.02682 2.7
    endloop
  endfacet
  facet normal 0 0 1
    outer loop
      vertex 3.80374 9.26649 2.7
      vertex 3.80374 6.73351 2.7
      vertex 4.09345 6.97318 2.7
    endloop
  endfacet
  facet normal 0 0 1
    outer loop
      vertex 3.46352 9.42658 2.7
      vertex 3.80374 6.73351 2.7
      vertex 3.80374 9.26649 2.7
    endloop
  endfacet
  facet normal 0 0 1
    outer loop
      vertex 3.46352 9.42658 2.7
      vertex 3.46352 6.57342 2.7
      vertex 3.80374 6.73351 2.7
    endloop
  endfacet
  facet normal 0 0 1
    outer loop
      vertex 3.09418 9.49704 2.7
      vertex 3.46352 6.57342 2.7
      vertex 3.46352 9.42658 2.7
    endloop
  endfacet
  facet normal 0 0 1
    outer loop
      vertex 3.09418 9.49704 2.7
      vertex 3.09418 6.50296 2.7
      vertex 3.46352 6.57342 2.7
    endloop
  endfacet
  facet normal -0 0 1
    outer loop
      vertex -2.90581 9.49704 2.7
      vertex 3.09418 6.50296 2.7
      vertex 3.09418 9.49704 2.7
    endloop
  endfacet
  facet normal 0 0 1
    outer loop
      vertex -2.90581 9.49704 2.7
      vertex -2.90581 6.50296 2.7
      vertex 3.09418 6.50296 2.7
    endloop
  endfacet
  facet normal -0 0 1
    outer loop
      vertex -3.28107 9.47343 2.7
      vertex -2.90581 6.50296 2.7
      vertex -2.90581 9.49704 2.7
    endloop
  endfacet
  facet normal 0 0 1
    outer loop
      vertex -3.28107 9.47343 2.7
      vertex -3.28107 6.52657 2.7
      vertex -2.90581 6.50296 2.7
    endloop
  endfacet
  facet normal -0 0 1
    outer loop
      vertex -3.63867 9.35724 2.7
      vertex -3.28107 6.52657 2.7
      vertex -3.28107 9.47343 2.7
    endloop
  endfacet
  facet normal 0 0 1
    outer loop
      vertex -3.63867 9.35724 2.7
      vertex -3.63867 6.64276 2.7
      vertex -3.28107 6.52657 2.7
    endloop
  endfacet
  facet normal -0 0 1
    outer loop
      vertex -3.95614 9.15577 2.7
      vertex -3.63867 6.64276 2.7
      vertex -3.63867 9.35724 2.7
    endloop
  endfacet
  facet normal 0 0 1
    outer loop
      vertex -3.95614 9.15577 2.7
      vertex -3.95614 6.84423 2.7
      vertex -3.63867 6.64276 2.7
    endloop
  endfacet
  facet normal -0 0 1
    outer loop
      vertex -4.21352 8.88168 2.7
      vertex -3.95614 6.84423 2.7
      vertex -3.95614 9.15577 2.7
    endloop
  endfacet
  facet normal 0 0 1
    outer loop
      vertex -4.21352 8.88168 2.7
      vertex -4.21352 7.11832 2.7
      vertex -3.95614 6.84423 2.7
    endloop
  endfacet
  facet normal -0 0 1
    outer loop
      vertex -4.39466 8.55219 2.7
      vertex -4.21352 7.11832 2.7
      vertex -4.21352 8.88168 2.7
    endloop
  endfacet
  facet normal 0 0 1
    outer loop
      vertex -4.39466 8.55219 2.7
      vertex -4.39466 7.44781 2.7
      vertex -4.21352 7.11832 2.7
    endloop
  endfacet
  facet normal -0 0 1
    outer loop
      vertex -4.48817 8.188 2.7
      vertex -4.39466 7.44781 2.7
      vertex -4.39466 8.55219 2.7
    endloop
  endfacet
  facet normal 0 0 1
    outer loop
      vertex -4.39466 7.44781 2.7
      vertex -4.48817 8.188 2.7
      vertex -4.48817 7.812 2.7
    endloop
  endfacet
  facet normal -0.0627904 0.998027 0
    outer loop
      vertex -2.90581 9.49704 0.75
      vertex -3.28107 9.47343 2.7
      vertex -2.90581 9.49704 2.7
    endloop
  endfacet
  facet normal -0.0627904 0.998027 0
    outer loop
      vertex -3.28107 9.47343 2.7
      vertex -2.90581 9.49704 0.75
      vertex -3.28107 9.47343 0.75
    endloop
  endfacet
  facet normal -0.535825 0.844329 0
    outer loop
      vertex -3.63867 9.35724 0.75
      vertex -3.95614 9.15577 2.7
      vertex -3.63867 9.35724 2.7
    endloop
  endfacet
  facet normal -0.535825 0.844329 0
    outer loop
      vertex -3.95614 9.15577 2.7
      vertex -3.63867 9.35724 0.75
      vertex -3.95614 9.15577 0.75
    endloop
  endfacet
  facet normal -0.535825 -0.844329 0
    outer loop
      vertex -3.95614 6.84423 0.75
      vertex -3.63867 6.64276 2.7
      vertex -3.95614 6.84423 2.7
    endloop
  endfacet
  facet normal -0.535825 -0.844329 -0
    outer loop
      vertex -3.63867 6.64276 2.7
      vertex -3.95614 6.84423 0.75
      vertex -3.63867 6.64276 0.75
    endloop
  endfacet
  facet normal 0.809016 0.587786 0
    outer loop
      vertex 4.31446 8.72263 2.7
      vertex 4.09345 9.02682 0.75
      vertex 4.09345 9.02682 2.7
    endloop
  endfacet
  facet normal 0.809016 0.587786 0
    outer loop
      vertex 4.09345 9.02682 0.75
      vertex 4.31446 8.72263 2.7
      vertex 4.31446 8.72263 0.75
    endloop
  endfacet
  facet normal 0.187382 -0.982287 0
    outer loop
      vertex 3.09418 6.50296 0.75
      vertex 3.46352 6.57342 2.7
      vertex 3.09418 6.50296 2.7
    endloop
  endfacet
  facet normal 0.187382 -0.982287 0
    outer loop
      vertex 3.46352 6.57342 2.7
      vertex 3.09418 6.50296 0.75
      vertex 3.46352 6.57342 0.75
    endloop
  endfacet
  facet normal 0.42578 0.904827 -0
    outer loop
      vertex 3.80374 9.26649 0.75
      vertex 3.46352 9.42658 2.7
      vertex 3.80374 9.26649 2.7
    endloop
  endfacet
  facet normal 0.42578 0.904827 0
    outer loop
      vertex 3.46352 9.42658 2.7
      vertex 3.80374 9.26649 0.75
      vertex 3.46352 9.42658 0.75
    endloop
  endfacet
  facet normal -1 0 0
    outer loop
      vertex -4.48817 7.812 0.75
      vertex -4.48817 8.188 2.7
      vertex -4.48817 8.188 0.75
    endloop
  endfacet
  facet normal -1 -0 0
    outer loop
      vertex -4.48817 8.188 2.7
      vertex -4.48817 7.812 0.75
      vertex -4.48817 7.812 2.7
    endloop
  endfacet
  facet normal 0 1 -0
    outer loop
      vertex 3.09418 9.49704 0.75
      vertex -2.90581 9.49704 2.7
      vertex 3.09418 9.49704 2.7
    endloop
  endfacet
  facet normal 0 1 0
    outer loop
      vertex -2.90581 9.49704 2.7
      vertex 3.09418 9.49704 0.75
      vertex -2.90581 9.49704 0.75
    endloop
  endfacet
  facet normal 0.637423 -0.770514 0
    outer loop
      vertex 3.80374 6.73351 0.75
      vertex 4.09345 6.97318 2.7
      vertex 3.80374 6.73351 2.7
    endloop
  endfacet
  facet normal 0.637423 -0.770514 0
    outer loop
      vertex 4.09345 6.97318 2.7
      vertex 3.80374 6.73351 0.75
      vertex 4.09345 6.97318 0.75
    endloop
  endfacet
  facet normal -0.309019 -0.951056 0
    outer loop
      vertex -3.63867 6.64276 0.75
      vertex -3.28107 6.52657 2.7
      vertex -3.63867 6.64276 2.7
    endloop
  endfacet
  facet normal -0.309019 -0.951056 -0
    outer loop
      vertex -3.28107 6.52657 2.7
      vertex -3.63867 6.64276 0.75
      vertex -3.28107 6.52657 0.75
    endloop
  endfacet
  facet normal -0.968583 -0.248691 0
    outer loop
      vertex -4.39466 7.44781 0.75
      vertex -4.48817 7.812 2.7
      vertex -4.48817 7.812 0.75
    endloop
  endfacet
  facet normal -0.968583 -0.248691 0
    outer loop
      vertex -4.48817 7.812 2.7
      vertex -4.39466 7.44781 0.75
      vertex -4.39466 7.44781 2.7
    endloop
  endfacet
  facet normal 0.42578 -0.904827 0
    outer loop
      vertex 3.46352 6.57342 0.75
      vertex 3.80374 6.73351 2.7
      vertex 3.46352 6.57342 2.7
    endloop
  endfacet
  facet normal 0.42578 -0.904827 0
    outer loop
      vertex 3.80374 6.73351 2.7
      vertex 3.46352 6.57342 0.75
      vertex 3.80374 6.73351 0.75
    endloop
  endfacet
  facet normal -0.728969 -0.684547 0
    outer loop
      vertex -3.95614 6.84423 0.75
      vertex -4.21352 7.11832 2.7
      vertex -4.21352 7.11832 0.75
    endloop
  endfacet
  facet normal -0.728969 -0.684547 0
    outer loop
      vertex -4.21352 7.11832 2.7
      vertex -3.95614 6.84423 0.75
      vertex -3.95614 6.84423 2.7
    endloop
  endfacet
  facet normal 0.929777 0.368123 0
    outer loop
      vertex 4.45287 8.37303 2.7
      vertex 4.31446 8.72263 0.75
      vertex 4.31446 8.72263 2.7
    endloop
  endfacet
  facet normal 0.929777 0.368123 0
    outer loop
      vertex 4.31446 8.72263 0.75
      vertex 4.45287 8.37303 2.7
      vertex 4.45287 8.37303 0.75
    endloop
  endfacet
  facet normal -0.876307 -0.481753 0
    outer loop
      vertex -4.21352 7.11832 0.75
      vertex -4.39466 7.44781 2.7
      vertex -4.39466 7.44781 0.75
    endloop
  endfacet
  facet normal -0.876307 -0.481753 0
    outer loop
      vertex -4.39466 7.44781 2.7
      vertex -4.21352 7.11832 0.75
      vertex -4.21352 7.11832 2.7
    endloop
  endfacet
  facet normal 0.637423 0.770514 -0
    outer loop
      vertex 4.09345 9.02682 0.75
      vertex 3.80374 9.26649 2.7
      vertex 4.09345 9.02682 2.7
    endloop
  endfacet
  facet normal 0.637423 0.770514 0
    outer loop
      vertex 3.80374 9.26649 2.7
      vertex 4.09345 9.02682 0.75
      vertex 3.80374 9.26649 0.75
    endloop
  endfacet
  facet normal -0.876307 0.481753 0
    outer loop
      vertex -4.39466 8.55219 0.75
      vertex -4.21352 8.88168 2.7
      vertex -4.21352 8.88168 0.75
    endloop
  endfacet
  facet normal -0.876307 0.481753 0
    outer loop
      vertex -4.21352 8.88168 2.7
      vertex -4.39466 8.55219 0.75
      vertex -4.39466 8.55219 2.7
    endloop
  endfacet
endsolid OpenSCAD_Model
