solid OpenSCAD_Model
  facet normal 0 -1 0
    outer loop
      vertex -1.5 -2.59808 0
      vertex 1.5 -2.59808 2.4
      vertex -1.5 -2.59808 2.4
    endloop
  endfacet
  facet normal 0 -1 -0
    outer loop
      vertex 1.5 -2.59808 2.4
      vertex -1.5 -2.59808 0
      vertex 1.5 -2.59808 0
    endloop
  endfacet
  facet normal 0.866025 -0.5 0
    outer loop
      vertex 1.5 -2.59808 2.4
      vertex 3 0 0
      vertex 3 0 2.4
    endloop
  endfacet
  facet normal 0.866025 -0.5 0
    outer loop
      vertex 3 0 0
      vertex 1.5 -2.59808 2.4
      vertex 1.5 -2.59808 0
    endloop
  endfacet
  facet normal 0 1 -0
    outer loop
      vertex 1.5 2.59808 0
      vertex -1.5 2.59808 2.4
      vertex 1.5 2.59808 2.4
    endloop
  endfacet
  facet normal 0 1 0
    outer loop
      vertex -1.5 2.59808 2.4
      vertex 1.5 2.59808 0
      vertex -1.5 2.59808 0
    endloop
  endfacet
  facet normal 0.866025 0.5 0
    outer loop
      vertex 3 0 2.4
      vertex 1.5 2.59808 0
      vertex 1.5 2.59808 2.4
    endloop
  endfacet
  facet normal 0.866025 0.5 0
    outer loop
      vertex 1.5 2.59808 0
      vertex 3 0 2.4
      vertex 3 0 0
    endloop
  endfacet
  facet normal -0.866025 0.5 0
    outer loop
      vertex -3 0 0
      vertex -1.5 2.59808 2.4
      vertex -1.5 2.59808 0
    endloop
  endfacet
  facet normal -0.866025 0.5 0
    outer loop
      vertex -1.5 2.59808 2.4
      vertex -3 0 0
      vertex -3 0 2.4
    endloop
  endfacet
  facet normal -0.866025 -0.5 0
    outer loop
      vertex -1.5 -2.59808 0
      vertex -3 0 2.4
      vertex -3 0 0
    endloop
  endfacet
  facet normal -0.866025 -0.5 0
    outer loop
      vertex -3 0 2.4
      vertex -1.5 -2.59808 0
      vertex -1.5 -2.59808 2.4
    endloop
  endfacet
  facet normal 0 0 1
    outer loop
      vertex 3 0 2.4
      vertex 1.45287 0.373034 2.4
      vertex 1.5 0 2.4
    endloop
  endfacet
  facet normal 0 0 1
    outer loop
      vertex 3 0 2.4
      vertex 1.31446 0.722631 2.4
      vertex 1.45287 0.373034 2.4
    endloop
  endfacet
  facet normal 0 0 1
    outer loop
      vertex 1.5 2.59808 2.4
      vertex 1.09345 1.02682 2.4
      vertex 1.31446 0.722631 2.4
    endloop
  endfacet
  facet normal 0 0 1
    outer loop
      vertex 1.5 2.59808 2.4
      vertex 0.80374 1.26649 2.4
      vertex 1.09345 1.02682 2.4
    endloop
  endfacet
  facet normal 0 0 1
    outer loop
      vertex 1.5 2.59808 2.4
      vertex 0.463525 1.42658 2.4
      vertex 0.80374 1.26649 2.4
    endloop
  endfacet
  facet normal 0 0 1
    outer loop
      vertex 1.5 2.59808 2.4
      vertex 0.0941849 1.49704 2.4
      vertex 0.463525 1.42658 2.4
    endloop
  endfacet
  facet normal -0 0 1
    outer loop
      vertex -1.5 2.59808 2.4
      vertex 0.0941849 1.49704 2.4
      vertex 1.5 2.59808 2.4
    endloop
  endfacet
  facet normal 0 0 1
    outer loop
      vertex 0.0941849 1.49704 2.4
      vertex -1.5 2.59808 2.4
      vertex -0.281072 1.47343 2.4
    endloop
  endfacet
  facet normal 0 0 1
    outer loop
      vertex -1.39466 0.552186 2.4
      vertex -3 0 2.4
      vertex -1.48817 0.188 2.4
    endloop
  endfacet
  facet normal 0 0 1
    outer loop
      vertex -1.21352 0.881678 2.4
      vertex -3 0 2.4
      vertex -1.39466 0.552186 2.4
    endloop
  endfacet
  facet normal 0 0 1
    outer loop
      vertex -3 0 2.4
      vertex -1.21352 0.881678 2.4
      vertex -1.5 2.59808 2.4
    endloop
  endfacet
  facet normal 0 0 1
    outer loop
      vertex -0.956136 1.15577 2.4
      vertex -1.5 2.59808 2.4
      vertex -1.21352 0.881678 2.4
    endloop
  endfacet
  facet normal 0 0 1
    outer loop
      vertex -0.638668 1.35724 2.4
      vertex -1.5 2.59808 2.4
      vertex -0.956136 1.15577 2.4
    endloop
  endfacet
  facet normal 0 0 1
    outer loop
      vertex -0.281072 1.47343 2.4
      vertex -1.5 2.59808 2.4
      vertex -0.638668 1.35724 2.4
    endloop
  endfacet
  facet normal -0 0 1
    outer loop
      vertex 1.31446 0.722631 2.4
      vertex 3 0 2.4
      vertex 1.5 2.59808 2.4
    endloop
  endfacet
  facet normal 0 0 1
    outer loop
      vertex 1.45287 -0.373034 2.4
      vertex 3 0 2.4
      vertex 1.5 0 2.4
    endloop
  endfacet
  facet normal 0 0 1
    outer loop
      vertex 1.31446 -0.722631 2.4
      vertex 3 0 2.4
      vertex 1.45287 -0.373034 2.4
    endloop
  endfacet
  facet normal 0 0 1
    outer loop
      vertex 3 0 2.4
      vertex 1.31446 -0.722631 2.4
      vertex 1.5 -2.59808 2.4
    endloop
  endfacet
  facet normal -0 0 1
    outer loop
      vertex 1.09345 -1.02682 2.4
      vertex 1.5 -2.59808 2.4
      vertex 1.31446 -0.722631 2.4
    endloop
  endfacet
  facet normal -0 0 1
    outer loop
      vertex 0.80374 -1.26649 2.4
      vertex 1.5 -2.59808 2.4
      vertex 1.09345 -1.02682 2.4
    endloop
  endfacet
  facet normal -0 0 1
    outer loop
      vertex 0.463525 -1.42658 2.4
      vertex 1.5 -2.59808 2.4
      vertex 0.80374 -1.26649 2.4
    endloop
  endfacet
  facet normal -0 0 1
    outer loop
      vertex 0.0941849 -1.49704 2.4
      vertex 1.5 -2.59808 2.4
      vertex 0.463525 -1.42658 2.4
    endloop
  endfacet
  facet normal 0 0 1
    outer loop
      vertex -1.5 -2.59808 2.4
      vertex 0.0941849 -1.49704 2.4
      vertex -0.281072 -1.47343 2.4
    endloop
  endfacet
  facet normal 0 0 1
    outer loop
      vertex -1.5 -2.59808 2.4
      vertex -0.281072 -1.47343 2.4
      vertex -0.638668 -1.35724 2.4
    endloop
  endfacet
  facet normal 0 0 1
    outer loop
      vertex 0.0941849 -1.49704 2.4
      vertex -1.5 -2.59808 2.4
      vertex 1.5 -2.59808 2.4
    endloop
  endfacet
  facet normal 0 0 1
    outer loop
      vertex -0.956136 -1.15577 2.4
      vertex -1.5 -2.59808 2.4
      vertex -0.638668 -1.35724 2.4
    endloop
  endfacet
  facet normal 0 0 1
    outer loop
      vertex -1.21352 -0.881678 2.4
      vertex -1.5 -2.59808 2.4
      vertex -0.956136 -1.15577 2.4
    endloop
  endfacet
  facet normal 0 0 1
    outer loop
      vertex -3 0 2.4
      vertex -1.21352 -0.881678 2.4
      vertex -1.39466 -0.552186 2.4
    endloop
  endfacet
  facet normal 0 0 1
    outer loop
      vertex -3 0 2.4
      vertex -1.39466 -0.552186 2.4
      vertex -1.48817 -0.188 2.4
    endloop
  endfacet
  facet normal 0 0 1
    outer loop
      vertex -1.48817 0.188 2.4
      vertex -3 0 2.4
      vertex -1.48817 -0.188 2.4
    endloop
  endfacet
  facet normal 0 0 1
    outer loop
      vertex -1.21352 -0.881678 2.4
      vertex -3 0 2.4
      vertex -1.5 -2.59808 2.4
    endloop
  endfacet
  facet normal -0 0 -1
    outer loop
      vertex 3 0 0
      vertex 1.45287 -0.373034 0
      vertex 1.5 0 0
    endloop
  endfacet
  facet normal 0 0 -1
    outer loop
      vertex 3 0 0
      vertex 1.31446 -0.722631 0
      vertex 1.45287 -0.373034 0
    endloop
  endfacet
  facet normal 0 0 -1
    outer loop
      vertex 1.5 -2.59808 0
      vertex 1.09345 -1.02682 0
      vertex 1.31446 -0.722631 0
    endloop
  endfacet
  facet normal 0 0 -1
    outer loop
      vertex 1.5 -2.59808 0
      vertex 0.80374 -1.26649 0
      vertex 1.09345 -1.02682 0
    endloop
  endfacet
  facet normal 0 0 -1
    outer loop
      vertex 1.5 -2.59808 0
      vertex 0.463525 -1.42658 0
      vertex 0.80374 -1.26649 0
    endloop
  endfacet
  facet normal 0 0 -1
    outer loop
      vertex 1.5 -2.59808 0
      vertex 0.0941849 -1.49704 0
      vertex 0.463525 -1.42658 0
    endloop
  endfacet
  facet normal 0 0 -1
    outer loop
      vertex -1.5 -2.59808 0
      vertex 0.0941849 -1.49704 0
      vertex 1.5 -2.59808 0
    endloop
  endfacet
  facet normal -0 0 -1
    outer loop
      vertex 0.0941849 -1.49704 0
      vertex -1.5 -2.59808 0
      vertex -0.281072 -1.47343 0
    endloop
  endfacet
  facet normal 0 0 -1
    outer loop
      vertex -3 0 0
      vertex -1.48817 0.188 0
      vertex -1.48817 -0.188 0
    endloop
  endfacet
  facet normal -0 0 -1
    outer loop
      vertex -0.281072 -1.47343 0
      vertex -1.5 -2.59808 0
      vertex -0.638668 -1.35724 0
    endloop
  endfacet
  facet normal 0 0 -1
    outer loop
      vertex -1.5 -2.59808 0
      vertex -0.956136 -1.15577 0
      vertex -0.638668 -1.35724 0
    endloop
  endfacet
  facet normal 0 0 -1
    outer loop
      vertex -1.5 -2.59808 0
      vertex -1.21352 -0.881678 0
      vertex -0.956136 -1.15577 0
    endloop
  endfacet
  facet normal 0 0 -1
    outer loop
      vertex -3 0 0
      vertex -1.21352 -0.881678 0
      vertex -1.5 -2.59808 0
    endloop
  endfacet
  facet normal 0 0 -1
    outer loop
      vertex -1.21352 -0.881678 0
      vertex -3 0 0
      vertex -1.39466 -0.552186 0
    endloop
  endfacet
  facet normal 0 0 -1
    outer loop
      vertex -1.39466 -0.552186 0
      vertex -3 0 0
      vertex -1.48817 -0.188 0
    endloop
  endfacet
  facet normal -0 0 -1
    outer loop
      vertex -1.48817 0.188 0
      vertex -3 0 0
      vertex -1.5 2.59808 0
    endloop
  endfacet
  facet normal 0 0 -1
    outer loop
      vertex 1.31446 -0.722631 0
      vertex 3 0 0
      vertex 1.5 -2.59808 0
    endloop
  endfacet
  facet normal 0 0 -1
    outer loop
      vertex 1.45287 0.373034 0
      vertex 3 0 0
      vertex 1.5 0 0
    endloop
  endfacet
  facet normal 0 0 -1
    outer loop
      vertex 1.31446 0.722631 0
      vertex 3 0 0
      vertex 1.45287 0.373034 0
    endloop
  endfacet
  facet normal 0 0 -1
    outer loop
      vertex 3 0 0
      vertex 1.31446 0.722631 0
      vertex 1.5 2.59808 0
    endloop
  endfacet
  facet normal 0 0 -1
    outer loop
      vertex 1.09345 1.02682 0
      vertex 1.5 2.59808 0
      vertex 1.31446 0.722631 0
    endloop
  endfacet
  facet normal 0 0 -1
    outer loop
      vertex 0.80374 1.26649 0
      vertex 1.5 2.59808 0
      vertex 1.09345 1.02682 0
    endloop
  endfacet
  facet normal 0 0 -1
    outer loop
      vertex 0.463525 1.42658 0
      vertex 1.5 2.59808 0
      vertex 0.80374 1.26649 0
    endloop
  endfacet
  facet normal 0 0 -1
    outer loop
      vertex 0.0941849 1.49704 0
      vertex 1.5 2.59808 0
      vertex 0.463525 1.42658 0
    endloop
  endfacet
  facet normal 0 0 -1
    outer loop
      vertex -1.5 2.59808 0
      vertex 0.0941849 1.49704 0
      vertex -0.281072 1.47343 0
    endloop
  endfacet
  facet normal 0 0 -1
    outer loop
      vertex -1.5 2.59808 0
      vertex -0.281072 1.47343 0
      vertex -0.638668 1.35724 0
    endloop
  endfacet
  facet normal 0 0 -1
    outer loop
      vertex 0.0941849 1.49704 0
      vertex -1.5 2.59808 0
      vertex 1.5 2.59808 0
    endloop
  endfacet
  facet normal 0 0 -1
    outer loop
      vertex -0.956136 1.15577 0
      vertex -1.5 2.59808 0
      vertex -0.638668 1.35724 0
    endloop
  endfacet
  facet normal 0 0 -1
    outer loop
      vertex -1.21352 0.881678 0
      vertex -1.5 2.59808 0
      vertex -0.956136 1.15577 0
    endloop
  endfacet
  facet normal 0 0 -1
    outer loop
      vertex -1.39466 0.552186 0
      vertex -1.5 2.59808 0
      vertex -1.21352 0.881678 0
    endloop
  endfacet
  facet normal 0 0 -1
    outer loop
      vertex -1.5 2.59808 0
      vertex -1.39466 0.552186 0
      vertex -1.48817 0.188 0
    endloop
  endfacet
  facet normal -0.929777 -0.368123 0
    outer loop
      vertex 1.45287 0.373034 0
      vertex 1.31446 0.722631 2.4
      vertex 1.31446 0.722631 0
    endloop
  endfacet
  facet normal -0.929777 -0.368123 0
    outer loop
      vertex 1.31446 0.722631 2.4
      vertex 1.45287 0.373034 0
      vertex 1.45287 0.373034 2.4
    endloop
  endfacet
  facet normal -0.992115 -0.125335 0
    outer loop
      vertex 1.5 0 0
      vertex 1.45287 0.373034 2.4
      vertex 1.45287 0.373034 0
    endloop
  endfacet
  facet normal -0.992115 -0.125335 0
    outer loop
      vertex 1.45287 0.373034 2.4
      vertex 1.5 0 0
      vertex 1.5 0 2.4
    endloop
  endfacet
  facet normal 0.876307 0.481753 0
    outer loop
      vertex -1.21352 -0.881678 2.4
      vertex -1.39466 -0.552186 0
      vertex -1.39466 -0.552186 2.4
    endloop
  endfacet
  facet normal 0.876307 0.481753 0
    outer loop
      vertex -1.39466 -0.552186 0
      vertex -1.21352 -0.881678 2.4
      vertex -1.21352 -0.881678 0
    endloop
  endfacet
  facet normal -0.42578 0.904827 0
    outer loop
      vertex 0.80374 -1.26649 0
      vertex 0.463525 -1.42658 2.4
      vertex 0.80374 -1.26649 2.4
    endloop
  endfacet
  facet normal -0.42578 0.904827 0
    outer loop
      vertex 0.463525 -1.42658 2.4
      vertex 0.80374 -1.26649 0
      vertex 0.463525 -1.42658 0
    endloop
  endfacet
  facet normal 0.968583 -0.248691 0
    outer loop
      vertex -1.48817 0.188 2.4
      vertex -1.39466 0.552186 0
      vertex -1.39466 0.552186 2.4
    endloop
  endfacet
  facet normal 0.968583 -0.248691 0
    outer loop
      vertex -1.39466 0.552186 0
      vertex -1.48817 0.188 2.4
      vertex -1.48817 0.188 0
    endloop
  endfacet
  facet normal -0.42578 -0.904827 0
    outer loop
      vertex 0.463525 1.42658 0
      vertex 0.80374 1.26649 2.4
      vertex 0.463525 1.42658 2.4
    endloop
  endfacet
  facet normal -0.42578 -0.904827 -0
    outer loop
      vertex 0.80374 1.26649 2.4
      vertex 0.463525 1.42658 0
      vertex 0.80374 1.26649 0
    endloop
  endfacet
  facet normal -0.929777 0.368123 0
    outer loop
      vertex 1.31446 -0.722631 0
      vertex 1.45287 -0.373034 2.4
      vertex 1.45287 -0.373034 0
    endloop
  endfacet
  facet normal -0.929777 0.368123 0
    outer loop
      vertex 1.45287 -0.373034 2.4
      vertex 1.31446 -0.722631 0
      vertex 1.31446 -0.722631 2.4
    endloop
  endfacet
  facet normal 1 -0 0
    outer loop
      vertex -1.48817 -0.188 2.4
      vertex -1.48817 0.188 0
      vertex -1.48817 0.188 2.4
    endloop
  endfacet
  facet normal 1 0 0
    outer loop
      vertex -1.48817 0.188 0
      vertex -1.48817 -0.188 2.4
      vertex -1.48817 -0.188 0
    endloop
  endfacet
  facet normal 0.968583 0.248691 0
    outer loop
      vertex -1.39466 -0.552186 2.4
      vertex -1.48817 -0.188 0
      vertex -1.48817 -0.188 2.4
    endloop
  endfacet
  facet normal 0.968583 0.248691 0
    outer loop
      vertex -1.48817 -0.188 0
      vertex -1.39466 -0.552186 2.4
      vertex -1.39466 -0.552186 0
    endloop
  endfacet
  facet normal 0.535825 -0.844329 0
    outer loop
      vertex -0.956136 1.15577 0
      vertex -0.638668 1.35724 2.4
      vertex -0.956136 1.15577 2.4
    endloop
  endfacet
  facet normal 0.535825 -0.844329 0
    outer loop
      vertex -0.638668 1.35724 2.4
      vertex -0.956136 1.15577 0
      vertex -0.638668 1.35724 0
    endloop
  endfacet
  facet normal 0.728969 -0.684547 0
    outer loop
      vertex -1.21352 0.881678 2.4
      vertex -0.956136 1.15577 0
      vertex -0.956136 1.15577 2.4
    endloop
  endfacet
  facet normal 0.728969 -0.684547 0
    outer loop
      vertex -0.956136 1.15577 0
      vertex -1.21352 0.881678 2.4
      vertex -1.21352 0.881678 0
    endloop
  endfacet
  facet normal 0.0627906 0.998027 -0
    outer loop
      vertex 0.0941849 -1.49704 0
      vertex -0.281072 -1.47343 2.4
      vertex 0.0941849 -1.49704 2.4
    endloop
  endfacet
  facet normal 0.0627906 0.998027 0
    outer loop
      vertex -0.281072 -1.47343 2.4
      vertex 0.0941849 -1.49704 0
      vertex -0.281072 -1.47343 0
    endloop
  endfacet
  facet normal -0.992115 0.125335 0
    outer loop
      vertex 1.45287 -0.373034 0
      vertex 1.5 0 2.4
      vertex 1.5 0 0
    endloop
  endfacet
  facet normal -0.992115 0.125335 0
    outer loop
      vertex 1.5 0 2.4
      vertex 1.45287 -0.373034 0
      vertex 1.45287 -0.373034 2.4
    endloop
  endfacet
  facet normal 0.0627906 -0.998027 0
    outer loop
      vertex -0.281072 1.47343 0
      vertex 0.0941849 1.49704 2.4
      vertex -0.281072 1.47343 2.4
    endloop
  endfacet
  facet normal 0.0627906 -0.998027 0
    outer loop
      vertex 0.0941849 1.49704 2.4
      vertex -0.281072 1.47343 0
      vertex 0.0941849 1.49704 0
    endloop
  endfacet
  facet normal -0.187382 0.982287 0
    outer loop
      vertex 0.463525 -1.42658 0
      vertex 0.0941849 -1.49704 2.4
      vertex 0.463525 -1.42658 2.4
    endloop
  endfacet
  facet normal -0.187382 0.982287 0
    outer loop
      vertex 0.0941849 -1.49704 2.4
      vertex 0.463525 -1.42658 0
      vertex 0.0941849 -1.49704 0
    endloop
  endfacet
  facet normal 0.309019 -0.951056 0
    outer loop
      vertex -0.638668 1.35724 0
      vertex -0.281072 1.47343 2.4
      vertex -0.638668 1.35724 2.4
    endloop
  endfacet
  facet normal 0.309019 -0.951056 0
    outer loop
      vertex -0.281072 1.47343 2.4
      vertex -0.638668 1.35724 0
      vertex -0.281072 1.47343 0
    endloop
  endfacet
  facet normal 0.728969 0.684547 0
    outer loop
      vertex -0.956136 -1.15577 2.4
      vertex -1.21352 -0.881678 0
      vertex -1.21352 -0.881678 2.4
    endloop
  endfacet
  facet normal 0.728969 0.684547 0
    outer loop
      vertex -1.21352 -0.881678 0
      vertex -0.956136 -1.15577 2.4
      vertex -0.956136 -1.15577 0
    endloop
  endfacet
  facet normal 0.876307 -0.481753 0
    outer loop
      vertex -1.39466 0.552186 2.4
      vertex -1.21352 0.881678 0
      vertex -1.21352 0.881678 2.4
    endloop
  endfacet
  facet normal 0.876307 -0.481753 0
    outer loop
      vertex -1.21352 0.881678 0
      vertex -1.39466 0.552186 2.4
      vertex -1.39466 0.552186 0
    endloop
  endfacet
  facet normal -0.187382 -0.982287 0
    outer loop
      vertex 0.0941849 1.49704 0
      vertex 0.463525 1.42658 2.4
      vertex 0.0941849 1.49704 2.4
    endloop
  endfacet
  facet normal -0.187382 -0.982287 -0
    outer loop
      vertex 0.463525 1.42658 2.4
      vertex 0.0941849 1.49704 0
      vertex 0.463525 1.42658 0
    endloop
  endfacet
  facet normal -0.637423 0.770514 0
    outer loop
      vertex 1.09345 -1.02682 0
      vertex 0.80374 -1.26649 2.4
      vertex 1.09345 -1.02682 2.4
    endloop
  endfacet
  facet normal -0.637423 0.770514 0
    outer loop
      vertex 0.80374 -1.26649 2.4
      vertex 1.09345 -1.02682 0
      vertex 0.80374 -1.26649 0
    endloop
  endfacet
  facet normal -0.809016 0.587786 0
    outer loop
      vertex 1.09345 -1.02682 0
      vertex 1.31446 -0.722631 2.4
      vertex 1.31446 -0.722631 0
    endloop
  endfacet
  facet normal -0.809016 0.587786 0
    outer loop
      vertex 1.31446 -0.722631 2.4
      vertex 1.09345 -1.02682 0
      vertex 1.09345 -1.02682 2.4
    endloop
  endfacet
  facet normal -0.637423 -0.770514 0
    outer loop
      vertex 0.80374 1.26649 0
      vertex 1.09345 1.02682 2.4
      vertex 0.80374 1.26649 2.4
    endloop
  endfacet
  facet normal -0.637423 -0.770514 -0
    outer loop
      vertex 1.09345 1.02682 2.4
      vertex 0.80374 1.26649 0
      vertex 1.09345 1.02682 0
    endloop
  endfacet
  facet normal 0.535825 0.844329 -0
    outer loop
      vertex -0.638668 -1.35724 0
      vertex -0.956136 -1.15577 2.4
      vertex -0.638668 -1.35724 2.4
    endloop
  endfacet
  facet normal 0.535825 0.844329 0
    outer loop
      vertex -0.956136 -1.15577 2.4
      vertex -0.638668 -1.35724 0
      vertex -0.956136 -1.15577 0
    endloop
  endfacet
  facet normal -0.809016 -0.587786 0
    outer loop
      vertex 1.31446 0.722631 0
      vertex 1.09345 1.02682 2.4
      vertex 1.09345 1.02682 0
    endloop
  endfacet
  facet normal -0.809016 -0.587786 0
    outer loop
      vertex 1.09345 1.02682 2.4
      vertex 1.31446 0.722631 0
      vertex 1.31446 0.722631 2.4
    endloop
  endfacet
  facet normal 0.309019 0.951056 -0
    outer loop
      vertex -0.281072 -1.47343 0
      vertex -0.638668 -1.35724 2.4
      vertex -0.281072 -1.47343 2.4
    endloop
  endfacet
  facet normal 0.309019 0.951056 0
    outer loop
      vertex -0.638668 -1.35724 2.4
      vertex -0.281072 -1.47343 0
      vertex -0.638668 -1.35724 0
    endloop
  endfacet
endsolid OpenSCAD_Model
