solid OpenSCAD_Model
  facet normal -0.309017 0.951057 0
    outer loop
      vertex -0.515298 2.70129 -15.5
      vertex -1.17089 2.48827 -12.5
      vertex -0.515298 2.70129 -12.5
    endloop
  endfacet
  facet normal -0.309017 0.951057 0
    outer loop
      vertex -1.17089 2.48827 -12.5
      vertex -0.515298 2.70129 -15.5
      vertex -1.17089 2.48827 -15.5
    endloop
  endfacet
  facet normal -0.0627905 0.998027 0
    outer loop
      vertex 0.172673 2.74457 -15.5
      vertex -0.515298 2.70129 -12.5
      vertex 0.172673 2.74457 -12.5
    endloop
  endfacet
  facet normal -0.0627905 0.998027 0
    outer loop
      vertex -0.515298 2.70129 -12.5
      vertex 0.172673 2.74457 -15.5
      vertex -0.515298 2.70129 -15.5
    endloop
  endfacet
  facet normal 0.929776 0.368125 0
    outer loop
      vertex 2.6636 0.683897 -12.5
      vertex 2.40984 1.32482 -15.5
      vertex 2.40984 1.32482 -12.5
    endloop
  endfacet
  facet normal 0.929776 0.368125 0
    outer loop
      vertex 2.40984 1.32482 -15.5
      vertex 2.6636 0.683897 -12.5
      vertex 2.6636 0.683897 -15.5
    endloop
  endfacet
  facet normal 0.992115 0.125334 0
    outer loop
      vertex 2.75 0 -12.5
      vertex 2.6636 0.683897 -15.5
      vertex 2.6636 0.683897 -12.5
    endloop
  endfacet
  facet normal 0.992115 0.125334 0
    outer loop
      vertex 2.6636 0.683897 -15.5
      vertex 2.75 0 -12.5
      vertex 2.75 0 -15.5
    endloop
  endfacet
  facet normal 0.809017 0.587785 0
    outer loop
      vertex 2.40984 1.32482 -12.5
      vertex 2.00466 1.8825 -15.5
      vertex 2.00466 1.8825 -12.5
    endloop
  endfacet
  facet normal 0.809017 0.587785 0
    outer loop
      vertex 2.00466 1.8825 -15.5
      vertex 2.40984 1.32482 -12.5
      vertex 2.40984 1.32482 -15.5
    endloop
  endfacet
  facet normal 0.809017 -0.587785 0
    outer loop
      vertex 2.00466 -1.8825 -12.5
      vertex 2.40984 -1.32482 -15.5
      vertex 2.40984 -1.32482 -12.5
    endloop
  endfacet
  facet normal 0.809017 -0.587785 0
    outer loop
      vertex 2.40984 -1.32482 -15.5
      vertex 2.00466 -1.8825 -12.5
      vertex 2.00466 -1.8825 -15.5
    endloop
  endfacet
  facet normal -0.876307 -0.481754 0
    outer loop
      vertex -2.2248 -1.61641 -15.5
      vertex -2.55688 -1.01234 -12.5
      vertex -2.55688 -1.01234 -15.5
    endloop
  endfacet
  facet normal -0.876307 -0.481754 0
    outer loop
      vertex -2.55688 -1.01234 -12.5
      vertex -2.2248 -1.61641 -15.5
      vertex -2.2248 -1.61641 -12.5
    endloop
  endfacet
  facet normal 0.637423 0.770514 -0
    outer loop
      vertex 2.00466 1.8825 -15.5
      vertex 1.47352 2.3219 -12.5
      vertex 2.00466 1.8825 -12.5
    endloop
  endfacet
  facet normal 0.637423 0.770514 0
    outer loop
      vertex 1.47352 2.3219 -12.5
      vertex 2.00466 1.8825 -15.5
      vertex 1.47352 2.3219 -15.5
    endloop
  endfacet
  facet normal -0.728968 0.684548 0
    outer loop
      vertex -2.2248 1.61641 -15.5
      vertex -1.75292 2.11891 -12.5
      vertex -1.75292 2.11891 -15.5
    endloop
  endfacet
  facet normal -0.728968 0.684548 0
    outer loop
      vertex -1.75292 2.11891 -12.5
      vertex -2.2248 1.61641 -15.5
      vertex -2.2248 1.61641 -12.5
    endloop
  endfacet
  facet normal 0.187381 0.982287 -0
    outer loop
      vertex 0.849796 2.61541 -15.5
      vertex 0.172673 2.74457 -12.5
      vertex 0.849796 2.61541 -12.5
    endloop
  endfacet
  facet normal 0.187381 0.982287 0
    outer loop
      vertex 0.172673 2.74457 -12.5
      vertex 0.849796 2.61541 -15.5
      vertex 0.172673 2.74457 -15.5
    endloop
  endfacet
  facet normal -0.535827 0.844328 0
    outer loop
      vertex -1.17089 2.48827 -15.5
      vertex -1.75292 2.11891 -12.5
      vertex -1.17089 2.48827 -12.5
    endloop
  endfacet
  facet normal -0.535827 0.844328 0
    outer loop
      vertex -1.75292 2.11891 -12.5
      vertex -1.17089 2.48827 -15.5
      vertex -1.75292 2.11891 -15.5
    endloop
  endfacet
  facet normal 0.929776 -0.368125 0
    outer loop
      vertex 2.40984 -1.32482 -12.5
      vertex 2.6636 -0.683897 -15.5
      vertex 2.6636 -0.683897 -12.5
    endloop
  endfacet
  facet normal 0.929776 -0.368125 0
    outer loop
      vertex 2.6636 -0.683897 -15.5
      vertex 2.40984 -1.32482 -12.5
      vertex 2.40984 -1.32482 -15.5
    endloop
  endfacet
  facet normal 0.42578 0.904827 -0
    outer loop
      vertex 1.47352 2.3219 -15.5
      vertex 0.849796 2.61541 -12.5
      vertex 1.47352 2.3219 -12.5
    endloop
  endfacet
  facet normal 0.42578 0.904827 0
    outer loop
      vertex 0.849796 2.61541 -12.5
      vertex 1.47352 2.3219 -15.5
      vertex 0.849796 2.61541 -15.5
    endloop
  endfacet
  facet normal -0.876307 0.481754 0
    outer loop
      vertex -2.55688 1.01234 -15.5
      vertex -2.2248 1.61641 -12.5
      vertex -2.2248 1.61641 -15.5
    endloop
  endfacet
  facet normal -0.876307 0.481754 0
    outer loop
      vertex -2.2248 1.61641 -12.5
      vertex -2.55688 1.01234 -15.5
      vertex -2.55688 1.01234 -12.5
    endloop
  endfacet
  facet normal -1 0 0
    outer loop
      vertex -2.72832 -0.344666 -15.5
      vertex -2.72832 0.344666 -12.5
      vertex -2.72832 0.344666 -15.5
    endloop
  endfacet
  facet normal -1 -0 0
    outer loop
      vertex -2.72832 0.344666 -12.5
      vertex -2.72832 -0.344666 -15.5
      vertex -2.72832 -0.344666 -12.5
    endloop
  endfacet
  facet normal -0.968583 0.24869 0
    outer loop
      vertex -2.72832 0.344666 -15.5
      vertex -2.55688 1.01234 -12.5
      vertex -2.55688 1.01234 -15.5
    endloop
  endfacet
  facet normal -0.968583 0.24869 0
    outer loop
      vertex -2.55688 1.01234 -12.5
      vertex -2.72832 0.344666 -15.5
      vertex -2.72832 0.344666 -12.5
    endloop
  endfacet
  facet normal -0.309017 -0.951057 0
    outer loop
      vertex -1.17089 -2.48827 -15.5
      vertex -0.515298 -2.70129 -12.5
      vertex -1.17089 -2.48827 -12.5
    endloop
  endfacet
  facet normal -0.309017 -0.951057 -0
    outer loop
      vertex -0.515298 -2.70129 -12.5
      vertex -1.17089 -2.48827 -15.5
      vertex -0.515298 -2.70129 -15.5
    endloop
  endfacet
  facet normal 0.42578 -0.904827 0
    outer loop
      vertex 0.849796 -2.61541 -15.5
      vertex 1.47352 -2.3219 -12.5
      vertex 0.849796 -2.61541 -12.5
    endloop
  endfacet
  facet normal 0.42578 -0.904827 0
    outer loop
      vertex 1.47352 -2.3219 -12.5
      vertex 0.849796 -2.61541 -15.5
      vertex 1.47352 -2.3219 -15.5
    endloop
  endfacet
  facet normal 0.992115 -0.125334 0
    outer loop
      vertex 2.6636 -0.683897 -12.5
      vertex 2.75 0 -15.5
      vertex 2.75 0 -12.5
    endloop
  endfacet
  facet normal 0.992115 -0.125334 0
    outer loop
      vertex 2.75 0 -15.5
      vertex 2.6636 -0.683897 -12.5
      vertex 2.6636 -0.683897 -15.5
    endloop
  endfacet
  facet normal -0.728968 -0.684548 0
    outer loop
      vertex -1.75292 -2.11891 -15.5
      vertex -2.2248 -1.61641 -12.5
      vertex -2.2248 -1.61641 -15.5
    endloop
  endfacet
  facet normal -0.728968 -0.684548 0
    outer loop
      vertex -2.2248 -1.61641 -12.5
      vertex -1.75292 -2.11891 -15.5
      vertex -1.75292 -2.11891 -12.5
    endloop
  endfacet
  facet normal -0.0627905 -0.998027 0
    outer loop
      vertex -0.515298 -2.70129 -15.5
      vertex 0.172673 -2.74457 -12.5
      vertex -0.515298 -2.70129 -12.5
    endloop
  endfacet
  facet normal -0.0627905 -0.998027 -0
    outer loop
      vertex 0.172673 -2.74457 -12.5
      vertex -0.515298 -2.70129 -15.5
      vertex 0.172673 -2.74457 -15.5
    endloop
  endfacet
  facet normal -0.535827 -0.844328 0
    outer loop
      vertex -1.75292 -2.11891 -15.5
      vertex -1.17089 -2.48827 -12.5
      vertex -1.75292 -2.11891 -12.5
    endloop
  endfacet
  facet normal -0.535827 -0.844328 -0
    outer loop
      vertex -1.17089 -2.48827 -12.5
      vertex -1.75292 -2.11891 -15.5
      vertex -1.17089 -2.48827 -15.5
    endloop
  endfacet
  facet normal 0.187381 -0.982287 0
    outer loop
      vertex 0.172673 -2.74457 -15.5
      vertex 0.849796 -2.61541 -12.5
      vertex 0.172673 -2.74457 -12.5
    endloop
  endfacet
  facet normal 0.187381 -0.982287 0
    outer loop
      vertex 0.849796 -2.61541 -12.5
      vertex 0.172673 -2.74457 -15.5
      vertex 0.849796 -2.61541 -15.5
    endloop
  endfacet
  facet normal 0.637423 -0.770514 0
    outer loop
      vertex 1.47352 -2.3219 -15.5
      vertex 2.00466 -1.8825 -12.5
      vertex 1.47352 -2.3219 -12.5
    endloop
  endfacet
  facet normal 0.637423 -0.770514 0
    outer loop
      vertex 2.00466 -1.8825 -12.5
      vertex 1.47352 -2.3219 -15.5
      vertex 2.00466 -1.8825 -15.5
    endloop
  endfacet
  facet normal -0.968583 -0.24869 0
    outer loop
      vertex -2.55688 -1.01234 -15.5
      vertex -2.72832 -0.344666 -12.5
      vertex -2.72832 -0.344666 -15.5
    endloop
  endfacet
  facet normal -0.968583 -0.24869 0
    outer loop
      vertex -2.72832 -0.344666 -12.5
      vertex -2.55688 -1.01234 -15.5
      vertex -2.55688 -1.01234 -12.5
    endloop
  endfacet
  facet normal 0 0 1
    outer loop
      vertex 1.5 0 -12.5
      vertex 2.75 0 -12.5
      vertex 2.6636 0.683897 -12.5
    endloop
  endfacet
  facet normal 0 0 1
    outer loop
      vertex 1.45287 0.373034 -12.5
      vertex 2.6636 0.683897 -12.5
      vertex 2.40984 1.32482 -12.5
    endloop
  endfacet
  facet normal 0 0 1
    outer loop
      vertex 2.75 0 -12.5
      vertex 1.5 0 -12.5
      vertex 2.6636 -0.683897 -12.5
    endloop
  endfacet
  facet normal 0 0 1
    outer loop
      vertex 1.31446 0.722631 -12.5
      vertex 2.40984 1.32482 -12.5
      vertex 2.00466 1.8825 -12.5
    endloop
  endfacet
  facet normal -0 0 1
    outer loop
      vertex 1.45287 -0.373034 -12.5
      vertex 2.6636 -0.683897 -12.5
      vertex 1.5 0 -12.5
    endloop
  endfacet
  facet normal 0 0 1
    outer loop
      vertex 2.6636 -0.683897 -12.5
      vertex 1.45287 -0.373034 -12.5
      vertex 2.40984 -1.32482 -12.5
    endloop
  endfacet
  facet normal 0 0 1
    outer loop
      vertex 1.09345 1.02682 -12.5
      vertex 2.00466 1.8825 -12.5
      vertex 1.47352 2.3219 -12.5
    endloop
  endfacet
  facet normal 0 0 1
    outer loop
      vertex 2.6636 0.683897 -12.5
      vertex 1.45287 0.373034 -12.5
      vertex 1.5 0 -12.5
    endloop
  endfacet
  facet normal 0 0 1
    outer loop
      vertex 2.40984 1.32482 -12.5
      vertex 1.31446 0.722631 -12.5
      vertex 1.45287 0.373034 -12.5
    endloop
  endfacet
  facet normal 0 0 1
    outer loop
      vertex 2.00466 1.8825 -12.5
      vertex 1.09345 1.02682 -12.5
      vertex 1.31446 0.722631 -12.5
    endloop
  endfacet
  facet normal 0 0 1
    outer loop
      vertex 0.80374 1.26649 -12.5
      vertex 1.47352 2.3219 -12.5
      vertex 0.849796 2.61541 -12.5
    endloop
  endfacet
  facet normal 0 0 1
    outer loop
      vertex 1.47352 2.3219 -12.5
      vertex 0.80374 1.26649 -12.5
      vertex 1.09345 1.02682 -12.5
    endloop
  endfacet
  facet normal 0 0 1
    outer loop
      vertex 0.849796 2.61541 -12.5
      vertex 0.463525 1.42658 -12.5
      vertex 0.80374 1.26649 -12.5
    endloop
  endfacet
  facet normal 0 0 1
    outer loop
      vertex 0.172673 2.74457 -12.5
      vertex 0.463525 1.42658 -12.5
      vertex 0.849796 2.61541 -12.5
    endloop
  endfacet
  facet normal 0 0 1
    outer loop
      vertex 0.172673 2.74457 -12.5
      vertex 0.0941849 1.49704 -12.5
      vertex 0.463525 1.42658 -12.5
    endloop
  endfacet
  facet normal 0 0 1
    outer loop
      vertex 0.172673 2.74457 -12.5
      vertex -0.281072 1.47343 -12.5
      vertex 0.0941849 1.49704 -12.5
    endloop
  endfacet
  facet normal -0 0 1
    outer loop
      vertex -0.515298 2.70129 -12.5
      vertex -0.281072 1.47343 -12.5
      vertex 0.172673 2.74457 -12.5
    endloop
  endfacet
  facet normal 0 0 1
    outer loop
      vertex -0.515298 2.70129 -12.5
      vertex -0.638668 1.35724 -12.5
      vertex -0.281072 1.47343 -12.5
    endloop
  endfacet
  facet normal -0 0 1
    outer loop
      vertex -1.17089 2.48827 -12.5
      vertex -0.638668 1.35724 -12.5
      vertex -0.515298 2.70129 -12.5
    endloop
  endfacet
  facet normal 0 0 1
    outer loop
      vertex -0.638668 1.35724 -12.5
      vertex -1.17089 2.48827 -12.5
      vertex -0.956136 1.15577 -12.5
    endloop
  endfacet
  facet normal -0 0 1
    outer loop
      vertex -1.75292 2.11891 -12.5
      vertex -0.956136 1.15577 -12.5
      vertex -1.17089 2.48827 -12.5
    endloop
  endfacet
  facet normal 0 0 1
    outer loop
      vertex -0.956136 1.15577 -12.5
      vertex -1.75292 2.11891 -12.5
      vertex -1.21352 0.881678 -12.5
    endloop
  endfacet
  facet normal -0 0 1
    outer loop
      vertex -2.2248 1.61641 -12.5
      vertex -1.21352 0.881678 -12.5
      vertex -1.75292 2.11891 -12.5
    endloop
  endfacet
  facet normal -0 0 1
    outer loop
      vertex -2.55688 1.01234 -12.5
      vertex -1.39466 0.552186 -12.5
      vertex -2.2248 1.61641 -12.5
    endloop
  endfacet
  facet normal 0 0 1
    outer loop
      vertex -1.21352 0.881678 -12.5
      vertex -2.2248 1.61641 -12.5
      vertex -1.39466 0.552186 -12.5
    endloop
  endfacet
  facet normal -0 0 1
    outer loop
      vertex 1.31446 -0.722631 -12.5
      vertex 2.40984 -1.32482 -12.5
      vertex 1.45287 -0.373034 -12.5
    endloop
  endfacet
  facet normal 0 0 1
    outer loop
      vertex 2.40984 -1.32482 -12.5
      vertex 1.31446 -0.722631 -12.5
      vertex 2.00466 -1.8825 -12.5
    endloop
  endfacet
  facet normal -0 0 1
    outer loop
      vertex 1.09345 -1.02682 -12.5
      vertex 2.00466 -1.8825 -12.5
      vertex 1.31446 -0.722631 -12.5
    endloop
  endfacet
  facet normal 0 0 1
    outer loop
      vertex 2.00466 -1.8825 -12.5
      vertex 1.09345 -1.02682 -12.5
      vertex 1.47352 -2.3219 -12.5
    endloop
  endfacet
  facet normal -0 0 1
    outer loop
      vertex 0.80374 -1.26649 -12.5
      vertex 1.47352 -2.3219 -12.5
      vertex 1.09345 -1.02682 -12.5
    endloop
  endfacet
  facet normal 0 0 1
    outer loop
      vertex 1.47352 -2.3219 -12.5
      vertex 0.80374 -1.26649 -12.5
      vertex 0.849796 -2.61541 -12.5
    endloop
  endfacet
  facet normal -0 0 1
    outer loop
      vertex 0.463525 -1.42658 -12.5
      vertex 0.849796 -2.61541 -12.5
      vertex 0.80374 -1.26649 -12.5
    endloop
  endfacet
  facet normal 0 0 1
    outer loop
      vertex 0.463525 -1.42658 -12.5
      vertex 0.172673 -2.74457 -12.5
      vertex 0.849796 -2.61541 -12.5
    endloop
  endfacet
  facet normal -0 0 1
    outer loop
      vertex 0.0941849 -1.49704 -12.5
      vertex 0.172673 -2.74457 -12.5
      vertex 0.463525 -1.42658 -12.5
    endloop
  endfacet
  facet normal 0 0 1
    outer loop
      vertex -0.281072 -1.47343 -12.5
      vertex 0.172673 -2.74457 -12.5
      vertex 0.0941849 -1.49704 -12.5
    endloop
  endfacet
  facet normal 0 0 1
    outer loop
      vertex -0.281072 -1.47343 -12.5
      vertex -0.515298 -2.70129 -12.5
      vertex 0.172673 -2.74457 -12.5
    endloop
  endfacet
  facet normal 0 0 1
    outer loop
      vertex -0.638668 -1.35724 -12.5
      vertex -0.515298 -2.70129 -12.5
      vertex -0.281072 -1.47343 -12.5
    endloop
  endfacet
  facet normal 0 0 1
    outer loop
      vertex -1.17089 -2.48827 -12.5
      vertex -0.638668 -1.35724 -12.5
      vertex -0.956136 -1.15577 -12.5
    endloop
  endfacet
  facet normal 0 0 1
    outer loop
      vertex -0.638668 -1.35724 -12.5
      vertex -1.17089 -2.48827 -12.5
      vertex -0.515298 -2.70129 -12.5
    endloop
  endfacet
  facet normal 0 0 1
    outer loop
      vertex -1.75292 -2.11891 -12.5
      vertex -0.956136 -1.15577 -12.5
      vertex -1.21352 -0.881678 -12.5
    endloop
  endfacet
  facet normal 0 0 1
    outer loop
      vertex -2.2248 -1.61641 -12.5
      vertex -1.21352 -0.881678 -12.5
      vertex -1.39466 -0.552186 -12.5
    endloop
  endfacet
  facet normal 0 0 1
    outer loop
      vertex -2.55688 -1.01234 -12.5
      vertex -1.39466 -0.552186 -12.5
      vertex -1.48817 -0.188 -12.5
    endloop
  endfacet
  facet normal 0 0 1
    outer loop
      vertex -0.956136 -1.15577 -12.5
      vertex -1.75292 -2.11891 -12.5
      vertex -1.17089 -2.48827 -12.5
    endloop
  endfacet
  facet normal 0 0 1
    outer loop
      vertex -1.39466 0.552186 -12.5
      vertex -2.55688 1.01234 -12.5
      vertex -1.48817 0.188 -12.5
    endloop
  endfacet
  facet normal -0 0 1
    outer loop
      vertex -2.72832 0.344666 -12.5
      vertex -1.48817 0.188 -12.5
      vertex -2.55688 1.01234 -12.5
    endloop
  endfacet
  facet normal 0 0 1
    outer loop
      vertex -1.21352 -0.881678 -12.5
      vertex -2.2248 -1.61641 -12.5
      vertex -1.75292 -2.11891 -12.5
    endloop
  endfacet
  facet normal 0 0 1
    outer loop
      vertex -1.48817 0.188 -12.5
      vertex -2.72832 0.344666 -12.5
      vertex -1.48817 -0.188 -12.5
    endloop
  endfacet
  facet normal 0 0 1
    outer loop
      vertex -1.39466 -0.552186 -12.5
      vertex -2.55688 -1.01234 -12.5
      vertex -2.2248 -1.61641 -12.5
    endloop
  endfacet
  facet normal 0 0 1
    outer loop
      vertex -2.72832 -0.344666 -12.5
      vertex -1.48817 -0.188 -12.5
      vertex -2.72832 0.344666 -12.5
    endloop
  endfacet
  facet normal 0 0 1
    outer loop
      vertex -1.48817 -0.188 -12.5
      vertex -2.72832 -0.344666 -12.5
      vertex -2.55688 -1.01234 -12.5
    endloop
  endfacet
  facet normal 0 0 -1
    outer loop
      vertex 1.4 0 -15.5
      vertex 2.75 0 -15.5
      vertex 2.6636 -0.683897 -15.5
    endloop
  endfacet
  facet normal 0 0 -1
    outer loop
      vertex 1.4 0 -15.5
      vertex 2.6636 -0.683897 -15.5
      vertex 2.40984 -1.32482 -15.5
    endloop
  endfacet
  facet normal 0 0 -1
    outer loop
      vertex 2.75 0 -15.5
      vertex 1.4 0 -15.5
      vertex 2.6636 0.683897 -15.5
    endloop
  endfacet
  facet normal 0 0 -1
    outer loop
      vertex 0.7 -1.21243 -15.5
      vertex 2.40984 -1.32482 -15.5
      vertex 2.00466 -1.8825 -15.5
    endloop
  endfacet
  facet normal -0 0 -1
    outer loop
      vertex 2.6636 0.683897 -15.5
      vertex 1.4 0 -15.5
      vertex 2.40984 1.32482 -15.5
    endloop
  endfacet
  facet normal 0 0 -1
    outer loop
      vertex 0.7 -1.21243 -15.5
      vertex 2.00466 -1.8825 -15.5
      vertex 1.47352 -2.3219 -15.5
    endloop
  endfacet
  facet normal 0 0 -1
    outer loop
      vertex 0.7 1.21243 -15.5
      vertex 2.40984 1.32482 -15.5
      vertex 1.4 0 -15.5
    endloop
  endfacet
  facet normal -0 0 -1
    outer loop
      vertex 2.40984 1.32482 -15.5
      vertex 0.7 1.21243 -15.5
      vertex 2.00466 1.8825 -15.5
    endloop
  endfacet
  facet normal 0 0 -1
    outer loop
      vertex 0.7 -1.21243 -15.5
      vertex 1.47352 -2.3219 -15.5
      vertex 0.849796 -2.61541 -15.5
    endloop
  endfacet
  facet normal 0 0 -1
    outer loop
      vertex 2.40984 -1.32482 -15.5
      vertex 0.7 -1.21243 -15.5
      vertex 1.4 0 -15.5
    endloop
  endfacet
  facet normal 0 0 -1
    outer loop
      vertex 0.172673 -2.74457 -15.5
      vertex 0.7 -1.21243 -15.5
      vertex 0.849796 -2.61541 -15.5
    endloop
  endfacet
  facet normal 0 0 -1
    outer loop
      vertex -0.7 -1.21243 -15.5
      vertex 0.172673 -2.74457 -15.5
      vertex -0.515298 -2.70129 -15.5
    endloop
  endfacet
  facet normal 0 0 -1
    outer loop
      vertex 0.172673 -2.74457 -15.5
      vertex -0.7 -1.21243 -15.5
      vertex 0.7 -1.21243 -15.5
    endloop
  endfacet
  facet normal 0 0 -1
    outer loop
      vertex -1.17089 -2.48827 -15.5
      vertex -0.7 -1.21243 -15.5
      vertex -0.515298 -2.70129 -15.5
    endloop
  endfacet
  facet normal 0 0 -1
    outer loop
      vertex -1.75292 -2.11891 -15.5
      vertex -0.7 -1.21243 -15.5
      vertex -1.17089 -2.48827 -15.5
    endloop
  endfacet
  facet normal 0 0 -1
    outer loop
      vertex -2.2248 -1.61641 -15.5
      vertex -0.7 -1.21243 -15.5
      vertex -1.75292 -2.11891 -15.5
    endloop
  endfacet
  facet normal -0 0 -1
    outer loop
      vertex 2.00466 1.8825 -15.5
      vertex 0.7 1.21243 -15.5
      vertex 1.47352 2.3219 -15.5
    endloop
  endfacet
  facet normal -0 0 -1
    outer loop
      vertex 1.47352 2.3219 -15.5
      vertex 0.7 1.21243 -15.5
      vertex 0.849796 2.61541 -15.5
    endloop
  endfacet
  facet normal 0 0 -1
    outer loop
      vertex 0.7 1.21243 -15.5
      vertex 0.172673 2.74457 -15.5
      vertex 0.849796 2.61541 -15.5
    endloop
  endfacet
  facet normal 0 0 -1
    outer loop
      vertex -0.7 1.21243 -15.5
      vertex 0.172673 2.74457 -15.5
      vertex 0.7 1.21243 -15.5
    endloop
  endfacet
  facet normal 0 0 -1
    outer loop
      vertex 0.172673 2.74457 -15.5
      vertex -0.7 1.21243 -15.5
      vertex -0.515298 2.70129 -15.5
    endloop
  endfacet
  facet normal 0 0 -1
    outer loop
      vertex -0.7 1.21243 -15.5
      vertex -1.17089 2.48827 -15.5
      vertex -0.515298 2.70129 -15.5
    endloop
  endfacet
  facet normal 0 0 -1
    outer loop
      vertex -2.2248 1.61641 -15.5
      vertex -0.7 1.21243 -15.5
      vertex -1.4 0 -15.5
    endloop
  endfacet
  facet normal -0 0 -1
    outer loop
      vertex -0.7 -1.21243 -15.5
      vertex -2.2248 -1.61641 -15.5
      vertex -1.4 0 -15.5
    endloop
  endfacet
  facet normal 0 0 -1
    outer loop
      vertex -0.7 1.21243 -15.5
      vertex -1.75292 2.11891 -15.5
      vertex -1.17089 2.48827 -15.5
    endloop
  endfacet
  facet normal 0 0 -1
    outer loop
      vertex -2.55688 -1.01234 -15.5
      vertex -1.4 0 -15.5
      vertex -2.2248 -1.61641 -15.5
    endloop
  endfacet
  facet normal 0 0 -1
    outer loop
      vertex -0.7 1.21243 -15.5
      vertex -2.2248 1.61641 -15.5
      vertex -1.75292 2.11891 -15.5
    endloop
  endfacet
  facet normal 0 0 -1
    outer loop
      vertex -2.72832 -0.344666 -15.5
      vertex -1.4 0 -15.5
      vertex -2.55688 -1.01234 -15.5
    endloop
  endfacet
  facet normal 0 0 -1
    outer loop
      vertex -1.4 0 -15.5
      vertex -2.55688 1.01234 -15.5
      vertex -2.2248 1.61641 -15.5
    endloop
  endfacet
  facet normal 0 0 -1
    outer loop
      vertex -2.72832 0.344666 -15.5
      vertex -1.4 0 -15.5
      vertex -2.72832 -0.344666 -15.5
    endloop
  endfacet
  facet normal 0 0 -1
    outer loop
      vertex -1.4 0 -15.5
      vertex -2.72832 0.344666 -15.5
      vertex -2.55688 1.01234 -15.5
    endloop
  endfacet
  facet normal 0 1 -0
    outer loop
      vertex 0.7 -1.21243 -15.5
      vertex -0.7 -1.21243 -13.9
      vertex 0.7 -1.21243 -13.9
    endloop
  endfacet
  facet normal 0 1 0
    outer loop
      vertex -0.7 -1.21243 -13.9
      vertex 0.7 -1.21243 -15.5
      vertex -0.7 -1.21243 -15.5
    endloop
  endfacet
  facet normal -0.866025 0.5 0
    outer loop
      vertex 0.7 -1.21243 -15.5
      vertex 1.4 0 -13.9
      vertex 1.4 0 -15.5
    endloop
  endfacet
  facet normal -0.866025 0.5 0
    outer loop
      vertex 1.4 0 -13.9
      vertex 0.7 -1.21243 -15.5
      vertex 0.7 -1.21243 -13.9
    endloop
  endfacet
  facet normal 0 -1 0
    outer loop
      vertex -0.7 1.21243 -15.5
      vertex 0.7 1.21243 -13.9
      vertex -0.7 1.21243 -13.9
    endloop
  endfacet
  facet normal 0 -1 -0
    outer loop
      vertex 0.7 1.21243 -13.9
      vertex -0.7 1.21243 -15.5
      vertex 0.7 1.21243 -15.5
    endloop
  endfacet
  facet normal -0.866025 -0.5 0
    outer loop
      vertex 1.4 0 -15.5
      vertex 0.7 1.21243 -13.9
      vertex 0.7 1.21243 -15.5
    endloop
  endfacet
  facet normal -0.866025 -0.5 0
    outer loop
      vertex 0.7 1.21243 -13.9
      vertex 1.4 0 -15.5
      vertex 1.4 0 -13.9
    endloop
  endfacet
  facet normal 0.866025 -0.5 0
    outer loop
      vertex -1.4 0 -13.9
      vertex -0.7 1.21243 -15.5
      vertex -0.7 1.21243 -13.9
    endloop
  endfacet
  facet normal 0.866025 -0.5 0
    outer loop
      vertex -0.7 1.21243 -15.5
      vertex -1.4 0 -13.9
      vertex -1.4 0 -15.5
    endloop
  endfacet
  facet normal 0.866025 0.5 0
    outer loop
      vertex -0.7 -1.21243 -13.9
      vertex -1.4 0 -15.5
      vertex -1.4 0 -13.9
    endloop
  endfacet
  facet normal 0.866025 0.5 0
    outer loop
      vertex -1.4 0 -15.5
      vertex -0.7 -1.21243 -13.9
      vertex -0.7 -1.21243 -15.5
    endloop
  endfacet
  facet normal 0 0 -1
    outer loop
      vertex 0.7 -1.21243 -13.9
      vertex 0.7 1.21243 -13.9
      vertex 1.4 0 -13.9
    endloop
  endfacet
  facet normal 0 0 -1
    outer loop
      vertex -0.7 -1.21243 -13.9
      vertex 0.7 1.21243 -13.9
      vertex 0.7 -1.21243 -13.9
    endloop
  endfacet
  facet normal 0 0 -1
    outer loop
      vertex -0.7 -1.21243 -13.9
      vertex -0.7 1.21243 -13.9
      vertex 0.7 1.21243 -13.9
    endloop
  endfacet
  facet normal 0 -0 -1
    outer loop
      vertex -0.7 1.21243 -13.9
      vertex -0.7 -1.21243 -13.9
      vertex -1.4 0 -13.9
    endloop
  endfacet
  facet normal 0.929777 0.368123 0
    outer loop
      vertex 1.45287 0.373034 12.5
      vertex 1.31446 0.722631 -12.5
      vertex 1.31446 0.722631 12.5
    endloop
  endfacet
  facet normal 0.929777 0.368123 0
    outer loop
      vertex 1.31446 0.722631 -12.5
      vertex 1.45287 0.373034 12.5
      vertex 1.45287 0.373034 -12.5
    endloop
  endfacet
  facet normal 0.992115 0.125335 0
    outer loop
      vertex 1.5 0 12.5
      vertex 1.45287 0.373034 -12.5
      vertex 1.45287 0.373034 12.5
    endloop
  endfacet
  facet normal 0.992115 0.125335 0
    outer loop
      vertex 1.45287 0.373034 -12.5
      vertex 1.5 0 12.5
      vertex 1.5 0 -12.5
    endloop
  endfacet
  facet normal -0.876307 -0.481753 0
    outer loop
      vertex -1.21352 -0.881678 -12.5
      vertex -1.39466 -0.552186 12.5
      vertex -1.39466 -0.552186 -12.5
    endloop
  endfacet
  facet normal -0.876307 -0.481753 0
    outer loop
      vertex -1.39466 -0.552186 12.5
      vertex -1.21352 -0.881678 -12.5
      vertex -1.21352 -0.881678 12.5
    endloop
  endfacet
  facet normal -0.876307 0.481753 0
    outer loop
      vertex -1.39466 0.552186 -12.5
      vertex -1.21352 0.881678 12.5
      vertex -1.21352 0.881678 -12.5
    endloop
  endfacet
  facet normal -0.876307 0.481753 0
    outer loop
      vertex -1.21352 0.881678 12.5
      vertex -1.39466 0.552186 -12.5
      vertex -1.39466 0.552186 12.5
    endloop
  endfacet
  facet normal 0.42578 -0.904827 0
    outer loop
      vertex 0.463525 -1.42658 -12.5
      vertex 0.80374 -1.26649 12.5
      vertex 0.463525 -1.42658 12.5
    endloop
  endfacet
  facet normal 0.42578 -0.904827 0
    outer loop
      vertex 0.80374 -1.26649 12.5
      vertex 0.463525 -1.42658 -12.5
      vertex 0.80374 -1.26649 -12.5
    endloop
  endfacet
  facet normal 0.42578 0.904827 -0
    outer loop
      vertex 0.80374 1.26649 -12.5
      vertex 0.463525 1.42658 12.5
      vertex 0.80374 1.26649 12.5
    endloop
  endfacet
  facet normal 0.42578 0.904827 0
    outer loop
      vertex 0.463525 1.42658 12.5
      vertex 0.80374 1.26649 -12.5
      vertex 0.463525 1.42658 -12.5
    endloop
  endfacet
  facet normal 0.929777 -0.368123 0
    outer loop
      vertex 1.31446 -0.722631 12.5
      vertex 1.45287 -0.373034 -12.5
      vertex 1.45287 -0.373034 12.5
    endloop
  endfacet
  facet normal 0.929777 -0.368123 0
    outer loop
      vertex 1.45287 -0.373034 -12.5
      vertex 1.31446 -0.722631 12.5
      vertex 1.31446 -0.722631 -12.5
    endloop
  endfacet
  facet normal -0.968583 -0.248691 0
    outer loop
      vertex -1.39466 -0.552186 -12.5
      vertex -1.48817 -0.188 12.5
      vertex -1.48817 -0.188 -12.5
    endloop
  endfacet
  facet normal -0.968583 -0.248691 0
    outer loop
      vertex -1.48817 -0.188 12.5
      vertex -1.39466 -0.552186 -12.5
      vertex -1.39466 -0.552186 12.5
    endloop
  endfacet
  facet normal -0.535825 0.844329 0
    outer loop
      vertex -0.638668 1.35724 -12.5
      vertex -0.956136 1.15577 12.5
      vertex -0.638668 1.35724 12.5
    endloop
  endfacet
  facet normal -0.535825 0.844329 0
    outer loop
      vertex -0.956136 1.15577 12.5
      vertex -0.638668 1.35724 -12.5
      vertex -0.956136 1.15577 -12.5
    endloop
  endfacet
  facet normal -0.728969 0.684547 0
    outer loop
      vertex -1.21352 0.881678 -12.5
      vertex -0.956136 1.15577 12.5
      vertex -0.956136 1.15577 -12.5
    endloop
  endfacet
  facet normal -0.728969 0.684547 0
    outer loop
      vertex -0.956136 1.15577 12.5
      vertex -1.21352 0.881678 -12.5
      vertex -1.21352 0.881678 12.5
    endloop
  endfacet
  facet normal -0.0627906 -0.998027 0
    outer loop
      vertex -0.281072 -1.47343 -12.5
      vertex 0.0941849 -1.49704 12.5
      vertex -0.281072 -1.47343 12.5
    endloop
  endfacet
  facet normal -0.0627906 -0.998027 -0
    outer loop
      vertex 0.0941849 -1.49704 12.5
      vertex -0.281072 -1.47343 -12.5
      vertex 0.0941849 -1.49704 -12.5
    endloop
  endfacet
  facet normal -0.968583 0.248691 0
    outer loop
      vertex -1.48817 0.188 -12.5
      vertex -1.39466 0.552186 12.5
      vertex -1.39466 0.552186 -12.5
    endloop
  endfacet
  facet normal -0.968583 0.248691 0
    outer loop
      vertex -1.39466 0.552186 12.5
      vertex -1.48817 0.188 -12.5
      vertex -1.48817 0.188 12.5
    endloop
  endfacet
  facet normal 0.992115 -0.125335 0
    outer loop
      vertex 1.45287 -0.373034 12.5
      vertex 1.5 0 -12.5
      vertex 1.5 0 12.5
    endloop
  endfacet
  facet normal 0.992115 -0.125335 0
    outer loop
      vertex 1.5 0 -12.5
      vertex 1.45287 -0.373034 12.5
      vertex 1.45287 -0.373034 -12.5
    endloop
  endfacet
  facet normal -0.0627906 0.998027 0
    outer loop
      vertex 0.0941849 1.49704 -12.5
      vertex -0.281072 1.47343 12.5
      vertex 0.0941849 1.49704 12.5
    endloop
  endfacet
  facet normal -0.0627906 0.998027 0
    outer loop
      vertex -0.281072 1.47343 12.5
      vertex 0.0941849 1.49704 -12.5
      vertex -0.281072 1.47343 -12.5
    endloop
  endfacet
  facet normal 0.187382 -0.982287 0
    outer loop
      vertex 0.0941849 -1.49704 -12.5
      vertex 0.463525 -1.42658 12.5
      vertex 0.0941849 -1.49704 12.5
    endloop
  endfacet
  facet normal 0.187382 -0.982287 0
    outer loop
      vertex 0.463525 -1.42658 12.5
      vertex 0.0941849 -1.49704 -12.5
      vertex 0.463525 -1.42658 -12.5
    endloop
  endfacet
  facet normal -0.309019 0.951056 0
    outer loop
      vertex -0.281072 1.47343 -12.5
      vertex -0.638668 1.35724 12.5
      vertex -0.281072 1.47343 12.5
    endloop
  endfacet
  facet normal -0.309019 0.951056 0
    outer loop
      vertex -0.638668 1.35724 12.5
      vertex -0.281072 1.47343 -12.5
      vertex -0.638668 1.35724 -12.5
    endloop
  endfacet
  facet normal -0.728969 -0.684547 0
    outer loop
      vertex -0.956136 -1.15577 -12.5
      vertex -1.21352 -0.881678 12.5
      vertex -1.21352 -0.881678 -12.5
    endloop
  endfacet
  facet normal -0.728969 -0.684547 0
    outer loop
      vertex -1.21352 -0.881678 12.5
      vertex -0.956136 -1.15577 -12.5
      vertex -0.956136 -1.15577 12.5
    endloop
  endfacet
  facet normal 0.187382 0.982287 -0
    outer loop
      vertex 0.463525 1.42658 -12.5
      vertex 0.0941849 1.49704 12.5
      vertex 0.463525 1.42658 12.5
    endloop
  endfacet
  facet normal 0.187382 0.982287 0
    outer loop
      vertex 0.0941849 1.49704 12.5
      vertex 0.463525 1.42658 -12.5
      vertex 0.0941849 1.49704 -12.5
    endloop
  endfacet
  facet normal 0.637423 -0.770514 0
    outer loop
      vertex 0.80374 -1.26649 -12.5
      vertex 1.09345 -1.02682 12.5
      vertex 0.80374 -1.26649 12.5
    endloop
  endfacet
  facet normal 0.637423 -0.770514 0
    outer loop
      vertex 1.09345 -1.02682 12.5
      vertex 0.80374 -1.26649 -12.5
      vertex 1.09345 -1.02682 -12.5
    endloop
  endfacet
  facet normal 0.809016 -0.587786 0
    outer loop
      vertex 1.09345 -1.02682 12.5
      vertex 1.31446 -0.722631 -12.5
      vertex 1.31446 -0.722631 12.5
    endloop
  endfacet
  facet normal 0.809016 -0.587786 0
    outer loop
      vertex 1.31446 -0.722631 -12.5
      vertex 1.09345 -1.02682 12.5
      vertex 1.09345 -1.02682 -12.5
    endloop
  endfacet
  facet normal 0.637423 0.770514 -0
    outer loop
      vertex 1.09345 1.02682 -12.5
      vertex 0.80374 1.26649 12.5
      vertex 1.09345 1.02682 12.5
    endloop
  endfacet
  facet normal 0.637423 0.770514 0
    outer loop
      vertex 0.80374 1.26649 12.5
      vertex 1.09345 1.02682 -12.5
      vertex 0.80374 1.26649 -12.5
    endloop
  endfacet
  facet normal -1 0 0
    outer loop
      vertex -1.48817 -0.188 -12.5
      vertex -1.48817 0.188 12.5
      vertex -1.48817 0.188 -12.5
    endloop
  endfacet
  facet normal -1 -0 0
    outer loop
      vertex -1.48817 0.188 12.5
      vertex -1.48817 -0.188 -12.5
      vertex -1.48817 -0.188 12.5
    endloop
  endfacet
  facet normal 0 0 1
    outer loop
      vertex 1.45287 0.373034 12.5
      vertex 1.45287 -0.373034 12.5
      vertex 1.5 0 12.5
    endloop
  endfacet
  facet normal 0 0 1
    outer loop
      vertex 1.31446 0.722631 12.5
      vertex 1.45287 -0.373034 12.5
      vertex 1.45287 0.373034 12.5
    endloop
  endfacet
  facet normal 0 0 1
    outer loop
      vertex 1.31446 0.722631 12.5
      vertex 1.31446 -0.722631 12.5
      vertex 1.45287 -0.373034 12.5
    endloop
  endfacet
  facet normal 0 0 1
    outer loop
      vertex 1.09345 1.02682 12.5
      vertex 1.31446 -0.722631 12.5
      vertex 1.31446 0.722631 12.5
    endloop
  endfacet
  facet normal 0 0 1
    outer loop
      vertex 1.09345 1.02682 12.5
      vertex 1.09345 -1.02682 12.5
      vertex 1.31446 -0.722631 12.5
    endloop
  endfacet
  facet normal 0 0 1
    outer loop
      vertex 0.80374 1.26649 12.5
      vertex 1.09345 -1.02682 12.5
      vertex 1.09345 1.02682 12.5
    endloop
  endfacet
  facet normal 0 0 1
    outer loop
      vertex 0.80374 1.26649 12.5
      vertex 0.80374 -1.26649 12.5
      vertex 1.09345 -1.02682 12.5
    endloop
  endfacet
  facet normal 0 0 1
    outer loop
      vertex 0.463525 1.42658 12.5
      vertex 0.80374 -1.26649 12.5
      vertex 0.80374 1.26649 12.5
    endloop
  endfacet
  facet normal 0 0 1
    outer loop
      vertex 0.463525 1.42658 12.5
      vertex 0.463525 -1.42658 12.5
      vertex 0.80374 -1.26649 12.5
    endloop
  endfacet
  facet normal 0 0 1
    outer loop
      vertex 0.0941849 1.49704 12.5
      vertex 0.463525 -1.42658 12.5
      vertex 0.463525 1.42658 12.5
    endloop
  endfacet
  facet normal 0 0 1
    outer loop
      vertex 0.0941849 1.49704 12.5
      vertex 0.0941849 -1.49704 12.5
      vertex 0.463525 -1.42658 12.5
    endloop
  endfacet
  facet normal -0 0 1
    outer loop
      vertex -0.281072 1.47343 12.5
      vertex 0.0941849 -1.49704 12.5
      vertex 0.0941849 1.49704 12.5
    endloop
  endfacet
  facet normal 0 0 1
    outer loop
      vertex -0.281072 1.47343 12.5
      vertex -0.281072 -1.47343 12.5
      vertex 0.0941849 -1.49704 12.5
    endloop
  endfacet
  facet normal -0 0 1
    outer loop
      vertex -0.638668 1.35724 12.5
      vertex -0.281072 -1.47343 12.5
      vertex -0.281072 1.47343 12.5
    endloop
  endfacet
  facet normal 0 0 1
    outer loop
      vertex -0.638668 1.35724 12.5
      vertex -0.638668 -1.35724 12.5
      vertex -0.281072 -1.47343 12.5
    endloop
  endfacet
  facet normal -0 0 1
    outer loop
      vertex -0.956136 1.15577 12.5
      vertex -0.638668 -1.35724 12.5
      vertex -0.638668 1.35724 12.5
    endloop
  endfacet
  facet normal 0 0 1
    outer loop
      vertex -0.956136 1.15577 12.5
      vertex -0.956136 -1.15577 12.5
      vertex -0.638668 -1.35724 12.5
    endloop
  endfacet
  facet normal -0 0 1
    outer loop
      vertex -1.21352 0.881678 12.5
      vertex -0.956136 -1.15577 12.5
      vertex -0.956136 1.15577 12.5
    endloop
  endfacet
  facet normal 0 0 1
    outer loop
      vertex -1.21352 0.881678 12.5
      vertex -1.21352 -0.881678 12.5
      vertex -0.956136 -1.15577 12.5
    endloop
  endfacet
  facet normal -0 0 1
    outer loop
      vertex -1.39466 0.552186 12.5
      vertex -1.21352 -0.881678 12.5
      vertex -1.21352 0.881678 12.5
    endloop
  endfacet
  facet normal 0 0 1
    outer loop
      vertex -1.39466 0.552186 12.5
      vertex -1.39466 -0.552186 12.5
      vertex -1.21352 -0.881678 12.5
    endloop
  endfacet
  facet normal -0 0 1
    outer loop
      vertex -1.48817 0.188 12.5
      vertex -1.39466 -0.552186 12.5
      vertex -1.39466 0.552186 12.5
    endloop
  endfacet
  facet normal 0 0 1
    outer loop
      vertex -1.39466 -0.552186 12.5
      vertex -1.48817 0.188 12.5
      vertex -1.48817 -0.188 12.5
    endloop
  endfacet
  facet normal 0.809016 0.587786 0
    outer loop
      vertex 1.31446 0.722631 12.5
      vertex 1.09345 1.02682 -12.5
      vertex 1.09345 1.02682 12.5
    endloop
  endfacet
  facet normal 0.809016 0.587786 0
    outer loop
      vertex 1.09345 1.02682 -12.5
      vertex 1.31446 0.722631 12.5
      vertex 1.31446 0.722631 -12.5
    endloop
  endfacet
  facet normal -0.535825 -0.844329 0
    outer loop
      vertex -0.956136 -1.15577 -12.5
      vertex -0.638668 -1.35724 12.5
      vertex -0.956136 -1.15577 12.5
    endloop
  endfacet
  facet normal -0.535825 -0.844329 -0
    outer loop
      vertex -0.638668 -1.35724 12.5
      vertex -0.956136 -1.15577 -12.5
      vertex -0.638668 -1.35724 -12.5
    endloop
  endfacet
  facet normal -0.309019 -0.951056 0
    outer loop
      vertex -0.638668 -1.35724 -12.5
      vertex -0.281072 -1.47343 12.5
      vertex -0.638668 -1.35724 12.5
    endloop
  endfacet
  facet normal -0.309019 -0.951056 -0
    outer loop
      vertex -0.281072 -1.47343 12.5
      vertex -0.638668 -1.35724 -12.5
      vertex -0.281072 -1.47343 -12.5
    endloop
  endfacet
endsolid OpenSCAD_Model
