solid OpenSCAD_Model
  facet normal 0.929777 0.368124 0
    outer loop
      vertex 3.39004 0.870414 -10
      vertex 3.06707 1.68614 -14
      vertex 3.06707 1.68614 -10
    endloop
  endfacet
  facet normal 0.929777 0.368124 0
    outer loop
      vertex 3.06707 1.68614 -14
      vertex 3.39004 0.870414 -10
      vertex 3.39004 0.870414 -14
    endloop
  endfacet
  facet normal 0.992115 0.125334 0
    outer loop
      vertex 3.5 0 -10
      vertex 3.39004 0.870414 -14
      vertex 3.39004 0.870414 -10
    endloop
  endfacet
  facet normal 0.992115 0.125334 0
    outer loop
      vertex 3.39004 0.870414 -14
      vertex 3.5 0 -10
      vertex 3.5 0 -14
    endloop
  endfacet
  facet normal 0.809017 0.587785 0
    outer loop
      vertex 3.06707 1.68614 -10
      vertex 2.55139 2.39591 -14
      vertex 2.55139 2.39591 -10
    endloop
  endfacet
  facet normal 0.809017 0.587785 0
    outer loop
      vertex 2.55139 2.39591 -14
      vertex 3.06707 1.68614 -10
      vertex 3.06707 1.68614 -14
    endloop
  endfacet
  facet normal -0.876307 0.481753 0
    outer loop
      vertex -3.25422 1.28843 -14
      vertex -2.83156 2.05725 -10
      vertex -2.83156 2.05725 -14
    endloop
  endfacet
  facet normal -0.876307 0.481753 0
    outer loop
      vertex -2.83156 2.05725 -10
      vertex -3.25422 1.28843 -14
      vertex -3.25422 1.28843 -10
    endloop
  endfacet
  facet normal -0.728968 0.684547 0
    outer loop
      vertex -2.83156 2.05725 -14
      vertex -2.23098 2.6968 -10
      vertex -2.23098 2.6968 -14
    endloop
  endfacet
  facet normal -0.728968 0.684547 0
    outer loop
      vertex -2.23098 2.6968 -10
      vertex -2.83156 2.05725 -14
      vertex -2.83156 2.05725 -10
    endloop
  endfacet
  facet normal -0.876307 -0.481753 0
    outer loop
      vertex -2.83156 -2.05725 -14
      vertex -3.25422 -1.28843 -10
      vertex -3.25422 -1.28843 -14
    endloop
  endfacet
  facet normal -0.876307 -0.481753 0
    outer loop
      vertex -3.25422 -1.28843 -10
      vertex -2.83156 -2.05725 -14
      vertex -2.83156 -2.05725 -10
    endloop
  endfacet
  facet normal 0.637424 -0.770514 0
    outer loop
      vertex 1.87539 -2.95515 -14
      vertex 2.55139 -2.39591 -10
      vertex 1.87539 -2.95515 -10
    endloop
  endfacet
  facet normal 0.637424 -0.770514 0
    outer loop
      vertex 2.55139 -2.39591 -10
      vertex 1.87539 -2.95515 -14
      vertex 2.55139 -2.39591 -14
    endloop
  endfacet
  facet normal 0.637424 0.770514 -0
    outer loop
      vertex 2.55139 2.39591 -14
      vertex 1.87539 2.95515 -10
      vertex 2.55139 2.39591 -10
    endloop
  endfacet
  facet normal 0.637424 0.770514 0
    outer loop
      vertex 1.87539 2.95515 -10
      vertex 2.55139 2.39591 -14
      vertex 1.87539 2.95515 -14
    endloop
  endfacet
  facet normal 0.929777 -0.368124 0
    outer loop
      vertex 3.06707 -1.68614 -10
      vertex 3.39004 -0.870414 -14
      vertex 3.39004 -0.870414 -10
    endloop
  endfacet
  facet normal 0.929777 -0.368124 0
    outer loop
      vertex 3.39004 -0.870414 -14
      vertex 3.06707 -1.68614 -10
      vertex 3.06707 -1.68614 -14
    endloop
  endfacet
  facet normal 0.42578 0.904827 -0
    outer loop
      vertex 1.87539 2.95515 -14
      vertex 1.08156 3.3287 -10
      vertex 1.87539 2.95515 -10
    endloop
  endfacet
  facet normal 0.42578 0.904827 0
    outer loop
      vertex 1.08156 3.3287 -10
      vertex 1.87539 2.95515 -14
      vertex 1.08156 3.3287 -14
    endloop
  endfacet
  facet normal 0 0 1
    outer loop
      vertex 2 0 -10
      vertex 3.5 0 -10
      vertex 3.39004 0.870414 -10
    endloop
  endfacet
  facet normal 0 0 1
    outer loop
      vertex 1.93717 0.497379 -10
      vertex 3.39004 0.870414 -10
      vertex 3.06707 1.68614 -10
    endloop
  endfacet
  facet normal 0 0 1
    outer loop
      vertex 3.5 0 -10
      vertex 2 0 -10
      vertex 3.39004 -0.870414 -10
    endloop
  endfacet
  facet normal 0 0 1
    outer loop
      vertex 1.75261 0.963507 -10
      vertex 3.06707 1.68614 -10
      vertex 2.55139 2.39591 -10
    endloop
  endfacet
  facet normal -0 0 1
    outer loop
      vertex 1.93717 -0.497379 -10
      vertex 3.39004 -0.870414 -10
      vertex 2 0 -10
    endloop
  endfacet
  facet normal 0 0 1
    outer loop
      vertex 3.39004 -0.870414 -10
      vertex 1.93717 -0.497379 -10
      vertex 3.06707 -1.68614 -10
    endloop
  endfacet
  facet normal 0 0 1
    outer loop
      vertex 3.39004 0.870414 -10
      vertex 1.93717 0.497379 -10
      vertex 2 0 -10
    endloop
  endfacet
  facet normal 0 0 1
    outer loop
      vertex 1.45794 1.36909 -10
      vertex 2.55139 2.39591 -10
      vertex 1.87539 2.95515 -10
    endloop
  endfacet
  facet normal 0 0 1
    outer loop
      vertex 3.06707 1.68614 -10
      vertex 1.75261 0.963507 -10
      vertex 1.93717 0.497379 -10
    endloop
  endfacet
  facet normal 0 0 1
    outer loop
      vertex 2.55139 2.39591 -10
      vertex 1.45794 1.36909 -10
      vertex 1.75261 0.963507 -10
    endloop
  endfacet
  facet normal 0 0 1
    outer loop
      vertex 1.07165 1.68865 -10
      vertex 1.87539 2.95515 -10
      vertex 1.08156 3.3287 -10
    endloop
  endfacet
  facet normal 0 0 1
    outer loop
      vertex 1.87539 2.95515 -10
      vertex 1.07165 1.68865 -10
      vertex 1.45794 1.36909 -10
    endloop
  endfacet
  facet normal 0 0 1
    outer loop
      vertex 1.08156 3.3287 -10
      vertex 0.618033 1.90211 -10
      vertex 1.07165 1.68865 -10
    endloop
  endfacet
  facet normal 0 0 1
    outer loop
      vertex 0.219767 3.49309 -10
      vertex 0.618033 1.90211 -10
      vertex 1.08156 3.3287 -10
    endloop
  endfacet
  facet normal 0 0 1
    outer loop
      vertex 0.219767 3.49309 -10
      vertex 0.125581 1.99605 -10
      vertex 0.618033 1.90211 -10
    endloop
  endfacet
  facet normal 0 0 1
    outer loop
      vertex 0.219767 3.49309 -10
      vertex -0.374763 1.96457 -10
      vertex 0.125581 1.99605 -10
    endloop
  endfacet
  facet normal -0 0 1
    outer loop
      vertex -0.655834 3.438 -10
      vertex -0.374763 1.96457 -10
      vertex 0.219767 3.49309 -10
    endloop
  endfacet
  facet normal 0 0 1
    outer loop
      vertex -0.655834 3.438 -10
      vertex -0.851558 1.80965 -10
      vertex -0.374763 1.96457 -10
    endloop
  endfacet
  facet normal -0 0 1
    outer loop
      vertex -1.49023 3.16689 -10
      vertex -0.851558 1.80965 -10
      vertex -0.655834 3.438 -10
    endloop
  endfacet
  facet normal 0 0 1
    outer loop
      vertex -0.851558 1.80965 -10
      vertex -1.49023 3.16689 -10
      vertex -1.27485 1.54103 -10
    endloop
  endfacet
  facet normal -0 0 1
    outer loop
      vertex -2.23098 2.6968 -10
      vertex -1.27485 1.54103 -10
      vertex -1.49023 3.16689 -10
    endloop
  endfacet
  facet normal 0 0 1
    outer loop
      vertex -1.27485 1.54103 -10
      vertex -2.23098 2.6968 -10
      vertex -1.61803 1.17557 -10
    endloop
  endfacet
  facet normal -0 0 1
    outer loop
      vertex -2.83156 2.05725 -10
      vertex -1.61803 1.17557 -10
      vertex -2.23098 2.6968 -10
    endloop
  endfacet
  facet normal -0 0 1
    outer loop
      vertex -3.25422 1.28843 -10
      vertex -1.85955 0.736249 -10
      vertex -2.83156 2.05725 -10
    endloop
  endfacet
  facet normal 0 0 1
    outer loop
      vertex -1.61803 1.17557 -10
      vertex -2.83156 2.05725 -10
      vertex -1.85955 0.736249 -10
    endloop
  endfacet
  facet normal -0 0 1
    outer loop
      vertex 1.75261 -0.963507 -10
      vertex 3.06707 -1.68614 -10
      vertex 1.93717 -0.497379 -10
    endloop
  endfacet
  facet normal 0 0 1
    outer loop
      vertex 3.06707 -1.68614 -10
      vertex 1.75261 -0.963507 -10
      vertex 2.55139 -2.39591 -10
    endloop
  endfacet
  facet normal -0 0 1
    outer loop
      vertex 1.45794 -1.36909 -10
      vertex 2.55139 -2.39591 -10
      vertex 1.75261 -0.963507 -10
    endloop
  endfacet
  facet normal 0 0 1
    outer loop
      vertex 2.55139 -2.39591 -10
      vertex 1.45794 -1.36909 -10
      vertex 1.87539 -2.95515 -10
    endloop
  endfacet
  facet normal -0 0 1
    outer loop
      vertex 1.07165 -1.68865 -10
      vertex 1.87539 -2.95515 -10
      vertex 1.45794 -1.36909 -10
    endloop
  endfacet
  facet normal 0 0 1
    outer loop
      vertex 1.87539 -2.95515 -10
      vertex 1.07165 -1.68865 -10
      vertex 1.08156 -3.3287 -10
    endloop
  endfacet
  facet normal -0 0 1
    outer loop
      vertex 0.618033 -1.90211 -10
      vertex 1.08156 -3.3287 -10
      vertex 1.07165 -1.68865 -10
    endloop
  endfacet
  facet normal 0 0 1
    outer loop
      vertex 0.618033 -1.90211 -10
      vertex 0.219767 -3.49309 -10
      vertex 1.08156 -3.3287 -10
    endloop
  endfacet
  facet normal -0 0 1
    outer loop
      vertex 0.125581 -1.99605 -10
      vertex 0.219767 -3.49309 -10
      vertex 0.618033 -1.90211 -10
    endloop
  endfacet
  facet normal 0 0 1
    outer loop
      vertex -0.374763 -1.96457 -10
      vertex 0.219767 -3.49309 -10
      vertex 0.125581 -1.99605 -10
    endloop
  endfacet
  facet normal 0 0 1
    outer loop
      vertex -0.374763 -1.96457 -10
      vertex -0.655834 -3.438 -10
      vertex 0.219767 -3.49309 -10
    endloop
  endfacet
  facet normal 0 0 1
    outer loop
      vertex -0.851558 -1.80965 -10
      vertex -0.655834 -3.438 -10
      vertex -0.374763 -1.96457 -10
    endloop
  endfacet
  facet normal 0 0 1
    outer loop
      vertex -1.49023 -3.16689 -10
      vertex -0.851558 -1.80965 -10
      vertex -1.27485 -1.54103 -10
    endloop
  endfacet
  facet normal 0 0 1
    outer loop
      vertex -0.851558 -1.80965 -10
      vertex -1.49023 -3.16689 -10
      vertex -0.655834 -3.438 -10
    endloop
  endfacet
  facet normal 0 0 1
    outer loop
      vertex -2.23098 -2.6968 -10
      vertex -1.27485 -1.54103 -10
      vertex -1.61803 -1.17557 -10
    endloop
  endfacet
  facet normal 0 0 1
    outer loop
      vertex -2.83156 -2.05725 -10
      vertex -1.61803 -1.17557 -10
      vertex -1.85955 -0.736249 -10
    endloop
  endfacet
  facet normal 0 0 1
    outer loop
      vertex -3.25422 -1.28843 -10
      vertex -1.85955 -0.736249 -10
      vertex -1.98423 -0.250666 -10
    endloop
  endfacet
  facet normal 0 0 1
    outer loop
      vertex -1.27485 -1.54103 -10
      vertex -2.23098 -2.6968 -10
      vertex -1.49023 -3.16689 -10
    endloop
  endfacet
  facet normal 0 0 1
    outer loop
      vertex -1.85955 0.736249 -10
      vertex -3.25422 1.28843 -10
      vertex -1.98423 0.250666 -10
    endloop
  endfacet
  facet normal -0 0 1
    outer loop
      vertex -3.4724 0.438665 -10
      vertex -1.98423 0.250666 -10
      vertex -3.25422 1.28843 -10
    endloop
  endfacet
  facet normal 0 0 1
    outer loop
      vertex -1.61803 -1.17557 -10
      vertex -2.83156 -2.05725 -10
      vertex -2.23098 -2.6968 -10
    endloop
  endfacet
  facet normal 0 0 1
    outer loop
      vertex -1.98423 0.250666 -10
      vertex -3.4724 0.438665 -10
      vertex -1.98423 -0.250666 -10
    endloop
  endfacet
  facet normal 0 0 1
    outer loop
      vertex -1.85955 -0.736249 -10
      vertex -3.25422 -1.28843 -10
      vertex -2.83156 -2.05725 -10
    endloop
  endfacet
  facet normal 0 0 1
    outer loop
      vertex -3.4724 -0.438665 -10
      vertex -1.98423 -0.250666 -10
      vertex -3.4724 0.438665 -10
    endloop
  endfacet
  facet normal 0 0 1
    outer loop
      vertex -1.98423 -0.250666 -10
      vertex -3.4724 -0.438665 -10
      vertex -3.25422 -1.28843 -10
    endloop
  endfacet
  facet normal 0.42578 -0.904827 0
    outer loop
      vertex 1.08156 -3.3287 -14
      vertex 1.87539 -2.95515 -10
      vertex 1.08156 -3.3287 -10
    endloop
  endfacet
  facet normal 0.42578 -0.904827 0
    outer loop
      vertex 1.87539 -2.95515 -10
      vertex 1.08156 -3.3287 -14
      vertex 1.87539 -2.95515 -14
    endloop
  endfacet
  facet normal -0.0627915 -0.998027 0
    outer loop
      vertex -0.655834 -3.438 -14
      vertex 0.219767 -3.49309 -10
      vertex -0.655834 -3.438 -10
    endloop
  endfacet
  facet normal -0.0627915 -0.998027 -0
    outer loop
      vertex 0.219767 -3.49309 -10
      vertex -0.655834 -3.438 -14
      vertex 0.219767 -3.49309 -14
    endloop
  endfacet
  facet normal -1 0 0
    outer loop
      vertex -3.4724 -0.438665 -14
      vertex -3.4724 0.438665 -10
      vertex -3.4724 0.438665 -14
    endloop
  endfacet
  facet normal -1 -0 0
    outer loop
      vertex -3.4724 0.438665 -10
      vertex -3.4724 -0.438665 -14
      vertex -3.4724 -0.438665 -10
    endloop
  endfacet
  facet normal -0.968583 -0.24869 0
    outer loop
      vertex -3.25422 -1.28843 -14
      vertex -3.4724 -0.438665 -10
      vertex -3.4724 -0.438665 -14
    endloop
  endfacet
  facet normal -0.968583 -0.24869 0
    outer loop
      vertex -3.4724 -0.438665 -10
      vertex -3.25422 -1.28843 -14
      vertex -3.25422 -1.28843 -10
    endloop
  endfacet
  facet normal -0.728968 -0.684547 0
    outer loop
      vertex -2.23098 -2.6968 -14
      vertex -2.83156 -2.05725 -10
      vertex -2.83156 -2.05725 -14
    endloop
  endfacet
  facet normal -0.728968 -0.684547 0
    outer loop
      vertex -2.83156 -2.05725 -10
      vertex -2.23098 -2.6968 -14
      vertex -2.23098 -2.6968 -10
    endloop
  endfacet
  facet normal -0.0627915 0.998027 0
    outer loop
      vertex 0.219767 3.49309 -14
      vertex -0.655834 3.438 -10
      vertex 0.219767 3.49309 -10
    endloop
  endfacet
  facet normal -0.0627915 0.998027 0
    outer loop
      vertex -0.655834 3.438 -10
      vertex 0.219767 3.49309 -14
      vertex -0.655834 3.438 -14
    endloop
  endfacet
  facet normal -0.309017 0.951057 0
    outer loop
      vertex -0.655834 3.438 -14
      vertex -1.49023 3.16689 -10
      vertex -0.655834 3.438 -10
    endloop
  endfacet
  facet normal -0.309017 0.951057 0
    outer loop
      vertex -1.49023 3.16689 -10
      vertex -0.655834 3.438 -14
      vertex -1.49023 3.16689 -14
    endloop
  endfacet
  facet normal 0.992115 -0.125334 0
    outer loop
      vertex 3.39004 -0.870414 -10
      vertex 3.5 0 -14
      vertex 3.5 0 -10
    endloop
  endfacet
  facet normal 0.992115 -0.125334 0
    outer loop
      vertex 3.5 0 -14
      vertex 3.39004 -0.870414 -10
      vertex 3.39004 -0.870414 -14
    endloop
  endfacet
  facet normal 0.187382 -0.982287 0
    outer loop
      vertex 0.219767 -3.49309 -14
      vertex 1.08156 -3.3287 -10
      vertex 0.219767 -3.49309 -10
    endloop
  endfacet
  facet normal 0.187382 -0.982287 0
    outer loop
      vertex 1.08156 -3.3287 -10
      vertex 0.219767 -3.49309 -14
      vertex 1.08156 -3.3287 -14
    endloop
  endfacet
  facet normal -0.535827 0.844328 0
    outer loop
      vertex -1.49023 3.16689 -14
      vertex -2.23098 2.6968 -10
      vertex -1.49023 3.16689 -10
    endloop
  endfacet
  facet normal -0.535827 0.844328 0
    outer loop
      vertex -2.23098 2.6968 -10
      vertex -1.49023 3.16689 -14
      vertex -2.23098 2.6968 -14
    endloop
  endfacet
  facet normal -0.968583 0.24869 0
    outer loop
      vertex -3.4724 0.438665 -14
      vertex -3.25422 1.28843 -10
      vertex -3.25422 1.28843 -14
    endloop
  endfacet
  facet normal -0.968583 0.24869 0
    outer loop
      vertex -3.25422 1.28843 -10
      vertex -3.4724 0.438665 -14
      vertex -3.4724 0.438665 -10
    endloop
  endfacet
  facet normal 0 0 -1
    outer loop
      vertex 1.75 0 -14
      vertex 3.5 0 -14
      vertex 3.39004 -0.870414 -14
    endloop
  endfacet
  facet normal 0 0 -1
    outer loop
      vertex 1.75 0 -14
      vertex 3.39004 -0.870414 -14
      vertex 3.06707 -1.68614 -14
    endloop
  endfacet
  facet normal 0 0 -1
    outer loop
      vertex 3.5 0 -14
      vertex 1.75 0 -14
      vertex 3.39004 0.870414 -14
    endloop
  endfacet
  facet normal 0 0 -1
    outer loop
      vertex 0.875 -1.51554 -14
      vertex 3.06707 -1.68614 -14
      vertex 2.55139 -2.39591 -14
    endloop
  endfacet
  facet normal -0 0 -1
    outer loop
      vertex 3.39004 0.870414 -14
      vertex 1.75 0 -14
      vertex 3.06707 1.68614 -14
    endloop
  endfacet
  facet normal 0 0 -1
    outer loop
      vertex 0.875 -1.51554 -14
      vertex 2.55139 -2.39591 -14
      vertex 1.87539 -2.95515 -14
    endloop
  endfacet
  facet normal 0 0 -1
    outer loop
      vertex 0.875 1.51554 -14
      vertex 3.06707 1.68614 -14
      vertex 1.75 0 -14
    endloop
  endfacet
  facet normal -0 0 -1
    outer loop
      vertex 3.06707 1.68614 -14
      vertex 0.875 1.51554 -14
      vertex 2.55139 2.39591 -14
    endloop
  endfacet
  facet normal 0 0 -1
    outer loop
      vertex 0.875 -1.51554 -14
      vertex 1.87539 -2.95515 -14
      vertex 1.08156 -3.3287 -14
    endloop
  endfacet
  facet normal 0 0 -1
    outer loop
      vertex 3.06707 -1.68614 -14
      vertex 0.875 -1.51554 -14
      vertex 1.75 0 -14
    endloop
  endfacet
  facet normal 0 0 -1
    outer loop
      vertex 0.219767 -3.49309 -14
      vertex 0.875 -1.51554 -14
      vertex 1.08156 -3.3287 -14
    endloop
  endfacet
  facet normal 0 0 -1
    outer loop
      vertex -0.875 -1.51554 -14
      vertex 0.219767 -3.49309 -14
      vertex -0.655834 -3.438 -14
    endloop
  endfacet
  facet normal 0 0 -1
    outer loop
      vertex 0.219767 -3.49309 -14
      vertex -0.875 -1.51554 -14
      vertex 0.875 -1.51554 -14
    endloop
  endfacet
  facet normal 0 0 -1
    outer loop
      vertex -1.49023 -3.16689 -14
      vertex -0.875 -1.51554 -14
      vertex -0.655834 -3.438 -14
    endloop
  endfacet
  facet normal 0 0 -1
    outer loop
      vertex -2.23098 -2.6968 -14
      vertex -0.875 -1.51554 -14
      vertex -1.49023 -3.16689 -14
    endloop
  endfacet
  facet normal 0 0 -1
    outer loop
      vertex -2.83156 -2.05725 -14
      vertex -0.875 -1.51554 -14
      vertex -2.23098 -2.6968 -14
    endloop
  endfacet
  facet normal -0 0 -1
    outer loop
      vertex 2.55139 2.39591 -14
      vertex 0.875 1.51554 -14
      vertex 1.87539 2.95515 -14
    endloop
  endfacet
  facet normal -0 0 -1
    outer loop
      vertex 1.87539 2.95515 -14
      vertex 0.875 1.51554 -14
      vertex 1.08156 3.3287 -14
    endloop
  endfacet
  facet normal 0 0 -1
    outer loop
      vertex 0.875 1.51554 -14
      vertex 0.219767 3.49309 -14
      vertex 1.08156 3.3287 -14
    endloop
  endfacet
  facet normal 0 0 -1
    outer loop
      vertex -0.874999 1.51554 -14
      vertex 0.219767 3.49309 -14
      vertex 0.875 1.51554 -14
    endloop
  endfacet
  facet normal 0 0 -1
    outer loop
      vertex 0.219767 3.49309 -14
      vertex -0.874999 1.51554 -14
      vertex -0.655834 3.438 -14
    endloop
  endfacet
  facet normal 0 0 -1
    outer loop
      vertex -0.874999 1.51554 -14
      vertex -1.49023 3.16689 -14
      vertex -0.655834 3.438 -14
    endloop
  endfacet
  facet normal 0 0 -1
    outer loop
      vertex -2.83156 2.05725 -14
      vertex -0.874999 1.51554 -14
      vertex -1.75 0 -14
    endloop
  endfacet
  facet normal -0 0 -1
    outer loop
      vertex -0.875 -1.51554 -14
      vertex -2.83156 -2.05725 -14
      vertex -1.75 0 -14
    endloop
  endfacet
  facet normal 0 0 -1
    outer loop
      vertex -0.874999 1.51554 -14
      vertex -2.23098 2.6968 -14
      vertex -1.49023 3.16689 -14
    endloop
  endfacet
  facet normal 0 0 -1
    outer loop
      vertex -3.25422 -1.28843 -14
      vertex -1.75 0 -14
      vertex -2.83156 -2.05725 -14
    endloop
  endfacet
  facet normal 0 0 -1
    outer loop
      vertex -0.874999 1.51554 -14
      vertex -2.83156 2.05725 -14
      vertex -2.23098 2.6968 -14
    endloop
  endfacet
  facet normal 0 0 -1
    outer loop
      vertex -3.4724 -0.438665 -14
      vertex -1.75 0 -14
      vertex -3.25422 -1.28843 -14
    endloop
  endfacet
  facet normal 0 0 -1
    outer loop
      vertex -1.75 0 -14
      vertex -3.25422 1.28843 -14
      vertex -2.83156 2.05725 -14
    endloop
  endfacet
  facet normal 0 0 -1
    outer loop
      vertex -3.4724 0.438665 -14
      vertex -1.75 0 -14
      vertex -3.4724 -0.438665 -14
    endloop
  endfacet
  facet normal 0 0 -1
    outer loop
      vertex -1.75 0 -14
      vertex -3.4724 0.438665 -14
      vertex -3.25422 1.28843 -14
    endloop
  endfacet
  facet normal 0.187382 0.982287 -0
    outer loop
      vertex 1.08156 3.3287 -14
      vertex 0.219767 3.49309 -10
      vertex 1.08156 3.3287 -10
    endloop
  endfacet
  facet normal 0.187382 0.982287 0
    outer loop
      vertex 0.219767 3.49309 -10
      vertex 1.08156 3.3287 -14
      vertex 0.219767 3.49309 -14
    endloop
  endfacet
  facet normal 0.809017 -0.587785 0
    outer loop
      vertex 2.55139 -2.39591 -10
      vertex 3.06707 -1.68614 -14
      vertex 3.06707 -1.68614 -10
    endloop
  endfacet
  facet normal 0.809017 -0.587785 0
    outer loop
      vertex 3.06707 -1.68614 -14
      vertex 2.55139 -2.39591 -10
      vertex 2.55139 -2.39591 -14
    endloop
  endfacet
  facet normal -0.535827 -0.844328 0
    outer loop
      vertex -2.23098 -2.6968 -14
      vertex -1.49023 -3.16689 -10
      vertex -2.23098 -2.6968 -10
    endloop
  endfacet
  facet normal -0.535827 -0.844328 -0
    outer loop
      vertex -1.49023 -3.16689 -10
      vertex -2.23098 -2.6968 -14
      vertex -1.49023 -3.16689 -14
    endloop
  endfacet
  facet normal -0.309017 -0.951057 0
    outer loop
      vertex -1.49023 -3.16689 -14
      vertex -0.655834 -3.438 -10
      vertex -1.49023 -3.16689 -10
    endloop
  endfacet
  facet normal -0.309017 -0.951057 -0
    outer loop
      vertex -0.655834 -3.438 -10
      vertex -1.49023 -3.16689 -14
      vertex -0.655834 -3.438 -14
    endloop
  endfacet
  facet normal 0 1 -0
    outer loop
      vertex 0.875 -1.51554 -14
      vertex -0.875 -1.51554 -11.55
      vertex 0.875 -1.51554 -11.55
    endloop
  endfacet
  facet normal 0 1 0
    outer loop
      vertex -0.875 -1.51554 -11.55
      vertex 0.875 -1.51554 -14
      vertex -0.875 -1.51554 -14
    endloop
  endfacet
  facet normal -0.866025 0.5 0
    outer loop
      vertex 0.875 -1.51554 -14
      vertex 1.75 0 -11.55
      vertex 1.75 0 -14
    endloop
  endfacet
  facet normal -0.866025 0.5 0
    outer loop
      vertex 1.75 0 -11.55
      vertex 0.875 -1.51554 -14
      vertex 0.875 -1.51554 -11.55
    endloop
  endfacet
  facet normal 0 -1 0
    outer loop
      vertex -0.874999 1.51554 -14
      vertex 0.875 1.51554 -11.55
      vertex -0.874999 1.51554 -11.55
    endloop
  endfacet
  facet normal 0 -1 -0
    outer loop
      vertex 0.875 1.51554 -11.55
      vertex -0.874999 1.51554 -14
      vertex 0.875 1.51554 -14
    endloop
  endfacet
  facet normal -0.866025 -0.5 0
    outer loop
      vertex 1.75 0 -14
      vertex 0.875 1.51554 -11.55
      vertex 0.875 1.51554 -14
    endloop
  endfacet
  facet normal -0.866025 -0.5 0
    outer loop
      vertex 0.875 1.51554 -11.55
      vertex 1.75 0 -14
      vertex 1.75 0 -11.55
    endloop
  endfacet
  facet normal 0.866025 -0.500001 0
    outer loop
      vertex -1.75 0 -11.55
      vertex -0.874999 1.51554 -14
      vertex -0.874999 1.51554 -11.55
    endloop
  endfacet
  facet normal 0.866025 -0.500001 0
    outer loop
      vertex -0.874999 1.51554 -14
      vertex -1.75 0 -11.55
      vertex -1.75 0 -14
    endloop
  endfacet
  facet normal 0.866025 0.5 0
    outer loop
      vertex -0.875 -1.51554 -11.55
      vertex -1.75 0 -14
      vertex -1.75 0 -11.55
    endloop
  endfacet
  facet normal 0.866025 0.5 0
    outer loop
      vertex -1.75 0 -14
      vertex -0.875 -1.51554 -11.55
      vertex -0.875 -1.51554 -14
    endloop
  endfacet
  facet normal 0 0 -1
    outer loop
      vertex 0.875 -1.51554 -11.55
      vertex 0.875 1.51554 -11.55
      vertex 1.75 0 -11.55
    endloop
  endfacet
  facet normal 0 0 -1
    outer loop
      vertex 0.875 -1.51554 -11.55
      vertex -0.874999 1.51554 -11.55
      vertex 0.875 1.51554 -11.55
    endloop
  endfacet
  facet normal 0 0 -1
    outer loop
      vertex -0.875 -1.51554 -11.55
      vertex -0.874999 1.51554 -11.55
      vertex 0.875 -1.51554 -11.55
    endloop
  endfacet
  facet normal 0 0 -1
    outer loop
      vertex -0.874999 1.51554 -11.55
      vertex -0.875 -1.51554 -11.55
      vertex -1.75 0 -11.55
    endloop
  endfacet
  facet normal 0.929776 0.368125 0
    outer loop
      vertex 1.93717 0.497379 10
      vertex 1.75261 0.963507 -10
      vertex 1.75261 0.963507 10
    endloop
  endfacet
  facet normal 0.929776 0.368125 0
    outer loop
      vertex 1.75261 0.963507 -10
      vertex 1.93717 0.497379 10
      vertex 1.93717 0.497379 -10
    endloop
  endfacet
  facet normal 0.992115 0.125334 0
    outer loop
      vertex 2 0 10
      vertex 1.93717 0.497379 -10
      vertex 1.93717 0.497379 10
    endloop
  endfacet
  facet normal 0.992115 0.125334 0
    outer loop
      vertex 1.93717 0.497379 -10
      vertex 2 0 10
      vertex 2 0 -10
    endloop
  endfacet
  facet normal 0.809017 0.587785 0
    outer loop
      vertex 1.75261 0.963507 10
      vertex 1.45794 1.36909 -10
      vertex 1.45794 1.36909 10
    endloop
  endfacet
  facet normal 0.809017 0.587785 0
    outer loop
      vertex 1.45794 1.36909 -10
      vertex 1.75261 0.963507 10
      vertex 1.75261 0.963507 -10
    endloop
  endfacet
  facet normal 0.18738 0.982287 -0
    outer loop
      vertex 0.618033 1.90211 -10
      vertex 0.125581 1.99605 10
      vertex 0.618033 1.90211 10
    endloop
  endfacet
  facet normal 0.18738 0.982287 0
    outer loop
      vertex 0.125581 1.99605 10
      vertex 0.618033 1.90211 -10
      vertex 0.125581 1.99605 -10
    endloop
  endfacet
  facet normal -0.309018 0.951056 0
    outer loop
      vertex -0.374763 1.96457 -10
      vertex -0.851558 1.80965 10
      vertex -0.374763 1.96457 10
    endloop
  endfacet
  facet normal -0.309018 0.951056 0
    outer loop
      vertex -0.851558 1.80965 10
      vertex -0.374763 1.96457 -10
      vertex -0.851558 1.80965 -10
    endloop
  endfacet
  facet normal -0.535826 0.844328 0
    outer loop
      vertex -0.851558 1.80965 -10
      vertex -1.27485 1.54103 10
      vertex -0.851558 1.80965 10
    endloop
  endfacet
  facet normal -0.535826 0.844328 0
    outer loop
      vertex -1.27485 1.54103 10
      vertex -0.851558 1.80965 -10
      vertex -1.27485 1.54103 -10
    endloop
  endfacet
  facet normal 0.637423 0.770514 -0
    outer loop
      vertex 1.45794 1.36909 -10
      vertex 1.07165 1.68865 10
      vertex 1.45794 1.36909 10
    endloop
  endfacet
  facet normal 0.637423 0.770514 0
    outer loop
      vertex 1.07165 1.68865 10
      vertex 1.45794 1.36909 -10
      vertex 1.07165 1.68865 -10
    endloop
  endfacet
  facet normal -0.728968 0.684548 0
    outer loop
      vertex -1.61803 1.17557 -10
      vertex -1.27485 1.54103 10
      vertex -1.27485 1.54103 -10
    endloop
  endfacet
  facet normal -0.728968 0.684548 0
    outer loop
      vertex -1.27485 1.54103 10
      vertex -1.61803 1.17557 -10
      vertex -1.61803 1.17557 10
    endloop
  endfacet
  facet normal 0.929776 -0.368125 0
    outer loop
      vertex 1.75261 -0.963507 10
      vertex 1.93717 -0.497379 -10
      vertex 1.93717 -0.497379 10
    endloop
  endfacet
  facet normal 0.929776 -0.368125 0
    outer loop
      vertex 1.93717 -0.497379 -10
      vertex 1.75261 -0.963507 10
      vertex 1.75261 -0.963507 -10
    endloop
  endfacet
  facet normal -0.728968 -0.684548 0
    outer loop
      vertex -1.27485 -1.54103 -10
      vertex -1.61803 -1.17557 10
      vertex -1.61803 -1.17557 -10
    endloop
  endfacet
  facet normal -0.728968 -0.684548 0
    outer loop
      vertex -1.61803 -1.17557 10
      vertex -1.27485 -1.54103 -10
      vertex -1.27485 -1.54103 10
    endloop
  endfacet
  facet normal -0.0627904 -0.998027 0
    outer loop
      vertex -0.374763 -1.96457 -10
      vertex 0.125581 -1.99605 10
      vertex -0.374763 -1.96457 10
    endloop
  endfacet
  facet normal -0.0627904 -0.998027 -0
    outer loop
      vertex 0.125581 -1.99605 10
      vertex -0.374763 -1.96457 -10
      vertex 0.125581 -1.99605 -10
    endloop
  endfacet
  facet normal 0.637423 -0.770514 0
    outer loop
      vertex 1.07165 -1.68865 -10
      vertex 1.45794 -1.36909 10
      vertex 1.07165 -1.68865 10
    endloop
  endfacet
  facet normal 0.637423 -0.770514 0
    outer loop
      vertex 1.45794 -1.36909 10
      vertex 1.07165 -1.68865 -10
      vertex 1.45794 -1.36909 -10
    endloop
  endfacet
  facet normal 0.992115 -0.125334 0
    outer loop
      vertex 1.93717 -0.497379 10
      vertex 2 0 -10
      vertex 2 0 10
    endloop
  endfacet
  facet normal 0.992115 -0.125334 0
    outer loop
      vertex 2 0 -10
      vertex 1.93717 -0.497379 10
      vertex 1.93717 -0.497379 -10
    endloop
  endfacet
  facet normal 0.809017 -0.587785 0
    outer loop
      vertex 1.45794 -1.36909 10
      vertex 1.75261 -0.963507 -10
      vertex 1.75261 -0.963507 10
    endloop
  endfacet
  facet normal 0.809017 -0.587785 0
    outer loop
      vertex 1.75261 -0.963507 -10
      vertex 1.45794 -1.36909 10
      vertex 1.45794 -1.36909 -10
    endloop
  endfacet
  facet normal 0.42578 0.904827 -0
    outer loop
      vertex 1.07165 1.68865 -10
      vertex 0.618033 1.90211 10
      vertex 1.07165 1.68865 10
    endloop
  endfacet
  facet normal 0.42578 0.904827 0
    outer loop
      vertex 0.618033 1.90211 10
      vertex 1.07165 1.68865 -10
      vertex 0.618033 1.90211 -10
    endloop
  endfacet
  facet normal -0.876307 0.481754 0
    outer loop
      vertex -1.85955 0.736249 -10
      vertex -1.61803 1.17557 10
      vertex -1.61803 1.17557 -10
    endloop
  endfacet
  facet normal -0.876307 0.481754 0
    outer loop
      vertex -1.61803 1.17557 10
      vertex -1.85955 0.736249 -10
      vertex -1.85955 0.736249 10
    endloop
  endfacet
  facet normal -0.309018 -0.951056 0
    outer loop
      vertex -0.851558 -1.80965 -10
      vertex -0.374763 -1.96457 10
      vertex -0.851558 -1.80965 10
    endloop
  endfacet
  facet normal -0.309018 -0.951056 -0
    outer loop
      vertex -0.374763 -1.96457 10
      vertex -0.851558 -1.80965 -10
      vertex -0.374763 -1.96457 -10
    endloop
  endfacet
  facet normal -0.968583 -0.24869 0
    outer loop
      vertex -1.85955 -0.736249 -10
      vertex -1.98423 -0.250666 10
      vertex -1.98423 -0.250666 -10
    endloop
  endfacet
  facet normal -0.968583 -0.24869 0
    outer loop
      vertex -1.98423 -0.250666 10
      vertex -1.85955 -0.736249 -10
      vertex -1.85955 -0.736249 10
    endloop
  endfacet
  facet normal 0.42578 -0.904827 0
    outer loop
      vertex 0.618033 -1.90211 -10
      vertex 1.07165 -1.68865 10
      vertex 0.618033 -1.90211 10
    endloop
  endfacet
  facet normal 0.42578 -0.904827 0
    outer loop
      vertex 1.07165 -1.68865 10
      vertex 0.618033 -1.90211 -10
      vertex 1.07165 -1.68865 -10
    endloop
  endfacet
  facet normal 0.18738 -0.982287 0
    outer loop
      vertex 0.125581 -1.99605 -10
      vertex 0.618033 -1.90211 10
      vertex 0.125581 -1.99605 10
    endloop
  endfacet
  facet normal 0.18738 -0.982287 0
    outer loop
      vertex 0.618033 -1.90211 10
      vertex 0.125581 -1.99605 -10
      vertex 0.618033 -1.90211 -10
    endloop
  endfacet
  facet normal -0.535826 -0.844328 0
    outer loop
      vertex -1.27485 -1.54103 -10
      vertex -0.851558 -1.80965 10
      vertex -1.27485 -1.54103 10
    endloop
  endfacet
  facet normal -0.535826 -0.844328 -0
    outer loop
      vertex -0.851558 -1.80965 10
      vertex -1.27485 -1.54103 -10
      vertex -0.851558 -1.80965 -10
    endloop
  endfacet
  facet normal -1 0 0
    outer loop
      vertex -1.98423 -0.250666 -10
      vertex -1.98423 0.250666 10
      vertex -1.98423 0.250666 -10
    endloop
  endfacet
  facet normal -1 -0 0
    outer loop
      vertex -1.98423 0.250666 10
      vertex -1.98423 -0.250666 -10
      vertex -1.98423 -0.250666 10
    endloop
  endfacet
  facet normal -0.876307 -0.481754 0
    outer loop
      vertex -1.61803 -1.17557 -10
      vertex -1.85955 -0.736249 10
      vertex -1.85955 -0.736249 -10
    endloop
  endfacet
  facet normal -0.876307 -0.481754 0
    outer loop
      vertex -1.85955 -0.736249 10
      vertex -1.61803 -1.17557 -10
      vertex -1.61803 -1.17557 10
    endloop
  endfacet
  facet normal -0.0627904 0.998027 0
    outer loop
      vertex 0.125581 1.99605 -10
      vertex -0.374763 1.96457 10
      vertex 0.125581 1.99605 10
    endloop
  endfacet
  facet normal -0.0627904 0.998027 0
    outer loop
      vertex -0.374763 1.96457 10
      vertex 0.125581 1.99605 -10
      vertex -0.374763 1.96457 -10
    endloop
  endfacet
  facet normal 0 0 1
    outer loop
      vertex 1.93717 0.497379 10
      vertex 1.93717 -0.497379 10
      vertex 2 0 10
    endloop
  endfacet
  facet normal 0 0 1
    outer loop
      vertex 1.75261 0.963507 10
      vertex 1.93717 -0.497379 10
      vertex 1.93717 0.497379 10
    endloop
  endfacet
  facet normal 0 0 1
    outer loop
      vertex 1.75261 0.963507 10
      vertex 1.75261 -0.963507 10
      vertex 1.93717 -0.497379 10
    endloop
  endfacet
  facet normal 0 0 1
    outer loop
      vertex 1.45794 1.36909 10
      vertex 1.75261 -0.963507 10
      vertex 1.75261 0.963507 10
    endloop
  endfacet
  facet normal 0 0 1
    outer loop
      vertex 1.45794 1.36909 10
      vertex 1.45794 -1.36909 10
      vertex 1.75261 -0.963507 10
    endloop
  endfacet
  facet normal 0 0 1
    outer loop
      vertex 1.07165 1.68865 10
      vertex 1.45794 -1.36909 10
      vertex 1.45794 1.36909 10
    endloop
  endfacet
  facet normal 0 0 1
    outer loop
      vertex 1.07165 1.68865 10
      vertex 1.07165 -1.68865 10
      vertex 1.45794 -1.36909 10
    endloop
  endfacet
  facet normal 0 0 1
    outer loop
      vertex 0.618033 1.90211 10
      vertex 1.07165 -1.68865 10
      vertex 1.07165 1.68865 10
    endloop
  endfacet
  facet normal 0 0 1
    outer loop
      vertex 0.618033 1.90211 10
      vertex 0.618033 -1.90211 10
      vertex 1.07165 -1.68865 10
    endloop
  endfacet
  facet normal 0 0 1
    outer loop
      vertex 0.125581 1.99605 10
      vertex 0.618033 -1.90211 10
      vertex 0.618033 1.90211 10
    endloop
  endfacet
  facet normal 0 0 1
    outer loop
      vertex 0.125581 1.99605 10
      vertex 0.125581 -1.99605 10
      vertex 0.618033 -1.90211 10
    endloop
  endfacet
  facet normal -0 0 1
    outer loop
      vertex -0.374763 1.96457 10
      vertex 0.125581 -1.99605 10
      vertex 0.125581 1.99605 10
    endloop
  endfacet
  facet normal 0 0 1
    outer loop
      vertex -0.374763 1.96457 10
      vertex -0.374763 -1.96457 10
      vertex 0.125581 -1.99605 10
    endloop
  endfacet
  facet normal -0 0 1
    outer loop
      vertex -0.851558 1.80965 10
      vertex -0.374763 -1.96457 10
      vertex -0.374763 1.96457 10
    endloop
  endfacet
  facet normal 0 0 1
    outer loop
      vertex -0.851558 1.80965 10
      vertex -0.851558 -1.80965 10
      vertex -0.374763 -1.96457 10
    endloop
  endfacet
  facet normal -0 0 1
    outer loop
      vertex -1.27485 1.54103 10
      vertex -0.851558 -1.80965 10
      vertex -0.851558 1.80965 10
    endloop
  endfacet
  facet normal 0 0 1
    outer loop
      vertex -1.27485 1.54103 10
      vertex -1.27485 -1.54103 10
      vertex -0.851558 -1.80965 10
    endloop
  endfacet
  facet normal -0 0 1
    outer loop
      vertex -1.61803 1.17557 10
      vertex -1.27485 -1.54103 10
      vertex -1.27485 1.54103 10
    endloop
  endfacet
  facet normal 0 0 1
    outer loop
      vertex -1.61803 1.17557 10
      vertex -1.61803 -1.17557 10
      vertex -1.27485 -1.54103 10
    endloop
  endfacet
  facet normal -0 0 1
    outer loop
      vertex -1.85955 0.736249 10
      vertex -1.61803 -1.17557 10
      vertex -1.61803 1.17557 10
    endloop
  endfacet
  facet normal 0 0 1
    outer loop
      vertex -1.85955 0.736249 10
      vertex -1.85955 -0.736249 10
      vertex -1.61803 -1.17557 10
    endloop
  endfacet
  facet normal -0 0 1
    outer loop
      vertex -1.98423 0.250666 10
      vertex -1.85955 -0.736249 10
      vertex -1.85955 0.736249 10
    endloop
  endfacet
  facet normal 0 0 1
    outer loop
      vertex -1.85955 -0.736249 10
      vertex -1.98423 0.250666 10
      vertex -1.98423 -0.250666 10
    endloop
  endfacet
  facet normal -0.968583 0.24869 0
    outer loop
      vertex -1.98423 0.250666 -10
      vertex -1.85955 0.736249 10
      vertex -1.85955 0.736249 -10
    endloop
  endfacet
  facet normal -0.968583 0.24869 0
    outer loop
      vertex -1.85955 0.736249 10
      vertex -1.98423 0.250666 -10
      vertex -1.98423 0.250666 10
    endloop
  endfacet
endsolid OpenSCAD_Model
