solid OpenSCAD_Model
  facet normal 1 0 0
    outer loop
      vertex 6.5 10 7.5
      vertex 6.5 9.5 -7.5
      vertex 6.5 10 -7.5
    endloop
  endfacet
  facet normal 1 0 0
    outer loop
      vertex 6.5 9.5 -7.5
      vertex 6.5 -9.5 -7.5
      vertex 6.5 9.5 -14.5
    endloop
  endfacet
  facet normal 1 0 0
    outer loop
      vertex 6.5 10 7.5
      vertex 6.5 -9.5 -7.5
      vertex 6.5 9.5 -7.5
    endloop
  endfacet
  facet normal 1 -0 0
    outer loop
      vertex 6.5 -10 7.5
      vertex 6.5 -9.5 -7.5
      vertex 6.5 10 7.5
    endloop
  endfacet
  facet normal 1 0 0
    outer loop
      vertex 6.5 -9.5 -7.5
      vertex 6.5 -10 7.5
      vertex 6.5 -10 -7.5
    endloop
  endfacet
  facet normal 1 0 0
    outer loop
      vertex 6.5 9.5 -14.5
      vertex 6.5 -9.5 -7.5
      vertex 6.5 -9.5 -14.5
    endloop
  endfacet
  facet normal 0 0 -1
    outer loop
      vertex 7.5 -10.75 7.5
      vertex 6.5 -10 7.5
      vertex 7.5 10.75 7.5
    endloop
  endfacet
  facet normal 0 0 -1
    outer loop
      vertex 7.5 -10.75 7.5
      vertex -6.5 -10 7.5
      vertex 6.5 -10 7.5
    endloop
  endfacet
  facet normal -0 0 -1
    outer loop
      vertex -6.5 -10 7.5
      vertex -7.5 -10.75 7.5
      vertex -6.5 10 7.5
    endloop
  endfacet
  facet normal 0 0 -1
    outer loop
      vertex -7.5 -10.75 7.5
      vertex -6.5 -10 7.5
      vertex 7.5 -10.75 7.5
    endloop
  endfacet
  facet normal 0 0 -1
    outer loop
      vertex 6.5 10 7.5
      vertex 7.5 10.75 7.5
      vertex 6.5 -10 7.5
    endloop
  endfacet
  facet normal 0 0 -1
    outer loop
      vertex -6.5 10 7.5
      vertex 7.5 10.75 7.5
      vertex 6.5 10 7.5
    endloop
  endfacet
  facet normal 0 0 -1
    outer loop
      vertex -6.5 10 7.5
      vertex -7.5 10.75 7.5
      vertex 7.5 10.75 7.5
    endloop
  endfacet
  facet normal 0 0 -1
    outer loop
      vertex -7.5 10.75 7.5
      vertex -6.5 10 7.5
      vertex -7.5 -10.75 7.5
    endloop
  endfacet
  facet normal 0 0 -1
    outer loop
      vertex -6.5 9.5 -7.5
      vertex 6.5 10 -7.5
      vertex 6.5 9.5 -7.5
    endloop
  endfacet
  facet normal -0 0 -1
    outer loop
      vertex 6.5 10 -7.5
      vertex -6.5 9.5 -7.5
      vertex -6.5 10 -7.5
    endloop
  endfacet
  facet normal 0 0 -1
    outer loop
      vertex -6.5 -10 -7.5
      vertex 6.5 -9.5 -7.5
      vertex 6.5 -10 -7.5
    endloop
  endfacet
  facet normal -0 0 -1
    outer loop
      vertex 6.5 -9.5 -7.5
      vertex -6.5 -10 -7.5
      vertex -6.5 -9.5 -7.5
    endloop
  endfacet
  facet normal -1 0 0
    outer loop
      vertex -6.5 9.5 -14.5
      vertex -6.5 -9.5 -14.5
      vertex -6.5 9.5 -7.5
    endloop
  endfacet
  facet normal -1 0 0
    outer loop
      vertex -6.5 9.5 -7.5
      vertex -6.5 10 7.5
      vertex -6.5 10 -7.5
    endloop
  endfacet
  facet normal -1 0 0
    outer loop
      vertex -6.5 -9.5 -7.5
      vertex -6.5 9.5 -7.5
      vertex -6.5 -9.5 -14.5
    endloop
  endfacet
  facet normal -1 0 0
    outer loop
      vertex -6.5 9.5 -7.5
      vertex -6.5 -9.5 -7.5
      vertex -6.5 10 7.5
    endloop
  endfacet
  facet normal -1 0 0
    outer loop
      vertex -6.5 -10 7.5
      vertex -6.5 -9.5 -7.5
      vertex -6.5 -10 -7.5
    endloop
  endfacet
  facet normal -1 0 0
    outer loop
      vertex -6.5 -9.5 -7.5
      vertex -6.5 -10 7.5
      vertex -6.5 10 7.5
    endloop
  endfacet
  facet normal 0 1 -0
    outer loop
      vertex 6.5 10 -7.5
      vertex -6.5 10 7.5
      vertex 6.5 10 7.5
    endloop
  endfacet
  facet normal 0 1 0
    outer loop
      vertex -6.5 10 7.5
      vertex 6.5 10 -7.5
      vertex -6.5 10 -7.5
    endloop
  endfacet
  facet normal 0 -1 0
    outer loop
      vertex -6.5 -10 -7.5
      vertex 6.5 -10 7.5
      vertex -6.5 -10 7.5
    endloop
  endfacet
  facet normal 0 -1 -0
    outer loop
      vertex 6.5 -10 7.5
      vertex -6.5 -10 -7.5
      vertex 6.5 -10 -7.5
    endloop
  endfacet
  facet normal 1 -0 0
    outer loop
      vertex 7.5 -10.75 9.5
      vertex 7.5 10.75 7.5
      vertex 7.5 10.75 9.5
    endloop
  endfacet
  facet normal 1 0 0
    outer loop
      vertex 7.5 10.75 7.5
      vertex 7.5 -10.75 9.5
      vertex 7.5 -10.75 7.5
    endloop
  endfacet
  facet normal 0 0 1
    outer loop
      vertex 5 -5.80251 9.5
      vertex 7.5 10.75 9.5
      vertex 5 7.52754 9.5
    endloop
  endfacet
  facet normal 0 0 1
    outer loop
      vertex 7.5 10.75 9.5
      vertex -5 7.52754 9.5
      vertex 5 7.52754 9.5
    endloop
  endfacet
  facet normal 0 0 1
    outer loop
      vertex -5 7.52754 9.5
      vertex -7.5 10.75 9.5
      vertex -5 -5.80251 9.5
    endloop
  endfacet
  facet normal -0 0 1
    outer loop
      vertex -7.5 10.75 9.5
      vertex -5 7.52754 9.5
      vertex 7.5 10.75 9.5
    endloop
  endfacet
  facet normal 0 0 1
    outer loop
      vertex 7.5 10.75 9.5
      vertex 5 -5.80251 9.5
      vertex 7.5 -10.75 9.5
    endloop
  endfacet
  facet normal -0 0 1
    outer loop
      vertex -5 -5.80251 9.5
      vertex 7.5 -10.75 9.5
      vertex 5 -5.80251 9.5
    endloop
  endfacet
  facet normal 0 0 1
    outer loop
      vertex -5 -5.80251 9.5
      vertex -7.5 -10.75 9.5
      vertex 7.5 -10.75 9.5
    endloop
  endfacet
  facet normal 0 0 1
    outer loop
      vertex -7.5 -10.75 9.5
      vertex -5 -5.80251 9.5
      vertex -7.5 10.75 9.5
    endloop
  endfacet
  facet normal -1 0 0
    outer loop
      vertex -7.5 -10.75 7.5
      vertex -7.5 10.75 9.5
      vertex -7.5 10.75 7.5
    endloop
  endfacet
  facet normal -1 -0 0
    outer loop
      vertex -7.5 10.75 9.5
      vertex -7.5 -10.75 7.5
      vertex -7.5 -10.75 9.5
    endloop
  endfacet
  facet normal 0 1 -0
    outer loop
      vertex 7.5 10.75 7.5
      vertex -7.5 10.75 9.5
      vertex 7.5 10.75 9.5
    endloop
  endfacet
  facet normal 0 1 0
    outer loop
      vertex -7.5 10.75 9.5
      vertex 7.5 10.75 7.5
      vertex -7.5 10.75 7.5
    endloop
  endfacet
  facet normal 0 -1 0
    outer loop
      vertex -7.5 -10.75 7.5
      vertex 7.5 -10.75 9.5
      vertex -7.5 -10.75 9.5
    endloop
  endfacet
  facet normal 0 -1 -0
    outer loop
      vertex 7.5 -10.75 9.5
      vertex -7.5 -10.75 7.5
      vertex 7.5 -10.75 7.5
    endloop
  endfacet
  facet normal 0 0 -1
    outer loop
      vertex -6.5 -9.5 -14.5
      vertex 6.5 9.5 -14.5
      vertex 6.5 -9.5 -14.5
    endloop
  endfacet
  facet normal -0 0 -1
    outer loop
      vertex 6.5 9.5 -14.5
      vertex -6.5 -9.5 -14.5
      vertex -6.5 9.5 -14.5
    endloop
  endfacet
  facet normal 0 1 -0
    outer loop
      vertex 6.5 9.5 -14.5
      vertex -6.5 9.5 -7.5
      vertex 6.5 9.5 -7.5
    endloop
  endfacet
  facet normal 0 1 0
    outer loop
      vertex -6.5 9.5 -7.5
      vertex 6.5 9.5 -14.5
      vertex -6.5 9.5 -14.5
    endloop
  endfacet
  facet normal 0 -1 0
    outer loop
      vertex -6.5 -9.5 -14.5
      vertex 6.5 -9.5 -7.5
      vertex -6.5 -9.5 -7.5
    endloop
  endfacet
  facet normal 0 -1 -0
    outer loop
      vertex 6.5 -9.5 -7.5
      vertex -6.5 -9.5 -14.5
      vertex 6.5 -9.5 -14.5
    endloop
  endfacet
  facet normal -1 0 0
    outer loop
      vertex -5 7.52754 9.5
      vertex -5 -5.80251 9.5
      vertex -5 7.12559 11.7796
    endloop
  endfacet
  facet normal 1 0 0
    outer loop
      vertex 5 7.12559 11.7796
      vertex 5 -5.80251 9.5
      vertex 5 7.52754 9.5
    endloop
  endfacet
  facet normal 0 -0.17365 0.984807
    outer loop
      vertex -5 7.12559 11.7796
      vertex 5 -5.80251 9.5
      vertex 5 7.12559 11.7796
    endloop
  endfacet
  facet normal 0 -0.17365 0.984807
    outer loop
      vertex 5 -5.80251 9.5
      vertex -5 7.12559 11.7796
      vertex -5 -5.80251 9.5
    endloop
  endfacet
  facet normal 0 0.984808 0.173646
    outer loop
      vertex 5 7.52754 9.5
      vertex -5 7.12559 11.7796
      vertex 5 7.12559 11.7796
    endloop
  endfacet
  facet normal 0 0.984808 0.173646
    outer loop
      vertex -5 7.12559 11.7796
      vertex 5 7.52754 9.5
      vertex -5 7.52754 9.5
    endloop
  endfacet
endsolid OpenSCAD_Model
