solid OpenSCAD_Model
  facet normal 0.929776 0.368125 0
    outer loop
      vertex 3.87433 0.994759 1.5
      vertex 3.50523 1.92701 -1.5
      vertex 3.50523 1.92701 1.5
    endloop
  endfacet
  facet normal 0.929776 0.368125 0
    outer loop
      vertex 3.50523 1.92701 -1.5
      vertex 3.87433 0.994759 1.5
      vertex 3.87433 0.994759 -1.5
    endloop
  endfacet
  facet normal 0.992115 0.125334 0
    outer loop
      vertex 4 0 1.5
      vertex 3.87433 0.994759 -1.5
      vertex 3.87433 0.994759 1.5
    endloop
  endfacet
  facet normal 0.992115 0.125334 0
    outer loop
      vertex 3.87433 0.994759 -1.5
      vertex 4 0 1.5
      vertex 4 0 -1.5
    endloop
  endfacet
  facet normal 0.809017 0.587785 0
    outer loop
      vertex 3.50523 1.92701 1.5
      vertex 2.91587 2.73819 -1.5
      vertex 2.91587 2.73819 1.5
    endloop
  endfacet
  facet normal 0.809017 0.587785 0
    outer loop
      vertex 2.91587 2.73819 -1.5
      vertex 3.50523 1.92701 1.5
      vertex 3.50523 1.92701 -1.5
    endloop
  endfacet
  facet normal -0.876307 0.481754 0
    outer loop
      vertex -3.71911 1.4725 -1.5
      vertex -3.23607 2.35114 1.5
      vertex -3.23607 2.35114 -1.5
    endloop
  endfacet
  facet normal -0.876307 0.481754 0
    outer loop
      vertex -3.23607 2.35114 1.5
      vertex -3.71911 1.4725 -1.5
      vertex -3.71911 1.4725 1.5
    endloop
  endfacet
  facet normal -0.968583 -0.248689 0
    outer loop
      vertex -3.71911 -1.4725 -1.5
      vertex -3.96846 -0.501332 1.5
      vertex -3.96846 -0.501332 -1.5
    endloop
  endfacet
  facet normal -0.968583 -0.248689 0
    outer loop
      vertex -3.96846 -0.501332 1.5
      vertex -3.71911 -1.4725 -1.5
      vertex -3.71911 -1.4725 1.5
    endloop
  endfacet
  facet normal 0.637424 0.770514 -0
    outer loop
      vertex 2.91587 2.73819 -1.5
      vertex 2.14331 3.37731 1.5
      vertex 2.91587 2.73819 1.5
    endloop
  endfacet
  facet normal 0.637424 0.770514 0
    outer loop
      vertex 2.14331 3.37731 1.5
      vertex 2.91587 2.73819 -1.5
      vertex 2.14331 3.37731 -1.5
    endloop
  endfacet
  facet normal 0 0 -1
    outer loop
      vertex 1.75 0 -1.5
      vertex 4 0 -1.5
      vertex 3.87433 -0.994759 -1.5
    endloop
  endfacet
  facet normal 0 0 -1
    outer loop
      vertex 1.69502 -0.435206 -1.5
      vertex 3.87433 -0.994759 -1.5
      vertex 3.50523 -1.92701 -1.5
    endloop
  endfacet
  facet normal 0 0 -1
    outer loop
      vertex 4 0 -1.5
      vertex 1.75 0 -1.5
      vertex 3.87433 0.994759 -1.5
    endloop
  endfacet
  facet normal 0 0 -1
    outer loop
      vertex 1.53354 -0.843068 -1.5
      vertex 3.50523 -1.92701 -1.5
      vertex 2.91587 -2.73819 -1.5
    endloop
  endfacet
  facet normal 0 0 -1
    outer loop
      vertex 1.69502 0.435206 -1.5
      vertex 3.87433 0.994759 -1.5
      vertex 1.75 0 -1.5
    endloop
  endfacet
  facet normal 0 0 -1
    outer loop
      vertex 1.27569 -1.19796 -1.5
      vertex 2.91587 -2.73819 -1.5
      vertex 2.14331 -3.37731 -1.5
    endloop
  endfacet
  facet normal -0 0 -1
    outer loop
      vertex 3.87433 0.994759 -1.5
      vertex 1.69502 0.435206 -1.5
      vertex 3.50523 1.92701 -1.5
    endloop
  endfacet
  facet normal 0 0 -1
    outer loop
      vertex 1.53354 0.843068 -1.5
      vertex 3.50523 1.92701 -1.5
      vertex 1.69502 0.435206 -1.5
    endloop
  endfacet
  facet normal 0 0 -1
    outer loop
      vertex 3.87433 -0.994759 -1.5
      vertex 1.69502 -0.435206 -1.5
      vertex 1.75 0 -1.5
    endloop
  endfacet
  facet normal 0 0 -1
    outer loop
      vertex 3.50523 -1.92701 -1.5
      vertex 1.53354 -0.843068 -1.5
      vertex 1.69502 -0.435206 -1.5
    endloop
  endfacet
  facet normal 0 0 -1
    outer loop
      vertex 2.91587 -2.73819 -1.5
      vertex 1.27569 -1.19796 -1.5
      vertex 1.53354 -0.843068 -1.5
    endloop
  endfacet
  facet normal 0 0 -1
    outer loop
      vertex 0.937696 -1.47757 -1.5
      vertex 2.14331 -3.37731 -1.5
      vertex 1.23607 -3.80423 -1.5
    endloop
  endfacet
  facet normal 0 0 -1
    outer loop
      vertex 2.14331 -3.37731 -1.5
      vertex 0.937696 -1.47757 -1.5
      vertex 1.27569 -1.19796 -1.5
    endloop
  endfacet
  facet normal 0 0 -1
    outer loop
      vertex 1.23607 -3.80423 -1.5
      vertex 0.540779 -1.66435 -1.5
      vertex 0.937696 -1.47757 -1.5
    endloop
  endfacet
  facet normal 0 0 -1
    outer loop
      vertex 0.251162 -3.99211 -1.5
      vertex 0.540779 -1.66435 -1.5
      vertex 1.23607 -3.80423 -1.5
    endloop
  endfacet
  facet normal 0 0 -1
    outer loop
      vertex 0.251162 -3.99211 -1.5
      vertex 0.109883 -1.74655 -1.5
      vertex 0.540779 -1.66435 -1.5
    endloop
  endfacet
  facet normal 0 0 -1
    outer loop
      vertex 0.251162 -3.99211 -1.5
      vertex -0.327917 -1.719 -1.5
      vertex 0.109883 -1.74655 -1.5
    endloop
  endfacet
  facet normal 0 0 -1
    outer loop
      vertex -0.749525 -3.92915 -1.5
      vertex -0.327917 -1.719 -1.5
      vertex 0.251162 -3.99211 -1.5
    endloop
  endfacet
  facet normal -0 0 -1
    outer loop
      vertex -0.327917 -1.719 -1.5
      vertex -0.749525 -3.92915 -1.5
      vertex -0.745113 -1.58345 -1.5
    endloop
  endfacet
  facet normal 0 0 -1
    outer loop
      vertex -1.70312 -3.61931 -1.5
      vertex -0.745113 -1.58345 -1.5
      vertex -0.749525 -3.92915 -1.5
    endloop
  endfacet
  facet normal -0 0 -1
    outer loop
      vertex -0.745113 -1.58345 -1.5
      vertex -1.70312 -3.61931 -1.5
      vertex -1.11549 -1.3484 -1.5
    endloop
  endfacet
  facet normal 0 0 -1
    outer loop
      vertex -2.5497 -3.08205 -1.5
      vertex -1.11549 -1.3484 -1.5
      vertex -1.70312 -3.61931 -1.5
    endloop
  endfacet
  facet normal -0 0 -1
    outer loop
      vertex -1.11549 -1.3484 -1.5
      vertex -2.5497 -3.08205 -1.5
      vertex -1.41578 -1.02862 -1.5
    endloop
  endfacet
  facet normal 0 0 -1
    outer loop
      vertex -3.23607 -2.35114 -1.5
      vertex -1.41578 -1.02862 -1.5
      vertex -2.5497 -3.08205 -1.5
    endloop
  endfacet
  facet normal 0 0 -1
    outer loop
      vertex -3.71911 -1.4725 -1.5
      vertex -1.62711 -0.644217 -1.5
      vertex -3.23607 -2.35114 -1.5
    endloop
  endfacet
  facet normal -0 0 -1
    outer loop
      vertex -1.41578 -1.02862 -1.5
      vertex -3.23607 -2.35114 -1.5
      vertex -1.62711 -0.644217 -1.5
    endloop
  endfacet
  facet normal -0 0 -1
    outer loop
      vertex 3.50523 1.92701 -1.5
      vertex 1.53354 0.843068 -1.5
      vertex 2.91587 2.73819 -1.5
    endloop
  endfacet
  facet normal 0 0 -1
    outer loop
      vertex 1.27569 1.19796 -1.5
      vertex 2.91587 2.73819 -1.5
      vertex 1.53354 0.843068 -1.5
    endloop
  endfacet
  facet normal -0 0 -1
    outer loop
      vertex 2.91587 2.73819 -1.5
      vertex 1.27569 1.19796 -1.5
      vertex 2.14331 3.37731 -1.5
    endloop
  endfacet
  facet normal 0 0 -1
    outer loop
      vertex 0.937696 1.47757 -1.5
      vertex 2.14331 3.37731 -1.5
      vertex 1.27569 1.19796 -1.5
    endloop
  endfacet
  facet normal -0 0 -1
    outer loop
      vertex 2.14331 3.37731 -1.5
      vertex 0.937696 1.47757 -1.5
      vertex 1.23607 3.80423 -1.5
    endloop
  endfacet
  facet normal 0 0 -1
    outer loop
      vertex 0.540779 1.66435 -1.5
      vertex 1.23607 3.80423 -1.5
      vertex 0.937696 1.47757 -1.5
    endloop
  endfacet
  facet normal 0 0 -1
    outer loop
      vertex 0.540779 1.66435 -1.5
      vertex 0.251162 3.99211 -1.5
      vertex 1.23607 3.80423 -1.5
    endloop
  endfacet
  facet normal 0 0 -1
    outer loop
      vertex 0.109883 1.74655 -1.5
      vertex 0.251162 3.99211 -1.5
      vertex 0.540779 1.66435 -1.5
    endloop
  endfacet
  facet normal 0 0 -1
    outer loop
      vertex -0.327917 1.719 -1.5
      vertex 0.251162 3.99211 -1.5
      vertex 0.109883 1.74655 -1.5
    endloop
  endfacet
  facet normal 0 0 -1
    outer loop
      vertex -0.749525 3.92915 -1.5
      vertex -0.327917 1.719 -1.5
      vertex -0.745113 1.58345 -1.5
    endloop
  endfacet
  facet normal 0 0 -1
    outer loop
      vertex -0.327917 1.719 -1.5
      vertex -0.749525 3.92915 -1.5
      vertex 0.251162 3.99211 -1.5
    endloop
  endfacet
  facet normal 0 0 -1
    outer loop
      vertex -1.70312 3.61931 -1.5
      vertex -0.745113 1.58345 -1.5
      vertex -1.11549 1.3484 -1.5
    endloop
  endfacet
  facet normal 0 0 -1
    outer loop
      vertex -2.5497 3.08205 -1.5
      vertex -1.11549 1.3484 -1.5
      vertex -1.41578 1.02862 -1.5
    endloop
  endfacet
  facet normal 0 0 -1
    outer loop
      vertex -3.23607 2.35114 -1.5
      vertex -1.41578 1.02862 -1.5
      vertex -1.62711 0.644217 -1.5
    endloop
  endfacet
  facet normal 0 0 -1
    outer loop
      vertex -0.745113 1.58345 -1.5
      vertex -1.70312 3.61931 -1.5
      vertex -0.749525 3.92915 -1.5
    endloop
  endfacet
  facet normal 0 0 -1
    outer loop
      vertex -3.71911 1.4725 -1.5
      vertex -1.62711 0.644217 -1.5
      vertex -1.7362 0.219333 -1.5
    endloop
  endfacet
  facet normal -0 0 -1
    outer loop
      vertex -1.62711 -0.644217 -1.5
      vertex -3.71911 -1.4725 -1.5
      vertex -1.7362 -0.219333 -1.5
    endloop
  endfacet
  facet normal 0 0 -1
    outer loop
      vertex -1.11549 1.3484 -1.5
      vertex -2.5497 3.08205 -1.5
      vertex -1.70312 3.61931 -1.5
    endloop
  endfacet
  facet normal 0 0 -1
    outer loop
      vertex -3.96846 -0.501332 -1.5
      vertex -1.7362 -0.219333 -1.5
      vertex -3.71911 -1.4725 -1.5
    endloop
  endfacet
  facet normal 0 0 -1
    outer loop
      vertex -1.41578 1.02862 -1.5
      vertex -3.23607 2.35114 -1.5
      vertex -2.5497 3.08205 -1.5
    endloop
  endfacet
  facet normal -0 0 -1
    outer loop
      vertex -1.7362 -0.219333 -1.5
      vertex -3.96846 -0.501332 -1.5
      vertex -1.7362 0.219333 -1.5
    endloop
  endfacet
  facet normal 0 0 -1
    outer loop
      vertex -1.62711 0.644217 -1.5
      vertex -3.71911 1.4725 -1.5
      vertex -3.23607 2.35114 -1.5
    endloop
  endfacet
  facet normal 0 0 -1
    outer loop
      vertex -3.96846 0.501332 -1.5
      vertex -1.7362 0.219333 -1.5
      vertex -3.96846 -0.501332 -1.5
    endloop
  endfacet
  facet normal 0 0 -1
    outer loop
      vertex -1.7362 0.219333 -1.5
      vertex -3.96846 0.501332 -1.5
      vertex -3.71911 1.4725 -1.5
    endloop
  endfacet
  facet normal 0.809017 -0.587785 0
    outer loop
      vertex 2.91587 -2.73819 1.5
      vertex 3.50523 -1.92701 -1.5
      vertex 3.50523 -1.92701 1.5
    endloop
  endfacet
  facet normal 0.809017 -0.587785 0
    outer loop
      vertex 3.50523 -1.92701 -1.5
      vertex 2.91587 -2.73819 1.5
      vertex 2.91587 -2.73819 -1.5
    endloop
  endfacet
  facet normal 0.929776 -0.368125 0
    outer loop
      vertex 3.50523 -1.92701 1.5
      vertex 3.87433 -0.994759 -1.5
      vertex 3.87433 -0.994759 1.5
    endloop
  endfacet
  facet normal 0.929776 -0.368125 0
    outer loop
      vertex 3.87433 -0.994759 -1.5
      vertex 3.50523 -1.92701 1.5
      vertex 3.50523 -1.92701 -1.5
    endloop
  endfacet
  facet normal 0 0 1
    outer loop
      vertex 1.75 0 1.5
      vertex 4 0 1.5
      vertex 3.87433 0.994759 1.5
    endloop
  endfacet
  facet normal 0 0 1
    outer loop
      vertex 1.69502 0.435206 1.5
      vertex 3.87433 0.994759 1.5
      vertex 3.50523 1.92701 1.5
    endloop
  endfacet
  facet normal 0 0 1
    outer loop
      vertex 4 0 1.5
      vertex 1.75 0 1.5
      vertex 3.87433 -0.994759 1.5
    endloop
  endfacet
  facet normal 0 0 1
    outer loop
      vertex 1.53354 0.843068 1.5
      vertex 3.50523 1.92701 1.5
      vertex 2.91587 2.73819 1.5
    endloop
  endfacet
  facet normal -0 0 1
    outer loop
      vertex 1.69502 -0.435206 1.5
      vertex 3.87433 -0.994759 1.5
      vertex 1.75 0 1.5
    endloop
  endfacet
  facet normal 0 0 1
    outer loop
      vertex 1.27569 1.19796 1.5
      vertex 2.91587 2.73819 1.5
      vertex 2.14331 3.37731 1.5
    endloop
  endfacet
  facet normal 0 0 1
    outer loop
      vertex 3.87433 -0.994759 1.5
      vertex 1.69502 -0.435206 1.5
      vertex 3.50523 -1.92701 1.5
    endloop
  endfacet
  facet normal -0 0 1
    outer loop
      vertex 1.53354 -0.843068 1.5
      vertex 3.50523 -1.92701 1.5
      vertex 1.69502 -0.435206 1.5
    endloop
  endfacet
  facet normal 0 0 1
    outer loop
      vertex 3.87433 0.994759 1.5
      vertex 1.69502 0.435206 1.5
      vertex 1.75 0 1.5
    endloop
  endfacet
  facet normal 0 0 1
    outer loop
      vertex 3.50523 1.92701 1.5
      vertex 1.53354 0.843068 1.5
      vertex 1.69502 0.435206 1.5
    endloop
  endfacet
  facet normal 0 0 1
    outer loop
      vertex 2.91587 2.73819 1.5
      vertex 1.27569 1.19796 1.5
      vertex 1.53354 0.843068 1.5
    endloop
  endfacet
  facet normal 0 0 1
    outer loop
      vertex 0.937696 1.47757 1.5
      vertex 2.14331 3.37731 1.5
      vertex 1.23607 3.80423 1.5
    endloop
  endfacet
  facet normal 0 0 1
    outer loop
      vertex 2.14331 3.37731 1.5
      vertex 0.937696 1.47757 1.5
      vertex 1.27569 1.19796 1.5
    endloop
  endfacet
  facet normal 0 0 1
    outer loop
      vertex 1.23607 3.80423 1.5
      vertex 0.540779 1.66435 1.5
      vertex 0.937696 1.47757 1.5
    endloop
  endfacet
  facet normal 0 0 1
    outer loop
      vertex 0.251162 3.99211 1.5
      vertex 0.540779 1.66435 1.5
      vertex 1.23607 3.80423 1.5
    endloop
  endfacet
  facet normal 0 0 1
    outer loop
      vertex 0.251162 3.99211 1.5
      vertex 0.109883 1.74655 1.5
      vertex 0.540779 1.66435 1.5
    endloop
  endfacet
  facet normal 0 0 1
    outer loop
      vertex 0.251162 3.99211 1.5
      vertex -0.327917 1.719 1.5
      vertex 0.109883 1.74655 1.5
    endloop
  endfacet
  facet normal -0 0 1
    outer loop
      vertex -0.749525 3.92915 1.5
      vertex -0.327917 1.719 1.5
      vertex 0.251162 3.99211 1.5
    endloop
  endfacet
  facet normal 0 0 1
    outer loop
      vertex -0.327917 1.719 1.5
      vertex -0.749525 3.92915 1.5
      vertex -0.745113 1.58345 1.5
    endloop
  endfacet
  facet normal -0 0 1
    outer loop
      vertex -1.70312 3.61931 1.5
      vertex -0.745113 1.58345 1.5
      vertex -0.749525 3.92915 1.5
    endloop
  endfacet
  facet normal 0 0 1
    outer loop
      vertex -0.745113 1.58345 1.5
      vertex -1.70312 3.61931 1.5
      vertex -1.11549 1.3484 1.5
    endloop
  endfacet
  facet normal -0 0 1
    outer loop
      vertex -2.5497 3.08205 1.5
      vertex -1.11549 1.3484 1.5
      vertex -1.70312 3.61931 1.5
    endloop
  endfacet
  facet normal 0 0 1
    outer loop
      vertex -1.11549 1.3484 1.5
      vertex -2.5497 3.08205 1.5
      vertex -1.41578 1.02862 1.5
    endloop
  endfacet
  facet normal -0 0 1
    outer loop
      vertex -3.23607 2.35114 1.5
      vertex -1.41578 1.02862 1.5
      vertex -2.5497 3.08205 1.5
    endloop
  endfacet
  facet normal -0 0 1
    outer loop
      vertex -3.71911 1.4725 1.5
      vertex -1.62711 0.644217 1.5
      vertex -3.23607 2.35114 1.5
    endloop
  endfacet
  facet normal 0 0 1
    outer loop
      vertex -1.41578 1.02862 1.5
      vertex -3.23607 2.35114 1.5
      vertex -1.62711 0.644217 1.5
    endloop
  endfacet
  facet normal 0 0 1
    outer loop
      vertex 3.50523 -1.92701 1.5
      vertex 1.53354 -0.843068 1.5
      vertex 2.91587 -2.73819 1.5
    endloop
  endfacet
  facet normal -0 0 1
    outer loop
      vertex 1.27569 -1.19796 1.5
      vertex 2.91587 -2.73819 1.5
      vertex 1.53354 -0.843068 1.5
    endloop
  endfacet
  facet normal 0 0 1
    outer loop
      vertex 2.91587 -2.73819 1.5
      vertex 1.27569 -1.19796 1.5
      vertex 2.14331 -3.37731 1.5
    endloop
  endfacet
  facet normal -0 0 1
    outer loop
      vertex 0.937696 -1.47757 1.5
      vertex 2.14331 -3.37731 1.5
      vertex 1.27569 -1.19796 1.5
    endloop
  endfacet
  facet normal 0 0 1
    outer loop
      vertex 2.14331 -3.37731 1.5
      vertex 0.937696 -1.47757 1.5
      vertex 1.23607 -3.80423 1.5
    endloop
  endfacet
  facet normal -0 0 1
    outer loop
      vertex 0.540779 -1.66435 1.5
      vertex 1.23607 -3.80423 1.5
      vertex 0.937696 -1.47757 1.5
    endloop
  endfacet
  facet normal 0 0 1
    outer loop
      vertex 0.540779 -1.66435 1.5
      vertex 0.251162 -3.99211 1.5
      vertex 1.23607 -3.80423 1.5
    endloop
  endfacet
  facet normal -0 0 1
    outer loop
      vertex 0.109883 -1.74655 1.5
      vertex 0.251162 -3.99211 1.5
      vertex 0.540779 -1.66435 1.5
    endloop
  endfacet
  facet normal 0 0 1
    outer loop
      vertex -0.327917 -1.719 1.5
      vertex 0.251162 -3.99211 1.5
      vertex 0.109883 -1.74655 1.5
    endloop
  endfacet
  facet normal 0 0 1
    outer loop
      vertex -0.749525 -3.92915 1.5
      vertex -0.327917 -1.719 1.5
      vertex -0.745113 -1.58345 1.5
    endloop
  endfacet
  facet normal 0 0 1
    outer loop
      vertex -0.327917 -1.719 1.5
      vertex -0.749525 -3.92915 1.5
      vertex 0.251162 -3.99211 1.5
    endloop
  endfacet
  facet normal 0 0 1
    outer loop
      vertex -1.70312 -3.61931 1.5
      vertex -0.745113 -1.58345 1.5
      vertex -1.11549 -1.3484 1.5
    endloop
  endfacet
  facet normal 0 0 1
    outer loop
      vertex -2.5497 -3.08205 1.5
      vertex -1.11549 -1.3484 1.5
      vertex -1.41578 -1.02862 1.5
    endloop
  endfacet
  facet normal 0 0 1
    outer loop
      vertex -3.23607 -2.35114 1.5
      vertex -1.41578 -1.02862 1.5
      vertex -1.62711 -0.644217 1.5
    endloop
  endfacet
  facet normal 0 0 1
    outer loop
      vertex -0.745113 -1.58345 1.5
      vertex -1.70312 -3.61931 1.5
      vertex -0.749525 -3.92915 1.5
    endloop
  endfacet
  facet normal 0 0 1
    outer loop
      vertex -3.71911 -1.4725 1.5
      vertex -1.62711 -0.644217 1.5
      vertex -1.7362 -0.219333 1.5
    endloop
  endfacet
  facet normal 0 0 1
    outer loop
      vertex -1.62711 0.644217 1.5
      vertex -3.71911 1.4725 1.5
      vertex -1.7362 0.219333 1.5
    endloop
  endfacet
  facet normal 0 0 1
    outer loop
      vertex -1.11549 -1.3484 1.5
      vertex -2.5497 -3.08205 1.5
      vertex -1.70312 -3.61931 1.5
    endloop
  endfacet
  facet normal -0 0 1
    outer loop
      vertex -3.96846 0.501332 1.5
      vertex -1.7362 0.219333 1.5
      vertex -3.71911 1.4725 1.5
    endloop
  endfacet
  facet normal 0 0 1
    outer loop
      vertex -1.41578 -1.02862 1.5
      vertex -3.23607 -2.35114 1.5
      vertex -2.5497 -3.08205 1.5
    endloop
  endfacet
  facet normal 0 0 1
    outer loop
      vertex -1.7362 0.219333 1.5
      vertex -3.96846 0.501332 1.5
      vertex -1.7362 -0.219333 1.5
    endloop
  endfacet
  facet normal 0 0 1
    outer loop
      vertex -1.62711 -0.644217 1.5
      vertex -3.71911 -1.4725 1.5
      vertex -3.23607 -2.35114 1.5
    endloop
  endfacet
  facet normal 0 0 1
    outer loop
      vertex -3.96846 -0.501332 1.5
      vertex -1.7362 -0.219333 1.5
      vertex -3.96846 0.501332 1.5
    endloop
  endfacet
  facet normal 0 0 1
    outer loop
      vertex -1.7362 -0.219333 1.5
      vertex -3.96846 -0.501332 1.5
      vertex -3.71911 -1.4725 1.5
    endloop
  endfacet
  facet normal -1 0 0
    outer loop
      vertex -3.96846 -0.501332 -1.5
      vertex -3.96846 0.501332 1.5
      vertex -3.96846 0.501332 -1.5
    endloop
  endfacet
  facet normal -1 -0 0
    outer loop
      vertex -3.96846 0.501332 1.5
      vertex -3.96846 -0.501332 -1.5
      vertex -3.96846 -0.501332 1.5
    endloop
  endfacet
  facet normal -0.0627904 -0.998027 0
    outer loop
      vertex -0.749525 -3.92915 -1.5
      vertex 0.251162 -3.99211 1.5
      vertex -0.749525 -3.92915 1.5
    endloop
  endfacet
  facet normal -0.0627904 -0.998027 -0
    outer loop
      vertex 0.251162 -3.99211 1.5
      vertex -0.749525 -3.92915 -1.5
      vertex 0.251162 -3.99211 -1.5
    endloop
  endfacet
  facet normal 0.42578 -0.904827 0
    outer loop
      vertex 1.23607 -3.80423 -1.5
      vertex 2.14331 -3.37731 1.5
      vertex 1.23607 -3.80423 1.5
    endloop
  endfacet
  facet normal 0.42578 -0.904827 0
    outer loop
      vertex 2.14331 -3.37731 1.5
      vertex 1.23607 -3.80423 -1.5
      vertex 2.14331 -3.37731 -1.5
    endloop
  endfacet
  facet normal 0.187381 0.982287 -0
    outer loop
      vertex 1.23607 3.80423 -1.5
      vertex 0.251162 3.99211 1.5
      vertex 1.23607 3.80423 1.5
    endloop
  endfacet
  facet normal 0.187381 0.982287 0
    outer loop
      vertex 0.251162 3.99211 1.5
      vertex 1.23607 3.80423 -1.5
      vertex 0.251162 3.99211 -1.5
    endloop
  endfacet
  facet normal -0.0627904 0.998027 0
    outer loop
      vertex 0.251162 3.99211 -1.5
      vertex -0.749525 3.92915 1.5
      vertex 0.251162 3.99211 1.5
    endloop
  endfacet
  facet normal -0.0627904 0.998027 0
    outer loop
      vertex -0.749525 3.92915 1.5
      vertex 0.251162 3.99211 -1.5
      vertex -0.749525 3.92915 -1.5
    endloop
  endfacet
  facet normal 0.42578 0.904827 -0
    outer loop
      vertex 2.14331 3.37731 -1.5
      vertex 1.23607 3.80423 1.5
      vertex 2.14331 3.37731 1.5
    endloop
  endfacet
  facet normal 0.42578 0.904827 0
    outer loop
      vertex 1.23607 3.80423 1.5
      vertex 2.14331 3.37731 -1.5
      vertex 1.23607 3.80423 -1.5
    endloop
  endfacet
  facet normal 0.992115 -0.125334 0
    outer loop
      vertex 3.87433 -0.994759 1.5
      vertex 4 0 -1.5
      vertex 4 0 1.5
    endloop
  endfacet
  facet normal 0.992115 -0.125334 0
    outer loop
      vertex 4 0 -1.5
      vertex 3.87433 -0.994759 1.5
      vertex 3.87433 -0.994759 -1.5
    endloop
  endfacet
  facet normal -0.309017 0.951056 0
    outer loop
      vertex -0.749525 3.92915 -1.5
      vertex -1.70312 3.61931 1.5
      vertex -0.749525 3.92915 1.5
    endloop
  endfacet
  facet normal -0.309017 0.951056 0
    outer loop
      vertex -1.70312 3.61931 1.5
      vertex -0.749525 3.92915 -1.5
      vertex -1.70312 3.61931 -1.5
    endloop
  endfacet
  facet normal -0.728968 0.684548 0
    outer loop
      vertex -3.23607 2.35114 -1.5
      vertex -2.5497 3.08205 1.5
      vertex -2.5497 3.08205 -1.5
    endloop
  endfacet
  facet normal -0.728968 0.684548 0
    outer loop
      vertex -2.5497 3.08205 1.5
      vertex -3.23607 2.35114 -1.5
      vertex -3.23607 2.35114 1.5
    endloop
  endfacet
  facet normal -0.968583 0.248689 0
    outer loop
      vertex -3.96846 0.501332 -1.5
      vertex -3.71911 1.4725 1.5
      vertex -3.71911 1.4725 -1.5
    endloop
  endfacet
  facet normal -0.968583 0.248689 0
    outer loop
      vertex -3.71911 1.4725 1.5
      vertex -3.96846 0.501332 -1.5
      vertex -3.96846 0.501332 1.5
    endloop
  endfacet
  facet normal -0.535827 -0.844328 0
    outer loop
      vertex -2.5497 -3.08205 -1.5
      vertex -1.70312 -3.61931 1.5
      vertex -2.5497 -3.08205 1.5
    endloop
  endfacet
  facet normal -0.535827 -0.844328 -0
    outer loop
      vertex -1.70312 -3.61931 1.5
      vertex -2.5497 -3.08205 -1.5
      vertex -1.70312 -3.61931 -1.5
    endloop
  endfacet
  facet normal -0.728968 -0.684548 0
    outer loop
      vertex -2.5497 -3.08205 -1.5
      vertex -3.23607 -2.35114 1.5
      vertex -3.23607 -2.35114 -1.5
    endloop
  endfacet
  facet normal -0.728968 -0.684548 0
    outer loop
      vertex -3.23607 -2.35114 1.5
      vertex -2.5497 -3.08205 -1.5
      vertex -2.5497 -3.08205 1.5
    endloop
  endfacet
  facet normal -0.535827 0.844328 0
    outer loop
      vertex -1.70312 3.61931 -1.5
      vertex -2.5497 3.08205 1.5
      vertex -1.70312 3.61931 1.5
    endloop
  endfacet
  facet normal -0.535827 0.844328 0
    outer loop
      vertex -2.5497 3.08205 1.5
      vertex -1.70312 3.61931 -1.5
      vertex -2.5497 3.08205 -1.5
    endloop
  endfacet
  facet normal 0.187381 -0.982287 0
    outer loop
      vertex 0.251162 -3.99211 -1.5
      vertex 1.23607 -3.80423 1.5
      vertex 0.251162 -3.99211 1.5
    endloop
  endfacet
  facet normal 0.187381 -0.982287 0
    outer loop
      vertex 1.23607 -3.80423 1.5
      vertex 0.251162 -3.99211 -1.5
      vertex 1.23607 -3.80423 -1.5
    endloop
  endfacet
  facet normal -0.876307 -0.481754 0
    outer loop
      vertex -3.23607 -2.35114 -1.5
      vertex -3.71911 -1.4725 1.5
      vertex -3.71911 -1.4725 -1.5
    endloop
  endfacet
  facet normal -0.876307 -0.481754 0
    outer loop
      vertex -3.71911 -1.4725 1.5
      vertex -3.23607 -2.35114 -1.5
      vertex -3.23607 -2.35114 1.5
    endloop
  endfacet
  facet normal 0.637424 -0.770514 0
    outer loop
      vertex 2.14331 -3.37731 -1.5
      vertex 2.91587 -2.73819 1.5
      vertex 2.14331 -3.37731 1.5
    endloop
  endfacet
  facet normal 0.637424 -0.770514 0
    outer loop
      vertex 2.91587 -2.73819 1.5
      vertex 2.14331 -3.37731 -1.5
      vertex 2.91587 -2.73819 -1.5
    endloop
  endfacet
  facet normal -0.309017 -0.951056 0
    outer loop
      vertex -1.70312 -3.61931 -1.5
      vertex -0.749525 -3.92915 1.5
      vertex -1.70312 -3.61931 1.5
    endloop
  endfacet
  facet normal -0.309017 -0.951056 -0
    outer loop
      vertex -0.749525 -3.92915 1.5
      vertex -1.70312 -3.61931 -1.5
      vertex -0.749525 -3.92915 -1.5
    endloop
  endfacet
  facet normal 0.876306 -0.481754 0
    outer loop
      vertex -1.62711 0.644217 1.5
      vertex -1.41578 1.02862 -1.5
      vertex -1.41578 1.02862 1.5
    endloop
  endfacet
  facet normal 0.876306 -0.481754 0
    outer loop
      vertex -1.41578 1.02862 -1.5
      vertex -1.62711 0.644217 1.5
      vertex -1.62711 0.644217 -1.5
    endloop
  endfacet
  facet normal -0.187382 -0.982287 0
    outer loop
      vertex 0.109883 1.74655 -1.5
      vertex 0.540779 1.66435 1.5
      vertex 0.109883 1.74655 1.5
    endloop
  endfacet
  facet normal -0.187382 -0.982287 -0
    outer loop
      vertex 0.540779 1.66435 1.5
      vertex 0.109883 1.74655 -1.5
      vertex 0.540779 1.66435 -1.5
    endloop
  endfacet
  facet normal -0.929777 -0.368124 0
    outer loop
      vertex 1.69502 0.435206 -1.5
      vertex 1.53354 0.843068 1.5
      vertex 1.53354 0.843068 -1.5
    endloop
  endfacet
  facet normal -0.929777 -0.368124 0
    outer loop
      vertex 1.53354 0.843068 1.5
      vertex 1.69502 0.435206 -1.5
      vertex 1.69502 0.435206 1.5
    endloop
  endfacet
  facet normal -0.425779 0.904827 0
    outer loop
      vertex 0.937696 -1.47757 -1.5
      vertex 0.540779 -1.66435 1.5
      vertex 0.937696 -1.47757 1.5
    endloop
  endfacet
  facet normal -0.425779 0.904827 0
    outer loop
      vertex 0.540779 -1.66435 1.5
      vertex 0.937696 -1.47757 -1.5
      vertex 0.540779 -1.66435 -1.5
    endloop
  endfacet
  facet normal -0.637424 0.770514 0
    outer loop
      vertex 1.27569 -1.19796 -1.5
      vertex 0.937696 -1.47757 1.5
      vertex 1.27569 -1.19796 1.5
    endloop
  endfacet
  facet normal -0.637424 0.770514 0
    outer loop
      vertex 0.937696 -1.47757 1.5
      vertex 1.27569 -1.19796 -1.5
      vertex 0.937696 -1.47757 -1.5
    endloop
  endfacet
  facet normal 1 -0 0
    outer loop
      vertex -1.7362 -0.219333 1.5
      vertex -1.7362 0.219333 -1.5
      vertex -1.7362 0.219333 1.5
    endloop
  endfacet
  facet normal 1 0 0
    outer loop
      vertex -1.7362 0.219333 -1.5
      vertex -1.7362 -0.219333 1.5
      vertex -1.7362 -0.219333 -1.5
    endloop
  endfacet
  facet normal -0.992114 0.125335 0
    outer loop
      vertex 1.69502 -0.435206 -1.5
      vertex 1.75 0 1.5
      vertex 1.75 0 -1.5
    endloop
  endfacet
  facet normal -0.992114 0.125335 0
    outer loop
      vertex 1.75 0 1.5
      vertex 1.69502 -0.435206 -1.5
      vertex 1.69502 -0.435206 1.5
    endloop
  endfacet
  facet normal 0.968583 0.24869 0
    outer loop
      vertex -1.62711 -0.644217 1.5
      vertex -1.7362 -0.219333 -1.5
      vertex -1.7362 -0.219333 1.5
    endloop
  endfacet
  facet normal 0.968583 0.24869 0
    outer loop
      vertex -1.7362 -0.219333 -1.5
      vertex -1.62711 -0.644217 1.5
      vertex -1.62711 -0.644217 -1.5
    endloop
  endfacet
  facet normal -0.809018 0.587784 0
    outer loop
      vertex 1.27569 -1.19796 -1.5
      vertex 1.53354 -0.843068 1.5
      vertex 1.53354 -0.843068 -1.5
    endloop
  endfacet
  facet normal -0.809018 0.587784 0
    outer loop
      vertex 1.53354 -0.843068 1.5
      vertex 1.27569 -1.19796 -1.5
      vertex 1.27569 -1.19796 1.5
    endloop
  endfacet
  facet normal -0.187382 0.982287 0
    outer loop
      vertex 0.540779 -1.66435 -1.5
      vertex 0.109883 -1.74655 1.5
      vertex 0.540779 -1.66435 1.5
    endloop
  endfacet
  facet normal -0.187382 0.982287 0
    outer loop
      vertex 0.109883 -1.74655 1.5
      vertex 0.540779 -1.66435 -1.5
      vertex 0.109883 -1.74655 -1.5
    endloop
  endfacet
  facet normal -0.637424 -0.770514 0
    outer loop
      vertex 0.937696 1.47757 -1.5
      vertex 1.27569 1.19796 1.5
      vertex 0.937696 1.47757 1.5
    endloop
  endfacet
  facet normal -0.637424 -0.770514 -0
    outer loop
      vertex 1.27569 1.19796 1.5
      vertex 0.937696 1.47757 -1.5
      vertex 1.27569 1.19796 -1.5
    endloop
  endfacet
  facet normal -0.992114 -0.125335 0
    outer loop
      vertex 1.75 0 -1.5
      vertex 1.69502 0.435206 1.5
      vertex 1.69502 0.435206 -1.5
    endloop
  endfacet
  facet normal -0.992114 -0.125335 0
    outer loop
      vertex 1.69502 0.435206 1.5
      vertex 1.75 0 -1.5
      vertex 1.75 0 1.5
    endloop
  endfacet
  facet normal -0.809018 -0.587784 0
    outer loop
      vertex 1.53354 0.843068 -1.5
      vertex 1.27569 1.19796 1.5
      vertex 1.27569 1.19796 -1.5
    endloop
  endfacet
  facet normal -0.809018 -0.587784 0
    outer loop
      vertex 1.27569 1.19796 1.5
      vertex 1.53354 0.843068 -1.5
      vertex 1.53354 0.843068 1.5
    endloop
  endfacet
  facet normal 0.309017 -0.951057 0
    outer loop
      vertex -0.745113 1.58345 -1.5
      vertex -0.327917 1.719 1.5
      vertex -0.745113 1.58345 1.5
    endloop
  endfacet
  facet normal 0.309017 -0.951057 0
    outer loop
      vertex -0.327917 1.719 1.5
      vertex -0.745113 1.58345 -1.5
      vertex -0.327917 1.719 -1.5
    endloop
  endfacet
  facet normal 0.0627926 -0.998027 0
    outer loop
      vertex -0.327917 1.719 -1.5
      vertex 0.109883 1.74655 1.5
      vertex -0.327917 1.719 1.5
    endloop
  endfacet
  facet normal 0.0627926 -0.998027 0
    outer loop
      vertex 0.109883 1.74655 1.5
      vertex -0.327917 1.719 -1.5
      vertex 0.109883 1.74655 -1.5
    endloop
  endfacet
  facet normal 0.0627926 0.998027 -0
    outer loop
      vertex 0.109883 -1.74655 -1.5
      vertex -0.327917 -1.719 1.5
      vertex 0.109883 -1.74655 1.5
    endloop
  endfacet
  facet normal 0.0627926 0.998027 0
    outer loop
      vertex -0.327917 -1.719 1.5
      vertex 0.109883 -1.74655 -1.5
      vertex -0.327917 -1.719 -1.5
    endloop
  endfacet
  facet normal 0.728969 -0.684547 0
    outer loop
      vertex -1.41578 1.02862 1.5
      vertex -1.11549 1.3484 -1.5
      vertex -1.11549 1.3484 1.5
    endloop
  endfacet
  facet normal 0.728969 -0.684547 0
    outer loop
      vertex -1.11549 1.3484 -1.5
      vertex -1.41578 1.02862 1.5
      vertex -1.41578 1.02862 -1.5
    endloop
  endfacet
  facet normal 0.535827 0.844328 -0
    outer loop
      vertex -0.745113 -1.58345 -1.5
      vertex -1.11549 -1.3484 1.5
      vertex -0.745113 -1.58345 1.5
    endloop
  endfacet
  facet normal 0.535827 0.844328 0
    outer loop
      vertex -1.11549 -1.3484 1.5
      vertex -0.745113 -1.58345 -1.5
      vertex -1.11549 -1.3484 -1.5
    endloop
  endfacet
  facet normal 0.728969 0.684547 0
    outer loop
      vertex -1.11549 -1.3484 1.5
      vertex -1.41578 -1.02862 -1.5
      vertex -1.41578 -1.02862 1.5
    endloop
  endfacet
  facet normal 0.728969 0.684547 0
    outer loop
      vertex -1.41578 -1.02862 -1.5
      vertex -1.11549 -1.3484 1.5
      vertex -1.11549 -1.3484 -1.5
    endloop
  endfacet
  facet normal 0.876306 0.481754 0
    outer loop
      vertex -1.41578 -1.02862 1.5
      vertex -1.62711 -0.644217 -1.5
      vertex -1.62711 -0.644217 1.5
    endloop
  endfacet
  facet normal 0.876306 0.481754 0
    outer loop
      vertex -1.62711 -0.644217 -1.5
      vertex -1.41578 -1.02862 1.5
      vertex -1.41578 -1.02862 -1.5
    endloop
  endfacet
  facet normal -0.425779 -0.904827 0
    outer loop
      vertex 0.540779 1.66435 -1.5
      vertex 0.937696 1.47757 1.5
      vertex 0.540779 1.66435 1.5
    endloop
  endfacet
  facet normal -0.425779 -0.904827 -0
    outer loop
      vertex 0.937696 1.47757 1.5
      vertex 0.540779 1.66435 -1.5
      vertex 0.937696 1.47757 -1.5
    endloop
  endfacet
  facet normal -0.929777 0.368124 0
    outer loop
      vertex 1.53354 -0.843068 -1.5
      vertex 1.69502 -0.435206 1.5
      vertex 1.69502 -0.435206 -1.5
    endloop
  endfacet
  facet normal -0.929777 0.368124 0
    outer loop
      vertex 1.69502 -0.435206 1.5
      vertex 1.53354 -0.843068 -1.5
      vertex 1.53354 -0.843068 1.5
    endloop
  endfacet
  facet normal 0.535827 -0.844328 0
    outer loop
      vertex -1.11549 1.3484 -1.5
      vertex -0.745113 1.58345 1.5
      vertex -1.11549 1.3484 1.5
    endloop
  endfacet
  facet normal 0.535827 -0.844328 0
    outer loop
      vertex -0.745113 1.58345 1.5
      vertex -1.11549 1.3484 -1.5
      vertex -0.745113 1.58345 -1.5
    endloop
  endfacet
  facet normal 0.968583 -0.24869 0
    outer loop
      vertex -1.7362 0.219333 1.5
      vertex -1.62711 0.644217 -1.5
      vertex -1.62711 0.644217 1.5
    endloop
  endfacet
  facet normal 0.968583 -0.24869 0
    outer loop
      vertex -1.62711 0.644217 -1.5
      vertex -1.7362 0.219333 1.5
      vertex -1.7362 0.219333 -1.5
    endloop
  endfacet
  facet normal 0.309017 0.951057 -0
    outer loop
      vertex -0.327917 -1.719 -1.5
      vertex -0.745113 -1.58345 1.5
      vertex -0.327917 -1.719 1.5
    endloop
  endfacet
  facet normal 0.309017 0.951057 0
    outer loop
      vertex -0.745113 -1.58345 1.5
      vertex -0.327917 -1.719 -1.5
      vertex -0.745113 -1.58345 -1.5
    endloop
  endfacet
endsolid OpenSCAD_Model
